<!-- Generated by IcoMoon.io -->
<svg version="1.1" xmlns="http://www.w3.org/2000/svg" width="32" height="32" viewBox="0 0 32 32">
<path fill="none" stroke-linejoin="miter" stroke-linecap="butt" stroke-miterlimit="4" stroke-width="2.4" stroke="#000" d="M16 1.2c8.174 0 14.8 6.626 14.8 14.8s-6.626 14.8-14.8 14.8c-8.174 0-14.8-6.626-14.8-14.8s6.626-14.8 14.8-14.8z"></path>
<path d="M19.97 22.202l-0.766-2.012h-6.519l-0.766 2.056c-0.299 0.802-0.554 1.345-0.766 1.63-0.211 0.277-0.558 0.416-1.039 0.416-0.408 0-0.769-0.149-1.083-0.448s-0.47-0.638-0.47-1.017c0-0.219 0.036-0.445 0.109-0.678s0.193-0.558 0.361-0.973l4.102-10.412c0.117-0.299 0.255-0.656 0.416-1.072 0.168-0.423 0.343-0.773 0.525-1.050 0.19-0.277 0.434-0.499 0.733-0.667 0.306-0.175 0.682-0.263 1.127-0.263 0.452 0 0.828 0.088 1.127 0.263 0.306 0.168 0.551 0.386 0.733 0.656 0.19 0.27 0.346 0.561 0.47 0.875 0.131 0.306 0.295 0.718 0.492 1.236l4.189 10.347c0.328 0.788 0.492 1.36 0.492 1.717 0 0.372-0.157 0.715-0.47 1.028-0.306 0.306-0.678 0.459-1.116 0.459-0.255 0-0.474-0.047-0.656-0.142-0.182-0.088-0.336-0.208-0.459-0.361-0.124-0.16-0.259-0.401-0.405-0.722-0.139-0.328-0.259-0.616-0.361-0.864zM13.539 17.75h4.791l-2.417-6.617-2.373 6.617z"></path>
</svg>
