<!-- Generated by IcoMoon.io -->
<svg version="1.1" xmlns="http://www.w3.org/2000/svg" width="32" height="32" viewBox="0 0 32 32">
<path d="M9.667 16c0-0.552 0.448-1 1-1h10.667c0.552 0 1 0.448 1 1s-0.448 1-1 1h-10.667c-0.552 0-1-0.448-1-1z"></path>
<path d="M16 9.667c0.552 0 1 0.448 1 1v10.667c0 0.552-0.448 1-1 1s-1-0.448-1-1v-10.667c0-0.552 0.448-1 1-1z"></path>
<path d="M4.126 4.126c1.779-1.779 4.442-2.46 7.874-2.46h8c3.432 0 6.095 0.68 7.874 2.46s2.46 4.442 2.46 7.874v8c0 3.432-0.68 6.095-2.46 7.874s-4.442 2.46-7.874 2.46h-8c-3.432 0-6.094-0.68-7.874-2.46s-2.46-4.442-2.46-7.874v-8c0-3.432 0.68-6.094 2.46-7.874zM5.54 5.54c-1.221 1.221-1.874 3.225-1.874 6.46v8c0 3.235 0.653 5.239 1.874 6.46s3.225 1.874 6.46 1.874h8c3.235 0 5.239-0.653 6.46-1.874s1.874-3.225 1.874-6.46v-8c0-3.235-0.653-5.239-1.874-6.46s-3.225-1.874-6.46-1.874h-8c-3.235 0-5.239 0.653-6.46 1.874z"></path>
</svg>
