<!-- Generated by IcoMoon.io -->
<svg version="1.1" xmlns="http://www.w3.org/2000/svg" width="33" height="32" viewBox="0 0 33 32">
<path d="M22.253 2.673h-11.173c-4.853 0-7.747 2.893-7.747 7.747v11.16c0 4.867 2.893 7.76 7.747 7.76h11.16c4.853 0 7.747-2.893 7.747-7.747v-11.173c0.013-4.853-2.88-7.747-7.733-7.747zM10.84 24.207c0 0.547-0.453 1-1 1s-1-0.453-1-1v-2.76c0-0.547 0.453-1 1-1s1 0.453 1 1v2.76zM17.667 24.207c0 0.547-0.453 1-1 1s-1-0.453-1-1v-5.533c0-0.547 0.453-1 1-1s1 0.453 1 1v5.533zM24.493 24.207c0 0.547-0.453 1-1 1s-1-0.453-1-1v-8.293c0-0.547 0.453-1 1-1s1 0.453 1 1v8.293zM24.493 11.7c0 0.547-0.453 1-1 1s-1-0.453-1-1v-1.293c-3.4 3.493-7.653 5.96-12.413 7.147-0.080 0.027-0.16 0.027-0.24 0.027-0.453 0-0.853-0.307-0.973-0.76-0.133-0.533 0.187-1.080 0.733-1.213 4.493-1.12 8.493-3.48 11.667-6.813h-1.667c-0.547 0-1-0.453-1-1s0.453-1 1-1h3.907c0.053 0 0.093 0.027 0.147 0.027 0.067 0.013 0.133 0.013 0.2 0.040s0.12 0.067 0.187 0.107c0.040 0.027 0.080 0.040 0.12 0.067 0.013 0.013 0.013 0.027 0.027 0.027 0.053 0.053 0.093 0.107 0.133 0.16s0.080 0.093 0.093 0.147c0.027 0.053 0.027 0.107 0.040 0.173s0.040 0.133 0.040 0.213c0 0.013 0.013 0.027 0.013 0.040v3.907h-0.013z"></path>
</svg>
