<!-- Generated by IcoMoon.io -->
<svg version="1.1" xmlns="http://www.w3.org/2000/svg" width="33" height="32" viewBox="0 0 33 32">
<path d="M22.253 2.673h-11.173c-4.853 0-7.747 2.893-7.747 7.747v11.16c0 4.867 2.893 7.76 7.747 7.76h11.16c4.853 0 7.747-2.893 7.747-7.747v-11.173c0.013-4.853-2.88-7.747-7.733-7.747zM24.467 18.807c-0.053 0.12-0.12 0.227-0.213 0.32l-4.053 4.053c-0.2 0.2-0.453 0.293-0.707 0.293s-0.507-0.093-0.707-0.293c-0.387-0.387-0.387-1.027 0-1.413l2.347-2.347h-11.333c-0.547 0-1-0.453-1-1s0.453-1 1-1h13.747c0.133 0 0.253 0.027 0.387 0.080 0.24 0.107 0.44 0.293 0.547 0.547 0.080 0.24 0.080 0.52-0.013 0.76zM23.533 14.58h-13.733c-0.133 0-0.253-0.027-0.387-0.080-0.24-0.107-0.44-0.293-0.547-0.547-0.107-0.24-0.107-0.52 0-0.76 0.053-0.12 0.12-0.227 0.213-0.32l4.053-4.053c0.387-0.387 1.027-0.387 1.413 0s0.387 1.027 0 1.413l-2.333 2.347h11.333c0.547 0 1 0.453 1 1s-0.453 1-1.013 1z"></path>
</svg>
