<!-- Generated by IcoMoon.io -->
<svg version="1.1" xmlns="http://www.w3.org/2000/svg" width="32" height="32" viewBox="0 0 32 32">
<path d="M16 3.667c-6.811 0-12.333 5.522-12.333 12.333s5.522 12.333 12.333 12.333c6.811 0 12.333-5.522 12.333-12.333s-5.522-12.333-12.333-12.333zM1.667 16c0-7.916 6.417-14.333 14.333-14.333s14.333 6.417 14.333 14.333c0 7.916-6.417 14.333-14.333 14.333s-14.333-6.417-14.333-14.333z"></path>
<path d="M11.667 16c0-0.552 0.448-1 1-1h8c0.552 0 1 0.448 1 1s-0.448 1-1 1h-8c-0.552 0-1-0.448-1-1z"></path>
<path d="M16.040 11.293c0.391 0.391 0.391 1.024 0 1.414l-3.293 3.293 3.293 3.293c0.391 0.391 0.391 1.024 0 1.414s-1.024 0.391-1.414 0l-4-4c-0.391-0.391-0.391-1.024 0-1.414l4-4c0.391-0.391 1.024-0.391 1.414 0z"></path>
</svg>
