<!-- Generated by IcoMoon.io -->
<svg version="1.1" xmlns="http://www.w3.org/2000/svg" width="32" height="32" viewBox="0 0 32 32">
<title>arrow-right-1</title>
<path d="M18.533 7.2c0.391-0.391 1.024-0.391 1.414 0l8.093 8.093c0.188 0.188 0.293 0.442 0.293 0.707s-0.105 0.52-0.293 0.707l-8.093 8.093c-0.391 0.391-1.024 0.391-1.414 0s-0.39-1.024 0-1.414l7.386-7.386-7.386-7.386c-0.39-0.391-0.39-1.024 0-1.414z"></path>
<path d="M3.667 16c0-0.552 0.448-1 1-1h22.44c0.552 0 1 0.448 1 1s-0.448 1-1 1h-22.44c-0.552 0-1-0.448-1-1z"></path>
</svg>
