<!-- Generated by IcoMoon.io -->
<svg version="1.1" xmlns="http://www.w3.org/2000/svg" width="32" height="32" viewBox="0 0 32 32">
<path d="M16 3.667c0.265 0 0.52 0.105 0.707 0.293l8.093 8.093c0.391 0.391 0.391 1.024 0 1.414s-1.024 0.391-1.414 0l-7.386-7.386-7.386 7.386c-0.391 0.391-1.024 0.391-1.414 0s-0.391-1.024 0-1.414l8.093-8.093c0.188-0.188 0.442-0.293 0.707-0.293z"></path>
<path d="M16 3.893c0.552 0 1 0.448 1 1v22.44c0 0.552-0.448 1-1 1s-1-0.448-1-1v-22.44c0-0.552 0.448-1 1-1z"></path>
</svg>
