<!-- Generated by IcoMoon.io -->
<svg version="1.1" xmlns="http://www.w3.org/2000/svg" width="32" height="32" viewBox="0 0 32 32">
<title>arrow-left-1</title>
<path d="M13.467 7.2c0.391 0.391 0.391 1.024 0 1.414l-7.386 7.386 7.386 7.386c0.391 0.391 0.391 1.024 0 1.414s-1.024 0.391-1.414 0l-8.093-8.093c-0.188-0.187-0.293-0.442-0.293-0.707s0.105-0.52 0.293-0.707l8.093-8.093c0.391-0.391 1.024-0.391 1.414 0z"></path>
<path d="M3.893 16c0-0.552 0.448-1 1-1h22.44c0.552 0 1 0.448 1 1s-0.448 1-1 1h-22.44c-0.552 0-1-0.448-1-1z"></path>
</svg>
