<!-- Generated by IcoMoon.io -->
<svg version="1.1" xmlns="http://www.w3.org/2000/svg" width="32" height="32" viewBox="0 0 32 32">
<title>assistance</title>
<path d="M8.937 5.708c-1.836 1.791-2.93 4.109-2.93 6.271v9.644h-2.689c-1.19 0-2.037-1.045-2.037-2.18v-3.624c0-1.135 0.847-2.18 2.037-2.18h1.222v-1.659c0-2.636 1.315-5.314 3.372-7.321 2.064-2.013 4.93-3.406 8.117-3.406s6.053 1.393 8.117 3.406c2.057 2.006 3.372 4.684 3.372 7.321v5h-1.467v-5c0-2.161-1.093-4.48-2.93-6.271-1.829-1.784-4.341-2.989-7.093-2.989s-5.263 1.205-7.093 2.989zM4.541 15.104h-1.222c-0.244 0-0.57 0.245-0.57 0.714v3.624c0 0.469 0.327 0.714 0.57 0.714h1.222v-5.052z"></path>
<path d="M28.089 15.103h-1.304v-1.467h1.304c1.19 0 2.037 1.046 2.037 2.181v3.624c0 1.135-0.847 2.18-2.037 2.18h-1.304v-1.467h1.304c0.244 0 0.57-0.245 0.57-0.714v-3.624c0-0.469-0.327-0.714-0.57-0.714z"></path>
<path d="M23.445 18.93v-1.952h1.467v1.962c-0.021 2.528-1.284 5.798-3.552 7.503l-0.881-1.172c1.825-1.371 2.947-4.162 2.967-6.34z"></path>
<path d="M12.705 10.552c-0.969-1.25-1.646-2.63-1.646-4.004h1.467c0 0.907 0.459 1.972 1.338 3.105 0.869 1.121 2.091 2.234 3.474 3.224 1.381 0.988 2.899 1.836 4.344 2.435 1.456 0.603 2.785 0.932 3.8 0.932v1.467c-1.286 0-2.819-0.405-4.361-1.044-1.554-0.644-3.17-1.548-4.636-2.597-1.464-1.047-2.801-2.256-3.78-3.518z"></path>
<path d="M8.819 11.616c0.93-1.4 2.171-2.649 3.344-3.138l0.564 1.354c-0.783 0.326-1.823 1.297-2.686 2.595-0.857 1.289-1.426 2.735-1.426 3.898v2.607c0 2.576 1.835 5.8 4.835 7.154l-0.603 1.337c-3.531-1.593-5.699-5.343-5.699-8.491v-2.607c0-1.569 0.735-3.3 1.671-4.71z"></path>
<path d="M15.704 28.141c-0.312 0-0.57 0.258-0.57 0.57s0.258 0.57 0.57 0.57h1.956c0.312 0 0.57-0.258 0.57-0.57s-0.258-0.57-0.57-0.57h-1.956zM13.667 28.711c0-1.122 0.915-2.037 2.037-2.037h1.956c1.122 0 2.037 0.915 2.037 2.037s-0.915 2.037-2.037 2.037h-1.956c-1.122 0-2.037-0.915-2.037-2.037z"></path>
<path d="M27.519 18.934v2.073c0 4.662-3.777 8.438-8.438 8.438h-0.769v-1.467h0.769c3.852 0 6.972-3.12 6.972-6.971v-2.073h1.467z"></path>
</svg>
