<!-- Generated by IcoMoon.io -->
<svg version="1.1" xmlns="http://www.w3.org/2000/svg" width="960" height="1024" viewBox="0 0 960 1024">
<title></title>
<g id="icomoon-ignore">
</g>
<path d="M100.042 132.034c56.938-56.937 142.138-78.706 251.961-78.706h256c109.821 0 195.025 21.769 251.959 78.706 56.941 56.938 78.707 142.138 78.707 251.961v256c0 109.823-21.766 195.026-78.707 251.96-56.934 56.941-142.138 78.707-251.959 78.707h-256c-109.823 0-195.023-21.766-251.961-78.707-56.937-56.934-78.706-142.138-78.706-251.96v-256c0-109.823 21.769-195.023 78.706-251.961zM145.297 177.289c-39.062 39.062-59.961 103.196-59.961 206.706v256c0 103.512 20.899 167.64 59.961 206.706s103.196 59.962 206.706 59.962h256c103.511 0 167.645-20.896 206.705-59.962 39.066-39.066 59.962-103.194 59.962-206.706v-256c0-103.51-20.896-167.644-59.962-206.706-39.059-39.063-103.194-59.961-206.705-59.961h-256c-103.51 0-167.644 20.898-206.706 59.961z"></path>
<path d="M241.070 393.375c0-17.673 14.327-32 32-32h288.853c90.205 0 163.414 73.207 163.414 163.414s-73.21 163.41-163.414 163.41h-209.919c-17.674 0-32-14.323-32-32 0-17.67 14.326-31.997 32-31.997h209.919c54.861 0 99.414-44.553 99.414-99.413s-44.554-99.414-99.414-99.414h-288.853c-17.673 0-32-14.326-32-32z"></path>
<path d="M356.286 302.482c12.497 12.497 12.497 32.758 0 45.255l-44.431 44.431 44.502 44.786c12.457 12.536 12.393 32.797-0.144 45.254s-32.797 12.393-45.254-0.143l-66.987-67.413c-12.429-12.508-12.397-32.714 0.072-45.183l66.987-66.987c12.497-12.497 32.758-12.497 45.255 0z"></path>
</svg>
