<!-- Generated by IcoMoon.io -->
<svg version="1.1" xmlns="http://www.w3.org/2000/svg" width="30" height="32" viewBox="0 0 30 32">
<path d="M3.126 4.126c1.779-1.779 4.442-2.46 7.874-2.46h8c3.432 0 6.095 0.68 7.874 2.46s2.46 4.442 2.46 7.874v8c0 3.432-0.68 6.095-2.46 7.874s-4.442 2.46-7.874 2.46h-8c-3.432 0-6.094-0.68-7.874-2.46s-2.46-4.442-2.46-7.874v-8c0-3.432 0.68-6.094 2.46-7.874zM4.541 5.54c-1.221 1.221-1.874 3.225-1.874 6.46v8c0 3.235 0.653 5.239 1.874 6.46s3.225 1.874 6.46 1.874h8c3.235 0 5.239-0.653 6.46-1.874s1.874-3.225 1.874-6.46v-8c0-3.235-0.653-5.239-1.874-6.46s-3.225-1.874-6.46-1.874h-8c-3.235 0-5.239 0.653-6.46 1.874z"></path>
<path d="M7.533 12.293c0-0.552 0.448-1 1-1h9.027c2.819 0 5.107 2.288 5.107 5.107s-2.288 5.107-5.107 5.107h-6.56c-0.552 0-1-0.448-1-1s0.448-1 1-1h6.56c1.714 0 3.107-1.392 3.107-3.107s-1.392-3.107-3.107-3.107h-9.027c-0.552 0-1-0.448-1-1z"></path>
<path d="M11.134 9.453c0.391 0.391 0.391 1.024 0 1.414l-1.388 1.388 1.391 1.4c0.389 0.392 0.387 1.025-0.005 1.414s-1.025 0.387-1.414-0.004l-2.093-2.107c-0.388-0.391-0.387-1.022 0.002-1.412l2.093-2.093c0.391-0.391 1.024-0.391 1.414 0z"></path>
</svg>
