<!-- Generated by IcoMoon.io -->
<svg version="1.1" xmlns="http://www.w3.org/2000/svg" width="32" height="32" viewBox="0 0 32 32">
<path fill="none" stroke-linejoin="round" stroke-linecap="round" stroke-miterlimit="4" stroke-width="2.1333" stroke="#000" d="M29.013 24.605c0-0.589-0.478-1.067-1.067-1.067h-23.893c-0.589 0-1.067 0.478-1.067 1.067v3.982c0 0.589 0.478 1.067 1.067 1.067h23.893c0.589 0 1.067-0.478 1.067-1.067v-3.982zM3.605 9.036c-0.377 0.175-0.618 0.552-0.618 0.968v2.655c0 0.589 0.478 1.067 1.067 1.067h23.893c0.589 0 1.067-0.478 1.067-1.067v-2.655c0-0.427-0.255-0.813-0.648-0.981l-12.438-5.31c-0.278-0.119-0.593-0.114-0.867 0.013l-11.456 5.31z"></path>
</svg>
