<!-- Generated by IcoMoon.io -->
<svg version="1.1" xmlns="http://www.w3.org/2000/svg" width="32" height="32" viewBox="0 0 32 32">
<title>book</title>
<path d="M1.667 6.213c0-2.167 1.789-3.832 3.962-3.65 2.958 0.24 7.345 1.702 9.853 3.263l0.338 0.203c0.003 0.002 0.018 0.008 0.045 0.015 0.036 0.009 0.083 0.015 0.135 0.015s0.099-0.006 0.135-0.015c0.026-0.006 0.040-0.013 0.044-0.015l0.221-0.143c2.508-1.578 6.915-3.056 9.874-3.31 0.029-0.002 0.057-0.004 0.085-0.004h0.041c2.145-0.156 3.932 1.478 3.932 3.653v16.093c0 1.776-1.408 3.409-3.196 3.632l-0.004 0-0.434 0.053c-2.781 0.371-7.132 1.808-9.583 3.16-0.361 0.206-0.772 0.278-1.125 0.278-0.351 0-0.752-0.072-1.108-0.264l-0.037-0.019c-0.011-0.005-0.022-0.011-0.033-0.017-2.453-1.341-6.802-2.769-9.573-3.139l-0.004-0.001-0.381-0.053c-1.785-0.227-3.189-1.857-3.189-3.631v-16.107zM5.463 4.556c-0.999-0.084-1.796 0.651-1.796 1.657v16.107c0 0.783 0.672 1.551 1.444 1.648l0.013 0.001 0.382 0.053c0.001 0 0.001 0 0.002 0 3.009 0.403 7.58 1.902 10.249 3.358l0.037 0.019c0.012 0.006 0.025 0.013 0.037 0.019 0-0 0.013 0.006 0.041 0.013 0.033 0.007 0.074 0.013 0.12 0.013s0.085-0.005 0.114-0.012c0.015-0.003 0.024-0.007 0.027-0.008l0.010-0.006c2.669-1.473 7.268-2.993 10.298-3.396l0.011-0.001 0.436-0.053c0.001-0 0.001-0 0.001-0 0.771-0.097 1.443-0.865 1.443-1.647v-16.093c0-1.009-0.801-1.742-1.81-1.657-0.028 0.002-0.056 0.003-0.084 0.003h-0.036c-2.64 0.237-6.705 1.603-8.933 3.003l-0.237 0.153c-0.389 0.241-0.84 0.33-1.234 0.33-0.391 0-0.839-0.088-1.227-0.326l-0.343-0.206c-2.239-1.397-6.326-2.758-8.965-2.972l-0.003-0z"></path>
<path d="M16 6.32c0.552 0 1 0.448 1 1v20c0 0.552-0.448 1-1 1s-1-0.448-1-1v-20c0-0.552 0.448-1 1-1z"></path>
<path d="M6.333 11.32c0-0.552 0.448-1 1-1h3c0.552 0 1 0.448 1 1s-0.448 1-1 1h-3c-0.552 0-1-0.448-1-1z"></path>
<path d="M6.333 15.32c0-0.552 0.448-1 1-1h4c0.552 0 1 0.448 1 1s-0.448 1-1 1h-4c-0.552 0-1-0.448-1-1z"></path>
</svg>
