<!-- Generated by IcoMoon.io -->
<svg version="1.1" xmlns="http://www.w3.org/2000/svg" width="32" height="32" viewBox="0 0 32 32">
<path d="M3.164 9.090c1.181-1.404 3.205-2.090 6.169-2.090h13.333c2.964 0 4.988 0.686 6.169 2.090 1.169 1.39 1.28 3.216 1.093 4.918l-1 10.672c-0.147 1.371-0.491 2.874-1.715 3.992-1.215 1.11-3.097 1.662-5.879 1.662h-10.667c-2.782 0-4.665-0.552-5.88-1.662-1.224-1.118-1.568-2.621-1.715-3.992l-0.001-0.013-0.999-10.659c-0.187-1.703-0.076-3.529 1.093-4.918zM4.695 10.377c-0.629 0.748-0.806 1.871-0.635 3.42l0.002 0.017 0.999 10.66c0.133 1.239 0.41 2.114 1.074 2.722 0.675 0.617 1.953 1.138 4.531 1.138h10.667c2.577 0 3.855-0.521 4.531-1.138 0.665-0.607 0.941-1.483 1.074-2.722l1.001-10.677c0.171-1.548-0.005-2.672-0.635-3.42-0.619-0.736-1.909-1.377-4.638-1.377h-13.333c-2.729 0-4.019 0.641-4.638 1.377z"></path>
<path d="M11.725 5.401c-0.057 0.434-0.058 0.927-0.058 1.533v1.067c0 0.552-0.448 1-1 1s-1-0.448-1-1v-1.101c0-0.565 0-1.181 0.075-1.757 0.078-0.596 0.245-1.23 0.636-1.795 0.822-1.19 2.329-1.68 4.556-1.68h2.133c2.227 0 3.734 0.49 4.556 1.68 0.391 0.566 0.558 1.199 0.636 1.795 0.075 0.576 0.075 1.192 0.075 1.757v1.101c0 0.552-0.448 1-1 1s-1-0.448-1-1v-1.067c0-0.606-0.002-1.099-0.058-1.533-0.055-0.425-0.155-0.711-0.298-0.917-0.244-0.354-0.871-0.817-2.911-0.817h-2.133c-2.039 0-2.666 0.463-2.911 0.817-0.142 0.206-0.242 0.492-0.298 0.917z"></path>
<path d="M14.334 17.001c-0.001 0.095-0.001 0.204-0.001 0.332v1.373c0 0.375 0.003 0.651 0.036 0.886 0.031 0.225 0.081 0.335 0.123 0.394 0.047 0.066 0.282 0.347 1.507 0.347 1.231 0 1.463-0.283 1.509-0.349 0.043-0.061 0.092-0.172 0.123-0.4 0.032-0.237 0.035-0.514 0.035-0.892v-1.36c0-0.129 0-0.237-0.001-0.332-0.095-0.001-0.204-0.001-0.332-0.001h-2.667c-0.129 0-0.237 0-0.332 0.001zM14.623 15c0.015 0 0.029 0 0.044 0h2.667c0.015 0 0.029 0 0.044 0 0.295 0 0.594 0 0.837 0.027 0.249 0.028 0.661 0.101 0.992 0.433s0.405 0.744 0.433 0.993c0.027 0.244 0.027 0.543 0.027 0.837 0 0.015 0 0.029 0 0.044v1.375c0 0.346 0 0.756-0.053 1.145-0.055 0.403-0.174 0.861-0.467 1.279-0.624 0.891-1.726 1.201-3.147 1.201-1.414 0-2.513-0.306-3.139-1.19-0.294-0.416-0.416-0.872-0.473-1.275-0.055-0.394-0.055-0.81-0.055-1.161v-1.373c0-0.015 0-0.029 0-0.044 0-0.295 0-0.594 0.027-0.837 0.028-0.249 0.101-0.661 0.433-0.993s0.744-0.405 0.993-0.433c0.244-0.027 0.543-0.027 0.837-0.027z"></path>
<path d="M29.675 14.079c0.325 0.447 0.226 1.072-0.221 1.397-3.221 2.343-6.902 3.737-10.663 4.21-0.548 0.069-1.048-0.319-1.117-0.867s0.319-1.048 0.867-1.117c3.439-0.433 6.798-1.706 9.737-3.843 0.447-0.325 1.072-0.226 1.397 0.221z"></path>
<path d="M2.668 14.462c0.312-0.456 0.934-0.572 1.39-0.26 2.865 1.961 6.096 3.143 9.387 3.511 0.549 0.061 0.944 0.556 0.882 1.105s-0.556 0.944-1.105 0.883c-3.616-0.405-7.159-1.703-10.294-3.849-0.456-0.312-0.572-0.934-0.26-1.39z"></path>
</svg>
