<!-- Generated by IcoMoon.io -->
<svg version="1.1" xmlns="http://www.w3.org/2000/svg" width="32" height="32" viewBox="0 0 32 32">
<title>broken-glass</title>
<path d="M9.21 8.337c0.15 0.011 0.263 0.142 0.251 0.292l-0.154 2.070c-0.009 0.12 0.041 0.237 0.133 0.314l1.018 0.848c0.209 0.174 0.33 0.433 0.33 0.705v0.718c0 0.384-0.239 0.727-0.599 0.86l-2.103 0.779-2 0.668c-0.143 0.048-0.297-0.029-0.345-0.172s0.029-0.297 0.172-0.345l1.702-0.568-0.458-0.915c-0.064-0.127-0.097-0.268-0.097-0.411v-1.203c0-0.15 0.122-0.273 0.272-0.273s0.272 0.122 0.272 0.273v1.203c0 0.058 0.013 0.115 0.039 0.167l0.489 0.978 1.866-0.691c0.146-0.054 0.243-0.193 0.243-0.349v-0.718c0-0.111-0.049-0.215-0.134-0.286l-1.018-0.848c-0.228-0.19-0.35-0.478-0.328-0.773l0.154-2.070c0.011-0.15 0.142-0.263 0.292-0.251zM23.071 8.565c0.123 0.086 0.154 0.256 0.068 0.379l-0.919 1.317c-0.058 0.083-0.079 0.186-0.060 0.285l0.213 1.087c0.052 0.264-0.015 0.537-0.183 0.748l-1.143 1.435c-0.027 0.033-0.047 0.071-0.061 0.111l-0.126 0.369-0.189 1.588c-0.014 0.117 0.028 0.233 0.113 0.314l0.856 0.814c0.109 0.104 0.113 0.276 0.010 0.385s-0.276 0.113-0.385 0.010l-0.856-0.814c-0.21-0.199-0.313-0.486-0.279-0.774l0.149-1.249-1.651 0.309c-0.105 0.020-0.196 0.083-0.251 0.175l-0.926 1.543c-0.077 0.129-0.245 0.171-0.374 0.093s-0.171-0.245-0.093-0.374l0.926-1.543c0.135-0.225 0.36-0.382 0.618-0.43l1.86-0.347 0.084-0.246c0.034-0.099 0.085-0.192 0.15-0.274l1.143-1.436c0.068-0.085 0.095-0.196 0.074-0.304l-0.213-1.087c-0.048-0.244 0.006-0.497 0.148-0.701l0.919-1.317c0.086-0.123 0.256-0.154 0.379-0.068z"></path>
<path d="M6.070 8.142c0.298-0.643 1.006-0.971 1.679-0.81 1.879 0.447 5.505 1.139 8.427 1.139 2.889 0 6.218-0.676 7.941-1.121 0.676-0.175 1.398 0.145 1.705 0.794l5.041 10.667c0.349 0.738 0.030 1.666-0.794 1.967-2.765 1.010-9.176 2.637-13.893 2.637-4.726 0-11.357-1.634-14.231-2.641-0.83-0.291-1.165-1.22-0.819-1.967l4.943-10.665zM7.497 8.952l-4.798 10.352c2.882 0.977 9.114 2.476 13.478 2.476 4.346 0 10.355-1.487 13.119-2.462l-4.894-10.355c-1.815 0.461-5.208 1.141-8.225 1.141-3.047 0-6.724-0.695-8.68-1.153z"></path>
</svg>
