<!-- Generated by IcoMoon.io -->
<svg version="1.1" xmlns="http://www.w3.org/2000/svg" width="32" height="32" viewBox="0 0 32 32">
<path d="M4.093 4.092c-0.226 0.226-0.425 0.644-0.425 1.441v15.6c0 0.797 0.2 1.216 0.425 1.441s0.644 0.426 1.441 0.426h3.4c0.552 0 1 0.448 1 1s-0.448 1-1 1h-3.4c-1.109 0-2.124-0.28-2.855-1.011s-1.011-1.746-1.011-2.855v-15.6c0-1.109 0.28-2.124 1.011-2.855s1.746-1.011 2.855-1.011h5.733c1.109 0 2.124 0.28 2.855 1.011s1.011 1.746 1.011 2.855v2.467c0 0.552-0.448 1-1 1s-1-0.448-1-1v-2.467c0-0.797-0.2-1.216-0.425-1.441s-0.644-0.425-1.441-0.425h-5.733c-0.797 0-1.216 0.2-1.441 0.425z"></path>
<path d="M10.449 9.515c-0.285 0.285-0.515 0.794-0.515 1.711v14.88c0 0.918 0.23 1.426 0.515 1.711s0.794 0.515 1.711 0.515h7.787c0.918 0 1.421-0.23 1.702-0.513 0.283-0.285 0.511-0.793 0.511-1.714v-14.88c0-0.921-0.228-1.429-0.511-1.713-0.281-0.283-0.785-0.513-1.702-0.513h-7.787c-0.918 0-1.426 0.23-1.711 0.515zM9.035 8.101c0.791-0.791 1.896-1.101 3.125-1.101h7.787c1.229 0 2.332 0.31 3.121 1.103 0.787 0.792 1.092 1.897 1.092 3.123v14.88c0 1.226-0.305 2.331-1.092 3.123-0.788 0.793-1.892 1.103-3.121 1.103h-7.787c-1.229 0-2.334-0.31-3.125-1.101s-1.101-1.896-1.101-3.126v-14.88c0-1.229 0.31-2.334 1.101-3.125z"></path>
<path d="M19.293 4.092c-0.226 0.226-0.425 0.644-0.425 1.441v2.467c0 0.552-0.448 1-1 1s-1-0.448-1-1v-2.467c0-1.109 0.28-2.124 1.011-2.855s1.746-1.011 2.855-1.011h5.733c1.109 0 2.124 0.28 2.855 1.011s1.011 1.746 1.011 2.855v15.6c0 1.109-0.28 2.124-1.011 2.855s-1.746 1.011-2.855 1.011h-3.307c-0.552 0-1-0.448-1-1s0.448-1 1-1h3.307c0.797 0 1.216-0.2 1.441-0.426s0.425-0.644 0.425-1.441v-15.6c0-0.797-0.2-1.216-0.425-1.441s-0.644-0.425-1.441-0.425h-5.733c-0.797 0-1.216 0.2-1.441 0.425z"></path>
<path d="M12.336 14.667c0-0.552 0.448-1 1-1h5.333c0.552 0 1 0.448 1 1s-0.448 1-1 1h-5.333c-0.552 0-1-0.448-1-1z"></path>
<path d="M12.336 18.667c0-0.552 0.448-1 1-1h5.333c0.552 0 1 0.448 1 1s-0.448 1-1 1h-5.333c-0.552 0-1-0.448-1-1z"></path>
<path d="M16 24.333c0.552 0 1 0.448 1 1v4c0 0.552-0.448 1-1 1s-1-0.448-1-1v-4c0-0.552 0.448-1 1-1z"></path>
</svg>
