<!-- Generated by IcoMoon.io -->
<svg version="1.1" xmlns="http://www.w3.org/2000/svg" width="32" height="32" viewBox="0 0 32 32">
<path fill="none" stroke-linejoin="round" stroke-linecap="round" stroke-miterlimit="10" stroke-width="2" stroke="#000" d="M1.334 29.336h29.333"></path>
<path fill="none" stroke-linejoin="round" stroke-linecap="round" stroke-miterlimit="10" stroke-width="2" stroke="#000" d="M26.373 29.345v-5.947"></path>
<path fill="none" stroke-linejoin="round" stroke-linecap="round" stroke-miterlimit="10" stroke-width="2" stroke="#000" d="M26.4 14.523c-1.627 0-2.933 1.307-2.933 2.933v3.027c0 1.627 1.307 2.933 2.933 2.933s2.933-1.307 2.933-2.933v-3.027c0-1.627-1.307-2.933-2.933-2.933z"></path>
<path fill="none" stroke-linejoin="round" stroke-linecap="round" stroke-miterlimit="10" stroke-width="2" stroke="#000" d="M2.801 29.336v-21.293c0-2.68 1.333-4.027 3.987-4.027h8.307c2.653 0 3.973 1.347 3.973 4.027v21.293"></path>
<path fill="none" stroke-linejoin="round" stroke-linecap="round" stroke-miterlimit="10" stroke-width="2" stroke="#000" d="M7.732 11h6.6"></path>
<path fill="none" stroke-linejoin="round" stroke-linecap="round" stroke-miterlimit="10" stroke-width="2" stroke="#000" d="M7.732 16h6.6"></path>
<path fill="none" stroke-linejoin="round" stroke-linecap="round" stroke-miterlimit="10" stroke-width="2" stroke="#000" d="M11 29.336v-5"></path>
</svg>
