<!-- Generated by IcoMoon.io -->
<svg version="1.1" xmlns="http://www.w3.org/2000/svg" width="32" height="32" viewBox="0 0 960 1024">
<title></title>
<g id="icomoon-ignore">
</g>
<path d="M98.989 130.958c-7.217 7.218-13.615 20.603-13.615 46.12v499.197c0 25.517 6.397 38.906 13.615 46.118 7.218 7.219 20.603 13.619 46.12 13.619h108.8c17.673 0 32 14.323 32 32 0 17.67-14.327 32-32 32h-108.8c-35.496 0-67.978-8.966-91.374-32.365-23.396-23.392-32.36-55.878-32.36-91.373v-499.197c0-35.496 8.964-67.979 32.36-91.375s55.879-32.36 91.374-32.36h183.466c35.496 0 67.978 8.964 91.374 32.36s32.358 55.879 32.358 91.375v78.932c0 17.673-14.327 32-32 32s-32-14.327-32-32v-78.932c0-25.518-6.397-38.903-13.613-46.12s-20.601-13.614-46.118-13.614h-183.466c-25.517 0-38.902 6.397-46.12 13.614z"></path>
<path d="M302.369 304.493c-9.133 9.134-16.493 25.395-16.493 54.759v476.159c0 29.37 7.36 45.626 16.493 54.765 9.134 9.133 25.395 16.493 54.759 16.493h249.174c29.364 0 45.468-7.36 54.472-16.422 9.050-9.107 16.352-25.37 16.352-54.835v-476.159c0-29.464-7.302-45.727-16.352-54.829-9.005-9.065-25.108-16.423-54.472-16.423h-249.174c-29.364 0-45.625 7.36-54.759 16.493zM257.114 259.239c25.32-25.319 60.685-35.239 100.014-35.239h249.174c39.33 0 74.639 9.921 99.868 35.309 25.197 25.351 34.957 60.714 34.957 99.943v476.159c0 39.232-9.76 74.592-34.957 99.949-25.229 25.382-60.538 35.309-99.868 35.309h-249.174c-39.329 0-74.694-9.92-100.014-35.238-25.319-25.325-35.238-60.685-35.238-100.019v-476.159c0-39.329 9.919-74.694 35.238-100.013z"></path>
<path d="M585.364 130.958c-7.217 7.217-13.614 20.602-13.614 46.12v78.932c0 17.673-14.326 32-32 32s-32-14.327-32-32v-78.932c0-35.496 8.963-67.978 32.358-91.375s55.878-32.36 91.373-32.36h183.469c35.494 0 67.974 8.964 91.373 32.36s32.358 55.878 32.358 91.375v499.197c0 35.494-8.96 67.981-32.358 91.373-23.398 23.398-55.878 32.365-91.373 32.365h-105.818c-17.67 0-32-14.33-32-32 0-17.677 14.33-32 32-32h105.818c25.517 0 38.899-6.4 46.118-13.619 7.219-7.213 13.613-20.602 13.613-46.118v-499.197c0-25.517-6.394-38.902-13.613-46.12s-20.602-13.614-46.118-13.614h-183.469c-25.517 0-38.901 6.397-46.118 13.614z"></path>
<path d="M362.75 469.344c0-17.674 14.327-32 32-32h170.667c17.673 0 32 14.326 32 32s-14.327 32-32 32h-170.667c-17.673 0-32-14.327-32-32z"></path>
<path d="M362.75 597.344c0-17.674 14.327-32 32-32h170.667c17.673 0 32 14.326 32 32s-14.327 32-32 32h-170.667c-17.673 0-32-14.327-32-32z"></path>
<path d="M480 778.656c17.673 0 32 14.33 32 32v128c0 17.67-14.327 32-32 32s-32-14.33-32-32v-128c0-17.67 14.327-32 32-32z"></path>
</svg>
