<!-- Generated by IcoMoon.io -->
<svg version="1.1" xmlns="http://www.w3.org/2000/svg" width="32" height="32" viewBox="0 0 32 32">
<path d="M19.741 1.858c0.272 0.182 0.418 0.505 0.377 0.833-0.383 3.024 1.222 5.131 3.206 7.736 0.077 0.101 0.155 0.203 0.233 0.306 2.041 2.685 4.271 5.819 3.783 10.633-0.393 3.875-2.459 6.325-4.856 7.778-2.363 1.432-5.050 1.904-6.824 1.904-4.107 0-6.903-1.162-8.67-3.070-1.755-1.896-2.366-4.391-2.396-6.8-0.030-2.411 0.519-4.826 1.186-6.691 0.334-0.935 0.705-1.752 1.063-2.377 0.178-0.312 0.361-0.591 0.544-0.817 0.167-0.206 0.394-0.447 0.678-0.587 0.221-0.109 0.477-0.117 0.704-0.021s0.402 0.285 0.482 0.52c0.887 2.624 1.953 3.521 2.666 3.806-0.401-2.849 0.102-5.357 1.241-7.498 1.277-2.4 3.325-4.285 5.68-5.679 0.282-0.167 0.633-0.157 0.905 0.025zM14.665 8.334c-1.084 2.037-1.511 4.495-0.876 7.416 0.095 0.436-0.153 0.873-0.572 1.011-1.392 0.458-3.505-0.319-5.015-3.557-0.263 0.494-0.545 1.132-0.81 1.873-0.616 1.724-1.111 3.928-1.084 6.079 0.027 2.154 0.572 4.166 1.933 5.636 1.349 1.458 3.63 2.522 7.42 2.522 1.534 0 3.901-0.419 5.944-1.657 2.010-1.218 3.703-3.22 4.032-6.467 0.414-4.089-1.417-6.743-3.436-9.399-0.112-0.147-0.224-0.294-0.338-0.442-1.583-2.069-3.269-4.272-3.489-7.146-1.561 1.138-2.85 2.519-3.708 4.132z"></path>
<path d="M18.336 14.462c0.218 0.146 0.336 0.404 0.303 0.667-0.184 1.459 0.581 2.47 1.621 3.844 0.032 0.042 0.064 0.084 0.096 0.127 1.051 1.391 2.25 3.075 1.99 5.661-0.21 2.087-1.323 3.416-2.609 4.2-1.259 0.767-2.684 1.019-3.63 1.019-2.154 0-3.663-0.614-4.63-1.664-0.956-1.039-1.279-2.395-1.294-3.673-0.016-1.281 0.274-2.556 0.623-3.539 0.175-0.493 0.371-0.928 0.563-1.266 0.096-0.168 0.197-0.324 0.301-0.454 0.092-0.114 0.236-0.273 0.43-0.369 0.177-0.088 0.383-0.094 0.564-0.018s0.323 0.228 0.386 0.417c0.278 0.829 0.58 1.288 0.836 1.542-0.089-1.303 0.182-2.469 0.719-3.485 0.681-1.288 1.769-2.291 3.006-3.027 0.225-0.134 0.506-0.127 0.725 0.019zM15.814 18.126c-0.528 0.998-0.74 2.207-0.427 3.66 0.075 0.348-0.122 0.697-0.457 0.807-0.806 0.267-1.852-0.145-2.641-1.518-0.065 0.151-0.13 0.318-0.194 0.497-0.309 0.87-0.555 1.978-0.542 3.052 0.013 1.076 0.284 2.047 0.927 2.745 0.633 0.688 1.729 1.222 3.627 1.222 0.752 0 1.92-0.208 2.923-0.82 0.975-0.595 1.792-1.564 1.953-3.153 0.202-2.009-0.682-3.311-1.715-4.678-0.060-0.079-0.121-0.159-0.182-0.239-0.728-0.956-1.538-2.019-1.775-3.367-0.625 0.514-1.138 1.113-1.497 1.79z"></path>
</svg>
