<!-- Generated by IcoMoon.io -->
<svg version="1.1" xmlns="http://www.w3.org/2000/svg" width="32" height="32" viewBox="0 0 1024 1024">
<g id="icomoon-ignore">
</g>
<path d="M631.71 59.46c8.713 5.834 13.389 16.174 12.062 26.661-12.258 96.764 39.104 164.195 102.592 247.544 2.466 3.239 4.949 6.502 7.45 9.791 65.327 85.933 136.661 186.208 121.050 340.256-12.57 124.002-78.699 202.398-155.401 248.887-75.622 45.837-161.591 60.919-218.381 60.919-131.414 0-220.888-37.171-277.426-98.249-56.155-60.663-75.71-140.514-76.66-217.604-0.951-77.154 16.623-154.423 37.965-214.11 10.694-29.909 22.563-56.051 34.002-76.065 5.702-9.978 11.563-18.899 17.414-26.142 5.335-6.604 12.623-14.32 21.685-18.791 7.065-3.485 15.269-3.733 22.527-0.68s12.872 9.113 15.415 16.64c28.372 83.978 62.501 112.659 85.299 121.798-12.842-91.153 3.251-171.437 39.7-239.936 40.864-76.798 106.4-137.129 181.745-181.731 9.020-5.338 20.25-5.024 28.962 0.811zM469.265 266.685c-34.679 65.172-48.345 143.837-28.045 237.302 3.025 13.939-4.89 27.925-18.298 32.337-44.537 14.647-112.167-10.21-160.49-113.832-8.41 15.814-17.444 36.213-25.928 59.94-19.724 55.164-35.546 125.687-34.698 194.543 0.849 68.924 18.289 133.303 61.853 180.365 43.18 46.652 116.146 80.704 237.424 80.704 49.088 0 124.826-13.406 190.217-53.039 64.311-38.98 118.502-103.031 129.037-206.955 13.261-130.85-45.346-215.761-109.965-300.766-3.571-4.7-7.181-9.415-10.803-14.152-50.671-66.223-104.597-136.707-111.637-228.684-49.946 36.401-91.191 80.6-118.665 132.236z"></path>
<path d="M586.761 462.788c6.98 4.659 10.739 12.937 9.681 21.333-5.884 46.699 18.59 79.044 51.861 123.012 1.015 1.344 2.044 2.701 3.076 4.070 33.63 44.497 72.009 98.411 63.671 181.158-6.733 66.799-42.33 109.308-83.482 134.391-40.282 24.559-85.884 32.593-116.151 32.593-68.928 0-117.225-19.652-148.145-53.248-30.595-33.246-40.918-76.634-41.42-117.551-0.502-40.981 8.759-81.805 19.937-113.246 5.606-15.774 11.878-29.705 18.022-40.516 3.058-5.38 6.297-10.364 9.643-14.532 2.931-3.648 7.544-8.734 13.764-11.819 5.66-2.807 12.24-3.017 18.061-0.567 5.821 2.445 10.321 7.309 12.349 13.35 8.907 26.517 18.551 41.212 26.748 49.357-2.842-41.685 5.811-79.019 23.002-111.505 21.803-41.216 56.614-73.318 96.192-96.879 7.211-4.292 16.205-4.062 23.189 0.597zM506.035 580.019c-16.896 31.932-23.693 70.63-13.653 117.124 2.402 11.132-3.908 22.293-14.609 25.835-25.788 8.529-59.263-4.634-84.505-48.563-2.080 4.847-4.175 10.172-6.216 15.91-9.895 27.836-17.772 63.292-17.351 97.673 0.422 34.445 9.083 65.493 29.659 87.851 20.251 22.003 55.313 39.117 116.057 39.117 24.064 0 61.444-6.669 93.525-26.227 31.211-19.029 57.357-50.044 62.481-100.881 6.477-64.294-21.828-105.963-54.878-149.692-1.911-2.53-3.857-5.082-5.82-7.659-23.296-30.583-49.22-64.614-56.802-107.759-19.994 16.461-36.429 35.61-47.889 57.271z"></path>
</svg>
