<!-- Generated by IcoMoon.io -->
<svg version="1.1" xmlns="http://www.w3.org/2000/svg" width="34" height="32" viewBox="0 0 34 32">
<path fill="#fff" d="M8.059 22.552c0.4 0.837 1.025 1.3 1.899 1.437 0.187 0.025 0.375 0.025 0.562 0.025 4.736 0 9.472 0 14.208 0 1.574 0 2.824 0.6 3.636 1.949 0.85 1.437 0.812 2.924-0.137 4.299-0.962 1.4-2.362 1.974-4.024 1.649-1.637-0.325-2.674-1.375-3.112-2.974-0.2-0.725-0.162-1.175 0.1-2.249-2.374 0-4.736 0-7.135 0 0.387 1.225 0.262 2.387-0.425 3.474-0.462 0.725-1.1 1.25-1.899 1.562-1.587 0.625-3.386 0.162-4.474-1.125-0.987-1.175-1.475-3.174-0.137-5.036-0.037-0.037-0.062-0.075-0.1-0.113-1.125-0.975-1.687-2.212-1.812-3.674-0.25-2.987-0.537-5.973-0.8-8.96-0.212-2.412-0.425-4.836-0.65-7.248-0.013-0.075-0.025-0.162-0.038-0.275-0.487 0-0.962 0.013-1.45 0-0.587-0.013-1.062-0.362-1.25-0.875s-0.050-1.112 0.4-1.437c0.212-0.162 0.5-0.287 0.762-0.3 0.937-0.038 1.874-0.025 2.812-0.013 0.7 0.013 1.2 0.55 1.262 1.3 0.112 1.25 0.212 2.487 0.325 3.736 0.013 0.087 0.025 0.175 0.050 0.275 1.225 0 2.424 0 3.649 0 0.075-2.549 1.062-4.661 3.037-6.248 1.562-1.237 3.349-1.812 5.336-1.724 4.474 0.187 7.735 3.986 7.648 7.998 0.113 0 0.225 0 0.337 0 1.612 0 3.224 0 4.836 0 1.087 0 1.662 0.737 1.4 1.799-0.862 3.461-1.737 6.923-2.599 10.372-0.187 0.762-0.6 1.1-1.387 1.137-3.911 0.225-7.835 0.462-11.746 0.687-2.824 0.162-5.648 0.337-8.485 0.5-0.187 0.013-0.375 0.025-0.6 0.050zM29.953 10.63c-1.287 0-2.537 0.012-3.786-0.012-0.262 0-0.375 0.087-0.462 0.325-2.162 5.386-9.097 6.748-13.146 2.587-0.812-0.837-1.4-1.799-1.799-2.887-1.287 0-2.562 0-3.886 0 0.275 3.099 0.55 6.186 0.825 9.272 0.125 0 0.225 0 0.312 0 3.349-0.2 6.685-0.4 10.034-0.6 3.199-0.187 6.398-0.375 9.597-0.55 0.237-0.012 0.312-0.112 0.362-0.312 0.237-0.975 0.487-1.962 0.725-2.937 0.412-1.612 0.812-3.224 1.225-4.886zM18.306 13.342c2.962-0.012 5.348-2.424 5.348-5.373-0.012-2.962-2.424-5.348-5.373-5.348-2.949 0.012-5.336 2.412-5.336 5.361 0 2.962 2.412 5.373 5.361 5.361zM10.284 26.651c-0.75 0-1.35 0.6-1.35 1.349s0.6 1.35 1.337 1.362c0.75 0 1.375-0.625 1.362-1.362 0-0.75-0.6-1.349-1.35-1.349zM26.329 28c0-0.737-0.612-1.337-1.362-1.337s-1.35 0.587-1.35 1.337c0 0.75 0.612 1.375 1.362 1.362 0.737-0.012 1.35-0.637 1.35-1.362z"></path>
<path fill="#fff" d="M17.605 7.506c0.637-0.637 1.187-1.225 1.774-1.787 0.675-0.65 1.749-0.45 2.112 0.387 0.225 0.512 0.175 1.012-0.225 1.425-0.9 0.937-1.824 1.849-2.762 2.762-0.5 0.475-1.25 0.475-1.762 0-0.5-0.462-0.975-0.937-1.437-1.437-0.487-0.525-0.45-1.312 0.050-1.799 0.487-0.487 1.25-0.512 1.787-0.050 0.162 0.125 0.287 0.3 0.462 0.5z"></path>
</svg>
