<!-- Generated by IcoMoon.io -->
<svg version="1.1" xmlns="http://www.w3.org/2000/svg" width="36" height="32" viewBox="0 0 36 32">
<title>buy_light</title>
<path d="M15.898 2.942c-2.108 1.878-2.932 4.283-2.648 7.107-0.149 0-0.257 0-0.378 0.014-0.364 0-0.73-0.001-1.095-0.002-1.099-0.003-2.201-0.005-3.296 0.015-0.351 0-0.5-0.081-0.595-0.446-0.287-1.125-0.588-2.244-0.89-3.365-0.209-0.778-0.419-1.556-0.624-2.337-0.095-0.351-0.284-0.5-0.649-0.5h-4.554c-0.365 0.014-0.568 0.189-0.568 0.486 0 0.284 0.216 0.473 0.581 0.459 1.284 0.013 2.581 0.027 3.878 0 0.324 0 0.459 0.095 0.54 0.419 0.358 1.349 0.717 2.696 1.075 4.043 0.982 3.685 1.961 7.362 2.911 11.023 0.122 0.446 0.24 0.892 0.358 1.337s0.237 0.892 0.358 1.338c-0.056 0.025-0.103 0.047-0.147 0.067-0.052 0.024-0.099 0.046-0.15 0.068-1.040 0.486-1.554 1.649-1.189 2.743 0.297 0.905 1.135 1.5 2.135 1.513 0.53 0.009 1.061 0.006 1.595 0.003 0.269-0.002 0.538-0.003 0.81-0.003-0.689 1.689-0.54 2.77 0.5 3.581 0.919 0.716 2.175 0.73 3.108 0.041 0.473-0.351 0.784-0.811 0.946-1.365 0.216-0.797 0.054-1.527-0.405-2.229h7.242c-0.716 1.446-0.581 2.594 0.392 3.459 0.851 0.757 2.108 0.865 3.067 0.243 0.608-0.405 1-0.973 1.135-1.689 0.149-0.73-0.041-1.392-0.473-2.040h0.405c0.216-0.007 0.429-0.007 0.642-0.007s0.426 0 0.642-0.007c0.297-0.014 0.5-0.23 0.486-0.5-0.014-0.297-0.189-0.446-0.473-0.486-0.081-0.009-0.162-0.006-0.243-0.003-0.041 0.002-0.081 0.003-0.122 0.003h-18.377c-0.103 0-0.208 0.002-0.313 0.003-0.212 0.003-0.425 0.006-0.633-0.003-0.649-0.027-1.162-0.541-1.176-1.203-0.014-0.757 0.527-1.27 1.378-1.27h20.025c0.54 0 0.622-0.067 0.77-0.594 1.081-4 2.162-7.999 3.229-12.012 0.149-0.568-0.027-0.797-0.622-0.797h-5.418c0.581-5.013-3.094-8.85-7.432-9.094-2.175-0.122-4.121 0.527-5.743 1.986zM28.167 8.914c0 3.837-3.135 6.972-6.986 6.986s-6.999-3.121-6.986-6.959c-0.014-3.878 3.121-7.013 6.986-7.013 3.851 0.014 6.986 3.135 6.986 6.986zM34.059 11.022c-0.676 2.527-1.338 5-2 7.472h-0.006c-7.254 0-14.508 0-21.762-0.014-0.516-1.927-1.032-3.847-1.555-5.79-0.148-0.55-0.296-1.101-0.445-1.656 0.080 0 0.149-0.004 0.212-0.008 0.054-0.003 0.103-0.006 0.153-0.006 0.494 0 0.99 0.002 1.487 0.003 0.997 0.003 1.998 0.006 2.999-0.003 0.243 0 0.365 0.054 0.446 0.311 1.054 3.297 4.108 5.54 7.553 5.553 3.459 0.014 6.526-2.203 7.607-5.513 0.081-0.284 0.203-0.351 0.486-0.351 0.982 0.009 1.964 0.006 2.946 0.003 0.491-0.002 0.982-0.003 1.473-0.003h0.405zM30.991 22.48h-19.647c-0.27-1-0.527-1.973-0.784-2.973h21.227c-0.105 0.395-0.211 0.784-0.315 1.17-0.164 0.604-0.325 1.201-0.482 1.802zM25.276 28.507c0-0.865 0.703-1.567 1.567-1.567 0.878 0 1.594 0.689 1.581 1.567 0 0.865-0.689 1.554-1.554 1.567-0.878 0.014-1.594-0.689-1.594-1.567zM15.466 30.074c-0.865 0-1.567-0.689-1.567-1.554 0-0.878 0.703-1.581 1.581-1.581 0.865 0 1.554 0.689 1.567 1.554 0 0.878-0.703 1.581-1.581 1.581zM22.277 8.239c-0.676 0.811-1.351 1.621-2.040 2.459-0.047-0.061-0.091-0.115-0.135-0.169s-0.088-0.108-0.135-0.169c-0.101-0.122-0.201-0.244-0.301-0.366-0.464-0.566-0.926-1.129-1.415-1.674-0.108-0.122-0.351-0.216-0.513-0.203-0.135 0.027-0.324 0.216-0.351 0.351-0.027 0.162 0.054 0.378 0.162 0.513 0.492 0.604 0.991 1.201 1.492 1.801 0.228 0.273 0.456 0.546 0.684 0.82 0.378 0.446 0.648 0.446 1.013 0l1.621-1.946c0.266-0.32 0.533-0.638 0.8-0.956 0.534-0.637 1.069-1.273 1.591-1.922 0.122-0.135 0.23-0.338 0.203-0.5-0.027-0.149-0.216-0.365-0.351-0.378-0.162-0.013-0.419 0.081-0.541 0.216-0.382 0.433-0.753 0.882-1.124 1.33-0.219 0.265-0.439 0.53-0.66 0.792z"></path>
</svg>
