<!-- Generated by IcoMoon.io -->
<svg version="1.1" xmlns="http://www.w3.org/2000/svg" width="32" height="32" viewBox="0 0 32 32">
<path d="M16 3.667c-6.811 0-12.333 5.522-12.333 12.333s5.522 12.333 12.333 12.333c6.811 0 12.333-5.522 12.333-12.333s-5.522-12.333-12.333-12.333zM1.667 16c0-7.916 6.417-14.333 14.333-14.333s14.333 6.417 14.333 14.333c0 7.916-6.417 14.333-14.333 14.333s-14.333-6.417-14.333-14.333z"></path>
<path d="M13.187 6.773c0.552 0 1 0.448 1 1v2.667c0 0.552-0.448 1-1 1s-1-0.448-1-1v-2.667c0-0.552 0.448-1 1-1z"></path>
<path d="M18.813 6.773c0.552 0 1 0.448 1 1v2.667c0 0.552-0.448 1-1 1s-1-0.448-1-1v-2.667c0-0.552 0.448-1 1-1z"></path>
<path d="M9.040 13.52c0-0.552 0.448-1 1-1h11.92c0.552 0 1 0.448 1 1s-0.448 1-1 1h-11.92c-0.552 0-1-0.448-1-1z"></path>
<path d="M10.809 11.148c-0.721 0.761-1.142 1.839-1.142 3.079v4c0 1.24 0.421 2.318 1.142 3.079 0.714 0.752 1.777 1.255 3.191 1.255h4c1.414 0 2.477-0.502 3.191-1.255 0.721-0.761 1.142-1.839 1.142-3.079v-4c0-1.24-0.421-2.318-1.142-3.079-0.714-0.752-1.777-1.255-3.191-1.255h-4c-1.414 0-2.477 0.502-3.191 1.255zM9.358 9.772c1.12-1.181 2.723-1.879 4.642-1.879h4c1.92 0 3.523 0.698 4.642 1.879 1.112 1.173 1.691 2.761 1.691 4.455v4c0 1.693-0.579 3.282-1.691 4.455-1.12 1.181-2.723 1.879-4.642 1.879h-4c-1.92 0-3.523-0.698-4.642-1.879-1.112-1.173-1.691-2.761-1.691-4.455v-4c0-1.693 0.579-3.282 1.691-4.455z"></path>
</svg>
