<!-- Generated by IcoMoon.io -->
<svg version="1.1" xmlns="http://www.w3.org/2000/svg" width="32" height="32" viewBox="0 0 32 32">
<title>calendar</title>
<path d="M10.667 1.667c0.552 0 1 0.448 1 1v4c0 0.552-0.448 1-1 1s-1-0.448-1-1v-4c0-0.552 0.448-1 1-1z"></path>
<path d="M21.333 1.667c0.552 0 1 0.448 1 1v4c0 0.552-0.448 1-1 1s-1-0.448-1-1v-4c0-0.552 0.448-1 1-1z"></path>
<path d="M3.667 12.12c0-0.552 0.448-1 1-1h22.667c0.552 0 1 0.448 1 1s-0.448 1-1 1h-22.667c-0.552 0-1-0.448-1-1z"></path>
<path d="M6.316 7.18c-0.854 0.92-1.316 2.306-1.316 4.153v11.333c0 1.847 0.462 3.233 1.316 4.153 0.842 0.907 2.208 1.514 4.351 1.514h10.667c2.143 0 3.509-0.607 4.351-1.514 0.854-0.92 1.316-2.306 1.316-4.153v-11.333c0-1.847-0.462-3.233-1.316-4.153-0.842-0.907-2.208-1.514-4.351-1.514h-10.667c-2.143 0-3.509 0.607-4.351 1.514zM4.851 5.82c1.325-1.427 3.292-2.153 5.816-2.153h10.667c2.524 0 4.491 0.726 5.816 2.153 1.312 1.413 1.851 3.36 1.851 5.514v11.333c0 2.153-0.538 4.101-1.851 5.514-1.325 1.427-3.292 2.153-5.816 2.153h-10.667c-2.524 0-4.491-0.726-5.816-2.153-1.312-1.413-1.851-3.36-1.851-5.514v-11.333c0-2.153 0.538-4.1 1.851-5.514z"></path>
<path d="M19.593 18.267c0-0.736 0.597-1.333 1.333-1.333h0.012c0.736 0 1.333 0.597 1.333 1.333s-0.597 1.333-1.333 1.333h-0.012c-0.736 0-1.333-0.597-1.333-1.333z"></path>
<path d="M19.593 22.267c0-0.736 0.597-1.333 1.333-1.333h0.012c0.736 0 1.333 0.597 1.333 1.333s-0.597 1.333-1.333 1.333h-0.012c-0.736 0-1.333-0.597-1.333-1.333z"></path>
<path d="M14.661 18.267c0-0.736 0.597-1.333 1.333-1.333h0.012c0.736 0 1.333 0.597 1.333 1.333s-0.597 1.333-1.333 1.333h-0.012c-0.736 0-1.333-0.597-1.333-1.333z"></path>
<path d="M14.661 22.267c0-0.736 0.597-1.333 1.333-1.333h0.012c0.736 0 1.333 0.597 1.333 1.333s-0.597 1.333-1.333 1.333h-0.012c-0.736 0-1.333-0.597-1.333-1.333z"></path>
<path d="M9.726 18.267c0-0.736 0.597-1.333 1.333-1.333h0.012c0.736 0 1.333 0.597 1.333 1.333s-0.597 1.333-1.333 1.333h-0.012c-0.736 0-1.333-0.597-1.333-1.333z"></path>
<path d="M9.726 22.267c0-0.736 0.597-1.333 1.333-1.333h0.012c0.736 0 1.333 0.597 1.333 1.333s-0.597 1.333-1.333 1.333h-0.012c-0.736 0-1.333-0.597-1.333-1.333z"></path>
</svg>
