<!-- Generated by IcoMoon.io -->
<svg version="1.1" xmlns="http://www.w3.org/2000/svg" width="32" height="32" viewBox="0 0 32 32">
<path stroke-linejoin="miter" stroke-linecap="butt" stroke-miterlimit="4" stroke-width="0.64" stroke="#000" fill="#000" d="M30.935 29.751c0-1.084-0.645-2.059-1.643-2.484l-7.653-3.256v-1.908c0.81-1.017 1.323-2.229 1.494-3.529h1.565c1.489 0 2.7-1.211 2.7-2.7v-3.871c0-1.361-1.013-2.49-2.324-2.673-0.195-5.856-3.469-8.946-9.498-8.946s-9.304 3.090-9.498 8.946c-1.312 0.184-2.325 1.312-2.325 2.673v3.871c0 1.489 1.211 2.7 2.7 2.7h1.564c0.172 1.301 0.684 2.512 1.494 3.529v1.908l-7.653 3.256c-0.998 0.424-1.643 1.399-1.643 2.484v0.453c0 0.239 0.095 0.468 0.264 0.637s0.398 0.264 0.636 0.264h28.92c0.239 0 0.468-0.095 0.637-0.264s0.263-0.398 0.263-0.637v-0.453zM19.84 24.642c0.001 0.021 0.051 2.206-1.239 3.55-0.708 0.738-1.727 1.111-3.026 1.111-1.295 0-2.31-0.371-3.018-1.104-1.306-1.351-1.247-3.539-1.247-3.558 0.001-0.012 0.001-0.024 0.001-0.036v-0.891c1.232 0.78 2.702 1.199 4.264 1.199s3.032-0.419 4.264-1.199v0.891c0 0.012 0 0.024 0.001 0.036zM21.398 17.192l-1.712 1.142c-0.544 0.363-1.177 0.554-1.831 0.554h-1.522c-0.497 0-0.9 0.403-0.9 0.9s0.403 0.9 0.9 0.9h1.522c1.010 0 1.989-0.296 2.829-0.857l0.344-0.23c-0.812 2.096-2.889 3.512-5.454 3.512-3.319 0-5.823-2.373-5.823-5.52v-7.296c0.355-1.65 0.869-2.698 1.489-3.034 0.617-0.335 1.514 0.013 2.381 0.35 0.676 0.262 1.314 0.51 1.953 0.51 0.645 0 1.276-0.251 1.943-0.516 0.868-0.345 1.688-0.671 2.296-0.354 0.443 0.231 1.074 0.95 1.584 3.055v6.883zM25.598 12.003v3.871c0 0.496-0.404 0.9-0.9 0.9h-1.5v-5.671h1.5c0.496 0 0.9 0.404 0.9 0.9zM9.481 4.389c1.246-1.463 3.296-2.205 6.094-2.205s4.847 0.742 6.094 2.205c0.981 1.152 1.519 2.804 1.602 4.914h-0.276c-0.544-1.93-1.298-3.097-2.348-3.645-1.338-0.698-2.699-0.157-3.793 0.277-0.481 0.191-0.978 0.389-1.279 0.389s-0.81-0.197-1.302-0.388c-1.132-0.44-2.541-0.987-3.891-0.255-1.018 0.553-1.755 1.741-2.243 3.622h-0.259c0.083-2.111 0.621-3.762 1.602-4.914zM5.552 15.873v-3.871c0-0.496 0.404-0.9 0.9-0.9h1.5v5.671h-1.5c-0.496 0-0.9-0.404-0.9-0.9zM2.563 28.923l7.051-3c0.158 0.977 0.55 2.306 1.512 3.38h-8.992c0.095-0.167 0.244-0.302 0.429-0.38zM20.024 29.304c0.962-1.075 1.354-2.404 1.512-3.38l7.051 3c0.185 0.078 0.333 0.214 0.429 0.38h-8.992z"></path>
</svg>
