<!-- Generated by IcoMoon.io -->
<svg version="1.1" xmlns="http://www.w3.org/2000/svg" width="32" height="32" viewBox="0 0 32 32">
<path d="M3 6.526c0-1.948 1.579-3.526 3.526-3.526h3.668c1.499 0 2.847 0.913 3.404 2.305 0 0 0 0 0 0l1.407 3.514c0.5 1.251 0.273 2.676-0.589 3.709l-0.757 0.907c0 0 0 0 0 0-0.551 0.661-0.507 1.635 0.103 2.245l2.555 2.557c0 0 0 0 0 0 0.609 0.609 1.584 0.653 2.246 0.102 0 0 0 0 0 0l0.907-0.757c1.035-0.862 2.459-1.088 3.709-0.588l3.515 1.406c1.392 0.557 2.305 1.905 2.305 3.404l-0.001 3.668c0 0 0 0 0 0 0 1.947-1.578 3.526-3.526 3.526-12.412 0-22.474-10.062-22.474-22.474zM6.526 5c-0.843 0-1.526 0.683-1.526 1.526 0 11.307 9.167 20.474 20.474 20.474 0.843 0 1.526-0.683 1.526-1.526l0.001-3.668c0 0 0 0 0 0 0-0.681-0.415-1.294-1.047-1.547 0 0 0 0 0 0l-3.515-1.406c-0.568-0.227-1.215-0.125-1.685 0.267zM20.752 19.119l-0.907 0.757c-1.457 1.214-3.6 1.118-4.941-0.223l-2.555-2.557c0 0 0 0 0 0-1.34-1.34-1.44-3.482-0.225-4.94l0.756-0.907c0 0 0 0 0 0 0.392-0.471 0.495-1.118 0.268-1.686 0 0 0 0 0 0l-1.407-3.514c-0.253-0.633-0.866-1.048-1.548-1.048h-3.668z"></path>
</svg>
