<!-- Generated by IcoMoon.io -->
<svg version="1.1" xmlns="http://www.w3.org/2000/svg" width="32" height="32" viewBox="0 0 32 32">
<path d="M11.875 2.468c0.767-0.475 1.69-0.802 2.605-0.802h3.053c0.909 0 1.83 0.328 2.594 0.802s1.464 1.154 1.871 1.96l0.003 0.006 0.955 1.924c0.207 0.394 0.615 0.64 1.042 0.64 3.468 0 6.222 2.925 5.998 6.385l-0.693 11.011c-0.096 1.52-0.556 3.021-1.613 4.15-1.076 1.15-2.65 1.787-4.705 1.787h-13.973c-2.055 0-3.632-0.637-4.71-1.786-1.059-1.129-1.52-2.631-1.609-4.153 0-0.001 0-0.002 0-0.002l-0.693-11.007c0 0 0 0 0 0-0.224-3.459 2.53-6.385 5.998-6.385 0.427 0 0.835-0.247 1.042-0.64l0.959-1.931c0.408-0.806 1.107-1.486 1.874-1.961zM11.787 5.328l-0.966 1.945c-0.541 1.042-1.624 1.726-2.821 1.726-2.318 0-4.151 1.954-4.002 4.255v0.002l0.694 11.018c0.071 1.223 0.43 2.221 1.071 2.904 0.623 0.664 1.625 1.154 3.25 1.154h13.973c1.625 0 2.624-0.49 3.245-1.153 0.64-0.684 1-1.683 1.077-2.91 0 0 0 0 0 0l0.693-11.015c0.149-2.301-1.684-4.255-4.002-4.255-1.197 0-2.281-0.684-2.821-1.726l-0.008-0.016-0.958-1.93c-0.206-0.406-0.613-0.833-1.14-1.161-0.529-0.329-1.089-0.501-1.539-0.501h-3.053c-0.459 0-1.022 0.173-1.552 0.502s-0.935 0.754-1.141 1.16z"></path>
<path d="M13 10.667c0-0.552 0.448-1 1-1h4c0.552 0 1 0.448 1 1s-0.448 1-1 1h-4c-0.552 0-1-0.448-1-1z"></path>
<path d="M10.667 19.667c0-2.939 2.394-5.333 5.333-5.333s5.333 2.394 5.333 5.333c0 2.939-2.394 5.333-5.333 5.333s-5.333-2.394-5.333-5.333zM16 16.333c-1.834 0-3.333 1.499-3.333 3.333s1.499 3.333 3.333 3.333c1.834 0 3.333-1.499 3.333-3.333s-1.499-3.333-3.333-3.333z"></path>
</svg>
