<!-- Generated by IcoMoon.io -->
<svg version="1.1" xmlns="http://www.w3.org/2000/svg" width="32" height="32" viewBox="0 0 32 32">
<path d="M29.453 5.72c0.458 0.158 0.765 0.59 0.765 1.074v5.694l6.525-0.91c0.48-0.067 0.951 0.178 1.17 0.611s0.14 0.957-0.197 1.305l-6.381 6.581c-0.437 0.451-1.156 0.462-1.607 0.025s-0.462-1.156-0.025-1.607l4.080-4.208-4.544 0.634c-0.326 0.045-0.655-0.052-0.903-0.268s-0.39-0.528-0.39-0.857v-3.714l-3.47 4.416c-0.209 0.266-0.525 0.425-0.863 0.434s-0.662-0.133-0.885-0.387l-2.454-2.799 0.612 3.777c0.050 0.309-0.030 0.625-0.22 0.874s-0.476 0.407-0.787 0.439l-3.482 0.351 2.819 2.18c0.496 0.384 0.587 1.098 0.203 1.594s-1.098 0.588-1.594 0.204l-5.073-3.924c-0.368-0.285-0.525-0.765-0.397-1.212s0.516-0.771 0.979-0.818l5.117-0.515-1.052-6.493c-0.081-0.5 0.179-0.994 0.637-1.21s1.005-0.102 1.339 0.279l4.161 4.746 4.654-5.924c0.299-0.381 0.807-0.53 1.265-0.372z"></path>
<path d="M44.52 14.162c0.216-0.262 0.537-0.413 0.877-0.413h2.954c0.628 0 1.136 0.509 1.136 1.136s-0.509 1.136-1.136 1.136h-2.419l-4.125 5h6.089c0.628 0 1.136 0.509 1.136 1.136s-0.509 1.136-1.136 1.136h-8.414l-8.495 1.294v6.524h1.418c0.201-0.813 0.608-1.662 1.221-2.39 0.938-1.116 2.382-1.973 4.315-1.973 1.961 0 3.338 0.907 4.187 2.068 0.529 0.723 0.852 1.54 1.011 2.296h4.756c0.628 0 1.136 0.509 1.136 1.136s-0.509 1.136-1.136 1.136h-4.764c-0.148 0.703-0.437 1.484-0.936 2.191-0.833 1.177-2.214 2.082-4.254 2.082-2.008 0-3.46-0.844-4.39-1.97-0.59-0.714-0.963-1.533-1.149-2.303h-2.552c-0.628 0-1.136-0.509-1.136-1.136v-8.636c0-0.561 0.41-1.039 0.965-1.123l9.116-1.389 5.724-6.938zM35.366 30.185c-0.582 0.692-0.833 1.527-0.833 2.064 0 0.516 0.222 1.327 0.772 1.992 0.516 0.625 1.336 1.144 2.637 1.144 1.269 0 1.972-0.519 2.398-1.122 0.467-0.661 0.641-1.489 0.647-2.026 0.006-0.551-0.194-1.397-0.693-2.078-0.464-0.634-1.186-1.137-2.353-1.137-1.194 0-2.023 0.506-2.576 1.163z"></path>
<path d="M6.183 14.162c-0.216-0.262-0.537-0.413-0.877-0.413h-2.954c-0.628 0-1.136 0.509-1.136 1.136s0.509 1.136 1.136 1.136h2.419l4.125 5h-6.089c-0.628 0-1.136 0.509-1.136 1.136s0.509 1.136 1.136 1.136h8.414l8.495 1.294v6.524h-1.418c-0.201-0.813-0.608-1.662-1.221-2.39-0.939-1.116-2.382-1.973-4.315-1.973-1.961 0-3.338 0.907-4.187 2.068-0.529 0.723-0.852 1.54-1.011 2.296h-4.756c-0.628 0-1.136 0.509-1.136 1.136s0.509 1.136 1.136 1.136h4.764c0.148 0.703 0.437 1.484 0.936 2.191 0.833 1.177 2.214 2.082 4.254 2.082 2.008 0 3.46-0.844 4.39-1.97 0.59-0.714 0.963-1.533 1.149-2.303h2.552c0.628 0 1.136-0.509 1.136-1.136v-8.636c0-0.561-0.41-1.039-0.965-1.123l-9.116-1.389-5.724-6.938zM15.337 30.185c0.582 0.692 0.833 1.527 0.833 2.064 0 0.516-0.222 1.327-0.772 1.992-0.516 0.625-1.336 1.144-2.637 1.144-1.269 0-1.972-0.519-2.399-1.122-0.467-0.661-0.641-1.489-0.647-2.026-0.006-0.551 0.194-1.397 0.693-2.078 0.464-0.634 1.186-1.137 2.353-1.137 1.194 0 2.023 0.506 2.576 1.163z"></path>
</svg>
