<!-- Generated by IcoMoon.io -->
<svg version="1.1" xmlns="http://www.w3.org/2000/svg" width="32" height="32" viewBox="0 0 32 32">
<title>car-reverse</title>
<path d="M24.113 27.022c-0.839 0.859-2.061 1.285-3.759 1.285h-8.708c-1.698 0-2.919-0.426-3.759-1.285-0.805-0.824-1.116-1.912-1.32-2.877l-0-0.001-1.402-6.711c-0.057-0.274 0.012-0.56 0.189-0.777s0.442-0.344 0.722-0.344h19.847c0.28 0 0.545 0.126 0.722 0.344s0.246 0.503 0.189 0.777l-1.402 6.712c-0.203 0.966-0.514 2.054-1.32 2.877zM23.612 23.761c0-0 0 0 0 0l1.167-5.589h-17.558l1.167 5.589c0 0-0-0 0 0 0.194 0.919 0.422 1.544 0.829 1.96 0.373 0.382 1.037 0.725 2.428 0.725h8.708c1.391 0 2.055-0.343 2.428-0.725 0.407-0.417 0.636-1.041 0.829-1.96z"></path>
<path d="M26.771 13.769c0-0-0 0 0 0l0.694-7.553 0-0.002c0.083-0.885-0.631-1.687-1.592-1.687h-2.332c-0.546 0-0.652 0.116-0.654 0.118-0.044 0.042-0.089 0.118-0.225 0.523l-0.248 0.744c-0.007 0.020-0.013 0.040-0.020 0.060-0.139 0.421-0.347 1.047-0.849 1.521-0.568 0.536-1.355 0.754-2.37 0.754h-6.351c-0.989 0-1.775-0.185-2.349-0.715-0.498-0.459-0.71-1.087-0.86-1.531-0.010-0.028-0.019-0.056-0.028-0.083l-0.002-0.006-0.248-0.744c-0.135-0.405-0.18-0.481-0.225-0.523-0-0-0.104-0.118-0.654-0.118h-2.332c-0.961 0-1.675 0.802-1.592 1.687l0.695 7.555c0 0 0 0.001 0 0.001 0.089 0.95 0.215 1.512 0.523 1.876 0.263 0.312 0.833 0.665 2.334 0.665h15.828c1.501 0 2.071-0.353 2.334-0.665 0.307-0.364 0.434-0.927 0.523-1.878zM27.67 16.846c-0.773 0.916-2.008 1.326-3.756 1.326h-15.828c-1.749 0-2.984-0.41-3.756-1.326-0.728-0.863-0.868-1.995-0.953-2.904l-0-0.001-0.694-7.552c0 0 0-0 0 0-0.189-2.017 1.428-3.722 3.444-3.722h2.332c0.789 0 1.449 0.167 1.935 0.629 0.416 0.395 0.587 0.915 0.69 1.227 0.007 0.020 0.013 0.039 0.019 0.058l0.247 0.741c0.194 0.569 0.273 0.739 0.388 0.845 0.071 0.065 0.29 0.222 1.087 0.222h6.351c0.771 0 1.008-0.166 1.094-0.247 0.127-0.12 0.21-0.305 0.381-0.816l0.248-0.744c0.006-0.018 0.012-0.037 0.019-0.058 0.103-0.312 0.274-0.832 0.69-1.227 0.487-0.462 1.146-0.629 1.935-0.629h2.332c2.016 0 3.633 1.703 3.444 3.72 0-0 0 0 0 0l-0.695 7.555c-0.085 0.91-0.225 2.041-0.953 2.904z"></path>
<path d="M28.094 20.963c0 0.514-0.417 0.93-0.93 0.93h-1.241c-0.514 0-0.93-0.417-0.93-0.93s0.417-0.93 0.93-0.93h1.241c0.514 0 0.93 0.417 0.93 0.93z"></path>
<path d="M7.006 20.963c0 0.514-0.417 0.93-0.93 0.93h-1.24c-0.514 0-0.93-0.417-0.93-0.93s0.417-0.93 0.93-0.93h1.24c0.514 0 0.93 0.417 0.93 0.93z"></path>
<path d="M16 28.096c-0.514 0-0.93-0.417-0.93-0.93v-2.481c0-0.514 0.417-0.93 0.93-0.93s0.93 0.417 0.93 0.93v2.481c0 0.514-0.417 0.93-0.93 0.93z"></path>
<path d="M18.791 24.685c0 0.514-0.417 0.93-0.93 0.93h-3.721c-0.514 0-0.93-0.417-0.93-0.93s0.417-0.93 0.93-0.93h3.721c0.514 0 0.93 0.417 0.93 0.93z"></path>
<path d="M24.372 12.281c0 0.514-0.417 0.93-0.93 0.93h-3.721c-0.514 0-0.93-0.417-0.93-0.93s0.417-0.93 0.93-0.93h3.721c0.514 0 0.93 0.417 0.93 0.93z"></path>
<path d="M13.209 12.281c0 0.514-0.417 0.93-0.93 0.93h-3.721c-0.514 0-0.93-0.417-0.93-0.93s0.417-0.93 0.93-0.93h3.721c0.514 0 0.93 0.417 0.93 0.93z"></path>
</svg>
