<!-- Generated by IcoMoon.io -->
<svg version="1.1" xmlns="http://www.w3.org/2000/svg" width="32" height="32" viewBox="0 0 1024 1024">
<title></title>
<g id="icomoon-ignore">
</g>
<path d="M942.483 183.031c14.65 5.067 24.474 18.864 24.474 34.365v182.207l208.794-29.133c15.373-2.146 30.419 5.709 37.446 19.555s4.493 30.626-6.317 41.773l-204.205 210.589c-13.978 14.419-36.998 14.771-51.418 0.794-14.419-13.981-14.771-37.002-0.794-51.42l130.56-134.643-145.402 20.289c-10.419 1.454-20.96-1.676-28.896-8.582s-12.493-16.911-12.493-27.432v-118.859l-111.040 141.325c-6.682 8.504-16.806 13.593-27.616 13.884s-21.19-4.246-28.32-12.378l-78.534-89.572 19.59 120.874c1.606 9.896-0.947 20.014-7.053 27.964s-15.226 13.028-25.198 14.033l-111.439 11.224 90.194 69.773c15.885 12.288 18.8 35.124 6.512 51.009s-35.126 18.803-51.011 6.515l-162.328-125.576c-11.772-9.107-16.806-24.468-12.707-38.777s16.504-24.673 31.313-26.164l163.749-16.493-33.672-207.776c-2.595-16.009 5.727-31.802 20.399-38.713s32.147-3.271 42.838 8.924l133.158 151.878 148.934-189.556c9.574-12.189 25.83-16.966 40.48-11.9z"></path>
<path d="M1424.634 453.191c6.912-8.373 17.197-13.222 28.051-13.222h94.541c20.083 0 36.365 16.28 36.365 36.363s-16.282 36.364-36.365 36.364h-77.402l-131.994 159.996h194.854c20.083 0 36.358 16.282 36.358 36.365s-16.275 36.365-36.358 36.365h-269.242l-271.84 41.421v208.755h45.389c6.426-26.016 19.469-53.19 39.072-76.493 30.029-35.712 76.224-63.142 138.080-63.142 62.746 0 106.81 29.011 133.984 66.17 16.922 23.136 27.27 49.267 32.352 73.466h152.205c20.083 0 36.358 16.282 36.358 36.365s-16.275 36.358-36.358 36.358h-152.461c-4.723 22.502-13.971 47.494-29.965 70.099-26.662 37.677-70.842 66.63-136.115 66.63-64.243 0-110.726-27.014-140.474-63.027-18.874-22.854-30.822-49.062-36.781-73.702h-81.651c-20.083 0-36.365-16.275-36.365-36.358v-276.365c0-17.965 13.126-33.235 30.886-35.942l291.718-44.454 183.155-222.009zM1131.718 965.914c-18.624 22.144-26.662 48.864-26.662 66.048 0 16.512 7.098 42.451 24.691 63.75 16.506 19.987 42.746 36.608 84.397 36.608 40.614 0 63.098-16.621 76.749-35.91 14.957-21.139 20.525-47.648 20.704-64.838 0.186-17.619-6.214-44.691-22.17-66.509-14.848-20.301-37.958-36.371-75.283-36.371-38.221 0-64.749 16.205-82.426 37.222z"></path>
<path d="M197.865 453.191c-6.908-8.373-17.195-13.222-28.049-13.222h-94.544c-20.083 0-36.363 16.28-36.363 36.363s16.28 36.364 36.363 36.364h77.403l131.997 159.996h-194.855c-20.083 0-36.363 16.282-36.363 36.365s16.28 36.365 36.363 36.365h269.241l271.841 41.421v208.755h-45.391c-6.423-26.016-19.469-53.19-39.069-76.493-30.035-35.712-76.229-63.142-138.082-63.142-62.746 0-106.808 29.011-133.982 66.17-16.922 23.136-27.27 49.267-32.355 73.466h-152.203c-20.083 0-36.363 16.282-36.363 36.365s16.28 36.358 36.363 36.358h152.457c4.725 22.502 13.972 47.494 29.966 70.099 26.662 37.677 70.844 66.63 136.117 66.63 64.242 0 110.728-27.014 140.47-63.027 18.877-22.854 30.824-49.062 36.78-73.702h81.656c20.083 0 36.358-16.275 36.358-36.358v-276.365c0-17.965-13.12-33.235-30.88-35.942l-291.72-44.454-183.157-222.009zM490.781 965.914c18.628 22.144 26.666 48.864 26.666 66.048 0 16.512-7.098 42.451-24.691 63.75-16.511 19.987-42.751 36.608-84.399 36.608-40.616 0-63.1-16.621-76.752-35.91-14.956-21.139-20.52-47.648-20.703-64.838-0.187-17.619 6.218-44.691 22.173-66.509 14.847-20.301 37.957-36.371 75.282-36.371 38.218 0 64.749 16.205 82.424 37.222z"></path>
</svg>
