<!-- Generated by IcoMoon.io -->
<svg version="1.1" xmlns="http://www.w3.org/2000/svg" width="32" height="32" viewBox="0 0 32 32">
<title>card</title>
<path d="M1.667 11.34c0-0.552 0.448-1 1-1h26.667c0.552 0 1 0.448 1 1s-0.448 1-1 1h-26.667c-0.552 0-1-0.448-1-1z"></path>
<path d="M7 22.007c0-0.552 0.448-1 1-1h2.667c0.552 0 1 0.448 1 1s-0.448 1-1 1h-2.667c-0.552 0-1-0.448-1-1z"></path>
<path d="M13 22.007c0-0.552 0.448-1 1-1h5.333c0.552 0 1 0.448 1 1s-0.448 1-1 1h-5.333c-0.552 0-1-0.448-1-1z"></path>
<path d="M4.555 6.556c-0.567 0.56-0.888 1.625-0.888 3.971v10.96c0 2.346 0.322 3.41 0.887 3.968 0.57 0.562 1.655 0.878 4.030 0.872h14.829c2.375 0 3.461-0.319 4.032-0.883 0.567-0.56 0.888-1.625 0.888-3.971v-10.947c0-2.345-0.321-3.41-0.889-3.97-0.572-0.565-1.663-0.883-4.044-0.883h-14.813c-2.375 0-3.461 0.319-4.032 0.883zM3.149 5.134c1.206-1.192 3.079-1.461 5.438-1.461h14.813c2.365 0 4.241 0.268 5.449 1.46 1.212 1.196 1.484 3.059 1.484 5.393v10.947c0 2.335-0.272 4.196-1.482 5.393-1.206 1.192-3.079 1.461-5.438 1.461h-14.826c-2.358 0.007-4.232-0.257-5.438-1.448-1.211-1.195-1.483-3.057-1.483-5.392v-10.96c0-2.335 0.272-4.196 1.482-5.393z"></path>
</svg>
