<!-- Generated by IcoMoon.io -->
<svg version="1.1" xmlns="http://www.w3.org/2000/svg" width="32" height="32" viewBox="0 0 32 32">
<path d="M2 20.88v0zM2 8.88v0zM15.6 25.080c0.552 0 1-0.448 1-1s-0.448-1-1-1l-0 2zM5.2 24.080v0zM27.599 8.879v0zM2.799 10.28c-0.552 0-1 0.448-1 1s0.448 1 1 1v-2zM26.799 12.28c0.552 0 1-0.448 1-1s-0.448-1-1-1v2zM20.398 22.48l-0.707-0.707c-0.188 0.188-0.293 0.442-0.293 0.707h1zM26.158 16.72l0.707-0.707c-0.391-0.391-1.024-0.391-1.414 0l0.707 0.707zM29.998 20.56l0.707 0.707c0.188-0.187 0.293-0.442 0.293-0.707s-0.105-0.52-0.293-0.707l-0.707 0.707zM24.238 26.32v1c0.265 0 0.519-0.105 0.707-0.293l-0.707-0.707zM20.398 26.32h-1c0 0.552 0.448 1 1 1v-1zM5.2 6.68h19.199v-2h-19.199v2zM3 20.88l-0-12-2 0 0 12 2-0zM15.6 23.080l-10.4-0-0 2 10.4 0 0-2zM26.599 8.879v3.202l2-0v-3.202l-2 0zM5.2 4.68c-2.32 0-4.2 1.88-4.2 4.2l2-0c-0-1.215 0.985-2.2 2.2-2.2v-2zM24.399 6.68c1.216 0 2.2 0.984 2.2 2.198l2-0c0-2.32-1.881-4.198-4.2-4.198v2zM1 20.88c0 2.319 1.88 4.2 4.2 4.2l0-2c-1.215 0-2.2-0.985-2.2-2.2l-2 0zM2.799 12.28h24v-2h-24v2zM21.105 23.187l5.76-5.76-1.414-1.414-5.76 5.76 1.414 1.414zM25.451 17.427l3.84 3.84 1.414-1.414-3.84-3.84-1.414 1.414zM29.291 19.853l-5.76 5.76 1.414 1.414 5.76-5.76-1.414-1.414zM24.238 25.32h-3.84v2h3.84v-2zM21.398 26.32v-3.84h-2v3.84h2z"></path>
</svg>
