<!-- Generated by IcoMoon.io -->
<svg version="1.1" xmlns="http://www.w3.org/2000/svg" width="33" height="32" viewBox="0 0 33 32">
<path d="M7.672 13.333h2.667c2.667 0 4-1.333 4-4v-2.667c0-2.667-1.333-4-4-4h-2.667c-2.667 0-4 1.333-4 4v2.667c0 2.667 1.333 4 4 4z"></path>
<path d="M23.672 13.333h2.667c2.667 0 4-1.333 4-4v-2.667c0-2.667-1.333-4-4-4h-2.667c-2.667 0-4 1.333-4 4v2.667c0 2.667 1.333 4 4 4z"></path>
<path d="M23.672 29.333h2.667c2.667 0 4-1.333 4-4v-2.667c0-2.667-1.333-4-4-4h-2.667c-2.667 0-4 1.333-4 4v2.667c0 2.667 1.333 4 4 4z"></path>
<path d="M7.672 29.333h2.667c2.667 0 4-1.333 4-4v-2.667c0-2.667-1.333-4-4-4h-2.667c-2.667 0-4 1.333-4 4v2.667c0 2.667 1.333 4 4 4z"></path>
</svg>
