<!-- Generated by IcoMoon.io -->
<svg version="1.1" xmlns="http://www.w3.org/2000/svg" width="32" height="32" viewBox="0 0 32 32">
<title>chart-2</title>
<path fill="none" stroke-linejoin="round" stroke-linecap="round" stroke-miterlimit="4" stroke-width="2" stroke="#000" d="M12 29.333h8c6.667 0 9.333-2.667 9.333-9.333v-8c0-6.667-2.667-9.333-9.333-9.333h-8c-6.667 0-9.333 2.667-9.333 9.333v8c0 6.667 2.667 9.333 9.333 9.333z"></path>
<path fill="none" stroke-linejoin="round" stroke-linecap="round" stroke-miterlimit="4" stroke-width="2" stroke="#000" d="M20.665 24.666c1.467 0 2.667-1.2 2.667-2.667v-12c0-1.467-1.2-2.667-2.667-2.667s-2.667 1.2-2.667 2.667v12c0 1.467 1.187 2.667 2.667 2.667z"></path>
<path fill="none" stroke-linejoin="round" stroke-linecap="round" stroke-miterlimit="4" stroke-width="2" stroke="#000" d="M11.333 24.667c1.467 0 2.667-1.2 2.667-2.667v-4.667c0-1.467-1.2-2.667-2.667-2.667s-2.667 1.2-2.667 2.667v4.667c0 1.467 1.187 2.667 2.667 2.667z"></path>
</svg>
