<!-- Generated by IcoMoon.io -->
<svg version="1.1" xmlns="http://www.w3.org/2000/svg" width="32" height="32" viewBox="0 0 32 32">
<path d="M9.667 16.266c0-0.552 0.448-1 1-1h9.333c0.552 0 1 0.448 1 1s-0.448 1-1 1h-9.333c-0.552 0-1-0.448-1-1z"></path>
<path d="M9.667 21.6c0-0.552 0.448-1 1-1h5.84c0.552 0 1 0.448 1 1s-0.448 1-1 1h-5.84c-0.552 0-1-0.448-1-1z"></path>
<path d="M13.238 1.666c0.033 0 0.064 0 0.095 0h5.333c0.031 0 0.062 0 0.095 0 0.591-0.002 1.534-0.004 2.293 0.501 0.912 0.608 1.279 1.7 1.279 3.165 0 0.030 0 0.062 0 0.095 0.002 0.591 0.004 1.534-0.501 2.293-0.608 0.912-1.7 1.279-3.165 1.279h-5.333c-0.030 0-0.062 0-0.095 0-0.591 0.002-1.534 0.004-2.293-0.501-0.912-0.608-1.279-1.7-1.279-3.165s0.366-2.557 1.279-3.165c0.759-0.506 1.703-0.503 2.293-0.501zM12.055 3.832c-0.088 0.058-0.388 0.3-0.388 1.501s0.3 1.443 0.388 1.501c0.199 0.133 0.526 0.165 1.279 0.165h5.333c1.201 0 1.443-0.3 1.501-0.388 0.133-0.199 0.165-0.526 0.165-1.279 0-1.201-0.3-1.443-0.388-1.501-0.199-0.133-0.526-0.165-1.279-0.165h-5.333c-0.753 0-1.079 0.033-1.279 0.165z"></path>
<path d="M11.665 5.306c0.030 0.551-0.393 1.023-0.945 1.053-2.142 0.116-3.476 0.566-4.318 1.477-0.853 0.923-1.403 2.539-1.403 5.498v8c0 2.649 0.348 4.308 1.253 5.342 0.875 1 2.5 1.658 5.747 1.658h8c3.247 0 4.872-0.658 5.747-1.658 0.904-1.033 1.253-2.693 1.253-5.342v-8c0-2.966-0.55-4.582-1.402-5.503-0.841-0.909-2.175-1.356-4.318-1.472-0.551-0.030-0.974-0.501-0.945-1.053s0.501-0.974 1.053-0.945c2.297 0.124 4.296 0.617 5.678 2.111 1.371 1.482 1.934 3.734 1.934 6.861v8c0 2.684-0.318 5.025-1.747 6.659-1.458 1.666-3.833 2.341-7.253 2.341h-8c-3.42 0-5.795-0.675-7.253-2.341-1.429-1.633-1.747-3.974-1.747-6.659v-8c0-3.121 0.563-5.372 1.934-6.855 1.382-1.496 3.38-1.992 5.679-2.117 0.551-0.030 1.023 0.393 1.053 0.945z"></path>
</svg>
