<!-- Generated by IcoMoon.io -->
<svg version="1.1" xmlns="http://www.w3.org/2000/svg" width="30" height="32" viewBox="0 0 30 32">
<path d="M16.052 16.085c0 0.619-0.501 1.12-1.12 1.12s-1.12-0.501-1.12-1.12c0-0.619 0.501-1.12 1.12-1.12s1.12 0.501 1.12 1.12z"></path>
<path fill="none" stroke-linejoin="round" stroke-linecap="round" stroke-miterlimit="4" stroke-width="2.1333" stroke="#000" d="M16.052 16.085c0 0.619-0.501 1.12-1.12 1.12s-1.12-0.501-1.12-1.12c0-0.619 0.501-1.12 1.12-1.12M16.052 16.085c0-0.619-0.501-1.12-1.12-1.12M16.052 16.085h5.599M14.933 14.965v-7.092M28.37 16.085c0 7.421-6.016 13.438-13.438 13.438s-13.438-6.016-13.438-13.438c0-7.421 6.016-13.438 13.438-13.438s13.438 6.016 13.438 13.438z"></path>
</svg>
