<!-- Generated by IcoMoon.io -->
<svg version="1.1" xmlns="http://www.w3.org/2000/svg" width="32" height="32" viewBox="0 0 32 32">
<title>clock</title>
<path d="M16 3.667c-6.808 0-12.333 5.526-12.333 12.333s5.526 12.333 12.333 12.333c6.808 0 12.333-5.526 12.333-12.333s-5.526-12.333-12.333-12.333zM1.667 16c0-7.912 6.421-14.333 14.333-14.333s14.333 6.421 14.333 14.333c0 7.912-6.421 14.333-14.333 14.333s-14.333-6.421-14.333-14.333z"></path>
<path d="M15.507 9.013c0.552 0 1 0.448 1 1v5.467c0 0.205 0.078 0.501 0.252 0.806s0.389 0.523 0.564 0.627l0.003 0.002 4.133 2.467c0.474 0.283 0.629 0.897 0.346 1.371s-0.897 0.629-1.371 0.346l-4.131-2.465c-0-0-0.001-0.001-0.001-0.001-0.544-0.323-0.982-0.831-1.281-1.356s-0.515-1.162-0.515-1.797v-5.467c0-0.552 0.448-1 1-1z"></path>
</svg>
