<!-- Generated by IcoMoon.io -->
<svg version="1.1" xmlns="http://www.w3.org/2000/svg" width="32" height="32" viewBox="0 0 32 32">
<path d="M11.104 26.361c-0.559 0.186-0.861 0.79-0.675 1.349s0.79 0.861 1.349 0.675l-0.675-2.024zM19.195 27.89v0zM23.847 26.856v0zM28.292 22.812v0zM25.252 20.282v0zM23.205 22.329v0zM17.644 22.171c-0.589 0-1.067 0.478-1.067 1.067s0.478 1.067 1.067 1.067v-2.133zM27.82 20.027v0zM13.014 19.349v0zM18.579 18.84v0zM20.752 19.433v0zM21.44 22.025v0zM19.474 22.483c-0.417 0.417-0.417 1.092 0 1.509s1.092 0.416 1.509 0l-1.509-1.509zM11.441 27.373l0.337 1.012c0.18-0.060 0.522-0.093 1.089-0.052 0.545 0.039 1.18 0.134 1.897 0.247 1.372 0.215 3.073 0.505 4.527 0.372l-0.194-2.124c-1.131 0.103-2.531-0.124-4.002-0.355-0.704-0.11-1.427-0.221-2.077-0.267-0.628-0.045-1.32-0.042-1.915 0.156l0.337 1.012zM19.195 27.89l0.097 1.062c0.961-0.087 1.757-0.128 2.494-0.261 0.791-0.143 1.536-0.392 2.529-0.876l-0.936-1.917c-0.857 0.418-1.414 0.593-1.973 0.694-0.614 0.111-1.219 0.137-2.308 0.236l0.097 1.062zM23.847 26.856l0.468 0.959c0.951-0.464 1.875-1.216 2.678-1.987 0.813-0.781 1.552-1.632 2.129-2.344l-1.658-1.343c-0.543 0.671-1.222 1.449-1.949 2.148-0.738 0.709-1.475 1.287-2.135 1.609l0.468 0.959zM25.252 20.282l-0.754-0.754-2.047 2.047 1.508 1.508 2.047-2.047-0.754-0.754zM21.012 23.237v-1.067h-3.368v2.133h3.368v-1.067zM23.205 22.329l-0.754-0.754c-0.382 0.382-0.899 0.596-1.439 0.596v2.133c1.105 0 2.166-0.439 2.947-1.221l-0.754-0.754zM27.82 20.027l0.592-0.887c-1.23-0.82-2.868-0.658-3.914 0.388l1.508 1.509c0.326-0.326 0.838-0.377 1.222-0.121l0.592-0.888zM28.292 22.812l0.829 0.671c1.139-1.407 0.714-3.394-0.71-4.343l-1.183 1.775c0.462 0.308 0.523 0.871 0.236 1.226l0.829 0.671zM5.755 18.068v1.067h4.135v-2.133h-4.135v1.067zM10.924 19.102h-1.067v9.305h2.133v-9.305h-1.067zM9.89 29.44v-1.067h-4.135v2.133h4.135v-1.067zM4.721 28.407h1.067v-9.305h-2.133v9.305h1.067zM5.755 29.44v-1.067c0.003 0 0.008 0.001 0.013 0.003s0.008 0.004 0.010 0.007 0.005 0.005 0.007 0.010 0.003 0.011 0.003 0.013h-2.133c0 1.16 0.94 2.1 2.101 2.1v-1.067zM10.924 28.407h-1.067c0-0.003 0.001-0.008 0.003-0.013s0.004-0.008 0.007-0.010 0.005-0.005 0.010-0.007 0.011-0.003 0.013-0.003v2.133c1.16 0 2.101-0.94 2.101-2.1h-1.067zM9.89 18.068v1.067c-0.003 0-0.008-0.001-0.013-0.003s-0.008-0.004-0.010-0.007-0.005-0.005-0.007-0.010-0.003-0.011-0.003-0.013h2.133c0-1.16-0.94-2.101-2.101-2.101v1.067zM5.755 18.068v-1.067c-1.16 0-2.101 0.94-2.101 2.101h2.133c0 0.003-0.001 0.008-0.003 0.013s-0.004 0.008-0.007 0.010-0.005 0.005-0.010 0.007-0.011 0.003-0.013 0.003v-1.067zM11.441 20.136l0.477 0.954 1.573-0.787-0.954-1.908-1.573 0.787 0.477 0.954zM16.251 18.585v1.067h0.424v-2.133h-0.424v1.067zM18.579 18.84l-0.281 1.029 2.173 0.593 0.561-2.058-2.173-0.593-0.281 1.029zM21.44 22.025l-0.754-0.754-1.212 1.212 1.509 1.509 1.212-1.212-0.754-0.754zM20.752 19.433l-0.281 1.029c0.359 0.098 0.478 0.547 0.215 0.809l1.509 1.508c1.421-1.421 0.777-3.847-1.162-4.376l-0.281 1.029zM16.675 18.585v1.067c0.548 0 1.094 0.073 1.623 0.217l0.561-2.058c-0.712-0.194-1.447-0.293-2.185-0.293v1.067zM13.014 19.349l0.477 0.954c0.857-0.428 1.802-0.651 2.759-0.651v-2.133c-1.289 0-2.56 0.3-3.713 0.877l0.477 0.954zM24.364 10.831h-1.067c0 1.695-1.374 3.069-3.069 3.069v2.133c2.873 0 5.202-2.329 5.202-5.202h-1.067zM20.229 14.967v-1.067c-1.695 0-3.069-1.374-3.069-3.069h-2.133c0 2.873 2.329 5.202 5.202 5.202v-1.067zM16.093 10.831h1.067c0-1.695 1.374-3.069 3.069-3.069v-2.133c-2.873 0-5.202 2.329-5.202 5.202h1.067zM20.229 6.696v1.067c1.695 0 3.069 1.374 3.069 3.069h2.133c0-2.873-2.329-5.202-5.202-5.202v1.067zM16.093 10.831v-1.067c-1.695 0-3.069-1.374-3.069-3.069h-2.133c0 2.873 2.329 5.202 5.202 5.202v-1.067zM11.958 6.696h1.067c0-1.695 1.374-3.069 3.069-3.069v-2.133c-2.873 0-5.202 2.329-5.202 5.202h1.067zM16.093 2.56v1.067c1.695 0 3.069 1.374 3.069 3.069h2.133c0-2.873-2.329-5.202-5.202-5.202v1.067z"></path>
</svg>
