<!-- Generated by IcoMoon.io -->
<svg version="1.1" xmlns="http://www.w3.org/2000/svg" width="30" height="32" viewBox="0 0 30 32">
<path fill="none" stroke-linejoin="round" stroke-linecap="round" stroke-miterlimit="4" stroke-width="1.8824" stroke="#000" d="M12.8 10.729c0.685-3.018 3.384-5.271 6.609-5.271 3.742 0 6.776 3.034 6.776 6.776 0 3.467-2.603 6.325-5.961 6.728M8.283 8.471l3.012-3.012-3.012-3.012M2.259 11.482v-2.008c0-2.218 1.798-4.016 4.016-4.016h3.012M21.836 23.529l-3.012 3.012 3.012 3.012M27.859 20.518v2.008c0 2.218-1.798 4.016-4.016 4.016h-3.012M15.812 21.271c0 3.743-3.034 6.776-6.776 6.776s-6.776-3.034-6.776-6.776c0-3.742 3.034-6.776 6.776-6.776s6.776 3.034 6.776 6.776z"></path>
</svg>
