<!-- Generated by IcoMoon.io -->
<svg version="1.1" xmlns="http://www.w3.org/2000/svg" width="32" height="32" viewBox="0 0 32 32">
<path d="M2.17 14.272c-1.194 0-2.17 0.976-2.17 2.17v6.139c0 1.193 0.977 2.17 2.17 2.17h27.66c1.193 0 2.17-0.977 2.17-2.17v-6.139c0-1.193-0.977-2.17-2.17-2.17h-27.66zM16 7.249c0.435 0 0.787 0.352 0.787 0.787 0 0.017 0 0.035-0.001 0.051l11.102 5.853h-0.689l-10.503-5.537c-0.132 0.25-0.394 0.42-0.696 0.42s-0.564-0.17-0.696-0.42l-10.503 5.537h-0.689l11.102-5.853c-0.001-0.017-0.002-0.034-0.002-0.051 0-0.435 0.352-0.787 0.787-0.787zM2.17 14.688h27.66c0.965 0 1.754 0.789 1.754 1.754v6.139c0 0.965-0.79 1.754-1.754 1.754h-27.66c-0.965 0-1.754-0.789-1.754-1.754v-6.139c0-0.965 0.789-1.754 1.754-1.754zM2.17 15.104h27.66c0.736 0 1.338 0.603 1.338 1.338v6.139c0 0.736-0.603 1.338-1.338 1.338h-27.66c-0.736 0-1.338-0.602-1.338-1.338v-6.139c0-0.736 0.602-1.338 1.338-1.338zM3.715 20.126v0.69c0 0.115-0.015 0.206-0.048 0.275s-0.077 0.118-0.136 0.149c-0.059 0.031-0.128 0.046-0.209 0.045-0.081 0.001-0.15-0.014-0.21-0.045s-0.103-0.080-0.136-0.149c-0.032-0.069-0.048-0.16-0.048-0.275v-2.609c0.001-0.171 0.037-0.293 0.106-0.368 0.071-0.073 0.166-0.111 0.288-0.108 0.122-0.002 0.217 0.035 0.287 0.108 0.069 0.075 0.105 0.197 0.106 0.368v0.517h0.718v-0.469c0-0.259-0.042-0.478-0.128-0.659s-0.211-0.317-0.379-0.413c-0.168-0.094-0.376-0.142-0.625-0.143-0.248 0.001-0.456 0.048-0.624 0.143s-0.295 0.232-0.38 0.413-0.128 0.401-0.128 0.659v2.512c0 0.259 0.042 0.477 0.128 0.658s0.211 0.318 0.38 0.414c0.168 0.094 0.376 0.142 0.624 0.143 0.248-0.001 0.457-0.048 0.625-0.143s0.295-0.234 0.379-0.414 0.128-0.4 0.128-0.658v-0.642zM5.593 18.207c0.001-0.171 0.036-0.293 0.106-0.369 0.070-0.073 0.165-0.11 0.287-0.108 0.122-0.002 0.217 0.034 0.288 0.108 0.069 0.075 0.104 0.197 0.106 0.369v2.609c-0.001 0.171-0.037 0.293-0.106 0.368-0.071 0.073-0.166 0.111-0.288 0.108-0.122 0.002-0.217-0.035-0.287-0.108-0.069-0.075-0.104-0.197-0.106-0.368zM4.833 20.768c0 0.259 0.045 0.477 0.134 0.658s0.217 0.318 0.389 0.414c0.171 0.094 0.382 0.142 0.63 0.143 0.248-0.001 0.459-0.048 0.631-0.143 0.171-0.096 0.3-0.234 0.389-0.414s0.133-0.4 0.133-0.658v-2.512c0-0.259-0.045-0.478-0.133-0.659s-0.217-0.317-0.389-0.413c-0.171-0.094-0.382-0.142-0.631-0.143-0.248 0.001-0.459 0.048-0.63 0.143s-0.3 0.232-0.389 0.413-0.134 0.401-0.134 0.659zM8.678 17.096h-1.056v4.832h0.662v-3.417l0.566 3.417h0.718l0.524-3.465v3.465h0.718v-4.832h-1.056l-0.518 3.431zM11.362 21.928h0.759v-4.832h-0.759zM14.295 21.928h0.78v-4.832h-0.676v2.892l-0.78-2.892h-0.953v4.832h0.683v-3.499zM16.759 19.926h0.345v0.89c0 0.113-0.016 0.206-0.048 0.275s-0.077 0.118-0.136 0.149-0.128 0.046-0.209 0.045c-0.081 0.001-0.151-0.014-0.21-0.045s-0.103-0.080-0.136-0.149c-0.032-0.069-0.048-0.161-0.048-0.275v-2.609c0.001-0.171 0.036-0.293 0.106-0.368 0.070-0.073 0.166-0.111 0.288-0.108 0.122-0.002 0.217 0.035 0.287 0.108 0.069 0.075 0.105 0.197 0.106 0.368v0.517h0.718v-0.469c0-0.259-0.042-0.478-0.128-0.659s-0.211-0.317-0.379-0.413c-0.168-0.094-0.376-0.142-0.625-0.143-0.248 0.001-0.456 0.048-0.625 0.143-0.168 0.096-0.294 0.232-0.379 0.413s-0.128 0.401-0.128 0.659v2.512c0 0.259 0.042 0.477 0.128 0.658s0.211 0.318 0.379 0.414c0.168 0.094 0.376 0.142 0.625 0.143 0.248-0.001 0.457-0.048 0.625-0.143s0.294-0.234 0.379-0.414 0.128-0.4 0.128-0.658v-1.532h-1.062zM19.285 18.256c0.001 0.195 0.029 0.37 0.083 0.524 0.053 0.153 0.123 0.291 0.211 0.413s0.184 0.235 0.29 0.337 0.211 0.201 0.315 0.295c0.106 0.095 0.202 0.191 0.29 0.29 0.089 0.098 0.159 0.205 0.213 0.319 0.053 0.113 0.080 0.24 0.081 0.382 0 0.115-0.016 0.206-0.048 0.275s-0.077 0.118-0.136 0.149c-0.059 0.031-0.128 0.046-0.209 0.045-0.081 0.001-0.151-0.014-0.21-0.045s-0.103-0.080-0.136-0.149c-0.032-0.069-0.048-0.16-0.048-0.275v-0.345h-0.718v0.297c0 0.259 0.042 0.477 0.128 0.658s0.212 0.318 0.379 0.414c0.168 0.094 0.377 0.142 0.625 0.143 0.249-0.001 0.457-0.048 0.625-0.143s0.294-0.234 0.379-0.414 0.128-0.4 0.128-0.658c-0.001-0.197-0.029-0.372-0.082-0.524s-0.124-0.291-0.212-0.413c-0.088-0.122-0.185-0.235-0.29-0.337s-0.21-0.201-0.315-0.296c-0.106-0.094-0.203-0.191-0.29-0.29-0.088-0.098-0.159-0.205-0.213-0.319s-0.081-0.241-0.082-0.382c0.001-0.171 0.034-0.293 0.099-0.369 0.065-0.073 0.158-0.11 0.28-0.108 0.122-0.002 0.216 0.034 0.281 0.108s0.097 0.197 0.099 0.369v0.2h0.718v-0.152c0-0.259-0.043-0.478-0.125-0.659-0.084-0.18-0.209-0.317-0.375-0.413-0.165-0.094-0.372-0.142-0.618-0.143-0.246 0.001-0.452 0.048-0.618 0.143s-0.29 0.232-0.374 0.413c-0.083 0.181-0.125 0.401-0.125 0.659zM22.66 18.207c0.001-0.171 0.036-0.293 0.106-0.369 0.070-0.073 0.165-0.11 0.287-0.108 0.122-0.002 0.217 0.034 0.288 0.108 0.069 0.075 0.105 0.197 0.106 0.369v2.609c-0.001 0.171-0.037 0.293-0.106 0.368-0.070 0.073-0.166 0.111-0.288 0.108-0.122 0.002-0.217-0.035-0.287-0.108-0.069-0.075-0.105-0.197-0.106-0.368zM21.901 20.768c0 0.259 0.044 0.477 0.133 0.658s0.217 0.318 0.389 0.414c0.171 0.094 0.382 0.142 0.63 0.143 0.248-0.001 0.459-0.048 0.63-0.143 0.172-0.096 0.301-0.234 0.389-0.414s0.133-0.4 0.133-0.658v-2.512c0-0.259-0.045-0.478-0.133-0.659s-0.217-0.317-0.389-0.413c-0.171-0.094-0.382-0.142-0.63-0.143-0.248 0.001-0.459 0.048-0.63 0.143s-0.3 0.232-0.389 0.413-0.133 0.401-0.133 0.659zM25.393 18.207c0.001-0.171 0.037-0.293 0.106-0.369 0.070-0.073 0.165-0.11 0.287-0.108 0.122-0.002 0.217 0.034 0.288 0.108 0.069 0.075 0.105 0.197 0.106 0.369v2.609c-0.001 0.171-0.037 0.293-0.106 0.368-0.070 0.073-0.166 0.111-0.288 0.108-0.122 0.002-0.217-0.035-0.287-0.108-0.069-0.075-0.105-0.197-0.106-0.368zM24.634 20.768c0 0.259 0.045 0.477 0.133 0.658s0.217 0.318 0.389 0.414c0.171 0.094 0.382 0.142 0.63 0.143 0.248-0.001 0.459-0.048 0.63-0.143 0.172-0.096 0.3-0.234 0.389-0.414s0.133-0.4 0.133-0.658v-2.512c0-0.259-0.045-0.478-0.133-0.659s-0.217-0.317-0.389-0.413c-0.171-0.094-0.382-0.142-0.63-0.143-0.248 0.001-0.459 0.048-0.63 0.143s-0.3 0.232-0.389 0.413-0.133 0.401-0.133 0.659zM29.051 21.928h0.779v-4.832h-0.676v2.892l-0.779-2.892h-0.953v4.832h0.683v-3.499z"></path>
</svg>
