<!-- Generated by IcoMoon.io -->
<svg version="1.1" xmlns="http://www.w3.org/2000/svg" width="32" height="32" viewBox="0 0 32 32">
<path fill="#000" d="M31.964 12.559c-0.256-0.489-0.657-0.889-1.193-1.19-0.428-0.24-0.912-0.361-1.44-0.361-0.15 0-0.306 0.010-0.464 0.030-0.828 0.103-1.531 0.38-2.1 0.824l0.045-0.484-3.103 0.388-0.082 0.868-0.522-0.792-7.698 0.962-0.384 0.891-0.224-0.815-3.326 0.416-0.105 1.141c-0.126-0.119-0.262-0.228-0.412-0.327-0.561-0.371-1.205-0.56-1.915-0.56-0.175 0-0.356 0.012-0.537 0.035-1.057 0.132-1.913 0.597-2.54 1.381 0 0.001 0 0.001-0.001 0.002-0.114-0.102-0.237-0.197-0.369-0.287-0.292-0.199-0.644-0.34-1.044-0.419-0.22-0.043-0.451-0.065-0.687-0.065-0.171 0-0.348 0.011-0.527 0.034-1.040 0.131-1.89 0.579-2.524 1.333-0.65 0.772-0.912 1.702-0.779 2.765 0.113 0.908 0.566 1.64 1.308 2.117 0.564 0.363 1.205 0.547 1.905 0.547 0.174 0 0.353-0.012 0.534-0.035 0.51-0.064 1.011-0.238 1.488-0.518 0.369-0.216 0.684-0.506 0.944-0.863 0.084 0.070 0.172 0.136 0.265 0.199-0.481 0.174-0.876 0.447-1.179 0.816-0.466 0.567-0.668 1.226-0.582 1.906 0.046 0.363 0.186 0.693 0.409 0.967l-0.971 1.511 0.481 0.449c0.381 0.356 0.874 0.613 1.463 0.763 0.359 0.092 0.737 0.138 1.124 0.138 0.211 0 0.429-0.014 0.647-0.041 0.822-0.103 1.477-0.425 1.947-0.959 0.115-0.129 0.213-0.266 0.296-0.409 0.090 0.075 0.184 0.148 0.285 0.216 0.561 0.373 1.207 0.563 1.922 0.563 0.175 0 0.356-0.012 0.539-0.035 1.059-0.133 1.913-0.6 2.538-1.389 0.067-0.085 0.129-0.171 0.188-0.258 0.146 0.15 0.311 0.286 0.493 0.407 0.561 0.374 1.207 0.564 1.922 0.564 0.175 0 0.357-0.012 0.54-0.035 0.758-0.094 1.409-0.361 1.948-0.794l-0.044 0.466 3.104-0.388 0.094-1.019 0.611 0.93 2.557-0.319 0.577-6.228c0.393 0.144 0.811 0.218 1.249 0.218 0.172 0 0.348-0.012 0.525-0.034 0.56-0.069 1.070-0.249 1.514-0.533 0.386-0.247 0.705-0.556 0.952-0.925l0.372-3.696zM3.789 17.868c-0.005 0.014-0.033 0.053-0.104 0.105-0.069 0.052-0.132 0.083-0.186 0.089-0.030 0.004-0.057 0.006-0.083 0.006-0.096 0-0.142-0.026-0.177-0.052-0.066-0.051-0.090-0.097-0.102-0.18-0.023-0.186 0.015-0.338 0.124-0.494 0.093-0.134 0.2-0.197 0.369-0.217 0.023-0.003 0.045-0.005 0.064-0.005 0.065 0 0.099 0.016 0.125 0.029 0.026 0.016 0.043 0.029 0.060 0.081l0.071 0.218zM9.020 17.208c-0.089 0.127-0.19 0.188-0.352 0.208-0.031 0.004-0.062 0.006-0.089 0.006-0.1 0-0.148-0.025-0.181-0.050-0.040-0.030-0.077-0.066-0.091-0.183-0.024-0.194 0.012-0.348 0.118-0.5 0.089-0.128 0.191-0.188 0.353-0.208 0.031-0.004 0.060-0.006 0.089-0.006 0.1 0 0.148 0.026 0.182 0.050 0.039 0.031 0.077 0.067 0.091 0.184 0.024 0.193-0.012 0.348-0.119 0.5zM9.989 20.181c-0.043-0.029-0.086-0.058-0.131-0.085 0.121-0.044 0.239-0.092 0.352-0.148-0.077 0.074-0.151 0.151-0.222 0.232zM12.931 22.558c-0.089 0.128-0.19 0.188-0.352 0.208-0.031 0.004-0.062 0.006-0.089 0.006-0.1 0-0.148-0.026-0.181-0.051-0.040-0.029-0.077-0.066-0.092-0.183-0.024-0.192 0.012-0.347 0.119-0.5 0.089-0.127 0.19-0.188 0.352-0.207 0.031-0.004 0.061-0.006 0.089-0.006 0.1 0 0.149 0.026 0.181 0.051 0.040 0.029 0.077 0.066 0.092 0.183 0.024 0.192-0.013 0.347-0.119 0.5zM15.556 19.606c-0.069 0.086-0.133 0.173-0.192 0.262-0.14-0.144-0.297-0.274-0.471-0.392l0.87-0.109c-0.071 0.076-0.14 0.155-0.207 0.238zM18.611 21.848c-0.089 0.128-0.19 0.188-0.352 0.208-0.031 0.004-0.062 0.006-0.089 0.006-0.1 0-0.147-0.026-0.181-0.050-0.040-0.030-0.077-0.067-0.091-0.184-0.025-0.192 0.012-0.347 0.118-0.5 0.089-0.127 0.191-0.188 0.353-0.208 0.031-0.004 0.061-0.006 0.089-0.006 0.1 0 0.148 0.025 0.182 0.050 0.040 0.029 0.077 0.066 0.091 0.183 0.024 0.192-0.012 0.347-0.119 0.5zM20.959 19.075c-0.118-0.112-0.247-0.215-0.386-0.309l0.419-0.052zM23.001 17.693l0.022-0.24 0.144 0.219zM24.246 18.394l-0.052-0.081 0.060-0.007zM26.264 17.285l0.032-0.347c0.115 0.107 0.24 0.206 0.375 0.296z"></path>
<path fill="#fff" d="M3.682 20.174c-0.727 0.091-1.364-0.040-1.913-0.393s-0.866-0.87-0.951-1.551c-0.106-0.84 0.094-1.559 0.599-2.159s1.177-0.952 2.018-1.057c0.346-0.043 0.667-0.036 0.963 0.022s0.547 0.157 0.752 0.297c0.206 0.14 0.38 0.294 0.521 0.462s0.255 0.354 0.341 0.559l-1.382 0.632c-0.073-0.226-0.211-0.399-0.411-0.516s-0.429-0.161-0.686-0.129c-0.391 0.048-0.697 0.231-0.918 0.547s-0.308 0.664-0.26 1.045c0.036 0.291 0.17 0.527 0.401 0.706s0.512 0.249 0.843 0.207c0.193-0.024 0.38-0.104 0.561-0.239s0.304-0.288 0.368-0.457l1.267 0.609c-0.231 0.44-0.539 0.773-0.926 1s-0.781 0.365-1.187 0.415z"></path>
<path fill="#fff" d="M8.85 19.528c-0.741 0.092-1.383-0.041-1.926-0.403s-0.855-0.875-0.939-1.541c-0.1-0.795 0.099-1.503 0.596-2.125s1.17-0.985 2.021-1.091c0.737-0.092 1.376 0.041 1.918 0.399s0.854 0.869 0.937 1.531c0.1 0.8-0.097 1.512-0.591 2.136s-1.167 0.988-2.017 1.095zM8.766 18.199c0.386-0.048 0.687-0.229 0.904-0.542s0.301-0.663 0.253-1.047c-0.039-0.306-0.173-0.545-0.403-0.717s-0.51-0.238-0.842-0.196c-0.386 0.048-0.687 0.229-0.904 0.542s-0.301 0.662-0.253 1.047c0.038 0.306 0.173 0.546 0.402 0.717 0.23 0.173 0.51 0.238 0.842 0.196z"></path>
<path fill="#fff" d="M17.604 18.343l-1.497 0.188 0.28-3.053-1.385 3.19-0.667 0.083-0.824-2.914-0.28 3.052-1.498 0.188 0.471-5.078 2.017-0.252 0.638 2.328 1.097-2.545 2.121-0.265z"></path>
<path fill="#fff" d="M19.903 18.055l-1.498 0.188 0.471-5.078 1.498-0.188z"></path>
<path fill="#fff" d="M25.464 17.36l-1.439 0.18-1.581-2.405-0.243 2.634-1.497 0.187 0.471-5.078 1.542-0.193 1.487 2.252 0.233-2.467 1.497-0.187z"></path>
<path fill="#fff" d="M29.064 17c-0.712 0.089-1.345-0.040-1.901-0.387s-0.877-0.866-0.963-1.557c-0.103-0.82 0.102-1.535 0.612-2.146s1.229-0.974 2.153-1.089c0.544-0.068 1.017 0.011 1.419 0.237s0.696 0.514 0.881 0.868l-1.309 0.735c-0.060-0.153-0.19-0.281-0.391-0.384s-0.418-0.14-0.65-0.11c-0.376 0.047-0.679 0.225-0.909 0.535s-0.32 0.662-0.27 1.057c0.035 0.281 0.166 0.515 0.393 0.699s0.51 0.257 0.851 0.213c0.247-0.031 0.462-0.133 0.647-0.306l0.014-0.19-0.92 0.115 0.134-1.341 2.41-0.302-0.198 2.087c-0.198 0.346-0.47 0.63-0.816 0.851s-0.742 0.359-1.187 0.415z"></path>
<path fill="#fff" d="M7.771 25.502c-0.524 0.066-1.017 0.039-1.478-0.079s-0.835-0.309-1.119-0.575l0.756-1.178c0.201 0.201 0.468 0.352 0.802 0.453s0.666 0.131 0.998 0.090c0.129-0.016 0.224-0.050 0.285-0.104s0.089-0.106 0.081-0.161c-0.009-0.074-0.099-0.133-0.27-0.176s-0.378-0.089-0.619-0.134c-0.242-0.045-0.484-0.106-0.727-0.184s-0.458-0.206-0.647-0.385c-0.188-0.18-0.299-0.403-0.333-0.67-0.058-0.469 0.077-0.905 0.409-1.308s0.828-0.645 1.49-0.728c0.411-0.051 0.815-0.030 1.213 0.063s0.748 0.256 1.048 0.489l-0.767 1.15c-0.217-0.169-0.472-0.287-0.764-0.356s-0.564-0.087-0.817-0.056c-0.094 0.012-0.165 0.039-0.215 0.083s-0.071 0.095-0.064 0.155c0.008 0.069 0.099 0.125 0.27 0.169s0.378 0.089 0.62 0.136c0.242 0.048 0.485 0.11 0.731 0.187s0.462 0.206 0.651 0.386c0.188 0.179 0.299 0.403 0.333 0.669 0.066 0.523-0.072 0.979-0.413 1.365s-0.825 0.619-1.453 0.697z"></path>
<path fill="#fff" d="M12.762 24.878c-0.742 0.093-1.383-0.041-1.926-0.402s-0.855-0.875-0.939-1.542c-0.1-0.795 0.098-1.503 0.596-2.125s1.171-0.985 2.021-1.091c0.737-0.092 1.376 0.041 1.918 0.399s0.855 0.869 0.937 1.531c0.1 0.8-0.096 1.512-0.591 2.135s-1.166 0.989-2.016 1.095zM12.678 23.549c0.386-0.048 0.687-0.229 0.904-0.542s0.301-0.663 0.252-1.047c-0.038-0.306-0.173-0.545-0.402-0.717s-0.511-0.238-0.842-0.196c-0.386 0.048-0.687 0.229-0.904 0.542s-0.301 0.663-0.253 1.047c0.039 0.306 0.173 0.545 0.403 0.717s0.51 0.238 0.842 0.196z"></path>
<path fill="#fff" d="M18.441 24.168c-0.741 0.092-1.383-0.042-1.926-0.403s-0.855-0.875-0.939-1.542c-0.1-0.795 0.099-1.503 0.596-2.125s1.171-0.985 2.021-1.091c0.737-0.092 1.376 0.041 1.918 0.399s0.854 0.869 0.937 1.531c0.1 0.8-0.097 1.512-0.591 2.135s-1.167 0.988-2.017 1.095zM18.358 22.839c0.385-0.048 0.687-0.229 0.903-0.542s0.301-0.663 0.253-1.047c-0.039-0.306-0.173-0.545-0.403-0.717s-0.51-0.238-0.842-0.196c-0.386 0.048-0.687 0.229-0.904 0.542s-0.301 0.662-0.253 1.047c0.039 0.306 0.173 0.546 0.403 0.717s0.51 0.238 0.842 0.196z"></path>
<path fill="#fff" d="M26.083 23.122l-1.439 0.18-1.582-2.405-0.242 2.634-1.498 0.188 0.471-5.078 1.543-0.193 1.487 2.252 0.233-2.467 1.498-0.188z"></path>
<path fill="#000" d="M8.816 15.1c0 0.058-0.011 0.113-0.033 0.167s-0.054 0.101-0.094 0.142c-0.041 0.041-0.089 0.073-0.142 0.095s-0.109 0.033-0.167 0.033c-0.058 0-0.113-0.011-0.167-0.033s-0.1-0.054-0.142-0.095c-0.041-0.041-0.072-0.088-0.094-0.142s-0.033-0.109-0.033-0.167c0-0.058 0.011-0.114 0.033-0.167s0.054-0.101 0.094-0.142c0.041-0.041 0.089-0.073 0.142-0.095s0.11-0.033 0.167-0.033c0.058 0 0.114 0.011 0.167 0.033s0.101 0.054 0.142 0.095c0.041 0.041 0.072 0.088 0.094 0.142s0.033 0.109 0.033 0.167z"></path>
<path fill="#000" d="M25.342 12.978c-0.001 0.058-0.011 0.113-0.033 0.167s-0.054 0.1-0.095 0.142c-0.041 0.041-0.088 0.072-0.142 0.094s-0.109 0.033-0.167 0.033c-0.058 0-0.113-0.011-0.167-0.033s-0.101-0.054-0.142-0.094c-0.041-0.041-0.073-0.089-0.094-0.142s-0.033-0.11-0.033-0.167 0.011-0.113 0.033-0.167c0.022-0.053 0.053-0.1 0.094-0.142s0.089-0.072 0.142-0.094c0.054-0.022 0.11-0.033 0.167-0.033s0.114 0.011 0.167 0.033c0.054 0.022 0.101 0.054 0.142 0.094s0.073 0.089 0.095 0.142c0.022 0.054 0.033 0.11 0.033 0.167z"></path>
<path fill="#000" d="M24.707 5.673h0.395v7.304h-0.395z"></path>
<path fill="#000" d="M8.193 5.673h0.396v9.249h-0.396z"></path>
</svg>
