<!-- Generated by IcoMoon.io -->
<svg version="1.1" xmlns="http://www.w3.org/2000/svg" width="32" height="32" viewBox="0 0 32 32">
<path d="M18.707 4.775c-1.492-1.48-3.926-1.476-5.401-0.001l-8.518 8.518c0 0-0.001 0.001-0.001 0.001-1.48 1.492-1.476 3.926-0.001 5.4l8.518 8.517c0 0.001 0.001 0.001 0.001 0.001 1.492 1.479 3.926 1.475 5.4 0.001l8.52-8.52c1.474-1.474 1.478-3.909-0.001-5.4 0 0-0.001-0.001-0.001-0.001l-8.515-8.515c0 0-0.001-0.001-0.001-0.001zM11.893 3.36c2.259-2.259 5.956-2.255 8.225-0.002l0.003 0.002 8.523 8.523c2.252 2.269 2.256 5.966-0.003 8.225l-8.52 8.52c-2.259 2.259-5.956 2.255-8.225 0.003l-8.523-8.523c-2.259-2.259-2.255-5.956-0.003-8.225l0.002-0.003 8.52-8.52z"></path>
</svg>
