<!-- Generated by IcoMoon.io -->
<svg version="1.1" xmlns="http://www.w3.org/2000/svg" width="32" height="32" viewBox="0 0 32 32">
<title>confirmation</title>
<path fill="#9ac927" d="M15.576 0c-8.468 0-15.337 6.865-15.337 15.333s6.869 15.333 15.337 15.333c8.468 0 15.337-6.865 15.337-15.333s-6.869-15.333-15.337-15.333zM8.075 18.122c-0.799-0.798-0.799-2.093 0-2.891s2.093-0.798 2.892 0l2.892 2.891 7.23-7.228c0.798-0.798 2.093-0.798 2.892 0s0.799 2.093 0 2.891l-9.98 9.978c-0.078 0.078-0.205 0.078-0.284 0l-5.642-5.641z"></path>
</svg>
