<!-- Generated by IcoMoon.io -->
<svg version="1.1" xmlns="http://www.w3.org/2000/svg" width="32" height="32" viewBox="0 0 32 32">
<title>convert</title>
<path d="M16.007 3.701c-6.796 0-12.306 5.509-12.306 12.306s5.509 12.306 12.306 12.306c6.796 0 12.306-5.509 12.306-12.306s-5.509-12.306-12.306-12.306zM1.701 16.007c0-7.901 6.405-14.306 14.306-14.306s14.306 6.405 14.306 14.306c0 7.901-6.405 14.306-14.306 14.306s-14.306-6.405-14.306-14.306z"></path>
<path d="M7.477 4.654c0.391-0.39 1.024-0.389 1.414 0.002l9.187 9.209 0.016-3.651c0.002-0.552 0.452-0.998 1.004-0.996s0.998 0.452 0.996 1.004l-0.027 6.054c-0.002 0.404-0.246 0.767-0.62 0.921s-0.803 0.067-1.088-0.219l-10.884-10.911c-0.39-0.391-0.389-1.024 0.002-1.414z"></path>
<path d="M12.553 14.816c0.373-0.154 0.803-0.068 1.088 0.218l10.884 10.897c0.39 0.391 0.39 1.024-0.001 1.414s-1.024 0.39-1.414-0.001l-9.187-9.198-0.016 3.639c-0.003 0.552-0.452 0.998-1.004 0.995s-0.998-0.452-0.996-1.004l0.027-6.041c0.002-0.404 0.246-0.767 0.62-0.92z"></path>
</svg>
