<!-- Generated by IcoMoon.io -->
<svg version="1.1" xmlns="http://www.w3.org/2000/svg" width="32" height="32" viewBox="0 0 32 32">
<path stroke-linejoin="miter" stroke-linecap="butt" stroke-miterlimit="4" stroke-width="0.6154" stroke="#000" fill="#000" d="M30.768 15.873l-0.001-0.059c-0.002-0.18-0.073-0.353-0.198-0.482s-0.295-0.207-0.475-0.216c-1.054-0.053-1.984-0.683-2.428-1.643-0.043-0.094-0.107-0.178-0.187-0.245s-0.173-0.116-0.273-0.142c-0.1-0.027-0.205-0.031-0.308-0.013s-0.199 0.059-0.284 0.119c-0.475 0.335-1.057 0.52-1.64 0.52-0.496-0.001-0.983-0.132-1.412-0.38-0.953-0.55-1.505-1.615-1.405-2.713 0.009-0.103-0.004-0.208-0.039-0.305s-0.092-0.186-0.165-0.26c-0.073-0.073-0.162-0.13-0.26-0.165s-0.202-0.049-0.305-0.040c-0.085 0.008-0.171 0.012-0.256 0.012-1.011 0-1.952-0.543-2.457-1.416-0.55-0.953-0.495-2.151 0.14-3.052 0.060-0.085 0.1-0.182 0.119-0.284s0.014-0.207-0.013-0.308c-0.027-0.1-0.075-0.194-0.142-0.273s-0.15-0.143-0.245-0.187c-0.96-0.444-1.589-1.373-1.643-2.426-0.009-0.18-0.086-0.349-0.216-0.474s-0.302-0.196-0.482-0.198l-0.058-0.001c-0.045-0.001-0.090-0.002-0.136-0.002-8.144 0-14.769 6.625-14.769 14.769s6.625 14.769 14.769 14.769c8.144 0 14.769-6.625 14.769-14.769 0-0.045-0.001-0.090-0.001-0.135zM6.188 8.755c0 0.859-0.699 1.558-1.558 1.558-0.22-0-0.438-0.048-0.638-0.138 0.452-0.926 1.009-1.797 1.661-2.596 0.168 0.146 0.303 0.327 0.396 0.53s0.14 0.423 0.14 0.646zM16 29.36c-7.363 0-13.353-5.99-13.353-13.352 0-1.588 0.279-3.112 0.79-4.527 0.376 0.164 0.782 0.249 1.192 0.249 1.641 0 2.975-1.335 2.975-2.975 0-0.869-0.374-1.672-0.999-2.226 2.319-2.298 5.473-3.755 8.961-3.867 0.223 1.045 0.833 1.966 1.708 2.58-0.571 1.239-0.52 2.705 0.176 3.91 0.692 1.199 1.932 1.982 3.299 2.107 0.125 1.359 0.902 2.603 2.107 3.299 0.646 0.373 1.379 0.57 2.121 0.57 0.625 0 1.232-0.134 1.789-0.393 0.614 0.874 1.536 1.484 2.58 1.707-0.031 0.988-0.173 1.969-0.421 2.926-0.317-0.111-0.65-0.168-0.985-0.169-1.641 0-2.975 1.335-2.975 2.975 0 0.977 0.485 1.874 1.251 2.422-2.451 2.911-6.12 4.764-10.215 4.764zM27.070 23.465c-0.42-0.285-0.689-0.766-0.689-1.292 0-0.859 0.699-1.558 1.558-1.558 0.193 0 0.379 0.035 0.554 0.102-0.366 0.968-0.844 1.89-1.424 2.748z"></path>
<path fill="none" stroke-linejoin="miter" stroke-linecap="butt" stroke-miterlimit="10" stroke-width="1.8462" stroke="#000" d="M14.666 17.155c1.648-0.568 2.524-2.365 1.956-4.013s-2.365-2.524-4.013-1.956c-1.648 0.568-2.524 2.365-1.956 4.013s2.365 2.524 4.013 1.956z"></path>
<path fill="none" stroke-linejoin="miter" stroke-linecap="butt" stroke-miterlimit="10" stroke-width="1.8462" stroke="#000" d="M11.484 23.702c0.99-0.341 1.516-1.42 1.175-2.409s-1.42-1.516-2.409-1.175c-0.99 0.341-1.516 1.42-1.175 2.409s1.42 1.516 2.409 1.175z"></path>
<path fill="none" stroke-linejoin="miter" stroke-linecap="butt" stroke-miterlimit="10" stroke-width="1.8462" stroke="#000" d="M20.059 23.11c0.823-0.283 1.26-1.18 0.976-2.003s-1.18-1.26-2.003-0.976-1.26 1.18-0.976 2.003c0.283 0.823 1.18 1.26 2.003 0.976z"></path>
</svg>
