<!-- Generated by IcoMoon.io -->
<svg version="1.1" xmlns="http://www.w3.org/2000/svg" width="32" height="32" viewBox="0 0 32 32">
<path fill="none" stroke-linejoin="round" stroke-linecap="round" stroke-miterlimit="4" stroke-width="1.8462" stroke="#000" d="M6.567 19.2h-1.231c-0.653 0-1.279-0.259-1.741-0.721s-0.721-1.088-0.721-1.741v-11.077c0-0.653 0.259-1.279 0.721-1.741s1.088-0.721 1.741-0.721h11.077c0.653 0 1.279 0.259 1.741 0.721s0.721 1.088 0.721 1.741v1.231M13.952 11.815h11.077c1.36 0 2.462 1.102 2.462 2.462v11.077c0 1.36-1.102 2.462-2.462 2.462h-11.077c-1.359 0-2.462-1.102-2.462-2.462v-11.077c0-1.359 1.102-2.462 2.462-2.462z"></path>
</svg>
