<!-- Generated by IcoMoon.io -->
<svg version="1.1" xmlns="http://www.w3.org/2000/svg" width="32" height="32" viewBox="0 0 32 32">
<path fill="none" stroke-linejoin="round" stroke-linecap="round" stroke-miterlimit="4" stroke-width="1.5238" stroke="#000" d="M21.968 10.462c-0.253-0.717-0.714-1.342-1.325-1.795s-1.344-0.712-2.103-0.745h-5.079c-1.010 0-1.979 0.401-2.694 1.116s-1.116 1.683-1.116 2.694c0 1.010 0.401 1.979 1.116 2.694s1.683 1.116 2.694 1.116h5.079c1.010 0 1.979 0.401 2.694 1.116s1.116 1.683 1.116 2.694c0 1.010-0.401 1.979-1.116 2.694s-1.683 1.116-2.694 1.116h-5.079c-0.76-0.033-1.492-0.292-2.103-0.745s-1.073-1.078-1.325-1.795M15.999 4.113v3.81M15.999 23.161v3.81"></path>
</svg>
