<!-- Generated by IcoMoon.io -->
<svg version="1.1" xmlns="http://www.w3.org/2000/svg" width="32" height="32" viewBox="0 0 32 32">
<path fill="none" stroke-linejoin="round" stroke-linecap="round" stroke-miterlimit="4" stroke-width="1.8824" stroke="#000" d="M19.293 11.011c-0.729-0.834-1.653-1.397-2.656-1.621s-2.040-0.096-2.981 0.365c-0.941 0.461-1.745 1.237-2.309 2.229s-0.866 2.156-0.866 3.347c0 1.191 0.301 2.355 0.866 3.347s1.368 1.767 2.309 2.229c0.941 0.461 1.978 0.588 2.981 0.365s1.927-0.787 2.656-1.621M15.664 13.603h-6.912M8.752 17.059h6.912M27.576 15.248c0 6.653-5.394 12.047-12.047 12.047s-12.047-5.394-12.047-12.047 5.394-12.047 12.047-12.047c6.653 0 12.047 5.394 12.047 12.047z"></path>
</svg>
