<!-- Generated by IcoMoon.io -->
<svg version="1.1" xmlns="http://www.w3.org/2000/svg" width="32" height="32" viewBox="0 0 32 32">
<path d="M16 11c0.552 0 1 0.448 1 1v6.667c0 0.552-0.448 1-1 1s-1-0.448-1-1v-6.667c0-0.552 0.448-1 1-1z"></path>
<path d="M16 4.456c-1.067 0-2.357 0.732-3.446 2.695l-8.080 14.533c-1.014 1.829-0.971 3.271-0.427 4.197s1.779 1.665 3.873 1.665h8.080c0.056 0 0.11 0.005 0.164 0.013h7.916c2.086 0 3.323-0.739 3.868-1.665s0.591-2.369-0.423-4.196l-8.079-14.546c-1.089-1.963-2.379-2.696-3.446-2.696zM15.836 29.546h-7.916c-2.533 0-4.577-0.914-5.597-2.652s-0.823-3.968 0.403-6.179l8.080-14.533c0 0 0 0 0 0 1.285-2.316 3.128-3.725 5.195-3.725s3.909 1.408 5.194 3.724l3.92 7.053 4.16 7.494c1.227 2.213 1.419 4.444 0.398 6.181s-3.065 2.651-5.592 2.651h-8.080c-0.056 0-0.111-0.005-0.164-0.013z"></path>
<path d="M14.659 22.667c0-0.736 0.597-1.333 1.333-1.333h0.012c0.736 0 1.333 0.597 1.333 1.333s-0.597 1.333-1.333 1.333h-0.012c-0.736 0-1.333-0.597-1.333-1.333z"></path>
</svg>
