<!-- Generated by IcoMoon.io -->
<svg version="1.1" xmlns="http://www.w3.org/2000/svg" width="32" height="32" viewBox="0 0 32 32">
<path d="M26.952 2.711h3.833c0.303 0 0.548 0.228 0.548 0.511v27.6c0 0.283-0.245 0.511-0.548 0.511h-29.571c-0.303 0-0.548-0.229-0.548-0.511v-27.6c0-0.283 0.245-0.511 0.548-0.511h3.833v-1.533c0-0.283 0.245-0.511 0.548-0.511h3.833c0.303 0 0.548 0.228 0.548 0.511v1.533h12.048v-1.533c0-0.283 0.245-0.511 0.548-0.511h3.833c0.303 0 0.548 0.228 0.548 0.511v1.533zM16.55 12.667h-11.005v14.667h20.909v-14.667h-9.904zM20.402 13.678v3.54h-3.852v-3.54h3.852zM20.402 21.77h-3.852v-3.54h3.852v3.54zM15.45 18.23v3.54h-3.852v-3.54h3.852zM11.598 13.678h3.852v3.54h-3.852v-3.54zM10.498 13.678v3.54h-3.852v-3.54h3.852zM6.646 18.23h3.852v3.54h-3.852v-3.54zM6.646 26.322v-3.54h3.852v3.54h-3.852zM15.45 26.322h-3.852v-3.54h3.852v3.54zM16.55 26.322v-3.54h3.852v3.54h-3.852zM25.354 26.322h-3.852v-3.54h3.852v3.54zM21.502 21.77v-3.54h3.852v3.54h-3.852zM25.354 13.678v3.54h-3.852v-3.54h3.852zM23.119 1.689v3.067h2.738v-3.067h-2.738zM8.881 1.689h-2.738v3.067h2.738v-3.067zM1.762 3.733v4.6h28.476v-4.6h-3.286v1.533c0 0.283-0.245 0.511-0.548 0.511h-3.833c-0.303 0-0.548-0.228-0.548-0.511v-1.533h-12.048v1.533c0 0.283-0.245 0.511-0.548 0.511h-3.833c-0.303 0-0.548-0.228-0.548-0.511v-1.533h-3.286zM1.762 9.356v20.956h28.476v-20.956h-28.476z"></path>
</svg>
