<!-- Generated by IcoMoon.io -->
<svg version="1.1" xmlns="http://www.w3.org/2000/svg" width="32" height="32" viewBox="0 0 32 32">
<title>DCdeplafonne</title>
<path fill="none" stroke-linejoin="miter" stroke-linecap="butt" stroke-miterlimit="10" stroke-width="1.2698" stroke="#000" d="M8.381 30.248v-0.679c0-0.381-0.146-0.743-0.406-1.022l-3.962-4.197c-0.457-0.457-0.711-1.079-0.711-1.727v-7.937c0-0.876 0.711-1.587 1.587-1.587s1.587 0.711 1.587 1.587v6.032"></path>
<path fill="none" stroke-linejoin="miter" stroke-linecap="butt" stroke-miterlimit="10" stroke-width="1.2698" stroke="#000" d="M10.171 25.169l-3.276-3.276c-0.559-0.559-0.559-1.46 0-2.019s1.46-0.559 2.019 0l5.009 5.010c0.514 0.514 0.806 1.219 0.806 1.949v3.416"></path>
<path fill="none" stroke-linejoin="miter" stroke-linecap="butt" stroke-miterlimit="10" stroke-width="1.2698" stroke="#000" d="M23.619 30.248v-0.679c0-0.381 0.146-0.743 0.406-1.022l3.962-4.197c0.457-0.457 0.711-1.079 0.711-1.727v-7.937c0-0.876-0.711-1.587-1.587-1.587s-1.587 0.711-1.587 1.587v6.032"></path>
<path fill="none" stroke-linejoin="miter" stroke-linecap="butt" stroke-miterlimit="10" stroke-width="1.2698" stroke="#000" d="M21.828 25.169l3.276-3.276c0.559-0.559 0.559-1.46 0-2.019s-1.46-0.559-2.019 0l-5.010 5.010c-0.514 0.514-0.806 1.219-0.806 1.949v3.416"></path>
<path fill="none" stroke-linejoin="round" stroke-linecap="butt" stroke-miterlimit="10" stroke-width="1.2698" stroke="#000" d="M22.762 5.486c-4.044 0-6.762-3.175-6.762-3.175s-2.717 3.175-6.762 3.175c0 0-2.127 11.27 6.762 14.603 8.889-3.333 6.762-14.603 6.762-14.603z"></path>
<path fill="none" stroke-linejoin="miter" stroke-linecap="round" stroke-miterlimit="10" stroke-width="1.2698" stroke="#000" d="M16.001 2.312v17.778"></path>
</svg>
