<!-- Generated by IcoMoon.io -->
<svg version="1.1" xmlns="http://www.w3.org/2000/svg" width="32" height="32" viewBox="0 0 32 32">
<path fill="none" stroke-linejoin="round" stroke-linecap="round" stroke-miterlimit="4" stroke-width="1.3333" stroke="#000" d="M22.045 15.022v-8c0-2.947-2.387-5.333-5.333-5.333h-2.667c-2.947 0-5.333 2.387-5.333 5.333v8M12.044 7.689l2 2 4-4M18.044 19.689c0-1.473-1.193-2.667-2.667-2.667s-2.667 1.193-2.667 2.667c0 0.987 0.54 1.833 1.333 2.3v4.367h2.667v-4.367c0.793-0.46 1.333-1.313 1.333-2.3zM24.711 21.689c0 5.155-4.179 9.333-9.333 9.333s-9.334-4.179-9.334-9.333c0-5.155 4.179-9.333 9.334-9.333s9.333 4.179 9.333 9.333z"></path>
</svg>
