<!-- Generated by IcoMoon.io -->
<svg version="1.1" xmlns="http://www.w3.org/2000/svg" width="32" height="32" viewBox="0 0 32 32">
<title>directbox-notif</title>
<path d="M3.844 16.993c0.955-1.383 2.728-1.993 5.489-1.993 0.732 0 1.296 0.076 1.803 0.273 0.476 0.185 0.839 0.458 1.159 0.698 0.013 0.010 0.026 0.019 0.038 0.029 0.047 0.035 0.090 0.074 0.13 0.117l1.345 1.438c1.194 1.262 3.192 1.257 4.368 0.001l0.003-0.003 1.36-1.44c0.039-0.041 0.082-0.079 0.127-0.113 0.013-0.009 0.025-0.019 0.038-0.029 0.319-0.24 0.683-0.513 1.159-0.698 0.507-0.197 1.071-0.273 1.803-0.273 2.761 0 4.534 0.61 5.489 1.993 0.457 0.662 0.658 1.41 0.752 2.134 0.092 0.703 0.092 1.46 0.092 2.17v1.369c0 1.929-0.343 3.879-1.563 5.351-1.252 1.511-3.252 2.315-6.103 2.315h-10.667c-3.428 0-5.534-0.76-6.656-2.385-0.541-0.783-0.783-1.675-0.898-2.558-0.113-0.862-0.113-1.794-0.113-2.687v-1.406c-0-0.71-0-1.467 0.092-2.17 0.095-0.724 0.295-1.472 0.752-2.134zM5.075 19.386c-0.073 0.561-0.075 1.194-0.075 1.947v1.333c0 0.936 0.002 1.744 0.096 2.465 0.093 0.712 0.268 1.257 0.56 1.68 0.545 0.789 1.772 1.522 5.010 1.522h10.667c2.482 0 3.815-0.689 4.563-1.591 0.78-0.941 1.103-2.324 1.103-4.075v-1.333c0-0.753-0.002-1.386-0.075-1.947-0.072-0.552-0.205-0.953-0.415-1.256-0.378-0.547-1.272-1.13-3.844-1.13-0.602 0-0.891 0.064-1.077 0.137s-0.337 0.175-0.655 0.412l-1.298 1.375c-0.001 0.001-0.001 0.001-0.002 0.002-1.97 2.102-5.303 2.097-7.282 0.001l-0.003-0.004-1.286-1.375c-0.316-0.236-0.468-0.339-0.653-0.411-0.186-0.073-0.476-0.137-1.077-0.137-2.572 0-3.466 0.583-3.844 1.13-0.209 0.303-0.342 0.704-0.415 1.256z"></path>
<path d="M6.511 3.66c0.955-1.383 2.728-1.993 5.489-1.993h8c2.761 0 4.534 0.61 5.489 1.993 0.457 0.662 0.658 1.41 0.752 2.134 0.092 0.703 0.092 1.46 0.092 2.17v8.036c0 0.552-0.448 1-1 1s-1-0.448-1-1v-8c0-0.753-0.002-1.386-0.075-1.947-0.072-0.552-0.205-0.953-0.415-1.256-0.378-0.547-1.272-1.13-3.844-1.13h-8c-2.572 0-3.466 0.583-3.844 1.13-0.209 0.303-0.342 0.704-0.415 1.256-0.073 0.561-0.075 1.194-0.075 1.947v8c0 0.552-0.448 1-1 1s-1-0.448-1-1v-8.036c-0-0.71-0-1.467 0.092-2.17 0.095-0.724 0.295-1.472 0.752-2.134z"></path>
<path d="M13.066 12.307c0-0.552 0.448-1 1-1h4.44c0.552 0 1 0.448 1 1s-0.448 1-1 1h-4.44c-0.552 0-1-0.448-1-1z"></path>
<path d="M11.96 8.307c0-0.552 0.448-1 1-1h6.667c0.552 0 1 0.448 1 1s-0.448 1-1 1h-6.667c-0.552 0-1-0.448-1-1z"></path>
</svg>
