<!-- Generated by IcoMoon.io -->
<svg version="1.1" xmlns="http://www.w3.org/2000/svg" width="32" height="32" viewBox="0 0 32 32">
<title>direct-up</title>
<path d="M11.342 5.814c1.975-3.752 7.342-3.752 9.317 0l8.134 15.455c2.367 4.52-2.432 9.449-7.013 7.158l-4.32-2.16c-0.919-0.459-2.001-0.459-2.919 0l-4.32 2.16c-4.574 2.287-9.399-2.632-7.012-7.16l8.133-15.453zM18.888 6.746c-1.225-2.328-4.552-2.328-5.777 0l-8.133 15.453c-1.479 2.805 1.509 5.859 4.348 4.44l4.32-2.16c1.481-0.741 3.226-0.741 4.708 0l4.32 2.16c2.832 1.416 5.819-1.628 4.347-4.441-0-0 0 0 0 0l-8.133-15.452z"></path>
</svg>
