<!-- Generated by IcoMoon.io -->
<svg version="1.1" xmlns="http://www.w3.org/2000/svg" width="32" height="32" viewBox="0 0 32 32">
<path fill="none" stroke-linejoin="round" stroke-linecap="round" stroke-miterlimit="10" stroke-width="2" stroke="#000" d="M4.469 2.667h11.867c0.987 0 1.8 0.813 1.8 1.8v1.973c0 0.72-0.453 1.613-0.893 2.067l-3.867 3.413c-0.533 0.453-0.893 1.347-0.893 2.067v3.867c0 0.533-0.36 1.253-0.813 1.533l-1.253 0.813c-1.173 0.72-2.787-0.093-2.787-1.533v-4.76c0-0.627-0.36-1.44-0.72-1.893l-3.413-3.6c-0.453-0.453-0.813-1.253-0.813-1.8v-2.067c-0.013-1.067 0.8-1.88 1.787-1.88z"></path>
<path fill="none" stroke-linejoin="round" stroke-linecap="round" stroke-miterlimit="4" stroke-width="2" stroke="#000" d="M2.667 16v4c0 6.667 2.667 9.333 9.333 9.333h8c6.667 0 9.333-2.667 9.333-9.333v-8c0-4.16-1.040-6.773-3.453-8.133-0.68-0.387-2.040-0.68-3.28-0.88"></path>
<path fill="none" stroke-linejoin="round" stroke-linecap="round" stroke-miterlimit="4" stroke-width="2" stroke="#000" d="M17.333 17.333h6.667"></path>
<path fill="none" stroke-linejoin="round" stroke-linecap="round" stroke-miterlimit="4" stroke-width="2" stroke="#000" d="M14.667 22.667h9.333"></path>
</svg>
