<!-- Generated by IcoMoon.io -->
<svg version="1.1" xmlns="http://www.w3.org/2000/svg" width="32" height="32" viewBox="0 0 32 32">
<title>document-copy</title>
<path d="M5.107 11.774c-0.921 0.921-1.44 2.458-1.44 5.026v5.067c0 2.568 0.52 4.105 1.44 5.026s2.458 1.44 5.026 1.44h5.067c2.568 0 4.105-0.52 5.026-1.44s1.44-2.458 1.44-5.026v-4c0-0.552 0.448-1 1-1s1 0.448 1 1v4c0 2.765-0.547 4.961-2.026 6.44s-3.675 2.026-6.44 2.026h-5.067c-2.765 0-4.961-0.547-6.44-2.026s-2.026-3.675-2.026-6.44v-5.067c0-2.765 0.547-4.961 2.026-6.44s3.675-2.026 6.44-2.026h4c0.552 0 1 0.448 1 1s-0.448 1-1 1h-4c-2.568 0-4.106 0.52-5.026 1.44z"></path>
<path d="M13.751 8.409c0.374-0.155 0.804-0.069 1.090 0.217l8.533 8.533c0.286 0.286 0.372 0.716 0.217 1.090s-0.519 0.617-0.924 0.617h-4.267c-1.655 0-3.077-0.263-4.040-1.226s-1.226-2.385-1.226-4.041v-4.267c0-0.404 0.244-0.769 0.617-0.924zM15.133 11.748v1.852c0 1.545 0.27 2.256 0.64 2.626s1.082 0.64 2.626 0.64h1.852l-5.119-5.119z"></path>
<path d="M14.467 2.667c0-0.552 0.448-1 1-1h5.333c0.552 0 1 0.448 1 1s-0.448 1-1 1h-5.333c-0.552 0-1-0.448-1-1z"></path>
<path d="M13.333 3.667c-1.661 0-3 1.339-3 3 0 0.552-0.448 1-1 1s-1-0.448-1-1c0-2.766 2.234-5 5-5h3.493c0.552 0 1 0.448 1 1s-0.448 1-1 1h-3.493z"></path>
<path d="M29.333 9.667c0.552 0 1 0.448 1 1v8.253c0 2.619-2.128 4.747-4.747 4.747-0.552 0-1-0.448-1-1s0.448-1 1-1c1.514 0 2.747-1.232 2.747-2.747v-8.253c0-0.552 0.448-1 1-1z"></path>
<path d="M20.951 1.743c0.374-0.155 0.804-0.069 1.090 0.217l8 8c0.286 0.286 0.372 0.716 0.217 1.090s-0.519 0.617-0.924 0.617h-4c-1.555 0-2.911-0.246-3.832-1.168s-1.168-2.277-1.168-3.832v-4c0-0.404 0.244-0.769 0.617-0.924zM22.333 5.081v1.586c0 1.445 0.254 2.089 0.582 2.418s0.973 0.582 2.418 0.582h1.586l-4.586-4.586z"></path>
</svg>
