<!-- Generated by IcoMoon.io -->
<svg version="1.1" xmlns="http://www.w3.org/2000/svg" width="32" height="32" viewBox="0 0 32 32">
<path d="M5.54 5.54c-1.221 1.221-1.874 3.225-1.874 6.46v8c0 3.235 0.653 5.239 1.874 6.46s3.225 1.874 6.46 1.874h8c3.235 0 5.239-0.653 6.46-1.874s1.874-3.225 1.874-6.46v-6.667c0-0.552 0.448-1 1-1s1 0.448 1 1v6.667c0 3.432-0.68 6.095-2.46 7.874s-4.442 2.46-7.874 2.46h-8c-3.432 0-6.094-0.68-7.874-2.46s-2.46-4.442-2.46-7.874v-8c0-3.432 0.68-6.094 2.46-7.874s4.442-2.46 7.874-2.46h6.667c0.552 0 1 0.448 1 1s-0.448 1-1 1h-6.667c-3.235 0-5.239 0.653-6.46 1.874z"></path>
<path d="M18.284 1.743c0.374-0.155 0.804-0.069 1.090 0.217l10.667 10.667c0.286 0.286 0.372 0.716 0.217 1.090s-0.519 0.617-0.924 0.617h-5.333c-2.055 0-3.744-0.33-4.874-1.46s-1.46-2.818-1.46-4.874v-5.333c0-0.404 0.244-0.769 0.617-0.924zM19.667 5.081v2.919c0 1.945 0.337 2.923 0.874 3.46s1.515 0.874 3.46 0.874h2.919l-7.252-7.252z"></path>
<path d="M10.891 17.12l-1.489 2.24c-0.006 0.009-0.027 0.053-0.020 0.128s0.037 0.116 0.045 0.124l3.28 3.28c0.035 0.035 0.085 0.057 0.146 0.057s0.112-0.023 0.146-0.057l3.28-3.28c0.009-0.008 0.038-0.049 0.045-0.124s-0.014-0.12-0.020-0.128l-0.005-0.007-1.506-2.265c-0.001-0.001-0.002-0.002-0.003-0.003-0.014-0.012-0.038-0.029-0.070-0.046s-0.061-0.028-0.085-0.035c-0.009-0.003-0.016-0.004-0.019-0.005h-3.511c-0.003 0.001-0.008 0.002-0.013 0.003-0.023 0.007-0.055 0.019-0.091 0.038s-0.067 0.040-0.090 0.059c-0.011 0.009-0.018 0.015-0.022 0.020zM14.783 17.070v0zM10.070 15.272c0.28-0.148 0.641-0.272 1.023-0.272h3.533c0.383 0 0.747 0.121 1.035 0.274 0.282 0.15 0.591 0.385 0.802 0.712l1.501 2.257c0.573 0.852 0.452 2.061-0.271 2.783l-3.28 3.28c-0.857 0.857-2.264 0.857-3.121 0l-3.28-3.28c-0.723-0.723-0.844-1.931-0.271-2.783l1.505-2.264c0.008-0.012 0.016-0.023 0.024-0.035 0.218-0.299 0.516-0.524 0.799-0.673z"></path>
</svg>
