<!-- Generated by IcoMoon.io -->
<svg version="1.1" xmlns="http://www.w3.org/2000/svg" width="32" height="32" viewBox="0 0 32 32">
<path d="M5.54 5.54c-1.221 1.221-1.874 3.225-1.874 6.46v8c0 3.235 0.653 5.239 1.874 6.46s3.225 1.874 6.46 1.874h8c3.235 0 5.239-0.653 6.46-1.874s1.874-3.225 1.874-6.46v-6.667c0-0.552 0.448-1 1-1s1 0.448 1 1v6.667c0 3.432-0.68 6.095-2.46 7.874s-4.442 2.46-7.874 2.46h-8c-3.432 0-6.094-0.68-7.874-2.46s-2.46-4.442-2.46-7.874v-8c0-3.432 0.68-6.094 2.46-7.874s4.442-2.46 7.874-2.46h6.667c0.552 0 1 0.448 1 1s-0.448 1-1 1h-6.667c-3.235 0-5.239 0.653-6.46 1.874z"></path>
<path d="M18.284 1.743c0.374-0.155 0.804-0.069 1.090 0.217l10.667 10.667c0.286 0.286 0.372 0.716 0.217 1.090s-0.519 0.617-0.924 0.617h-5.333c-2.055 0-3.744-0.33-4.874-1.46s-1.46-2.818-1.46-4.874v-5.333c0-0.404 0.244-0.769 0.617-0.924zM19.667 5.081v2.919c0 1.945 0.337 2.923 0.874 3.46s1.515 0.874 3.46 0.874h2.919l-7.252-7.252z"></path>
<path d="M8.333 17.333c0-0.552 0.448-1 1-1h8c0.552 0 1 0.448 1 1s-0.448 1-1 1h-8c-0.552 0-1-0.448-1-1z"></path>
<path d="M8.333 22.667c0-0.552 0.448-1 1-1h5.333c0.552 0 1 0.448 1 1s-0.448 1-1 1h-5.333c-0.552 0-1-0.448-1-1z"></path>
</svg>
