<!-- Generated by IcoMoon.io -->
<svg version="1.1" xmlns="http://www.w3.org/2000/svg" width="32" height="32" viewBox="0 0 32 32">
<title>document-cloud</title>
<path d="M4.126 4.126c1.779-1.779 4.442-2.46 7.874-2.46h6.667c0.552 0 1 0.448 1 1s-0.448 1-1 1h-6.667c-3.235 0-5.239 0.653-6.46 1.874s-1.874 3.225-1.874 6.46v8c0 3.235 0.653 5.239 1.874 6.46s3.225 1.874 6.46 1.874c0.552 0 1 0.448 1 1s-0.448 1-1 1c-3.432 0-6.094-0.68-7.874-2.46s-2.46-4.442-2.46-7.874v-8c0-3.432 0.68-6.094 2.46-7.874z"></path>
<path d="M29.333 12.333c0.552 0 1 0.448 1 1v4c0 0.552-0.448 1-1 1s-1-0.448-1-1v-4c0-0.552 0.448-1 1-1z"></path>
<path d="M18.284 1.743c0.374-0.155 0.804-0.069 1.090 0.217l10.667 10.667c0.286 0.286 0.372 0.716 0.217 1.090s-0.519 0.617-0.924 0.617h-5.333c-2.055 0-3.744-0.33-4.874-1.46s-1.46-2.818-1.46-4.874v-5.333c0-0.404 0.244-0.769 0.617-0.924zM19.667 5.081v2.919c0 1.945 0.337 2.923 0.874 3.46s1.515 0.874 3.46 0.874h2.919l-7.252-7.252z"></path>
<path d="M27.159 21.437c-0.397-1.47-1.231-2.535-2.313-3.171-1.219-0.716-2.659-0.83-3.943-0.494s-2.483 1.143-3.197 2.363c-0.571 0.976-0.798 2.157-0.569 3.46-3.193 1.232-2.814 6.449 1.137 6.735 0.024 0.002 0.048 0.003 0.072 0.003h7.413c1.131 0 2.251-0.419 3.094-1.188 2.649-2.324 1.518-6.751-1.694-7.708zM18.294 25.357c0.137 0.011 0.278-0.006 0.416-0.056 0.52-0.186 0.791-0.759 0.605-1.278-0.444-1.241-0.282-2.195 0.117-2.877 0.413-0.705 1.139-1.219 1.979-1.439s1.721-0.128 2.423 0.284c0.678 0.398 1.283 1.15 1.5 2.453 0.073 0.437 0.424 0.774 0.863 0.828 2.034 0.253 2.883 3.021 1.333 4.374l-0.019 0.017c-0.463 0.425-1.099 0.67-1.75 0.67h-7.374c-1.822-0.162-1.853-2.733-0.092-2.976z"></path>
</svg>
