<!-- Generated by IcoMoon.io -->
<svg version="1.1" xmlns="http://www.w3.org/2000/svg" width="32" height="32" viewBox="0 0 32 32">
<path fill="none" stroke-linejoin="round" stroke-linecap="round" stroke-miterlimit="4" stroke-width="1.8947" stroke="#000" d="M25.22 2.85c0 0-2.98-1.18-9.22-1.813-6.233 0.633-9.22 1.813-9.22 1.813 0.353 3.78-2.78 5.273-2.78 5.273 0.373 17.987 12 22.247 12 22.247s11.627-4.26 12-22.247c0 0-3.14-1.493-2.78-5.273z"></path>
<path fill="none" stroke-linejoin="round" stroke-linecap="round" stroke-miterlimit="4" stroke-width="1.8947" stroke="#000" d="M15.999 19.704c3.314 0 6-2.686 6-6s-2.686-6-6-6-6 2.686-6 6c0 3.314 2.686 6 6 6z"></path>
<path fill="none" stroke-linejoin="round" stroke-linecap="round" stroke-miterlimit="4" stroke-width="1.8947" stroke="#000" d="M13.333 13.037l2 2 3.333-3.333"></path>
</svg>
