<!-- Generated by IcoMoon.io -->
<svg version="1.1" xmlns="http://www.w3.org/2000/svg" width="32" height="32" viewBox="0 0 32 32">
<title>double-arrow-left</title>
<path d="M25.061 4.954c0.363 0.383 0.363 1.004 0 1.386l-8.089 8.523c-0.592 0.624-0.592 1.65 0 2.274l8.089 8.523c0.363 0.383 0.363 1.004 0 1.386s-0.953 0.383-1.316 0l-8.089-8.523c-1.319-1.389-1.319-3.657 0-5.047l8.089-8.523c0.363-0.383 0.953-0.383 1.316 0z"></path>
<path d="M17.061 4.954c0.363 0.383 0.363 1.004 0 1.386l-8.089 8.523c-0.592 0.624-0.592 1.65 0 2.274l8.089 8.523c0.363 0.383 0.363 1.004 0 1.386s-0.953 0.383-1.316 0l-8.089-8.523c-1.319-1.389-1.319-3.657 0-5.047l8.089-8.523c0.363-0.383 0.953-0.383 1.316 0z"></path>
</svg>
