<!-- Generated by IcoMoon.io -->
<svg version="1.1" xmlns="http://www.w3.org/2000/svg" width="34" height="32" viewBox="0 0 34 32">
<path fill="none" stroke-linejoin="round" stroke-linecap="round" stroke-miterlimit="4" stroke-width="2" stroke="#000" d="M11.667 22.667l5.333 5.333M17 28l5.333-5.333M17 28v-12M28.84 24.12c1.159-0.815 2.028-1.979 2.482-3.321s0.467-2.795 0.039-4.146-1.275-2.53-2.419-3.367c-1.144-0.837-2.524-1.287-3.941-1.286h-1.68c-0.401-1.563-1.151-3.014-2.195-4.245s-2.352-2.209-3.828-2.861c-1.476-0.652-3.080-0.96-4.693-0.902s-3.191 0.481-4.616 1.237c-1.425 0.756-2.66 1.826-3.612 3.129s-1.596 2.804-1.884 4.392c-0.288 1.588-0.212 3.22 0.223 4.774s1.216 2.989 2.285 4.197"></path>
</svg>
