<!-- Generated by IcoMoon.io -->
<svg version="1.1" xmlns="http://www.w3.org/2000/svg" width="39" height="32" viewBox="0 0 39 32">
<path fill="none" stroke-linejoin="round" stroke-linecap="round" stroke-miterlimit="4" stroke-width="2.2857" stroke="#000" d="M12.995 22.249h-4.683c-2.968 0-5.374-2.024-5.374-4.992s2.406-5.374 5.374-5.374c0.202 0 0.401 0.011 0.597 0.033v-0.033h0.074c-0.049-0.391-0.074-0.79-0.074-1.194 0-5.276 4.277-9.553 9.553-9.553 3.573 0 6.688 1.961 8.326 4.866 0.4-0.059 0.81-0.089 1.227-0.089 4.617 0 8.359 3.743 8.359 8.359 0 4.211-3.114 7.313-7.165 7.893h-4.329M19.059 12.481v18.383M19.059 30.864l-4.236-4.128M19.059 30.864l4.124-4.128"></path>
</svg>
