<!-- Generated by IcoMoon.io -->
<svg version="1.1" xmlns="http://www.w3.org/2000/svg" width="41" height="32" viewBox="0 0 41 32">
<path d="M15.625 9.698c-1.683 0-3.048-1.364-3.048-3.048s1.364-3.048 3.048-3.048c1.683 0 3.048 1.364 3.048 3.048s-1.364 3.048-3.048 3.048z"></path>
<path d="M15.625 18.841c-1.683 0-3.048-1.365-3.048-3.048s1.364-3.048 3.048-3.048c1.683 0 3.048 1.364 3.048 3.048s-1.364 3.048-3.048 3.048z"></path>
<path d="M15.625 27.984c-1.683 0-3.048-1.365-3.048-3.048s1.364-3.048 3.048-3.048c1.683 0 3.048 1.364 3.048 3.048s-1.364 3.048-3.048 3.048z"></path>
<path d="M24.768 9.698c-1.683 0-3.048-1.364-3.048-3.048s1.364-3.048 3.048-3.048c1.683 0 3.048 1.364 3.048 3.048s-1.364 3.048-3.048 3.048z"></path>
<path d="M24.768 18.841c-1.683 0-3.048-1.365-3.048-3.048s1.364-3.048 3.048-3.048 3.048 1.364 3.048 3.048c0 1.683-1.364 3.048-3.048 3.048z"></path>
<path d="M24.768 27.984c-1.683 0-3.048-1.365-3.048-3.048s1.364-3.048 3.048-3.048 3.048 1.364 3.048 3.048c0 1.683-1.364 3.048-3.048 3.048z"></path>
</svg>
