<!-- Generated by IcoMoon.io -->
<svg version="1.1" xmlns="http://www.w3.org/2000/svg" width="32" height="32" viewBox="0 0 32 32">
<title>driving</title>
<path d="M6.294 7.667c0-0.552 0.448-1 1-1h0.973c0.552 0 1 0.448 1 1s-0.448 1-1 1h-0.973c-0.552 0-1-0.448-1-1z"></path>
<path d="M22.734 7.667c0-0.552 0.448-1 1-1h0.973c0.552 0 1 0.448 1 1s-0.448 1-1 1h-0.973c-0.552 0-1-0.448-1-1z"></path>
<path d="M9.478 2.755c0.722-0.742 1.756-1.088 3.122-1.088h6.8c1.366 0 2.4 0.345 3.122 1.088 0.685 0.704 0.939 1.623 1.097 2.388 0-0 0 0 0 0l1.093 5.226c0.062 0.295-0.013 0.602-0.203 0.835s-0.475 0.369-0.776 0.369h-15.467c-0.301 0-0.586-0.136-0.776-0.369s-0.264-0.541-0.203-0.835l1.093-5.225c-0 0 0-0 0 0 0.159-0.765 0.413-1.685 1.097-2.389zM10.912 4.149c-0.258 0.266-0.425 0.686-0.573 1.401l-0.842 4.024h13.005l-0.842-4.024c-0.148-0.715-0.314-1.135-0.573-1.401-0.221-0.228-0.654-0.482-1.688-0.482h-6.8c-1.034 0-1.467 0.255-1.688 0.482z"></path>
<path d="M8.218 11.98c-0.177 0.21-0.273 0.563-0.342 1.312l-0.547 5.896c-0.049 0.525 0.372 1.013 0.964 1.013h1.813c0.176 0 0.273-0.018 0.317-0.030 0.001-0.003 0.003-0.006 0.004-0.009 0.028-0.059 0.054-0.133 0.105-0.284l0.002-0.006 0.198-0.567c0.004-0.013 0.009-0.026 0.013-0.040 0.108-0.326 0.29-0.877 0.74-1.298 0.514-0.481 1.206-0.66 2.033-0.66h4.947c0.802 0 1.5 0.149 2.022 0.629 0.444 0.409 0.629 0.963 0.741 1.3 0.008 0.023 0.015 0.045 0.022 0.065l0.203 0.582c0.051 0.152 0.077 0.227 0.104 0.284 0 0.001 0.001 0.002 0.001 0.003 0.047 0.012 0.143 0.029 0.32 0.029h1.813c0.593 0 1.014-0.488 0.964-1.013l-0.547-5.895c-0.069-0.749-0.165-1.103-0.342-1.313-0.129-0.153-0.474-0.42-1.609-0.42h-12.333c-1.134 0-1.48 0.267-1.609 0.42zM6.689 10.69c0.678-0.804 1.739-1.13 3.138-1.13h12.333c1.399 0 2.46 0.327 3.138 1.13 0.63 0.747 0.74 1.713 0.805 2.418 0-0 0 0 0 0l0.547 5.891c0 0 0 0 0 0 0.164 1.742-1.228 3.2-2.956 3.2h-1.813c-0.647 0-1.243-0.136-1.694-0.564-0.378-0.358-0.532-0.829-0.612-1.072-0.005-0.015-0.009-0.028-0.013-0.041l-0.201-0.575c-0.072-0.212-0.114-0.334-0.161-0.433-0.041-0.086-0.063-0.106-0.064-0.107s-0.005-0.005-0.017-0.011c-0.012-0.007-0.039-0.019-0.086-0.033-0.099-0.028-0.273-0.057-0.565-0.057h-4.947c-0.279 0-0.447 0.031-0.544 0.061-0.088 0.027-0.116 0.053-0.123 0.060-0.041 0.039-0.090 0.113-0.224 0.516l-0.004 0.013-0.199 0.57c-0.005 0.014-0.010 0.030-0.016 0.047-0.079 0.237-0.234 0.7-0.605 1.055-0.449 0.429-1.043 0.572-1.698 0.572h-1.813c-1.727 0-3.119-1.458-2.956-3.2-0 0 0-0 0 0l0.547-5.892c0 0 0-0 0 0 0.065-0.704 0.175-1.671 0.805-2.418z"></path>
<path d="M9.2 14.44c0-0.552 0.448-1 1-1h2.893c0.552 0 1 0.448 1 1s-0.448 1-1 1h-2.893c-0.552 0-1-0.448-1-1z"></path>
<path d="M17.907 14.44c0-0.552 0.448-1 1-1h2.893c0.552 0 1 0.448 1 1s-0.448 1-1 1h-2.893c-0.552 0-1-0.448-1-1z"></path>
<path d="M16 21.667c0.552 0 1 0.448 1 1v1.333c0 0.552-0.448 1-1 1s-1-0.448-1-1v-1.333c0-0.552 0.448-1 1-1z"></path>
<path d="M16 27c0.552 0 1 0.448 1 1v1.333c0 0.552-0.448 1-1 1s-1-0.448-1-1v-1.333c0-0.552 0.448-1 1-1z"></path>
<path d="M4.243 23.030c0.536 0.134 0.862 0.677 0.728 1.213l-1.333 5.333c-0.134 0.536-0.677 0.862-1.213 0.728s-0.862-0.677-0.728-1.213l1.333-5.333c0.134-0.536 0.677-0.862 1.213-0.728z"></path>
<path d="M27.758 23.030c0.536-0.134 1.079 0.192 1.213 0.728l1.333 5.333c0.134 0.536-0.192 1.079-0.728 1.213s-1.079-0.192-1.213-0.728l-1.333-5.333c-0.134-0.536 0.192-1.079 0.728-1.213z"></path>
</svg>
