<!-- Generated by IcoMoon.io -->
<svg version="1.1" xmlns="http://www.w3.org/2000/svg" width="30" height="32" viewBox="0 0 30 32">
<path fill="none" stroke-linejoin="round" stroke-linecap="round" stroke-miterlimit="4" stroke-width="2.1333" stroke="#000" d="M13.751 5.308h-7.467c-2.474 0-4.48 2.006-4.48 4.48v14.933c0 2.474 2.006 4.48 4.48 4.48h14.933c2.474 0 4.48-2.006 4.48-4.48v-7.467M9.271 21.735l5.433-1.095c0.288-0.058 0.553-0.2 0.761-0.408l12.163-12.169c0.583-0.583 0.583-1.529-0.001-2.112l-2.577-2.574c-0.583-0.583-1.529-0.582-2.112 0.001l-12.164 12.171c-0.208 0.208-0.349 0.472-0.408 0.76l-1.097 5.427z"></path>
</svg>
