<!-- Generated by IcoMoon.io -->
<svg version="1.1" xmlns="http://www.w3.org/2000/svg" width="32" height="32" viewBox="0 0 32 32">
<title>edit-2</title>
<path d="M20.69 1.916c1.556-0.199 3.129 0.437 4.729 1.942l0.002 0.002c1.605 1.517 2.335 3.057 2.225 4.625-0.106 1.515-0.984 2.797-1.986 3.855zM25.661 12.34l-10.941 11.581c-0.309 0.336-0.724 0.62-1.118 0.831-0.399 0.213-0.86 0.396-1.293 0.473l-0.007 0.001-4.292 0.733c-1.041 0.179-2.039-0.081-2.75-0.755-0.71-0.673-1.024-1.655-0.907-2.701l0-0.003 0.495-4.339c0.058-0.432 0.218-0.899 0.407-1.304 0.188-0.404 0.445-0.832 0.749-1.155l0.002-0.002 10.947-11.587c1.002-1.058 2.233-2.005 3.737-2.197zM18.407 5.487c-0 0 0-0 0 0l-10.944 11.584c-0 0 0-0 0 0-0.109 0.117-0.259 0.342-0.394 0.631-0.132 0.284-0.212 0.546-0.236 0.715l-0.492 4.306c-0 0-0 0.001-0 0.001-0.057 0.513 0.103 0.844 0.296 1.028s0.528 0.322 1.034 0.235l0.002-0 4.289-0.733c0.167-0.030 0.424-0.121 0.697-0.267 0.277-0.148 0.485-0.307 0.589-0.422l0.012-0.013 10.947-11.587c0.892-0.942 1.387-1.8 1.444-2.621 0.054-0.769-0.262-1.762-1.603-3.031-1.334-1.255-2.34-1.512-3.104-1.414-0.817 0.104-1.646 0.646-2.537 1.587z"></path>
<path d="M15.699 5.745c0.546-0.085 1.057 0.288 1.142 0.834 0.503 3.228 3.122 5.698 6.379 6.026 0.549 0.055 0.95 0.546 0.895 1.095s-0.546 0.95-1.095 0.895c-4.157-0.419-7.511-3.575-8.155-7.708-0.085-0.546 0.288-1.057 0.834-1.142z"></path>
<path d="M3 29.333c0-0.552 0.448-1 1-1h24c0.552 0 1 0.448 1 1s-0.448 1-1 1h-24c-0.552 0-1-0.448-1-1z"></path>
</svg>
