<!-- Generated by IcoMoon.io -->
<svg version="1.1" xmlns="http://www.w3.org/2000/svg" width="32" height="32" viewBox="0 0 32 32">
<title>element-plus</title>
<path d="M17.985 2.651c0.757-0.757 1.829-0.985 2.989-0.985h5.387c1.16 0 2.232 0.228 2.989 0.985s0.985 1.829 0.985 2.989v5.387c0 1.16-0.228 2.232-0.985 2.989s-1.829 0.985-2.989 0.985h-5.387c-1.16 0-2.232-0.228-2.989-0.985s-0.985-1.829-0.985-2.989v-5.387c0-1.16 0.228-2.232 0.985-2.989zM19.399 4.065c-0.2 0.2-0.399 0.615-0.399 1.575v5.387c0 0.96 0.199 1.375 0.399 1.575s0.615 0.399 1.575 0.399h5.387c0.96 0 1.375-0.199 1.575-0.399s0.399-0.615 0.399-1.575v-5.387c0-0.96-0.199-1.375-0.399-1.575s-0.615-0.399-1.575-0.399h-5.387c-0.96 0-1.375 0.199-1.575 0.399z"></path>
<path d="M2.694 2.534c0.756-0.672 1.808-0.867 2.946-0.867h5.387c1.138 0 2.19 0.196 2.946 0.867 0.786 0.699 1.027 1.704 1.027 2.773v6.053c0 1.068-0.241 2.075-1.029 2.772-0.758 0.671-1.81 0.861-2.947 0.855h-5.384c-1.135 0-2.187-0.191-2.944-0.861-0.789-0.698-1.029-1.706-1.029-2.779v-6.040c0-1.069 0.241-2.074 1.027-2.773zM4.023 4.029c-0.17 0.151-0.356 0.466-0.356 1.277v6.040c0 0.82 0.187 1.133 0.354 1.281 0.199 0.176 0.633 0.359 1.619 0.359h5.393c0.981 0.006 1.414-0.177 1.613-0.352 0.168-0.149 0.354-0.462 0.354-1.274v-6.053c0-0.811-0.186-1.126-0.356-1.277-0.2-0.178-0.636-0.363-1.617-0.363h-5.387c-0.982 0-1.417 0.184-1.617 0.363z"></path>
<path d="M2.651 17.985c0.757-0.757 1.829-0.985 2.989-0.985h5.387c1.16 0 2.232 0.228 2.989 0.985s0.985 1.829 0.985 2.989v5.387c0 1.16-0.228 2.232-0.985 2.989s-1.829 0.985-2.989 0.985h-5.387c-1.16 0-2.232-0.228-2.989-0.985s-0.985-1.829-0.985-2.989v-5.387c0-1.16 0.228-2.232 0.985-2.989zM4.065 19.399c-0.2 0.2-0.399 0.615-0.399 1.575v5.387c0 0.96 0.199 1.375 0.399 1.575s0.615 0.399 1.575 0.399h5.387c0.96 0 1.375-0.199 1.575-0.399s0.399-0.615 0.399-1.575v-5.387c0-0.96-0.199-1.375-0.399-1.575s-0.615-0.399-1.575-0.399h-5.387c-0.96 0-1.375 0.199-1.575 0.399z"></path>
<path d="M18.333 23.333c0-0.552 0.448-1 1-1h8c0.552 0 1 0.448 1 1s-0.448 1-1 1h-8c-0.552 0-1-0.448-1-1z"></path>
<path d="M23.333 18.333c0.552 0 1 0.448 1 1v8c0 0.552-0.448 1-1 1s-1-0.448-1-1v-8c0-0.552 0.448-1 1-1z"></path>
</svg>
