<!-- Generated by IcoMoon.io -->
<svg version="1.1" xmlns="http://www.w3.org/2000/svg" width="34" height="32" viewBox="0 0 34 32">
<path fill="#2a2a2d" d="M14.378 31.943c7.883 0 14.273-1.194 14.273-2.667s-6.39-2.667-14.273-2.667c-7.883 0-14.273 1.194-14.273 2.667s6.39 2.667 14.273 2.667z"></path>
<path fill="#2a2a2d" d="M25.796 21.441l-5.037-6.199c-0.242-0.292-0.595-0.468-0.967-0.468h-10.829c-0.372 0-0.725 0.177-0.967 0.468l-5.037 6.199v2.817h22.837v-2.817h-0z"></path>
<path fill="#6c6c75" d="M7.227 6.773h14.302c0.223 0 0.437 0.089 0.596 0.247s0.247 0.372 0.247 0.595v19.651c0 0.223-0.089 0.437-0.247 0.595s-0.372 0.247-0.596 0.247h-14.302c-0.223 0-0.438-0.089-0.595-0.247s-0.247-0.372-0.247-0.595v-19.651c0-0.223 0.089-0.438 0.247-0.595s0.372-0.247 0.595-0.247z"></path>
<path fill="#4a4a4f" d="M9.090 8.868h10.576c0.112 0 0.219 0.044 0.298 0.123s0.123 0.186 0.123 0.298v5.254c0 0.112-0.044 0.219-0.123 0.298s-0.186 0.123-0.298 0.123h-10.576c-0.112 0-0.219-0.044-0.298-0.123s-0.123-0.186-0.123-0.298v-5.254c0-0.112 0.044-0.219 0.123-0.298s0.186-0.123 0.298-0.123zM9.145 17.25h10.466c0.126 0 0.247 0.050 0.337 0.14s0.139 0.21 0.139 0.337c0 0.126-0.050 0.247-0.139 0.337s-0.21 0.139-0.337 0.139h-10.466c-0.126 0-0.247-0.050-0.337-0.139s-0.139-0.21-0.139-0.337c0-0.126 0.050-0.247 0.139-0.337s0.21-0.14 0.337-0.14zM9.145 19.726h10.466c0.126 0 0.247 0.050 0.337 0.14s0.14 0.21 0.14 0.337c0 0.126-0.050 0.247-0.14 0.337s-0.21 0.14-0.337 0.14h-10.466c-0.126 0-0.247-0.050-0.337-0.14s-0.14-0.21-0.14-0.337c0-0.126 0.050-0.247 0.14-0.337s0.21-0.14 0.337-0.14zM25.75 28.885c-0.163 0.647-0.736 1.128-1.418 1.128h-19.908c-0.682 0-1.255-0.482-1.418-1.128-0.031-0.123-0.047-0.25-0.047-0.377v-7.067h5.541c0.612 0 1.105 0.515 1.105 1.141v0.008c0 0.625 0.499 1.131 1.111 1.131h7.323c0.612 0 1.111-0.51 1.111-1.135v-0.003c0-0.626 0.493-1.142 1.105-1.142h5.541v7.067c0 0.13-0.016 0.256-0.047 0.377z"></path>
<path fill="#6c6c75" d="M26.446 7.114l-1.438 0.558c-0.037 0.014-0.077 0.018-0.116 0.011s-0.075-0.026-0.104-0.053c-0.029-0.027-0.050-0.062-0.060-0.1s-0.009-0.079 0.003-0.117l0.408-1.307c-0.545-0.62-0.865-1.376-0.865-2.191 0-2.104 2.13-3.81 4.758-3.81s4.757 1.706 4.757 3.81-2.13 3.81-4.758 3.81c-0.953 0-1.841-0.224-2.585-0.611z"></path>
<path fill="#2a2a2d" d="M30.906 4.603c0.331 0 0.6-0.265 0.6-0.593s-0.268-0.593-0.6-0.593c-0.331 0-0.6 0.265-0.6 0.593s0.269 0.593 0.6 0.593z"></path>
<path fill="#2a2a2d" d="M27.757 4.529h-1.2l0.61-1.037 0.589 1.037zM28.507 3.492h1.049v1.037h-1.049v-1.037z"></path>
</svg>
