<!-- Generated by IcoMoon.io -->
<svg version="1.1" xmlns="http://www.w3.org/2000/svg" width="32" height="32" viewBox="0 0 32 32">
<path d="M16.822 17.762c-4.837 0-8.774-3.939-8.774-8.776-0.002-4.838 3.936-8.776 8.774-8.776 4.84 0 8.778 3.936 8.778 8.776s-3.938 8.776-8.778 8.776zM16.822 3.41c-3.075 0-5.576 2.501-5.576 5.576s2.501 5.576 5.576 5.576c3.077 0 5.578-2.501 5.578-5.576s-2.504-5.576-5.578-5.576zM26.917 31.79h3.2c0-7.165-5.966-12.989-13.296-12.989-7.331 0-13.298 5.824-13.298 12.989h3.2c0-5.397 4.526-9.789 10.096-9.789s10.098 4.39 10.098 9.789z"></path>
</svg>
