<!-- Generated by IcoMoon.io -->
<svg version="1.1" xmlns="http://www.w3.org/2000/svg" width="32" height="32" viewBox="0 0 32 32">
<path fill="none" stroke-linejoin="round" stroke-linecap="round" stroke-miterlimit="4" stroke-width="1.5714" stroke="#000" d="M7.137 13.836c-0.031 0.168-0.042 0.346-0.042 0.513 0 3.206 4.924 4.714 8.905 4.714 4.913 0 6.317-0.681 7.857-2.095"></path>
<path fill="none" stroke-linejoin="round" stroke-linecap="round" stroke-miterlimit="4" stroke-width="1.5714" stroke="#000" d="M24.381 9.981c-1.949-1.037-5.385-1.393-8.381-1.393-2.085 0-4.149 0.555-5.772 1.467"></path>
<path fill="none" stroke-linejoin="round" stroke-linecap="round" stroke-miterlimit="4" stroke-width="1.5714" stroke="#000" d="M5.168 9.844c-0.115 0.272-0.168 0.545-0.168 0.838 0 1.226 0.807 2.305 2.137 3.153 2.022 1.299 5.28 2.085 8.863 2.085 5.94 0 9.952-1.163 9.952-3.845 0-0.304-0.073-0.576-0.199-0.838"></path>
<path fill="none" stroke-linejoin="round" stroke-linecap="round" stroke-miterlimit="4" stroke-width="1.5714" stroke="#000" d="M22.81 3.348c0 0-2.399-1.048-6.81-1.048-2.609 0-12.048 1.519-12.048 5.238s8.067 5.238 12.048 5.238c3.981 0 12.048-1.069 12.048-3.667s-7.899-3.667-12.048-3.667c-3.206 0-7.208 1.016-9.387 2.661"></path>
<path fill="none" stroke-linejoin="round" stroke-linecap="round" stroke-miterlimit="4" stroke-width="1.5714" stroke="#000" d="M9.798 20.236c0.094 0.22 1.393 1.97 5.154 1.97s5.238-1.048 5.238-1.048"></path>
<path fill="none" stroke-linejoin="round" stroke-linecap="round" stroke-miterlimit="4" stroke-width="1.5714" stroke="#000" d="M12.857 24.301c0 0 0.325 1.048 2.892 1.048s3.195-1.048 3.195-1.048"></path>
<path fill="none" stroke-linejoin="round" stroke-linecap="round" stroke-miterlimit="4" stroke-width="1.5714" stroke="#000" d="M14.607 27.895c0 0 2.053 0.775 3.614-0.87"></path>
<path fill="none" stroke-linejoin="round" stroke-linecap="round" stroke-miterlimit="4" stroke-width="1.5714" stroke="#000" d="M16 30.587c0 0 1.488 0 2.211-1.048"></path>
</svg>
