<!-- Generated by IcoMoon.io -->
<svg version="1.1" xmlns="http://www.w3.org/2000/svg" width="32" height="32" viewBox="0 0 32 32">
<title>exclamation-solid</title>
<path d="M7.339 24.661c-2.307-2.231-3.74-5.354-3.74-8.811 0-6.766 5.484-12.25 12.25-12.25 3.458 0 6.581 1.432 8.808 3.736l0.003 0.004c2.128 2.201 3.439 5.202 3.439 8.51 0 6.766-5.484 12.25-12.25 12.25-3.308 0-6.309-1.311-8.514-3.442l0.004 0.003zM16 9.875c-0.677 0-1.225 0.548-1.225 1.225v4.9c0 0.677 0.549 1.225 1.225 1.225s1.225-0.548 1.225-1.225v-4.9c0-0.677-0.548-1.225-1.225-1.225zM16 19.675c-0.677 0-1.225 0.549-1.225 1.225s0.549 1.225 1.225 1.225c0.677 0 1.225-0.548 1.225-1.225s-0.548-1.225-1.225-1.225z"></path>
</svg>
