<!-- Generated by IcoMoon.io -->
<svg version="1.1" xmlns="http://www.w3.org/2000/svg" width="32" height="32" viewBox="0 0 32 32">
<path d="M16 12.227c-2.088 0-3.773 1.686-3.773 3.773s1.686 3.773 3.773 3.773c2.088 0 3.773-1.686 3.773-3.773s-1.686-3.773-3.773-3.773zM10.227 16.001c0-3.192 2.581-5.773 5.773-5.773s5.773 2.581 5.773 5.773c0 3.192-2.581 5.773-5.773 5.773s-5.773-2.581-5.773-5.773z"></path>
<path d="M3.010 11.996c3.188-5.011 7.859-8.036 12.99-8.036s9.803 3.025 12.991 8.037c0.727 1.139 1.056 2.598 1.056 3.997s-0.33 2.858-1.056 3.997c-3.188 5.011-7.86 8.037-12.991 8.037s-9.802-3.025-12.99-8.037c-0.727-1.139-1.056-2.598-1.056-3.997s0.33-2.858 1.057-3.997zM16 5.96c-4.282 0-8.384 2.522-11.303 7.11l-0.001 0.001c-0.473 0.741-0.743 1.801-0.743 2.922s0.27 2.181 0.743 2.922l0.001 0.001c2.919 4.588 7.020 7.11 11.303 7.11s8.384-2.522 11.303-7.11l0.001-0.001c0.473-0.741 0.743-1.801 0.743-2.922s-0.27-2.181-0.743-2.922l-0.001-0.001c-2.919-4.588-7.020-7.11-11.303-7.11z"></path>
</svg>
