<!-- Generated by IcoMoon.io -->
<svg version="1.1" xmlns="http://www.w3.org/2000/svg" width="33" height="32" viewBox="0 0 33 32">
<path d="M17.005 6.191c5.184 0 8.558 2.449 10.617 4.887 1.025 1.214 1.726 2.426 2.172 3.335 0.223 0.455 0.383 0.836 0.488 1.105 0.052 0.135 0.091 0.243 0.117 0.318 0.013 0.037 0.023 0.066 0.030 0.087 0.003 0.011 0.007 0.020 0.009 0.026 0.001 0.003 0.001 0.005 0.001 0.007l0.001 0.003v0.001c-0.003 0.001-0.046 0.016-0.635 0.201l0.635-0.199c0.031 0.1 0.039 0.205 0.022 0.307l-0.025 0.102-0.001 0.001v0.003c-0.001 0.002-0.002 0.005-0.003 0.008-0.002 0.006-0.005 0.015-0.009 0.025-0.007 0.021-0.018 0.049-0.031 0.086-0.027 0.074-0.067 0.18-0.121 0.312-0.108 0.265-0.273 0.639-0.501 1.085-0.456 0.89-1.169 2.077-2.203 3.26-2.076 2.376-5.451 4.743-10.574 4.659-5.109-0.084-8.474-2.443-10.548-4.775-1.033-1.162-1.747-2.317-2.203-3.182-0.228-0.433-0.394-0.796-0.503-1.053-0.054-0.128-0.094-0.23-0.121-0.302-0.014-0.036-0.025-0.065-0.033-0.085l-0.010-0.031-0.001-0.003 0.63-0.217c-0.578-0.181-0.631-0.199-0.635-0.201v-0.004c0.001-0.002 0.002-0.004 0.003-0.007 0.002-0.006 0.004-0.015 0.008-0.026 0.007-0.021 0.018-0.050 0.031-0.087 0.026-0.075 0.065-0.183 0.117-0.318 0.105-0.27 0.264-0.651 0.487-1.105 0.445-0.908 1.148-2.121 2.173-3.335 2.059-2.437 5.432-4.887 10.616-4.887zM17.005 7.524c-4.702 0-7.728 2.201-9.598 4.414-0.939 1.111-1.584 2.225-1.994 3.061-0.204 0.417-0.35 0.763-0.443 1.001-0.021 0.055-0.040 0.104-0.056 0.147 0.016 0.039 0.033 0.083 0.053 0.132 0.096 0.226 0.245 0.553 0.453 0.949 0.418 0.794 1.075 1.854 2.021 2.918 1.885 2.119 4.919 4.252 9.574 4.328 4.641 0.076 7.665-2.048 9.548-4.203 0.946-1.082 1.602-2.172 2.021-2.991 0.209-0.408 0.357-0.747 0.453-0.982 0.022-0.055 0.039-0.104 0.056-0.147-0.016-0.044-0.033-0.095-0.055-0.151-0.093-0.239-0.238-0.584-0.443-1.001-0.41-0.836-1.055-1.95-1.993-3.061-1.869-2.213-4.896-4.414-9.599-4.414zM19.539 16.040c0-1.335-1.117-2.448-2.534-2.448s-2.533 1.114-2.533 2.448c0 1.334 1.117 2.446 2.533 2.447s2.533-1.112 2.534-2.447zM4.205 16.159l-0.63 0.216c-0.046-0.134-0.049-0.28-0.007-0.415l0.637 0.199zM20.872 16.040c0 2.105-1.749 3.78-3.867 3.78s-3.866-1.675-3.866-3.78c0-2.105 1.748-3.781 3.866-3.781s3.867 1.676 3.867 3.781z"></path>
</svg>
