<!-- Generated by IcoMoon.io -->
<svg version="1.1" xmlns="http://www.w3.org/2000/svg" width="32" height="32" viewBox="0 0 32 32">
<title>eye-slash</title>
<path d="M16 12.227c-2.088 0-3.773 1.686-3.773 3.773 0 0.681 0.179 1.315 0.494 1.865l5.145-5.145c-0.55-0.315-1.185-0.494-1.865-0.494zM10.227 16c0-3.192 2.581-5.773 5.773-5.773 1.597 0 3.035 0.647 4.081 1.693 0.39 0.391 0.39 1.024 0 1.414l-6.747 6.747c-0.391 0.39-1.024 0.39-1.414 0-1.046-1.046-1.693-2.483-1.693-4.081z"></path>
<path d="M3.010 12.009c3.188-5.011 7.859-8.036 12.99-8.036 3 0 5.874 1.045 8.362 2.922 0.441 0.333 0.529 0.96 0.196 1.401s-0.96 0.529-1.401 0.196c-2.178-1.643-4.637-2.518-7.158-2.518-4.282 0-8.384 2.522-11.303 7.11l-0.001 0.001c-0.473 0.741-0.743 1.801-0.743 2.922s0.27 2.181 0.743 2.922l0 0.001c1.005 1.577 2.169 2.928 3.422 4.006 0.419 0.36 0.466 0.992 0.106 1.41s-0.992 0.466-1.41 0.106c-1.413-1.215-2.703-2.718-3.805-4.447-0.727-1.139-1.057-2.599-1.057-3.997s0.33-2.858 1.057-3.997z"></path>
<path d="M26.107 9.794c0.43-0.346 1.060-0.278 1.406 0.152 0.512 0.636 1.015 1.32 1.479 2.051 0.726 1.139 1.056 2.598 1.056 3.996s-0.33 2.858-1.057 3.997c-3.188 5.011-7.859 8.036-12.99 8.036-1.782 0-3.527-0.377-5.161-1.065-0.509-0.214-0.748-0.801-0.534-1.31s0.801-0.748 1.31-0.534c1.405 0.592 2.887 0.908 4.385 0.908 4.283 0 8.384-2.522 11.303-7.11l0.001-0.001c0.473-0.741 0.743-1.801 0.743-2.922s-0.27-2.181-0.743-2.922l-0.001-0.002c-0.416-0.656-0.873-1.279-1.348-1.869-0.346-0.43-0.278-1.060 0.152-1.406z"></path>
<path d="M20.861 15.95c0.543 0.1 0.902 0.622 0.802 1.165-0.422 2.288-2.274 4.14-4.562 4.562-0.543 0.1-1.065-0.259-1.165-0.802s0.259-1.065 0.802-1.165c1.472-0.271 2.686-1.486 2.958-2.958 0.1-0.543 0.622-0.902 1.165-0.802z"></path>
<path d="M13.334 18.666c0.391 0.39 0.391 1.024 0 1.414l-9.96 9.96c-0.391 0.391-1.024 0.391-1.414 0s-0.391-1.024 0-1.414l9.96-9.96c0.391-0.391 1.024-0.391 1.414 0z"></path>
<path d="M30.040 1.96c0.391 0.391 0.391 1.024 0 1.414l-9.96 9.96c-0.391 0.391-1.024 0.391-1.414 0s-0.391-1.024 0-1.414l9.96-9.96c0.39-0.391 1.024-0.391 1.414 0z"></path>
</svg>
