<!-- Generated by IcoMoon.io -->
<svg version="1.1" xmlns="http://www.w3.org/2000/svg" width="32" height="32" viewBox="0 0 32 32">
<path fill="none" stroke-linejoin="round" stroke-linecap="round" stroke-miterlimit="4" stroke-width="1.28" stroke="#000" d="M26.328 25.344l-19.2-19.2M13.272 13.749c-0.478 0.527-0.768 1.219-0.768 1.977 0 1.651 1.375 2.989 3.072 2.989 0.782 0 1.496-0.285 2.039-0.753M26.377 18.716c1.058-1.583 1.486-2.874 1.486-2.874s-2.796-8.929-12.288-8.929c-0.533 0-1.045 0.028-1.536 0.081M22.488 22.591c-1.763 1.125-4.033 1.92-6.912 1.873-9.374-0.153-12.288-8.623-12.288-8.623s1.354-4.324 5.376-6.954"></path>
</svg>
