<!-- Generated by IcoMoon.io -->
<svg version="1.1" xmlns="http://www.w3.org/2000/svg" width="32" height="32" viewBox="0 0 32 32">
<path fill="none" stroke="#000" stroke-linejoin="round" stroke-linecap="round" stroke-miterlimit="4" stroke-width="1.3333" d="M27.2 26l-20-20M27.252 19.096c1.102-1.649 1.548-2.994 1.548-2.994s-2.913-9.301-12.8-9.301c-0.555 0-1.088 0.029-1.6 0.085M23.2 23.133c-1.837 1.172-4.201 2-7.2 1.951-9.764-0.16-12.8-8.982-12.8-8.982s1.41-4.504 5.6-7.244"></path>
<path d="M23.76 22.581c-1.96 1.928-5.101 2.546-7.76 2.503-9.742-0.159-12.787-8.942-12.801-8.982 1.036-3.308 3.522-5.704 6.223-7.704l14.339 14.184zM13.578 13.332c-0.135 0.004-0.265 0.051-0.372 0.129l-0.1 0.090c-0.603 0.665-0.974 1.544-0.974 2.508 0 2.105 1.75 3.78 3.869 3.78 0.978 0 1.876-0.357 2.559-0.947 0.141-0.122 0.225-0.298 0.231-0.484s-0.068-0.369-0.202-0.499l-4.523-4.388c-0.129-0.125-0.306-0.194-0.486-0.189z"></path>
</svg>
