<!-- Generated by IcoMoon.io -->
<svg version="1.1" xmlns="http://www.w3.org/2000/svg" width="32" height="32" viewBox="0 0 32 32">
<path fill="none" stroke-linejoin="round" stroke-linecap="round" stroke-miterlimit="4" stroke-width="1.8824" stroke="#000" d="M15.622 28.047h-7.529c-1.663 0-3.012-1.349-3.012-3.012l0-18.071c0-1.663 1.348-3.012 3.012-3.012h13.553c1.663 0 3.012 1.348 3.012 3.012v6.024M10.352 9.977h9.035M10.352 14.494h9.035M19.387 20.46v3.695c0 1.826 1.947 3.5 3.773 3.5s3.757-1.675 3.757-3.5v-4.667c0-0.967-0.556-1.947-1.792-1.947-1.322 0-1.965 0.981-1.965 1.947v4.473M10.352 19.012h4.518"></path>
</svg>
