<!-- Generated by IcoMoon.io -->
<svg version="1.1" xmlns="http://www.w3.org/2000/svg" width="32" height="32" viewBox="0 0 32 32">
<path d="M18.56 10.243v0zM17.92 28.803v0zM20.48 26.243v0zM20.48 12.673v0zM20.128 11.795v0zM3.84 26.243v0zM6.4 28.803v0zM17.026 8.736v0zM3.84 10.883v0zM28.16 7.553v0zM28.16 21.123v0zM24.706 3.616v0zM26.24 5.123v0zM27.808 6.675v0zM25.6 23.683v0zM11.52 5.763v0zM20.48 22.683c-0.552 0-1 0.448-1 1s0.448 1 1 1v-2zM10.52 8.323c0 0.552 0.448 1 1 1s1-0.448 1-1h-2zM6.4 8.323v1h9.674v-2h-9.674v1zM3.84 26.243h1l0-15.36-2-0-0 15.36h1zM17.92 28.803v-1l-11.52-0v1l-0 1 11.52 0v-1zM20.48 12.673l-1-0-0 13.57h2l0-13.57-1-0zM17.026 8.736l-0.725 0.689c0.379 0.399 0.992 1.027 1.592 1.563l1.334-1.49c-0.54-0.483-1.109-1.064-1.476-1.451l-0.725 0.689zM18.56 10.243l-0.667 0.745c0.414 0.371 1.090 1.061 1.515 1.501l1.44-1.388c-0.416-0.431-1.143-1.175-1.621-1.603l-0.667 0.745zM17.92 28.803v1c1.966 0 3.56-1.594 3.56-3.56h-2c-0 0.862-0.698 1.56-1.56 1.56v1zM20.48 12.673l1 0c0-0.582-0.222-1.146-0.632-1.572l-1.44 1.388c0.044 0.046 0.072 0.111 0.072 0.183l1 0zM3.84 26.243h-1c0 1.966 1.594 3.56 3.56 3.56l0-1v-1c-0.862 0-1.56-0.698-1.56-1.56h-1zM16.074 8.323v1c0.078 0 0.162 0.033 0.227 0.102l1.45-1.378c-0.431-0.454-1.034-0.724-1.677-0.724v1zM6.4 8.323v-1c-1.966 0-3.56 1.594-3.56 3.56l2 0c0-0.862 0.698-1.56 1.56-1.56v-1zM15.36 8.323h-1v3.84h2v-3.84h-1zM16.64 13.443v1h3.84v-2h-3.84v1zM15.36 12.163h-1c0 1.259 1.021 2.28 2.28 2.28v-2c-0.155 0-0.28-0.125-0.28-0.28h-1zM14.080 3.203v1h8.96v-2h-8.96v1zM23.040 3.203v1h0.714v-2h-0.714v1zM28.16 7.553l-1-0v0.77l2 0v-0.77l-1-0zM28.16 8.323l-1-0-0 12.8h2l0-12.8-1-0zM24.706 3.616l-0.725 0.689c0.379 0.399 0.992 1.027 1.592 1.563l1.334-1.49c-0.54-0.483-1.109-1.064-1.476-1.451l-0.725 0.689zM26.24 5.123l-0.667 0.745c0.414 0.371 1.090 1.061 1.515 1.501l1.44-1.388c-0.416-0.431-1.143-1.175-1.621-1.603l-0.667 0.745zM25.6 23.683v1c1.966 0 3.56-1.594 3.56-3.56h-2c0 0.862-0.698 1.56-1.56 1.56v1zM28.16 7.553l1 0c0-0.582-0.222-1.146-0.632-1.572l-1.44 1.388c0.045 0.046 0.072 0.111 0.072 0.183l1 0zM23.754 3.203v1c0.078 0 0.161 0.033 0.227 0.102l1.45-1.378c-0.431-0.454-1.034-0.724-1.677-0.724v1zM14.080 3.203v-1c-1.966 0-3.56 1.594-3.56 3.56l2 0c0-0.862 0.698-1.56 1.56-1.56v-1zM23.040 3.203h-1v3.84h2v-3.84h-1zM24.32 8.323v1h3.84v-2h-3.84v1zM23.040 7.043h-1c0 1.259 1.021 2.28 2.28 2.28v-2c-0.155 0-0.28-0.125-0.28-0.28h-1zM25.6 23.683v-1h-5.12v2h5.12v-1zM11.52 5.763h-1v2.56h2v-2.56h-1z"></path>
</svg>
