<!-- Generated by IcoMoon.io -->
<svg version="1.1" xmlns="http://www.w3.org/2000/svg" width="32" height="32" viewBox="0 0 32 32">
<title>flag</title>
<path d="M6.867 1.667c0.552 0 1 0.448 1 1v26.667c0 0.552-0.448 1-1 1s-1-0.448-1-1v-26.667c0-0.552 0.448-1 1-1z"></path>
<path d="M5.867 5.333c0-0.552 0.448-1 1-1h14.933c0.981 0 1.849 0.135 2.553 0.43 0.712 0.298 1.312 0.789 1.606 1.509 0.293 0.719 0.209 1.489-0.085 2.2-0.291 0.705-0.81 1.411-1.5 2.102l-1.6 1.6c-0.704 0.704-0.632 1.763-0.049 2.274 0.017 0.015 0.033 0.030 0.049 0.045l1.6 1.6c1.317 1.317 2.141 2.89 1.529 4.318-0.606 1.413-2.298 1.923-4.103 1.923h-14.933c-0.552 0-1-0.448-1-1s0.448-1 1-1h14.933c1.662 0 2.17-0.49 2.264-0.711 0.088-0.205 0.112-0.899-1.105-2.116l-1.579-1.578c-1.522-1.361-1.442-3.748-0.021-5.169l1.6-1.6c0.576-0.576 0.908-1.069 1.066-1.452 0.156-0.377 0.121-0.582 0.081-0.679-0.039-0.096-0.156-0.264-0.527-0.42-0.379-0.159-0.961-0.274-1.78-0.274h-14.933c-0.552 0-1-0.448-1-1z"></path>
</svg>
