<!-- Generated by IcoMoon.io -->
<svg version="1.1" xmlns="http://www.w3.org/2000/svg" width="32" height="32" viewBox="0 0 32 32">
<title>flag-2</title>
<path d="M8.6 1.667c0.552 0 1 0.448 1 1v26.667c0 0.552-0.448 1-1 1s-1-0.448-1-1v-26.667c0-0.552 0.448-1 1-1z"></path>
<path d="M8.349 4.937c0.219-0.507 0.808-0.74 1.315-0.521l10.797 4.665c2.313 0.982 3.891 2.491 3.939 4.394 0.049 1.889-1.433 3.492-3.608 4.614l-0.016 0.008v-0l-11.067 5.467c-0.495 0.245-1.095 0.041-1.339-0.454s-0.041-1.095 0.454-1.339l11.059-5.463c1.953-1.010 2.536-2.072 2.518-2.782-0.018-0.697-0.639-1.72-2.724-2.605l-0.006-0.003-10.8-4.667c-0.507-0.219-0.74-0.808-0.521-1.315z"></path>
</svg>
