<!-- Generated by IcoMoon.io -->
<svg version="1.1" xmlns="http://www.w3.org/2000/svg" width="32" height="32" viewBox="0 0 32 32">
<title>fleche-gauche</title>
<path d="M6.965 18.259c0.941 0.376 1.506 0.941 2.259 1.694 1.882 1.882 3.576 3.576 5.459 5.459 0.753 0.753 0.941 1.506 0.753 2.447-0.376 1.318-2.259 1.882-3.388 0.941-0.188-0.188-0.188-0.188-0.376-0.376-3.576-3.576-7.153-7.153-10.729-10.729-0.753-0.753-1.129-1.506-0.753-2.447 0.188-0.376 0.376-0.753 0.565-0.941 3.576-3.576 7.153-7.153 10.729-10.918 0.941-0.941 2.259-0.941 3.2-0.188s0.941 2.259 0 3.2c-0.565 0.565-1.318 1.318-1.882 1.882-1.318 1.318-2.447 2.447-3.765 3.765-0.188 0.376-0.565 0.753-0.941 0.941-0.376 0.376-0.753 0.565-1.129 0.753 0.188 0 0.188 0 0.376 0 6.965 0 13.929 0 20.894 0 0.565 0 1.129 0 1.506 0.376 0.753 0.565 1.129 1.506 0.941 2.259-0.188 0.941-1.129 1.506-2.071 1.694-0.188 0-0.376 0-0.565 0-6.965 0-13.929 0-20.706 0-0.188 0.188-0.188 0.188-0.376 0.188 0 0 0 0 0 0z"></path>
</svg>
