<!-- Generated by IcoMoon.io -->
<svg version="1.1" xmlns="http://www.w3.org/2000/svg" width="30" height="32" viewBox="0 0 30 32">
<path d="M3.014 22.954v0zM3.014 11.503v0zM3.013 7.54v0zM15.164 9.741l-0.687 0.643c0.178 0.19 0.427 0.298 0.687 0.298v-0.941zM11.695 6.035l0.687-0.643c-0.178-0.19-0.427-0.298-0.687-0.298v0.941zM15.164 26.907c0.52 0 0.941-0.421 0.941-0.941s-0.421-0.941-0.941-0.941v1.882zM26.165 15.247c0 0.52 0.421 0.941 0.941 0.941s0.941-0.421 0.941-0.941h-1.882zM25.513 23.617c-0.368-0.367-0.964-0.367-1.331 0s-0.368 0.964 0 1.331l1.331-1.331zM25.688 26.454c0.367 0.368 0.963 0.368 1.331 0s0.367-0.963 0-1.331l-1.331 1.331zM3.955 22.954l0-11.45-1.882-0-0 11.45h1.882zM2.072 7.54c0 1.183 0.001 2.816 0.001 3.963l1.882 0c0-1.147-0-2.781-0.001-3.964l-1.882 0.001zM15.164 10.682h10.436v-1.882h-10.436v1.882zM4.519 6.976h7.176v-1.882h-7.176v1.882zM11.008 6.678l3.47 3.707 1.374-1.286-3.47-3.707-1.374 1.286zM15.164 25.024h-9.139v1.882h9.139v-1.882zM26.165 11.247v4h1.882v-4h-1.882zM3.954 7.54c-0-0.311 0.252-0.564 0.565-0.564v-1.882c-1.351 0-2.448 1.094-2.447 2.447l1.882-0.001zM2.072 22.954c-0 2.183 1.77 3.953 3.953 3.953v-1.882c-1.144 0-2.071-0.927-2.071-2.071h-1.882zM25.601 10.682c0.312 0 0.565 0.253 0.565 0.565h1.882c0-1.351-1.096-2.447-2.447-2.447v1.882zM24.659 21.271c0 1.559-1.264 2.824-2.824 2.824v1.882c2.599 0 4.706-2.107 4.706-4.706h-1.882zM21.836 24.094c-1.559 0-2.824-1.264-2.824-2.824h-1.882c0 2.599 2.107 4.706 4.706 4.706v-1.882zM19.012 21.271c0-1.56 1.264-2.824 2.824-2.824v-1.882c-2.599 0-4.706 2.107-4.706 4.706h1.882zM21.836 18.447c1.559 0 2.824 1.264 2.824 2.824h1.882c0-2.599-2.107-4.706-4.706-4.706v1.882zM24.182 24.948l1.506 1.506 1.331-1.331-1.506-1.506-1.331 1.331z"></path>
</svg>
