<!-- Generated by IcoMoon.io -->
<svg version="1.1" xmlns="http://www.w3.org/2000/svg" width="32" height="32" viewBox="0 0 32 32">
<path d="M27.597 15.775l-0.205-0.282c-0.358-0.435-0.781-0.781-1.267-1.037-0.653-0.371-1.395-0.563-2.163-0.563h-15.936c-0.768 0-1.498 0.192-2.163 0.563-0.499 0.269-0.947 0.64-1.318 1.101-0.73 0.934-1.075 2.086-0.96 3.238l0.474 5.978c0.166 1.805 0.384 4.032 4.442 4.032h15.002c4.058 0 4.262-2.227 4.442-4.045l0.474-5.952c0.115-1.075-0.166-2.15-0.819-3.034zM19.059 22.841h-6.131c-0.499 0-0.896-0.41-0.896-0.896s0.397-0.896 0.896-0.896h6.131c0.499 0 0.896 0.41 0.896 0.896 0 0.499-0.397 0.896-0.896 0.896z"></path>
<path d="M26.958 11.65c0.048 0.49-0.483 0.818-0.95 0.662-0.646-0.216-1.326-0.324-2.033-0.324h-15.949c-0.713 0-1.415 0.115-2.069 0.335-0.461 0.155-0.99-0.162-0.99-0.649v-2.502c0-4.57 1.395-5.965 5.965-5.965h1.51c1.83 0 2.406 0.589 3.149 1.549l1.536 2.048c0.32 0.435 0.333 0.461 0.896 0.461h3.046c4.001 0 5.564 1.072 5.889 4.386z"></path>
</svg>
