<!-- Generated by IcoMoon.io -->
<svg version="1.1" xmlns="http://www.w3.org/2000/svg" width="32" height="32" viewBox="0 0 32 32">
<path fill="none" stroke-linejoin="miter" stroke-linecap="butt" stroke-miterlimit="10" stroke-width="2" stroke="#000" d="M28.894 19.072l-0.533 6.667c-0.2 2.040-0.36 3.6-3.973 3.6h-16.773c-3.613 0-3.773-1.56-3.973-3.6l-0.533-6.667c-0.107-1.107 0.24-2.133 0.867-2.92 0.013-0.013 0.013-0.013 0.027-0.027 0.733-0.893 1.84-1.453 3.080-1.453h17.84c1.24 0 2.333 0.56 3.053 1.427 0.013 0.013 0.027 0.027 0.027 0.040 0.653 0.787 1.013 1.813 0.893 2.933z"></path>
<path fill="none" stroke-linejoin="round" stroke-linecap="round" stroke-miterlimit="10" stroke-width="2" stroke="#000" d="M4.667 15.244v-6.867c0-4.533 1.133-5.667 5.667-5.667h1.693c1.693 0 2.080 0.507 2.72 1.36l1.693 2.267c0.427 0.56 0.68 0.907 1.813 0.907h3.4c4.533 0 5.667 1.133 5.667 5.667v2.387"></path>
<path fill="none" stroke-linejoin="round" stroke-linecap="round" stroke-miterlimit="10" stroke-width="2" stroke="#000" d="M12.573 22.672h6.853"></path>
</svg>
