<!-- Generated by IcoMoon.io -->
<svg version="1.1" xmlns="http://www.w3.org/2000/svg" width="32" height="32" viewBox="0 0 32 32">
<path d="M4.612 19.947c0.39-0.391 1.023-0.391 1.414-0.001l6.693 6.68c0.391 0.39 0.392 1.023 0.001 1.414s-1.023 0.392-1.414 0.001l-6.693-6.68c-0.391-0.39-0.392-1.023-0.001-1.414z"></path>
<path d="M12.014 3.667c0.552 0 1 0.448 1 1v22.667c0 0.552-0.448 1-1 1s-1-0.448-1-1v-22.667c0-0.552 0.448-1 1-1z"></path>
<path d="M19.279 3.96c0.39-0.391 1.023-0.392 1.414-0.001l6.693 6.68c0.391 0.39 0.392 1.023 0.001 1.414s-1.023 0.392-1.414 0.001l-6.693-6.68c-0.391-0.39-0.391-1.023-0.001-1.414z"></path>
<path d="M19.987 3.667c0.552 0 1 0.448 1 1v22.667c0 0.552-0.448 1-1 1s-1-0.448-1-1v-22.667c0-0.552 0.448-1 1-1z"></path>
</svg>
