<!-- Generated by IcoMoon.io -->
<svg version="1.1" xmlns="http://www.w3.org/2000/svg" width="32" height="32" viewBox="0 0 32 32">
<path d="M11.394 11.724c0.189-0.519 0.764-0.786 1.282-0.596 2.152 0.786 4.495 0.786 6.647 0 0.519-0.189 1.093 0.078 1.282 0.596s-0.077 1.093-0.596 1.282c-2.595 0.948-5.425 0.948-8.019 0-0.519-0.189-0.786-0.764-0.596-1.282z"></path>
<path d="M3.426 7.813c0-3.377 2.753-6.147 6.147-6.147h12.853c3.395 0 6.144 2.769 6.16 6.142v18.791c0 1.425-0.516 2.686-1.616 3.333s-2.452 0.487-3.696-0.206zM23.274 29.728l-6.515-3.618c-0.151-0.086-0.419-0.159-0.747-0.159s-0.602 0.073-0.765 0.163l-6.511 3.616c-1.246 0.686-2.596 0.84-3.693 0.194s-1.616-1.902-1.616-3.323v-18.787zM9.573 3.667c-2.286 0-4.147 1.871-4.147 4.147v18.787c0 0.979 0.342 1.43 0.631 1.6s0.852 0.251 1.712-0.222c0.001 0 0.001-0.001 0.002-0.001l6.502-3.611c0 0 0 0 0 0 0.531-0.296 1.163-0.417 1.739-0.417 0.574 0 1.203 0.119 1.731 0.418l6.503 3.611c0.862 0.48 1.424 0.4 1.71 0.231s0.631-0.622 0.631-1.61v-18.784c-0.012-2.28-1.875-4.149-4.16-4.149h-12.853z"></path>
</svg>
