<!-- Generated by IcoMoon.io -->
<svg version="1.1" xmlns="http://www.w3.org/2000/svg" width="32" height="32" viewBox="0 0 32 32">
<title>gallery</title>
<path d="M4.126 4.126c1.779-1.779 4.442-2.46 7.874-2.46h8c3.432 0 6.095 0.68 7.874 2.46s2.46 4.442 2.46 7.874v8c0 3.432-0.68 6.095-2.46 7.874s-4.442 2.46-7.874 2.46h-8c-3.432 0-6.094-0.68-7.874-2.46s-2.46-4.442-2.46-7.874v-8c0-3.432 0.68-6.094 2.46-7.874zM5.54 5.54c-1.221 1.221-1.874 3.225-1.874 6.46v8c0 3.235 0.653 5.239 1.874 6.46s3.225 1.874 6.46 1.874h8c3.235 0 5.239-0.653 6.46-1.874s1.874-3.225 1.874-6.46v-8c0-3.235-0.653-5.239-1.874-6.46s-3.225-1.874-6.46-1.874h-8c-3.235 0-5.239 0.653-6.46 1.874z"></path>
<path d="M12 9c-0.92 0-1.667 0.746-1.667 1.667s0.746 1.667 1.667 1.667c0.92 0 1.667-0.746 1.667-1.667s-0.746-1.667-1.667-1.667zM8.333 10.667c0-2.025 1.642-3.667 3.667-3.667s3.667 1.642 3.667 3.667c0 2.025-1.642 3.667-3.667 3.667s-3.667-1.642-3.667-3.667z"></path>
<path d="M26.508 17.425c-0.665-0.571-1.792-0.571-2.457 0l-5.547 4.76c-0 0 0-0 0 0-1.415 1.215-3.649 1.215-5.063 0l-0.009-0.007-0.435-0.383c-0.598-0.51-1.62-0.573-2.307-0.111l-6.573 4.413c-0.459 0.308-1.080 0.186-1.388-0.273s-0.186-1.080 0.273-1.388l6.573-4.413c1.417-0.951 3.433-0.855 4.729 0.258l0.008 0.007 0.435 0.383c0.666 0.568 1.789 0.567 2.453-0.003l5.547-4.76c-0 0 0-0 0 0 1.415-1.215 3.649-1.215 5.063 0 0 0 0 0 0 0l2.173 1.867c0.419 0.36 0.467 0.991 0.107 1.41s-0.991 0.467-1.41 0.107l-2.173-1.867z"></path>
</svg>
