<!-- Generated by IcoMoon.io -->
<svg version="1.1" xmlns="http://www.w3.org/2000/svg" width="32" height="32" viewBox="0 0 32 32">
<path fill="none" stroke-linejoin="round" stroke-linecap="round" stroke-miterlimit="4" stroke-width="1.8824" stroke="#000" d="M18.39 27.291c-0.963 0.248-1.972 0.379-3.012 0.379-6.653 0-12.047-5.394-12.047-12.047s5.394-12.047 12.047-12.047c6.143 0 11.213 4.598 11.954 10.541M4.837 20.141h3.514c1.386 0 2.51-1.124 2.51-2.51v-3.263c0-1.386 1.124-2.51 2.51-2.51h2.51c1.386 0 2.51-1.124 2.51-2.51v-4.267M25.979 23.18l3.449-1.192c0.646-0.223 0.668-1.13 0.033-1.384l-8.55-3.421c-0.595-0.238-1.19 0.342-0.967 0.943l3.257 8.77c0.238 0.641 1.144 0.642 1.384 0.002l1.394-3.718z"></path>
</svg>
