<!-- Generated by IcoMoon.io -->
<svg version="1.1" xmlns="http://www.w3.org/2000/svg" width="32" height="32" viewBox="0 0 32 32">
<path d="M16 3.667c-6.811 0-12.333 5.522-12.333 12.333s5.522 12.333 12.333 12.333c6.811 0 12.333-5.522 12.333-12.333s-5.522-12.333-12.333-12.333zM1.667 16c0-7.916 6.417-14.333 14.333-14.333s14.333 6.417 14.333 14.333c0 7.916-6.417 14.333-14.333 14.333s-14.333-6.417-14.333-14.333z"></path>
<path d="M9.667 4c0-0.552 0.448-1 1-1h1.333c0.322 0 0.623 0.155 0.811 0.415s0.239 0.596 0.137 0.901c-2.531 7.581-2.531 15.785 0 23.367 0.102 0.305 0.051 0.64-0.137 0.901s-0.49 0.415-0.811 0.415h-1.333c-0.552 0-1-0.448-1-1 0-0.543 0.432-0.984 0.971-1-2.117-7.179-2.117-14.822 0-22.001-0.539-0.015-0.971-0.457-0.971-1z"></path>
<path d="M19.684 3.052c0.524-0.175 1.090 0.108 1.265 0.632 2.669 7.992 2.669 16.641 0 24.633-0.175 0.524-0.741 0.807-1.265 0.632s-0.807-0.741-0.632-1.265c2.531-7.581 2.531-15.786 0-23.367-0.175-0.524 0.108-1.090 0.632-1.265z"></path>
<path d="M3.416 19.189c0.261-0.188 0.596-0.239 0.901-0.137 7.581 2.531 15.785 2.531 23.367 0 0.305-0.102 0.64-0.051 0.901 0.137s0.415 0.49 0.415 0.811v1.333c0 0.552-0.448 1-1 1-0.543 0-0.984-0.432-1-0.971-7.179 2.117-14.822 2.117-22.001 0-0.015 0.539-0.457 0.971-1 0.971-0.552 0-1-0.448-1-1v-1.333c0-0.321 0.155-0.623 0.415-0.811z"></path>
<path d="M27.684 12.949c-7.581-2.531-15.786-2.531-23.367 0-0.524 0.175-1.090-0.108-1.265-0.632s0.108-1.090 0.632-1.265c7.992-2.669 16.641-2.669 24.633 0 0.524 0.175 0.807 0.741 0.632 1.265s-0.741 0.807-1.265 0.632z"></path>
</svg>
