<!-- Generated by IcoMoon.io -->
<svg version="1.1" xmlns="http://www.w3.org/2000/svg" width="32" height="32" viewBox="0 0 32 32">
<title>group</title>
<path d="M20.854 10.933c0.391 0.391 0.391 1.024 0 1.414l-8.72 8.72c-0.391 0.391-1.024 0.391-1.414 0s-0.391-1.024 0-1.414l8.72-8.72c0.391-0.391 1.024-0.391 1.414 0z"></path>
<path d="M11.973 11.547c-0.353 0-0.64 0.287-0.64 0.64s0.287 0.64 0.64 0.64 0.64-0.287 0.64-0.64c0-0.354-0.287-0.64-0.64-0.64zM9.333 12.187c0-1.458 1.182-2.64 2.64-2.64s2.64 1.182 2.64 2.64c0 1.458-1.182 2.64-2.64 2.64s-2.64-1.182-2.64-2.64z"></path>
<path d="M20.693 19.173c-0.353 0-0.64 0.287-0.64 0.64s0.287 0.64 0.64 0.64c0.353 0 0.64-0.287 0.64-0.64s-0.287-0.64-0.64-0.64zM18.053 19.813c0-1.458 1.182-2.64 2.64-2.64s2.64 1.182 2.64 2.64c0 1.458-1.182 2.64-2.64 2.64s-2.64-1.182-2.64-2.64z"></path>
<path d="M16 3.667c-6.811 0-12.333 5.522-12.333 12.333s5.522 12.333 12.333 12.333c6.811 0 12.333-5.522 12.333-12.333s-5.522-12.333-12.333-12.333zM1.667 16c0-7.916 6.417-14.333 14.333-14.333s14.333 6.417 14.333 14.333c0 7.916-6.417 14.333-14.333 14.333s-14.333-6.417-14.333-14.333z"></path>
</svg>
