<!-- Generated by IcoMoon.io -->
<svg version="1.1" xmlns="http://www.w3.org/2000/svg" width="32" height="32" viewBox="0 0 32 32">
<path fill="none" stroke-linejoin="round" stroke-linecap="round" stroke-miterlimit="4" stroke-width="2" stroke="#000" d="M14.667 20h2.667c0.707 0 1.386-0.281 1.886-0.781s0.781-1.178 0.781-1.886c0-0.707-0.281-1.386-0.781-1.886s-1.178-0.781-1.886-0.781h-4c-0.8 0-1.467 0.267-1.867 0.8l-7.467 7.2"></path>
<path fill="none" stroke-linejoin="round" stroke-linecap="round" stroke-miterlimit="4" stroke-width="2" stroke="#000" d="M9.332 28l2.133-1.867c0.4-0.533 1.067-0.8 1.867-0.8h5.333c1.467 0 2.8-0.533 3.733-1.6l6.133-5.867c0.515-0.486 0.815-1.157 0.835-1.865s-0.242-1.394-0.728-1.909c-0.486-0.515-1.157-0.815-1.864-0.835s-1.394 0.242-1.909 0.728l-5.6 5.2"></path>
<path fill="none" stroke-linejoin="round" stroke-linecap="round" stroke-miterlimit="4" stroke-width="2" stroke="#000" d="M2.668 21.333l8 8"></path>
<path fill="none" stroke-linejoin="round" stroke-linecap="round" stroke-miterlimit="4" stroke-width="2" stroke="#000" d="M21.332 15.867c2.135 0 3.867-1.731 3.867-3.867s-1.731-3.867-3.867-3.867c-2.136 0-3.867 1.731-3.867 3.867s1.731 3.867 3.867 3.867z"></path>
<path fill="none" stroke-linejoin="round" stroke-linecap="round" stroke-miterlimit="4" stroke-width="2" stroke="#000" d="M8 10.666c2.209 0 4-1.791 4-4s-1.791-4-4-4c-2.209 0-4 1.791-4 4s1.791 4 4 4z"></path>
</svg>
