<!-- Generated by IcoMoon.io -->
<svg version="1.1" xmlns="http://www.w3.org/2000/svg" width="32" height="32" viewBox="0 0 32 32">
<path fill="none" stroke-linejoin="round" stroke-linecap="round" stroke-miterlimit="4" stroke-width="1.3333" stroke="#000" d="M4 14.667h4c0.707 0 1.386 0.281 1.886 0.781s0.781 1.178 0.781 1.886v4c0 0.707-0.281 1.385-0.781 1.886s-1.178 0.781-1.886 0.781h-1.333c-0.707 0-1.386-0.281-1.886-0.781s-0.781-1.178-0.781-1.886v-6.667zM4 14.667c0-1.576 0.31-3.136 0.913-4.592s1.487-2.779 2.601-3.893c1.114-1.114 2.437-1.998 3.893-2.601s3.016-0.913 4.592-0.913c1.576 0 3.136 0.31 4.592 0.913s2.779 1.487 3.893 2.601c1.114 1.114 1.998 2.437 2.601 3.893s0.913 3.016 0.913 4.592M28 14.667v6.667c0 0.707-0.281 1.385-0.781 1.886s-1.178 0.781-1.886 0.781h-1.333c-0.707 0-1.385-0.281-1.886-0.781s-0.781-1.178-0.781-1.886v-4c0-0.707 0.281-1.385 0.781-1.886s1.178-0.781 1.886-0.781h4z"></path>
<path fill="none" stroke-linejoin="round" stroke-linecap="round" stroke-miterlimit="4" stroke-width="1.3333" stroke="#000" d="M28 21.333v2.667c0 1.415-0.562 2.771-1.562 3.771s-2.357 1.562-3.771 1.562h-6.667"></path>
</svg>
