<!-- Generated by IcoMoon.io -->
<svg version="1.1" xmlns="http://www.w3.org/2000/svg" width="32" height="32" viewBox="0 0 32 32">
<title>heart-add</title>
<path d="M22.933 17.534c-2.982 0-5.4 2.418-5.4 5.4s2.418 5.4 5.4 5.4c2.982 0 5.4-2.418 5.4-5.4s-2.418-5.4-5.4-5.4zM15.533 22.934c0-4.087 3.313-7.4 7.4-7.4s7.4 3.313 7.4 7.4c0 4.087-3.313 7.4-7.4 7.4s-7.4-3.313-7.4-7.4z"></path>
<path d="M19.546 23.014c0-0.552 0.448-1 1-1h4.773c0.552 0 1 0.448 1 1s-0.448 1-1 1h-4.773c-0.552 0-1-0.448-1-1z"></path>
<path d="M22.933 19.68c0.552 0 1 0.448 1 1v4.787c0 0.552-0.448 1-1 1s-1-0.448-1-1v-4.787c0-0.552 0.448-1 1-1z"></path>
<path d="M10.080 5.133c-3.536 0-6.413 2.881-6.413 6.453 0 4.334 2.001 7.806 4.519 10.386 2.53 2.592 5.521 4.216 7.311 4.827l0.010 0.003v0c0.086 0.030 0.265 0.063 0.494 0.063s0.407-0.033 0.494-0.063l0.017-0.006v0c0.033-0.011 0.066-0.022 0.099-0.034-0.679-1.115-1.077-2.426-1.077-3.831 0-4.086 3.314-7.4 7.4-7.4 1.609 0 3.1 0.519 4.317 1.396 0.677-1.6 1.083-3.379 1.083-5.342 0-3.572-2.877-6.453-6.413-6.453-2.083 0-3.953 1.013-5.119 2.572-0.189 0.252-0.485 0.401-0.801 0.401s-0.612-0.149-0.801-0.401c-1.167-1.56-3.036-2.572-5.119-2.572zM1.667 11.587c0-4.668 3.763-8.453 8.413-8.453 2.304 0 4.403 0.941 5.92 2.452 1.517-1.511 3.615-2.452 5.92-2.452 4.65 0 8.413 3.786 8.413 8.453 0 2.806-0.728 5.286-1.863 7.428-0.151 0.285-0.429 0.479-0.749 0.523s-0.64-0.069-0.861-0.303c-0.994-1.051-2.389-1.701-3.927-1.701-2.981 0-5.4 2.419-5.4 5.4 0 1.38 0.526 2.639 1.385 3.6 0.212 0.237 0.298 0.56 0.234 0.87s-0.273 0.572-0.562 0.705c-0.509 0.234-0.996 0.435-1.44 0.584-0.365 0.127-0.782 0.174-1.15 0.174-0.37 0-0.789-0.047-1.154-0.175-2.077-0.71-5.337-2.499-8.091-5.321-2.769-2.837-5.088-6.784-5.088-11.783z"></path>
</svg>
