<!-- Generated by IcoMoon.io -->
<svg version="1.1" xmlns="http://www.w3.org/2000/svg" width="32" height="32" viewBox="0 0 32 32">
<path fill="none" stroke-linejoin="round" stroke-linecap="round" stroke-miterlimit="4" stroke-width="1.2698" stroke="#000" d="M18.727 19.538c-1.785 1.785-4.68 1.785-6.465 0M18.727 19.538c1.785-1.785 1.785-4.68 0-6.465M18.727 19.538l4.849 4.849M12.262 19.538c-1.785-1.785-1.785-4.68 0-6.465M12.262 19.538l-4.849 4.849M12.262 13.073c1.785-1.785 4.68-1.785 6.465 0M12.262 13.073l-4.849-4.849M18.727 13.073l4.849-4.849M24.114 24.925c-4.761 4.761-12.479 4.761-17.24 0s-4.761-12.479 0-17.24c4.761-4.761 12.479-4.761 17.24 0s4.761 12.479 0 17.24z"></path>
</svg>
