<!-- Generated by IcoMoon.io -->
<svg version="1.1" xmlns="http://www.w3.org/2000/svg" width="32" height="32" viewBox="0 0 32 32">
<path d="M25.645 3.231c0.266-0.152 0.568-0.232 0.875-0.231s0.608 0.082 0.874 0.236c0.265 0.154 0.486 0.375 0.639 0.641s0.234 0.567 0.233 0.874c0 0 0 0 0 0v17.442c0 0.307-0.081 0.609-0.235 0.875s-0.374 0.486-0.639 0.64c-0.265 0.154-0.566 0.235-0.873 0.236s-0.608-0.079-0.874-0.231l-7.407-4.233h-8.497c-1.593 0-3.121-0.633-4.248-1.759s-1.759-2.654-1.759-4.248 0.633-3.121 1.759-4.248c1.127-1.127 2.654-1.759 4.248-1.759h8.497l7.407-4.234zM26.141 4.098v0zM19.503 9.046v8.854l6.762 3.864v-16.584l-6.762 3.866zM26.638 4.967c0 0 0 0 0 0v0zM9.741 9.465c-1.063 0-2.082 0.422-2.833 1.174s-1.174 1.771-1.174 2.833c0 1.063 0.422 2.082 1.174 2.833s1.771 1.174 2.833 1.174h7.762v-8.014h-7.762z"></path>
<path d="M8.588 17.48h7.027l0.971 6.802c0.12 0.909-0.123 1.828-0.676 2.558s-1.373 1.213-2.28 1.342c-0.907 0.13-1.829-0.104-2.565-0.65s-1.227-1.361-1.365-2.267l-0.002-0.010-1.111-7.776zM10.894 19.48l0.784 5.487c0.060 0.383 0.268 0.728 0.58 0.959 0.313 0.232 0.705 0.331 1.090 0.276s0.734-0.26 0.969-0.571c0.234-0.309 0.338-0.698 0.288-1.083l-0.724-5.069h-2.987z"></path>
</svg>
