<!-- Generated by IcoMoon.io -->
<svg version="1.1" xmlns="http://www.w3.org/2000/svg" width="32" height="32" viewBox="0 0 32 32">
<title>home-2</title>
<path d="M15.312 1.692c1.381-0.032 2.817 0.318 3.955 1.115l8.238 5.772c-0-0 0 0 0 0 0.826 0.576 1.523 1.464 2.010 2.398s0.819 2.013 0.819 3.023v9.707c0 3.631-2.966 6.613-6.613 6.613h-15.44c-3.649 0-6.613-2.984-6.613-6.627v-9.88c0-0.947 0.299-1.973 0.739-2.869s1.068-1.762 1.82-2.347l7.187-5.6c1.1-0.855 2.519-1.274 3.9-1.306zM12.641 4.576c-0 0 0-0 0 0l-7.186 5.599c-0.448 0.349-0.907 0.943-1.254 1.65s-0.534 1.428-0.534 1.988v9.88c0 2.544 2.075 4.627 4.613 4.627h15.44c2.539 0 4.613-2.084 4.613-4.613v-9.707c0-0.604-0.209-1.364-0.591-2.097s-0.887-1.338-1.38-1.682l-0.002-0.001-8.24-5.773c-0-0 0 0 0 0-0.728-0.509-1.725-0.779-2.761-0.755s-2.017 0.34-2.718 0.885z"></path>
<path d="M16 18.987c0.552 0 1 0.448 1 1v4c0 0.552-0.448 1-1 1s-1-0.448-1-1v-4c0-0.552 0.448-1 1-1z"></path>
</svg>
