<!-- Generated by IcoMoon.io -->
<svg version="1.1" xmlns="http://www.w3.org/2000/svg" width="32" height="32" viewBox="0 0 32 32">
<path d="M26.291 9.375l-7.373-5.158c-2.010-1.408-5.094-1.331-7.027 0.166l-6.413 5.005c-1.28 0.998-2.291 3.046-2.291 4.659v8.832c0 3.264 2.65 5.926 5.914 5.926h13.798c3.264 0 5.914-2.65 5.914-5.914v-8.678c0-1.728-1.114-3.853-2.522-4.838zM16.96 23.686c0 0.525-0.435 0.96-0.96 0.96s-0.96-0.435-0.96-0.96v-3.84c0-0.525 0.435-0.96 0.96-0.96s0.96 0.435 0.96 0.96v3.84z"></path>
</svg>
