<!-- Generated by IcoMoon.io -->
<svg version="1.1" xmlns="http://www.w3.org/2000/svg" width="32" height="32" viewBox="0 0 32 32">
<path fill="none" stroke-linejoin="round" stroke-linecap="round" stroke-miterlimit="4" stroke-width="2" stroke="#000" d="M13.334 16v-4.048"></path>
<path fill="none" stroke-linejoin="round" stroke-linecap="round" stroke-miterlimit="4" stroke-width="2" stroke="#000" d="M18.666 16v-4.048"></path>
<path fill="none" stroke-linejoin="round" stroke-linecap="round" stroke-miterlimit="4" stroke-width="2" stroke="#000" d="M19.999 16c0.354 0 0.693 0.14 0.943 0.391s0.39 0.589 0.39 0.943v2.667c0 0.707-0.281 1.386-0.781 1.886s-1.178 0.781-1.886 0.781h-5.333c-0.707 0-1.386-0.281-1.886-0.781s-0.781-1.178-0.781-1.886v-2.667c0-0.354 0.14-0.693 0.391-0.943s0.589-0.391 0.943-0.391h8z"></path>
<path fill="none" stroke-linejoin="round" stroke-linecap="round" stroke-miterlimit="4" stroke-width="2" stroke="#000" d="M11.333 28h-4.667c-0.707 0-1.386-0.281-1.886-0.781s-0.781-1.178-0.781-1.886v-12c0-0.388 0.084-0.771 0.248-1.123s0.401-0.664 0.698-0.914l9.333-7.999c0.481-0.407 1.091-0.63 1.721-0.63s1.24 0.223 1.721 0.63l9.333 7.999c0.296 0.25 0.534 0.562 0.698 0.914s0.248 0.735 0.248 1.123v12c0 0.707-0.281 1.386-0.781 1.886s-1.178 0.781-1.886 0.781h-6.667c-0.707 0-1.386-0.281-1.886-0.781s-0.781-1.178-0.781-1.886v-2.667"></path>
</svg>
