<svg width="25" height="20" viewBox="0 0 25 20" fill="none" xmlns="http://www.w3.org/2000/svg">
<g clip-path="url(#clip0_12137_135794)">
<path d="M22.7937 7.22178C22.2986 7.22178 21.8562 7.44156 21.5586 7.79208L18.9073 10.8773L15.6831 7.12441C15.4744 6.88238 15.1656 6.72937 14.8234 6.72937C14.4785 6.72937 14.1697 6.88238 13.9638 7.12441L10.7395 10.8745L7.51799 7.12441C7.30934 6.88238 7.00054 6.72937 6.65836 6.72937C6.3134 6.72937 6.0046 6.88238 5.79873 7.12441L0.668793 13.0862V0.216797H24.6688V7.22178H22.7937Z" fill="#F6B718"/>
<path d="M24.6688 7.22266L19.767 12.9229C19.5583 13.1649 19.2495 13.3179 18.9073 13.3179C18.5624 13.3179 18.2508 13.1621 18.0422 12.9201L14.8234 9.17281L11.6019 12.9229C11.3933 13.1649 11.0845 13.3179 10.7423 13.3179C10.3973 13.3179 10.0857 13.1621 9.87987 12.9201L6.65558 9.17281L3.78459 12.514C3.48692 12.8645 3.04459 13.0843 2.5494 13.0843H0.668793V19.7832H24.6688V7.22266Z" fill="#E85A47"/>
<path d="M22.7937 7.22092C22.2985 7.22092 21.8562 7.4407 21.5585 7.79123L18.9073 10.8764L15.683 7.12355C15.4743 6.88152 15.1655 6.72852 14.8234 6.72852C14.4784 6.72852 14.1696 6.88152 13.9637 7.12355L10.7394 10.8736L7.51793 7.12355C7.30928 6.88152 7.00048 6.72852 6.6583 6.72852C6.31334 6.72852 6.00454 6.88152 5.79867 7.12355L0.668732 13.0853H2.54934C3.04453 13.0853 3.48686 12.8627 3.78453 12.515L6.6583 9.17386L9.87703 12.9184C10.0857 13.1632 10.3945 13.3162 10.7394 13.3162C11.0844 13.3162 11.3932 13.1632 11.5991 12.9212L14.8206 9.17108L18.0393 12.9156C18.248 13.1604 18.5568 13.3134 18.9045 13.3134C19.2495 13.3134 19.5583 13.1604 19.7641 12.9184L24.666 7.21814H22.7937" fill="black"/>
<path d="M7.3197 11.2559H5.99271V12.5829H7.3197V11.2559Z" fill="black"/>
<path opacity="0.86" d="M5.7952 7.12467C6.00385 6.88264 6.31265 6.72963 6.65483 6.72963C6.99979 6.72963 7.30859 6.88264 7.51445 7.12467L10.7387 10.8748L13.963 7.12467C14.1717 6.88264 14.4805 6.72963 14.8227 6.72963C15.1676 6.72963 15.4764 6.88264 15.6823 7.12467L18.9066 10.8748L21.5578 7.78956C21.8555 7.44181 22.2978 7.21926 22.793 7.21926H24.2035V0.681641H1.13263V12.5467L5.7952 7.12467Z" fill="url(#paint0_linear_12137_135794)"/>
<path opacity="0.77" d="M19.7662 12.9223C19.5576 13.1643 19.2488 13.3173 18.9066 13.3173C18.5616 13.3173 18.25 13.1615 18.0414 12.9195L14.8227 9.17217L11.6012 12.9223C11.3925 13.1643 11.0837 13.3173 10.7415 13.3173C10.3966 13.3173 10.085 13.1615 9.87912 12.9195L6.65483 9.17217L3.78384 12.5133C3.48617 12.8638 3.04384 13.0836 2.54865 13.0836H1.13263V19.318H24.2035V7.76172L19.7662 12.9223Z" fill="url(#paint1_linear_12137_135794)"/>
<path d="M18.9059 11.2884L19.9603 10.0616L21.763 7.964C22.0106 7.67189 22.3806 7.48828 22.7923 7.48828H24.0776L20.5223 11.6278L20.1105 12.1063L19.5625 12.7462" fill="url(#paint2_linear_12137_135794)"/>
<path opacity="0.82" d="M7.20786 11.3672H6.10342V12.4716H7.20786V11.3672Z" fill="url(#paint3_linear_12137_135794)"/>
<path opacity="0.8" d="M3.2286 12.7467L6.65597 8.75737L9.25989 11.7869L10.1974 10.6602L7.31252 7.30241C7.15395 7.1188 6.92026 7.00195 6.65876 7.00195C6.39725 7.00195 6.16078 7.1188 6.00221 7.30241L2.57205 11.289L3.2286 12.7467Z" fill="url(#paint4_linear_12137_135794)"/>
<path opacity="0.8" d="M11.3956 12.7467L14.8229 8.75737L17.4269 11.7869L18.3644 10.6602L15.4767 7.30241C15.3181 7.1188 15.0844 7.00195 14.8229 7.00195C14.5614 7.00195 14.325 7.1188 14.1664 7.30241L10.739 11.289L11.3956 12.7467Z" fill="url(#paint5_linear_12137_135794)"/>
</g>
<defs>
<linearGradient id="paint0_linear_12137_135794" x1="9.1148" y1="-1.67782" x2="10.9628" y2="2.63419" gradientUnits="userSpaceOnUse">
<stop stop-color="white"/>
<stop offset="0.0896271" stop-color="white" stop-opacity="0.9104"/>
<stop offset="1" stop-color="white" stop-opacity="0"/>
</linearGradient>
<linearGradient id="paint1_linear_12137_135794" x1="17.7696" y1="22.8246" x2="14.8167" y2="17.0741" gradientUnits="userSpaceOnUse">
<stop stop-color="white"/>
<stop offset="1" stop-color="white" stop-opacity="0"/>
</linearGradient>
<linearGradient id="paint2_linear_12137_135794" x1="22.9681" y1="6.36304" x2="20.03" y2="12.387" gradientUnits="userSpaceOnUse">
<stop stop-color="white"/>
<stop offset="0.0184727" stop-color="#EEEFF0"/>
<stop offset="0.1107" stop-color="#A3A8AC"/>
<stop offset="0.1976" stop-color="#6A7276"/>
<stop offset="0.2766" stop-color="#41494D"/>
<stop offset="0.3462" stop-color="#242C31"/>
<stop offset="0.4038" stop-color="#0C1013"/>
<stop offset="0.4422"/>
</linearGradient>
<linearGradient id="paint3_linear_12137_135794" x1="6.21138" y1="11.0638" x2="6.64869" y2="11.9048" gradientUnits="userSpaceOnUse">
<stop stop-color="white"/>
<stop offset="1"/>
</linearGradient>
<linearGradient id="paint4_linear_12137_135794" x1="5.8033" y1="9.91558" x2="4.27207" y2="6.91038" gradientUnits="userSpaceOnUse">
<stop/>
<stop offset="0.1105" stop-color="#050709"/>
<stop offset="0.2038" stop-color="#151B1F"/>
<stop offset="0.291" stop-color="#272F34"/>
<stop offset="0.3744" stop-color="#3C4449"/>
<stop offset="0.4552" stop-color="#576064"/>
<stop offset="0.5339" stop-color="#7B8286"/>
<stop offset="0.6111" stop-color="#A8ADB1"/>
<stop offset="0.6851" stop-color="#DFE1E2"/>
<stop offset="0.7225" stop-color="white"/>
</linearGradient>
<linearGradient id="paint5_linear_12137_135794" x1="13.9696" y1="9.91558" x2="12.4383" y2="6.91038" gradientUnits="userSpaceOnUse">
<stop/>
<stop offset="0.1105" stop-color="#050709"/>
<stop offset="0.2038" stop-color="#151B1F"/>
<stop offset="0.291" stop-color="#272F34"/>
<stop offset="0.3744" stop-color="#3C4449"/>
<stop offset="0.4552" stop-color="#576064"/>
<stop offset="0.5339" stop-color="#7B8286"/>
<stop offset="0.6111" stop-color="#A8ADB1"/>
<stop offset="0.6851" stop-color="#DFE1E2"/>
<stop offset="0.7225" stop-color="white"/>
</linearGradient>
<clipPath id="clip0_12137_135794">
<rect width="24" height="19.5655" fill="white" transform="translate(0.666016 0.216797)"/>
</clipPath>
</defs>
</svg>
