<!-- Generated by IcoMoon.io -->
<svg version="1.1" xmlns="http://www.w3.org/2000/svg" width="40" height="32" viewBox="0 0 40 32">
<path fill="#f6b718" d="M36.47 11.555c-0.792 0-1.5 0.352-1.976 0.912l-4.242 4.936-5.159-6.005c-0.334-0.387-0.828-0.632-1.376-0.632-0.552 0-1.046 0.245-1.375 0.632l-5.159 6-5.154-6c-0.334-0.387-0.828-0.632-1.375-0.632-0.552 0-1.046 0.245-1.375 0.632l-8.208 9.539v-20.591h38.4v11.208h-3z"></path>
<path fill="#e85a47" d="M39.47 11.556l-7.843 9.12c-0.334 0.387-0.828 0.632-1.376 0.632-0.552 0-1.050-0.249-1.384-0.636l-5.15-5.996-5.154 6c-0.334 0.387-0.828 0.632-1.375 0.632-0.552 0-1.051-0.249-1.38-0.636l-5.159-5.996-4.594 5.346c-0.476 0.561-1.184 0.912-1.976 0.912h-3.009v10.718h38.4v-20.097z"></path>
<path fill="#000" d="M36.47 11.553c-0.792 0-1.5 0.352-1.976 0.912l-4.242 4.936-5.159-6.005c-0.334-0.387-0.828-0.632-1.375-0.632-0.552 0-1.046 0.245-1.376 0.632l-5.159 6-5.154-6c-0.334-0.387-0.828-0.632-1.375-0.632-0.552 0-1.046 0.245-1.375 0.632l-8.208 9.539h3.009c0.792 0 1.5-0.356 1.976-0.912l4.598-5.346 5.15 5.991c0.334 0.392 0.828 0.636 1.38 0.636s1.046-0.245 1.376-0.632l5.154-6 5.15 5.991c0.334 0.392 0.828 0.636 1.384 0.636 0.552 0 1.046-0.245 1.375-0.632l7.843-9.12h-2.996z"></path>
<path fill="#000" d="M11.712 18.009h-2.123v2.123h2.123v-2.123z"></path>
<path fill="#000" opacity="0.86" d="M9.272 11.399c0.334-0.387 0.828-0.632 1.375-0.632 0.552 0 1.046 0.245 1.375 0.632l5.159 6 5.159-6c0.334-0.387 0.828-0.632 1.376-0.632 0.552 0 1.046 0.245 1.375 0.632l5.159 6 4.242-4.936c0.476-0.556 1.184-0.912 1.976-0.912h2.257v-10.46h-36.913v18.984l7.46-8.675z"></path>
<path fill="#000" opacity="0.77" d="M31.626 20.676c-0.334 0.387-0.828 0.632-1.375 0.632-0.552 0-1.051-0.249-1.384-0.636l-5.15-5.996-5.154 6c-0.334 0.387-0.828 0.632-1.376 0.632-0.552 0-1.050-0.249-1.38-0.636l-5.159-5.996-4.594 5.346c-0.476 0.561-1.184 0.912-1.976 0.912h-2.266v9.975h36.913v-18.49l-7.1 8.257z"></path>
<path fill="#000" d="M30.249 18.061l4.571-5.319c0.396-0.467 0.988-0.761 1.647-0.761h2.056l-7.224 8.413z"></path>
<path fill="#000" opacity="0.82" d="M11.533 18.188h-1.767v1.767h1.767v-1.767z"></path>
<path fill="#000" opacity="0.8" d="M5.166 20.395l5.484-6.383 4.166 4.847 1.5-1.803-4.616-5.372c-0.254-0.294-0.628-0.481-1.046-0.481s-0.797 0.187-1.050 0.481l-5.488 6.379 1.050 2.332z"></path>
<path fill="#000" opacity="0.8" d="M18.233 20.395l5.484-6.383 4.166 4.847 1.5-1.803-4.62-5.372c-0.254-0.294-0.628-0.481-1.046-0.481s-0.797 0.187-1.050 0.481l-5.484 6.379 1.051 2.332z"></path>
</svg>
