<!-- Generated by IcoMoon.io -->
<svg version="1.1" xmlns="http://www.w3.org/2000/svg" width="30" height="32" viewBox="0 0 30 32">
<path d="M14.769 1.231c-2.038 0-3.952 0.385-5.74 1.154-1.808 0.769-3.385 1.827-4.731 3.173-1.327 1.327-2.375 2.894-3.144 4.702-0.769 1.788-1.154 3.702-1.154 5.74s0.385 3.952 1.154 5.74c0.769 1.808 1.817 3.385 3.144 4.731 1.346 1.327 2.923 2.375 4.731 3.144 1.788 0.769 3.702 1.154 5.74 1.154s3.952-0.384 5.74-1.154c1.808-0.769 3.375-1.817 4.702-3.144 1.346-1.346 2.404-2.923 3.173-4.731 0.769-1.788 1.154-3.702 1.154-5.74s-0.384-3.952-1.154-5.74c-0.769-1.808-1.827-3.375-3.173-4.702-1.327-1.346-2.894-2.404-4.702-3.173-1.788-0.769-3.702-1.154-5.74-1.154zM17.856 24.106c-0.385 0.154-0.731 0.288-1.038 0.404s-0.577 0.212-0.808 0.288c-0.212 0.077-0.452 0.135-0.721 0.173s-0.548 0.058-0.837 0.058c-0.462 0-0.875-0.048-1.24-0.144-0.346-0.115-0.654-0.289-0.923-0.519-0.25-0.231-0.442-0.481-0.577-0.75-0.115-0.288-0.173-0.606-0.173-0.952 0-0.135 0-0.269 0-0.404 0.019-0.135 0.038-0.279 0.058-0.433 0.019-0.135 0.038-0.279 0.058-0.433 0.038-0.154 0.077-0.327 0.115-0.519l0.952-3.346c0.038-0.173 0.077-0.327 0.115-0.462 0.038-0.154 0.077-0.308 0.115-0.462 0.019-0.135 0.038-0.269 0.058-0.404s0.029-0.26 0.029-0.375c0-0.212-0.029-0.394-0.087-0.548-0.038-0.154-0.106-0.269-0.202-0.346-0.077-0.096-0.202-0.163-0.375-0.202s-0.385-0.058-0.635-0.058c-0.115 0-0.24 0.010-0.375 0.029-0.115 0.019-0.24 0.048-0.375 0.087s-0.26 0.077-0.375 0.115c-0.096 0.038-0.192 0.067-0.288 0.087l0.26-1.010c0.308-0.135 0.606-0.25 0.894-0.346 0.308-0.115 0.606-0.221 0.894-0.317 0.269-0.096 0.538-0.163 0.808-0.202s0.538-0.058 0.808-0.058c0.442 0 0.837 0.058 1.183 0.173 0.365 0.096 0.673 0.26 0.923 0.49 0.25 0.212 0.433 0.462 0.548 0.75 0.135 0.288 0.202 0.606 0.202 0.952 0 0.077-0.010 0.183-0.029 0.317 0 0.115-0.010 0.269-0.029 0.462s-0.048 0.375-0.087 0.548c-0.019 0.154-0.058 0.308-0.115 0.462l-0.952 3.346c-0.038 0.135-0.077 0.279-0.115 0.433-0.019 0.154-0.048 0.317-0.087 0.49-0.019 0.173-0.038 0.327-0.058 0.462s-0.029 0.24-0.029 0.317c0 0.231 0.019 0.423 0.058 0.577 0.058 0.154 0.135 0.269 0.231 0.346 0.115 0.077 0.26 0.135 0.433 0.173s0.375 0.058 0.606 0.058c0.115 0 0.24-0.010 0.375-0.029s0.269-0.048 0.404-0.087c0.154-0.038 0.279-0.077 0.375-0.115 0.115-0.038 0.202-0.067 0.26-0.087l-0.231 1.010zM17.683 10.519c-0.231 0.212-0.481 0.365-0.75 0.462-0.25 0.096-0.538 0.144-0.865 0.144-0.308 0-0.596-0.048-0.865-0.144-0.25-0.096-0.49-0.25-0.721-0.462-0.212-0.212-0.375-0.442-0.49-0.692s-0.173-0.519-0.173-0.808c0-0.288 0.058-0.558 0.173-0.808s0.279-0.481 0.49-0.692c0.231-0.192 0.471-0.337 0.721-0.433 0.269-0.115 0.558-0.173 0.865-0.173 0.327 0 0.615 0.058 0.865 0.173 0.269 0.096 0.519 0.24 0.75 0.433 0.212 0.212 0.375 0.442 0.49 0.692s0.173 0.519 0.173 0.808c0 0.288-0.058 0.558-0.173 0.808s-0.279 0.481-0.49 0.692z"></path>
</svg>
