<!-- Generated by IcoMoon.io -->
<svg version="1.1" xmlns="http://www.w3.org/2000/svg" width="32" height="32" viewBox="0 0 32 32">
<title>info</title>
<path d="M15.999 1.011c-8.283 0-14.999 6.711-14.999 14.988s6.716 14.989 14.999 14.989c8.283 0 15.001-6.712 15.001-14.989s-6.717-14.988-15.001-14.988zM19.122 24.241c-0.772 0.304-1.387 0.535-1.848 0.695-0.46 0.16-0.994 0.24-1.603 0.24-0.935 0-1.662-0.228-2.18-0.684s-0.776-1.033-0.776-1.735c0-0.273 0.019-0.552 0.057-0.836 0.039-0.284 0.102-0.604 0.187-0.963l0.966-3.411c0.085-0.327 0.159-0.638 0.217-0.928 0.058-0.292 0.086-0.56 0.086-0.803 0-0.434-0.090-0.738-0.269-0.91-0.182-0.171-0.523-0.255-1.032-0.255-0.249 0-0.505 0.037-0.768 0.114-0.26 0.080-0.486 0.152-0.672 0.223l0.255-1.051c0.632-0.258 1.238-0.478 1.816-0.661 0.578-0.185 1.124-0.277 1.638-0.277 0.928 0 1.644 0.226 2.149 0.672 0.502 0.448 0.754 1.030 0.754 1.746 0 0.148-0.018 0.41-0.052 0.783-0.034 0.374-0.099 0.716-0.193 1.029l-0.961 3.401c-0.079 0.273-0.149 0.585-0.212 0.934-0.062 0.349-0.093 0.615-0.093 0.794 0 0.452 0.1 0.76 0.303 0.924 0.201 0.164 0.552 0.246 1.050 0.246 0.235 0 0.498-0.042 0.795-0.123 0.295-0.081 0.508-0.153 0.643-0.216l-0.258 1.049zM17.333 11.062c0.631 0 1.171-0.208 1.619-0.624s0.673-0.921 0.673-1.514c0-0.59-0.225-1.098-0.673-1.518-0.447-0.421-0.988-0.631-1.619-0.631-0.63 0-1.173 0.209-1.625 0.631-0.448 0.42-0.677 0.928-0.677 1.518 0 0.591 0.227 1.098 0.677 1.514 0.452 0.416 0.996 0.624 1.625 0.624z"></path>
</svg>
