<!-- Generated by IcoMoon.io -->
<svg version="1.1" xmlns="http://www.w3.org/2000/svg" width="32" height="32" viewBox="0 0 32 32">
<title>info-circle</title>
<path d="M1.667 16c0-7.886 6.448-14.333 14.333-14.333s14.333 6.448 14.333 14.333c0 7.886-6.448 14.333-14.333 14.333s-14.333-6.448-14.333-14.333zM16 3.667c-6.781 0-12.333 5.552-12.333 12.333s5.552 12.333 12.333 12.333c6.781 0 12.333-5.552 12.333-12.333s-5.552-12.333-12.333-12.333z"></path>
<path d="M15.997 23.667c-0.552 0-1-0.448-1-1v-6.667c0-0.552 0.448-1 1-1s1 0.448 1 1v6.667c0 0.552-0.448 1-1 1z"></path>
<path d="M17.339 12c0 0.736-0.597 1.333-1.333 1.333h-0.012c-0.736 0-1.333-0.597-1.333-1.333s0.597-1.333 1.333-1.333h0.012c0.736 0 1.333 0.597 1.333 1.333z"></path>
</svg>
