<!-- Generated by IcoMoon.io -->
<svg version="1.1" xmlns="http://www.w3.org/2000/svg" width="32" height="32" viewBox="0 0 32 32">
<path d="M6.421 3.243c-0.039-0.287-0.262-0.521-0.555-0.568-0.324-0.052-0.637 0.139-0.739 0.451-0.711 2.168-2.51 3.541-4.46 3.541-0.368 0-0.667 0.298-0.667 0.667s0.298 0.667 0.667 0.667c2.114 0 3.994-1.198 5.091-3.052 1.112 1.859 3.010 3.052 5.123 3.052 2.114 0 3.994-1.198 5.091-3.052 1.112 1.859 3.010 3.052 5.123 3.052s3.994-1.198 5.091-3.052c1.112 1.859 3.010 3.052 5.123 3.052 0.368 0 0.667-0.298 0.667-0.667s-0.299-0.667-0.667-0.667c-1.917 0-3.707-1.317-4.459-3.424-0.039-0.287-0.262-0.521-0.555-0.568-0.324-0.052-0.637 0.139-0.739 0.451-0.711 2.168-2.51 3.541-4.46 3.541-1.917 0-3.707-1.317-4.459-3.424-0.039-0.287-0.262-0.521-0.555-0.568-0.324-0.052-0.637 0.139-0.739 0.451-0.711 2.168-2.51 3.541-4.46 3.541-1.917 0-3.707-1.317-4.459-3.424z"></path>
<path d="M6.421 13.91c-0.039-0.287-0.262-0.521-0.555-0.568-0.324-0.052-0.637 0.139-0.739 0.451-0.711 2.168-2.51 3.541-4.46 3.541-0.368 0-0.667 0.299-0.667 0.667s0.298 0.667 0.667 0.667c2.114 0 3.994-1.198 5.091-3.052 1.112 1.859 3.010 3.052 5.123 3.052 2.114 0 3.994-1.198 5.091-3.052 1.112 1.859 3.010 3.052 5.123 3.052s3.994-1.198 5.091-3.052c1.112 1.859 3.010 3.052 5.123 3.052 0.368 0 0.667-0.298 0.667-0.667s-0.299-0.667-0.667-0.667c-1.917 0-3.707-1.317-4.459-3.424-0.039-0.287-0.262-0.521-0.555-0.568-0.324-0.052-0.637 0.139-0.739 0.451-0.711 2.168-2.51 3.541-4.46 3.541-1.917 0-3.707-1.317-4.459-3.424-0.039-0.287-0.262-0.521-0.555-0.568-0.324-0.052-0.637 0.139-0.739 0.451-0.711 2.168-2.51 3.541-4.46 3.541-1.917 0-3.707-1.317-4.459-3.424z"></path>
<path d="M6.421 24.576c-0.039-0.287-0.262-0.521-0.555-0.568-0.324-0.052-0.637 0.139-0.739 0.451-0.711 2.168-2.51 3.541-4.46 3.541-0.368 0-0.667 0.299-0.667 0.667s0.298 0.667 0.667 0.667c2.114 0 3.994-1.198 5.091-3.052 1.112 1.859 3.010 3.052 5.123 3.052 2.114 0 3.994-1.198 5.091-3.052 1.112 1.859 3.010 3.052 5.123 3.052s3.994-1.198 5.091-3.052c1.112 1.859 3.010 3.052 5.123 3.052 0.368 0 0.667-0.298 0.667-0.667s-0.299-0.667-0.667-0.667c-1.917 0-3.707-1.317-4.459-3.424-0.039-0.287-0.262-0.521-0.555-0.568-0.324-0.052-0.637 0.139-0.739 0.451-0.711 2.168-2.51 3.541-4.46 3.541-1.917 0-3.707-1.317-4.459-3.424-0.039-0.287-0.262-0.521-0.555-0.568-0.324-0.052-0.637 0.139-0.739 0.451-0.711 2.168-2.51 3.541-4.46 3.541-1.917 0-3.707-1.317-4.459-3.424z"></path>
</svg>
