<!-- Generated by IcoMoon.io -->
<svg version="1.1" xmlns="http://www.w3.org/2000/svg" width="32" height="32" viewBox="0 0 32 32">
<path d="M13.278 22.027v-0.261c0.018-1.7 0.187-3.053 0.507-4.059 0.329-1.006 0.795-1.819 1.399-2.441s1.33-1.188 2.18-1.7c0.549-0.347 1.042-0.736 1.481-1.166s0.786-0.923 1.042-1.481c0.256-0.558 0.384-1.175 0.384-1.851 0-0.814-0.192-1.518-0.576-2.112s-0.896-1.051-1.536-1.371c-0.631-0.329-1.335-0.494-2.112-0.494-0.704 0-1.376 0.146-2.016 0.439s-1.17 0.75-1.591 1.371c-0.421 0.612-0.663 1.403-0.727 2.372h-4.169c0.064-1.646 0.48-3.035 1.248-4.169 0.768-1.143 1.783-2.007 3.044-2.592 1.271-0.585 2.674-0.878 4.21-0.878 1.682 0 3.154 0.315 4.416 0.946 1.262 0.622 2.24 1.495 2.935 2.619 0.704 1.115 1.056 2.418 1.056 3.908 0 1.024-0.16 1.947-0.48 2.77-0.32 0.814-0.777 1.54-1.371 2.18-0.585 0.64-1.289 1.207-2.112 1.7-0.777 0.484-1.408 0.987-1.892 1.508-0.475 0.521-0.823 1.138-1.042 1.851s-0.338 1.595-0.357 2.647v0.261h-3.922zM15.349 30.364c-0.75 0-1.394-0.265-1.934-0.795-0.539-0.539-0.809-1.188-0.809-1.947 0-0.75 0.27-1.39 0.809-1.92 0.539-0.539 1.184-0.809 1.934-0.809 0.74 0 1.38 0.27 1.92 0.809 0.549 0.53 0.823 1.17 0.823 1.92 0 0.503-0.128 0.964-0.384 1.385-0.247 0.411-0.576 0.74-0.987 0.987s-0.868 0.37-1.371 0.37z"></path>
</svg>
