<!-- Generated by IcoMoon.io -->
<svg version="1.1" xmlns="http://www.w3.org/2000/svg" width="32" height="32" viewBox="0 0 32 32">
<title>Je-deviens-client</title>
<path d="M7.657 8.914c0.114 0 0.229 0 0.343 0 1.486 0 3.086 0 4.571 0 0.114 0 0.343-0.114 0.457-0.114 0.914-0.686 2.057-1.143 3.2-1.029 0.8 0.114 1.486 0.343 2.171 0.686 1.143 0.343 2.171 0.8 3.314 1.143 0 0.114 0.114 0.114 0.343 0.229-0.114-0.686 0.229-0.8 0.686-1.029 1.486-0.571 3.086-0.914 4.571-1.029 0.914-0.114 1.943-0.114 2.857-0.114 0.571 0 0.8 0.229 0.8 0.8 0 3.771 0 7.543 0 11.314 0 0.571-0.229 0.8-0.8 0.8-1.143 0-2.286 0-3.429 0-0.571 0-0.8-0.114-0.914-0.686 0-0.114 0-0.114-0.114-0.229 0 0 0 0-0.114-0.114-0.343 0.229-0.571 0.343-0.914 0.571 0 0-0.114 0.114-0.114 0.229 0 1.257-0.686 2.171-2.057 2.4-0.114 0-0.229 0.114-0.229 0.114-0.571 0.914-1.371 1.257-2.4 1.257-0.114 0-0.229 0-0.343 0.114-0.571 0.914-1.714 1.371-2.629 1.143 0 0-0.114 0-0.114 0-0.914 0.571-1.829 0.457-2.743 0.114-0.686-0.229-1.257-0.686-1.829-1.029-1.6-1.257-3.2-2.4-4.686-3.771-0.8-0.686-1.486-1.371-2.171-2.171 0 0-0.114-0.114-0.114-0.114 0 0.114-0.114 0.114-0.114 0.229-0.229 0.571-0.343 0.686-0.914 0.686-1.143 0-2.286 0-3.543 0-0.571 0-0.8-0.229-0.8-0.8 0.114-3.886 0.114-7.657 0.114-11.429 0-0.571 0.229-0.8 0.914-0.8 1.829 0.114 3.657 0.343 5.371 0.8 0.343 0.114 0.686 0.343 1.029 0.457 0.343 0.229 0.571 0.571 0.457 1.029-0.114 0-0.114 0.114-0.114 0.343zM18.743 23.429c-1.029-1.029-1.943-2.057-2.857-2.971-0.114-0.114-0.114-0.114-0.229-0.229-0.229-0.229-0.114-0.686 0.114-0.8 0.229-0.229 0.571-0.229 0.8 0 0.114 0.114 0.229 0.229 0.343 0.343 0.914 0.914 1.829 1.829 2.743 2.743 0.457 0.457 1.029 0.343 1.486 0 0.229-0.114 0.229-0.343 0-0.571-1.143-1.143-2.286-2.286-3.429-3.429-0.343-0.343-0.343-0.686 0-1.029 0.343-0.229 0.686-0.229 1.029 0.114s0.571 0.571 0.914 0.914c0.914 0.914 1.714 1.714 2.629 2.629 0.229 0.229 0.343 0.229 0.686 0.229 0.571-0.114 0.8-0.686 0.457-1.143-0.114-0.229-0.229-0.457-0.457-0.686-0.457-0.457-0.8-0.914-1.257-1.257-1.829-1.6-3.657-3.086-5.486-4.686-0.114 0-0.229-0.114-0.343 0-0.343 0.114-0.571 0.229-0.914 0.343-0.229 0.114-0.343 0.114-0.571 0.343-0.914 1.029-2.057 1.486-3.314 1.143-1.143-0.343-1.6-1.143-1.371-2.171s0.8-1.943 1.486-2.743c0-0.114 0.114-0.229 0.229-0.343-1.371 0-2.629 0-3.886 0-0.114 0.343-0.114 0.686-0.229 1.143-0.571 1.714-1.029 3.543-1.486 5.371 0 0.114 0 0.343 0 0.343 0.8 0.8 1.486 1.6 2.286 2.286 1.829 1.486 3.771 2.971 5.6 4.343 0.343 0.343 0.914 0.457 1.371 0.571 0.229 0.114 0.457 0 0.686 0.114-0.114-0.114-0.114-0.229-0.229-0.229-0.571-0.571-1.257-1.257-1.829-1.829-0.229-0.229-0.457-0.457-0.686-0.8-0.229-0.229-0.229-0.686 0-0.914s0.686-0.229 0.914 0c0.114 0.114 0.229 0.229 0.229 0.229 0.914 0.914 1.943 1.943 2.971 2.857 0.229 0.229 0.571 0.229 0.8 0.114 0.343 0.114 0.571-0.114 0.8-0.343zM24.114 18.971c0.343-0.229 0.686-0.457 1.029-0.686 0.114 0 0.114-0.229 0.114-0.229-0.8-2.171-1.486-4.229-2.286-6.286 0-0.114-0.114-0.229-0.229-0.229-1.714-0.686-3.543-1.371-5.257-2.171-1.143-0.457-2.171-0.457-3.314 0.229-0.914 0.686-1.714 1.371-2.4 2.286-0.343 0.457-0.686 0.914-0.8 1.6-0.114 0.457 0 0.571 0.457 0.686 0.229 0.114 0.457 0.114 0.686 0.114 0.686-0.114 1.029-0.457 1.486-0.914 0.114-0.114 0.229-0.343 0.457-0.457 0.571-0.229 1.257-0.343 1.829-0.571 0.343-0.114 0.571-0.114 0.914 0.114 0.686 0.571 1.257 1.143 1.943 1.714 1.714 1.486 3.771 2.857 5.371 4.8zM29.714 19.2c0-3.429 0-6.857 0-10.286-2.057 0.114-4.114 0.343-6.171 0.914 0.343 0.8 0.686 1.486 0.914 2.286 0.8 2.286 1.6 4.571 2.4 6.857 0 0.114 0.114 0.229 0.229 0.229 0.914 0 1.714 0 2.629 0zM4 17.943c0.686-1.714 2.4-8.229 2.4-9.371-1.6-0.571-3.314-0.8-5.143-0.914 0 3.429 0 6.857 0 10.286 1.029 0 1.829 0 2.743 0z"></path>
</svg>
