<!-- Generated by IcoMoon.io -->
<svg version="1.1" xmlns="http://www.w3.org/2000/svg" width="32" height="32" viewBox="0 0 32 32">
<title>judge</title>
<path d="M19.373 17.373c0.391-0.391 1.024-0.391 1.414 0l6.6 6.6c0.391 0.391 0.391 1.024 0 1.414s-1.024 0.391-1.414 0l-6.6-6.6c-0.391-0.391-0.391-1.024 0-1.414z"></path>
<path d="M18.427 4.654c-0.649-0.649-1.71-0.649-2.359 0l-9.427 9.427c-0.649 0.649-0.649 1.71 0 2.359l5.653 5.653c0.649 0.649 1.71 0.649 2.359 0l9.427-9.427c0.649-0.649 0.649-1.71 0-2.359l-5.653-5.653zM14.653 3.24c1.431-1.431 3.757-1.431 5.188 0l5.653 5.653c1.431 1.431 1.431 3.757 0 5.187l-9.427 9.427c-1.431 1.431-3.757 1.431-5.188 0l-5.653-5.653c-1.431-1.431-1.431-3.757 0-5.188l9.427-9.427z"></path>
<path d="M1.667 28c0-0.552 0.448-1 1-1h8c0.552 0 1 0.448 1 1s-0.448 1-1 1h-8c-0.552 0-1-0.448-1-1z"></path>
<path d="M8.040 9.853c0.391-0.391 1.024-0.391 1.414 0l9.427 9.427c0.391 0.391 0.391 1.024 0 1.414s-1.024 0.391-1.414 0l-9.427-9.427c-0.391-0.391-0.391-1.024 0-1.414z"></path>
</svg>
