<!-- Generated by IcoMoon.io -->
<svg version="1.1" xmlns="http://www.w3.org/2000/svg" width="32" height="32" viewBox="0 0 32 32">
<title>keyboard-open</title>
<path d="M9.68 3.667c-0.852 0-1.573 0.027-2.2 0.111l-0.022 0.003c-1.716 0.192-2.533 0.659-3.008 1.379-0.534 0.809-0.796 2.158-0.796 4.521v8.427c0 2.363 0.262 3.712 0.796 4.521 0.475 0.72 1.293 1.187 3.008 1.379l0.022 0.003c0.627 0.084 1.348 0.111 2.2 0.111h12.627c0.865 0 1.573-0.027 2.2-0.111l0.022-0.003c1.716-0.192 2.533-0.659 3.008-1.379 0.534-0.809 0.796-2.158 0.796-4.521v-8.427c0-2.363-0.262-3.712-0.796-4.521-0.475-0.72-1.293-1.187-3.008-1.379l-0.022-0.003c-0.627-0.084-1.348-0.111-2.2-0.111h-12.627zM7.225 1.794c0.757-0.101 1.579-0.127 2.456-0.127h12.627c0.877 0 1.699 0.026 2.456 0.127 1.972 0.222 3.498 0.829 4.444 2.263 0.89 1.348 1.127 3.239 1.127 5.622v8.427c0 2.383-0.237 4.275-1.127 5.623-0.946 1.434-2.472 2.041-4.444 2.263-0.757 0.101-1.565 0.127-2.456 0.127h-12.627c-0.877 0-1.699-0.026-2.456-0.127-1.972-0.222-3.498-0.829-4.444-2.263-0.889-1.348-1.127-3.239-1.127-5.623v-8.427c0-2.383 0.238-4.275 1.127-5.622 0.946-1.434 2.472-2.041 4.444-2.263z"></path>
<path d="M17.107 11.093c0-0.552 0.448-1 1-1h4.907c0.552 0 1 0.448 1 1s-0.448 1-1 1h-4.907c-0.552 0-1-0.448-1-1z"></path>
<path d="M7.987 18.813c0-0.552 0.448-1 1-1h14.040c0.552 0 1 0.448 1 1s-0.448 1-1 1h-14.040c-0.552 0-1-0.448-1-1z"></path>
<path d="M8.333 29.333c0-0.552 0.448-1 1-1h13.333c0.552 0 1 0.448 1 1s-0.448 1-1 1h-13.333c-0.552 0-1-0.448-1-1z"></path>
<path d="M8.26 11.066c0-0.736 0.597-1.333 1.333-1.333h0.012c0.736 0 1.333 0.597 1.333 1.333s-0.597 1.333-1.333 1.333h-0.012c-0.736 0-1.333-0.597-1.333-1.333z"></path>
<path d="M12.659 11.066c0-0.736 0.597-1.333 1.333-1.333h0.012c0.736 0 1.333 0.597 1.333 1.333s-0.597 1.333-1.333 1.333h-0.012c-0.736 0-1.333-0.597-1.333-1.333z"></path>
</svg>
