<!-- Generated by IcoMoon.io -->
<svg version="1.1" xmlns="http://www.w3.org/2000/svg" width="32" height="32" viewBox="0 0 32 32">
<path d="M1.667 29.333c0-0.552 0.448-1 1-1h26.667c0.552 0 1 0.448 1 1s-0.448 1-1 1h-26.667c-0.552 0-1-0.448-1-1z"></path>
<path d="M3 20c0-7.179 5.821-13 13-13s13 5.821 13 13v9.333c0 0.552-0.448 1-1 1h-24c-0.552 0-1-0.448-1-1v-9.333zM16 9c-6.074 0-11 4.926-11 11v8.333h22v-8.333c0-6.074-4.926-11-11-11z"></path>
<path d="M16 1.667c0.552 0 1 0.448 1 1v1.333c0 0.552-0.448 1-1 1s-1-0.448-1-1v-1.333c0-0.552 0.448-1 1-1z"></path>
<path d="M4.626 4.626c0.391-0.391 1.024-0.391 1.414 0l1.333 1.333c0.391 0.391 0.391 1.024 0 1.414s-1.024 0.391-1.414 0l-1.333-1.333c-0.391-0.391-0.391-1.024 0-1.414z"></path>
<path d="M27.374 4.626c0.391 0.391 0.391 1.024 0 1.414l-1.333 1.333c-0.391 0.391-1.024 0.391-1.414 0s-0.391-1.024 0-1.414l1.333-1.333c0.391-0.391 1.024-0.391 1.414 0z"></path>
</svg>
