<!-- Generated by IcoMoon.io -->
<svg version="1.1" xmlns="http://www.w3.org/2000/svg" width="32" height="32" viewBox="0 0 32 32">
<path d="M17.472 20.318c-0.282-0.41-0.781-0.64-1.357-0.64h-2.982c-0.192 0-0.384-0.077-0.499-0.23-0.128-0.154-0.179-0.346-0.154-0.563l0.371-2.381c0.154-0.704-0.32-1.51-1.024-1.754-0.666-0.243-1.434 0.090-1.754 0.563l-2.957 4.403v-0.55c0-1.075-0.461-1.51-1.587-1.51h-0.742c-1.126 0.013-1.587 0.448-1.587 1.523v7.309c0 1.075 0.461 1.51 1.587 1.51h0.742c1.075 0 1.523-0.422 1.562-1.395l2.24 1.728c0.32 0.307 0.998 0.474 1.485 0.474h2.829c0.973 0 1.946-0.73 2.176-1.626l1.792-5.44c0.192-0.525 0.141-1.024-0.141-1.421z"></path>
<path d="M27.661 3.986h-0.742c-1.075 0-1.523 0.422-1.574 1.395l-2.24-1.728c-0.307-0.307-0.998-0.474-1.485-0.474h-2.829c-0.973 0-1.946 0.73-2.176 1.626l-1.792 5.44c-0.192 0.525-0.128 1.024 0.141 1.421 0.282 0.41 0.781 0.64 1.357 0.64h2.982c0.192 0 0.384 0.077 0.499 0.23 0.128 0.154 0.179 0.346 0.154 0.563l-0.371 2.381c-0.154 0.704 0.32 1.51 1.024 1.754 0.666 0.243 1.434-0.090 1.754-0.563l2.957-4.403v0.55c0 1.075 0.461 1.51 1.587 1.51h0.742c1.126 0 1.587-0.435 1.587-1.51v-7.334c0.013-1.062-0.448-1.498-1.574-1.498z"></path>
</svg>
