<!-- Generated by IcoMoon.io -->
<svg version="1.1" xmlns="http://www.w3.org/2000/svg" width="32" height="32" viewBox="0 0 32 32">
<title>like-tag</title>
<path d="M17.57 6.669c1.072 0.357 1.785 1.511 1.561 2.642l-0.292 1.863h2.427c0.788 0 1.524 0.32 1.983 0.94 0.462 0.624 0.549 1.425 0.283 2.184l-1.654 5.016c-0.182 0.666-0.619 1.199-1.113 1.559-0.502 0.366-1.138 0.609-1.792 0.609h-2.64c-0.3 0-0.651-0.046-0.98-0.139-0.287-0.081-0.68-0.229-0.991-0.514l-2.108-1.637 1.227-1.58 2.196 1.705 0.027 0.027c0.005 0.003 0.011 0.006 0.020 0.011 0.037 0.018 0.094 0.041 0.17 0.062 0.157 0.044 0.326 0.064 0.44 0.064h2.64c0.172 0 0.403-0.071 0.614-0.225s0.327-0.335 0.364-0.478l0.008-0.032 1.685-5.107c0.075-0.211 0.021-0.304-0.001-0.334-0.027-0.037-0.125-0.13-0.377-0.13h-2.773c-1.002 0-1.836-0.865-1.684-1.964l0.002-0.017 0.351-2.24 0.006-0.027c0.007-0.034 0.005-0.109-0.049-0.2s-0.127-0.142-0.183-0.16l-0.026-0.008-0.026-0.010c-0.017-0.007-0.085-0.020-0.189 0.016-0.048 0.016-0.087 0.038-0.115 0.058-0.014 0.010-0.021 0.017-0.024 0.020l-0.006 0.009-2.84 4.227-1.66-1.115 2.836-4.22c0.281-0.429 0.722-0.719 1.16-0.869 0.442-0.152 0.99-0.199 1.525-0.003z"></path>
<path d="M10.358 11.326c-0.011 0.047-0.025 0.135-0.025 0.287v6.787c0 0.152 0.014 0.24 0.025 0.287 0.062 0.017 0.175 0.033 0.362 0.033h0.693c0.187 0 0.299-0.017 0.362-0.033 0.011-0.047 0.025-0.135 0.025-0.287v-6.787c0-0.152-0.014-0.24-0.025-0.287-0.062-0.016-0.175-0.033-0.362-0.033h-0.693c-0.187 0-0.299 0.017-0.362 0.033zM10.373 11.282c0 0-0.001 0.002-0.003 0.005 0.002-0.004 0.003-0.005 0.003-0.005zM11.76 11.282c0-0 0.001 0.002 0.003 0.005-0.002-0.003-0.003-0.005-0.003-0.005zM11.76 18.731c-0-0 0.001-0.002 0.003-0.005-0.002 0.004-0.003 0.005-0.003 0.005zM10.373 18.731c-0 0-0.001-0.001-0.003-0.005 0.002 0.003 0.003 0.005 0.003 0.005zM8.982 9.854c0.508-0.47 1.175-0.561 1.738-0.561h0.693c0.563 0 1.23 0.091 1.738 0.561 0.527 0.488 0.649 1.162 0.649 1.759v6.787c0 0.597-0.122 1.271-0.649 1.759-0.508 0.47-1.175 0.561-1.738 0.561h-0.693c-0.563 0-1.23-0.091-1.738-0.561-0.527-0.488-0.649-1.162-0.649-1.759v-6.787c0-0.597 0.122-1.271 0.649-1.759z"></path>
<path d="M8 3.68c-1.67 0-3 1.334-3 2.96v14.547c0 1.626 1.33 2.96 3 2.96h1c1.31 0 2.592 0.513 3.532 1.451 0.001 0.001 0.001 0.001 0.002 0.002l2.275 2.249c0-0 0 0 0 0 0.65 0.642 1.717 0.642 2.368 0zM17.177 27.849l2.276-2.249c0.001-0.001 0.001-0.002 0.002-0.002 0.938-0.937 2.206-1.451 3.531-1.451h1.013c1.668 0 3-1.345 3-2.96v-14.547c0-1.626-1.33-2.96-3-2.96h-16zM3 6.64c0-2.748 2.243-4.96 5-4.96h16c2.757 0 5 2.212 5 4.96v14.547c0 2.732-2.241 4.96-5 4.96h-1.013c-0.807 0-1.564 0.312-2.12 0.867l-0.004 0.004-2.28 2.253c-1.429 1.411-3.749 1.412-5.179 0l-2.285-2.258c-0.554-0.554-1.324-0.867-2.12-0.867h-1c-2.757 0-5-2.212-5-4.96v-14.547z"></path>
</svg>
