<!-- Generated by IcoMoon.io -->
<svg version="1.1" xmlns="http://www.w3.org/2000/svg" width="32" height="32" viewBox="0 0 32 32">
<path fill="none" stroke-linejoin="miter" stroke-linecap="butt" stroke-miterlimit="10" stroke-width="2" stroke="#000" d="M6.56 27.041l2.36 1.827c0.307 0.307 0.987 0.453 1.453 0.453h2.893c0.92 0 1.907-0.68 2.133-1.6l1.827-5.56c0.387-1.067-0.307-1.987-1.453-1.987h-3.053c-0.453 0-0.84-0.387-0.76-0.92l0.387-2.44c0.147-0.68-0.307-1.453-0.987-1.68-0.613-0.227-1.373 0.080-1.68 0.533l-3.12 4.653"></path>
<path fill="none" stroke-linejoin="round" stroke-linecap="round" stroke-miterlimit="4" stroke-width="2" stroke="#000" d="M2.667 27.040v-7.467c0-1.067 0.453-1.453 1.52-1.453h0.76c1.067 0 1.52 0.387 1.52 1.453v7.467c0 1.067-0.453 1.453-1.52 1.453h-0.76c-1.067 0-1.52-0.373-1.52-1.453z"></path>
<path fill="none" stroke-linejoin="miter" stroke-linecap="butt" stroke-miterlimit="10" stroke-width="2" stroke="#000" d="M25.44 4.96l-2.36-1.827c-0.307-0.307-0.987-0.453-1.453-0.453h-2.893c-0.92 0-1.907 0.68-2.133 1.6l-1.827 5.56c-0.387 1.067 0.307 1.987 1.453 1.987h3.053c0.453 0 0.84 0.387 0.76 0.92l-0.387 2.44c-0.147 0.68 0.307 1.453 0.987 1.68 0.613 0.227 1.373-0.080 1.68-0.533l3.12-4.653"></path>
<path fill="none" stroke-linejoin="round" stroke-linecap="round" stroke-miterlimit="4" stroke-width="2" stroke="#000" d="M29.333 4.96v7.467c0 1.067-0.453 1.453-1.52 1.453h-0.76c-1.067 0-1.52-0.387-1.52-1.453v-7.467c0-1.067 0.453-1.453 1.52-1.453h0.76c1.067 0 1.52 0.373 1.52 1.453z"></path>
</svg>
