<!-- Generated by IcoMoon.io -->
<svg version="1.1" xmlns="http://www.w3.org/2000/svg" width="33" height="32" viewBox="0 0 33 32">
<path d="M18.2 20.498c-0.293-0.427-0.813-0.667-1.413-0.667h-3.107c-0.2 0-0.4-0.080-0.52-0.24-0.133-0.16-0.187-0.36-0.16-0.587l0.387-2.48c0.16-0.733-0.333-1.573-1.067-1.827-0.693-0.253-1.493 0.093-1.827 0.587l-3.080 4.587v-0.573c0-1.12-0.48-1.573-1.653-1.573h-0.773c-1.173 0.013-1.653 0.467-1.653 1.587v7.613c0 1.12 0.48 1.573 1.653 1.573h0.773c1.12 0 1.587-0.44 1.627-1.453l2.333 1.8c0.333 0.32 1.040 0.493 1.547 0.493h2.947c1.013 0 2.027-0.76 2.267-1.693l1.867-5.667c0.2-0.547 0.147-1.067-0.147-1.48z"></path>
<path d="M28.813 3.486h-0.773c-1.12 0-1.587 0.44-1.64 1.453l-2.333-1.8c-0.32-0.32-1.040-0.493-1.547-0.493h-2.947c-1.013 0-2.027 0.76-2.267 1.693l-1.867 5.667c-0.2 0.547-0.133 1.067 0.147 1.48 0.293 0.427 0.813 0.667 1.413 0.667h3.107c0.2 0 0.4 0.080 0.52 0.24 0.133 0.16 0.187 0.36 0.16 0.587l-0.387 2.48c-0.16 0.733 0.333 1.573 1.067 1.827 0.693 0.253 1.493-0.093 1.827-0.587l3.080-4.587v0.573c0 1.12 0.48 1.573 1.653 1.573h0.773c1.173 0 1.653-0.453 1.653-1.573v-7.64c0.013-1.107-0.467-1.56-1.64-1.56z"></path>
</svg>
