<!-- Generated by IcoMoon.io -->
<svg version="1.1" xmlns="http://www.w3.org/2000/svg" width="32" height="32" viewBox="0 0 32 32">
<path d="M14.984 4.026c0 0-0.001 0.001-0.001 0.001l-2.102 1.809c0 0-0.001 0.001-0.001 0.001-0.318 0.275-0.725 0.484-1.1 0.624s-0.818 0.246-1.233 0.246h-2.307c-0.861 0-1.573 0.712-1.573 1.573v2.28c0 0.416-0.106 0.854-0.244 1.225s-0.341 0.769-0.601 1.081l-0.006 0.007-1.797 2.116c0 0.001-0.001 0.001-0.001 0.002-0.459 0.548-0.459 1.495 0 2.043 0 0.001 0.001 0.001 0.001 0.002l1.803 2.123c0.26 0.313 0.463 0.709 0.601 1.081 0.137 0.371 0.244 0.809 0.244 1.225v2.28c0 0.861 0.712 1.573 1.573 1.573h2.307c0.421 0 0.862 0.105 1.24 0.247s0.778 0.35 1.094 0.623c0.001 0 0.001 0.001 0.001 0.001l2.1 1.807c0.564 0.472 1.519 0.465 2.061 0.003 0 0 0.001-0.001 0.001-0.001l2.102-1.809c0 0 0.001-0.001 0.001-0.001 0.318-0.275 0.725-0.484 1.1-0.624s0.818-0.246 1.233-0.246h2.267c0.861 0 1.573-0.712 1.573-1.573v-2.267c0-0.421 0.105-0.863 0.247-1.24s0.35-0.778 0.623-1.093c0.001-0.001 0.001-0.001 0.001-0.002l1.807-2.1c0.472-0.564 0.465-1.519 0.003-2.061 0-0.001-0.001-0.001-0.001-0.001l-1.809-2.102c-0.001-0.001-0.001-0.001-0.001-0.002-0.275-0.318-0.484-0.724-0.624-1.1s-0.246-0.818-0.246-1.233v-2.267c0-0.861-0.712-1.573-1.573-1.573h-2.267c-0.421 0-0.862-0.106-1.24-0.247s-0.778-0.35-1.093-0.623c0 0-0.001-0.001-0.001-0.001l-2.1-1.807c-0.564-0.472-1.519-0.465-2.061-0.003zM13.683 2.506c1.297-1.109 3.351-1.103 4.654-0.005l0.008 0.007 2.109 1.816c0.084 0.073 0.256 0.177 0.485 0.262s0.427 0.12 0.54 0.12h2.267c1.966 0 3.573 1.608 3.573 3.573v2.267c0 0.105 0.034 0.303 0.121 0.537s0.191 0.407 0.262 0.488l0.002 0.003 1.815 2.109c1.109 1.297 1.103 3.351 0.005 4.654l-0.007 0.008-1.816 2.109c-0.073 0.084-0.177 0.256-0.262 0.485s-0.12 0.427-0.12 0.54v2.267c0 1.966-1.608 3.573-3.573 3.573h-2.267c-0.105 0-0.303 0.034-0.537 0.121s-0.407 0.191-0.488 0.262l-0.003 0.002-2.109 1.815c-1.297 1.109-3.351 1.103-4.654 0.005l-0.008-0.007-2.109-1.816c-0.084-0.073-0.256-0.177-0.485-0.262s-0.427-0.12-0.54-0.12h-2.307c-1.966 0-3.573-1.608-3.573-3.573v-2.28c0-0.104-0.033-0.299-0.119-0.531-0.085-0.229-0.187-0.404-0.26-0.493l-1.8-2.119c-1.086-1.292-1.086-3.328 0-4.62l0.003-0.004 1.796-2.115c0.073-0.088 0.175-0.264 0.26-0.493 0.086-0.232 0.119-0.427 0.119-0.531v-2.28c0-1.966 1.608-3.573 3.573-3.573h2.307c0.105 0 0.303-0.034 0.537-0.121s0.407-0.191 0.488-0.262l0.003-0.002 2.109-1.816z"></path>
<path d="M17.428 9.071c0.995 0.342 1.673 1.422 1.463 2.492l-0.241 1.571h2.069c0.744 0 1.435 0.31 1.865 0.898s0.515 1.341 0.269 2.050l-1.481 4.521c-0.168 0.627-0.575 1.125-1.034 1.46-0.467 0.341-1.060 0.565-1.672 0.565h-2.36c-0.28 0-0.605-0.043-0.91-0.129-0.264-0.075-0.631-0.214-0.927-0.483l-1.895-1.463 1.223-1.583 1.984 1.532 0.021 0.021c0.001 0.001 0.002 0.001 0.003 0.002 0.026 0.013 0.071 0.031 0.134 0.049 0.131 0.037 0.273 0.054 0.367 0.054h2.36c0.134 0 0.322-0.055 0.494-0.181s0.257-0.267 0.282-0.368l0.009-0.035 1.512-4.616c0.029-0.082 0.029-0.136 0.026-0.163s-0.011-0.042-0.018-0.051c-0.007-0.009-0.062-0.079-0.251-0.079h-2.493c-0.973 0-1.745-0.831-1.619-1.867l0.002-0.016 0.314-2.045 0.006-0.029c0 0 0 0 0 0 0-0.004 0.003-0.045-0.034-0.107-0.040-0.067-0.091-0.099-0.118-0.108l-0.019-0.006-0.013-0.005c-0.003 0-0.007-0.001-0.014 0-0.020 0.001-0.051 0.005-0.087 0.018s-0.067 0.030-0.089 0.045c-0.007 0.005-0.012 0.009-0.015 0.011l-2.552 3.788-1.659-1.117 2.562-3.803c0.271-0.4 0.686-0.671 1.097-0.813s0.93-0.194 1.439-0.008zM15.791 20.515c0 0 0 0 0.001 0.001l-0.001-0.001z"></path>
<path d="M11.009 13.482c-0.005 0.041-0.009 0.097-0.009 0.172v6.107c0 0.075 0.004 0.131 0.009 0.172 0.054 0.008 0.133 0.015 0.244 0.015h0.627c0.112 0 0.191-0.007 0.244-0.016 0.005-0.040 0.009-0.095 0.009-0.171v-6.107c0-0.076-0.004-0.131-0.009-0.171-0.053-0.008-0.132-0.015-0.244-0.015h-0.627c-0.111 0-0.19 0.007-0.244 0.015zM9.62 11.993c0.487-0.447 1.121-0.527 1.633-0.527h0.627c0.509 0 1.139 0.081 1.625 0.524 0.509 0.463 0.628 1.104 0.628 1.663v6.107c0 0.548-0.114 1.186-0.617 1.652-0.484 0.448-1.116 0.535-1.636 0.535h-0.627c-0.512 0-1.146-0.080-1.633-0.527-0.508-0.467-0.62-1.11-0.62-1.66v-6.107c0-0.55 0.112-1.193 0.62-1.66z"></path>
</svg>
