<!-- Generated by IcoMoon.io -->
<svg version="1.1" xmlns="http://www.w3.org/2000/svg" width="32" height="32" viewBox="0 0 32 32">
<path d="M3.199 28.8h-1c0 0.552 0.448 1 1 1v-1zM4.199 3.2c0-0.552-0.448-1-1-1s-1 0.448-1 1h2zM28.799 29.8c0.552 0 1-0.448 1-1s-0.448-1-1-1v2zM15.199 13.6l0.707-0.707-0.707-0.707-0.707 0.707 0.707 0.707zM19.199 17.6l-0.707 0.707 0.707 0.707 0.707-0.707-0.707-0.707zM4.199 28.8v-25.6h-2v25.6h2zM3.199 29.8h25.6v-2h-25.6v2zM10.306 19.907l5.6-5.6-1.414-1.414-5.6 5.6 1.414 1.414zM14.492 14.307l4 4 1.414-1.414-4-4-1.414 1.414zM19.906 18.307l7.2-7.2-1.414-1.414-7.2 7.2 1.414 1.414z"></path>
</svg>
