<!-- Generated by IcoMoon.io -->
<svg version="1.1" xmlns="http://www.w3.org/2000/svg" width="32" height="32" viewBox="0 0 32 32">
<path d="M3.199 28.803h-1c0 0.552 0.448 1 1 1v-1zM4.199 3.203c0-0.552-0.448-1-1-1s-1 0.448-1 1h2zM28.799 29.803c0.552 0 1-0.448 1-1s-0.448-1-1-1v2zM15.199 13.603l0.707-0.707c-0.391-0.391-1.024-0.391-1.414 0l0.707 0.707zM19.199 17.603l-0.707 0.707c0.391 0.391 1.024 0.391 1.414 0l-0.707-0.707zM28.8 8.003h1c0-0.552-0.448-1-1-1v1zM3.199 28.803h1v-25.6h-2v25.6h1zM3.199 28.803v1h25.6v-2h-25.6v1zM9.599 19.203l0.707 0.707 5.6-5.6-1.414-1.414-5.6 5.6 0.707 0.707zM15.199 13.603l-0.707 0.707 4 4 1.414-1.414-4-4-0.707 0.707zM19.199 17.603l0.707 0.707 8.8-8.8-1.414-1.414-8.8 8.8 0.707 0.707zM22.012 8.003v1h6.788v-2h-6.788v1zM28.8 8.003h-1v6.788h2v-6.788h-1z"></path>
</svg>
