<!-- Generated by IcoMoon.io -->
<svg version="1.1" xmlns="http://www.w3.org/2000/svg" width="32" height="32" viewBox="0 0 32 32">
<path d="M28.906 0.64h-26.178c-1.254 0-2.268 0.99-2.268 2.214v26.286c0 1.224 1.014 2.22 2.268 2.22h26.178c1.254 0 2.274-0.996 2.274-2.214v-26.292c0-1.224-1.020-2.214-2.274-2.214zM9.574 26.818h-4.56v-14.664h4.56v14.664zM7.294 10.156c-1.464 0-2.646-1.182-2.646-2.64s1.182-2.64 2.646-2.64c1.458 0 2.64 1.182 2.64 2.64 0 1.452-1.182 2.64-2.64 2.64zM26.638 26.818h-4.554v-7.128c0-1.698-0.030-3.888-2.37-3.888-2.37 0-2.73 1.854-2.73 3.768v7.248h-4.548v-14.664h4.368v2.004h0.060c0.606-1.152 2.094-2.37 4.308-2.37 4.614 0 5.466 3.036 5.466 6.984v8.046z"></path>
</svg>
