<!-- Generated by IcoMoon.io -->
<svg version="1.1" xmlns="http://www.w3.org/2000/svg" width="32" height="32" viewBox="0 0 32 32">
<path d="M1.667 16c0-7.912 6.421-14.333 14.333-14.333 0.989 0 1.947 0.1 2.887 0.286 0.542 0.107 0.895 0.633 0.788 1.174s-0.633 0.895-1.174 0.788c-0.82-0.162-1.649-0.248-2.5-0.248-6.808 0-12.333 5.526-12.333 12.333s5.526 12.333 12.333 12.333c6.808 0 12.333-5.526 12.333-12.333 0-0.839-0.086-1.665-0.247-2.454-0.11-0.541 0.24-1.069 0.781-1.179s1.069 0.24 1.179 0.781c0.186 0.918 0.287 1.878 0.287 2.852 0 7.912-6.421 14.333-14.333 14.333s-14.333-6.421-14.333-14.333z"></path>
</svg>
