<!-- Generated by IcoMoon.io -->
<svg version="1.1" xmlns="http://www.w3.org/2000/svg" width="32" height="32" viewBox="0 0 32 32">
<title>location</title>
<path d="M16.001 10.587c-1.745 0-3.16 1.415-3.16 3.16s1.415 3.16 3.16 3.16 3.16-1.415 3.16-3.16c0-1.745-1.415-3.16-3.16-3.16zM10.841 13.747c0-2.85 2.31-5.16 5.16-5.16s5.16 2.31 5.16 5.16c0 2.85-2.31 5.16-5.16 5.16s-5.16-2.31-5.16-5.16z"></path>
<path d="M16.005 3.667c4.556 0.003 9.009 2.653 10.194 7.887v0c1.41 6.226-2.448 11.613-6.091 15.111l-0.002 0.002c-2.291 2.211-5.918 2.214-8.225-0.001-3.629-3.498-7.488-8.898-6.078-15.125 1.191-5.234 5.647-7.878 10.202-7.875zM28.149 11.113c-1.429-6.312-6.836-9.442-12.143-9.446s-10.718 3.119-12.154 9.432l-0 0.001c-1.657 7.319 2.911 13.412 6.641 17.007l0.001 0.001c3.079 2.957 7.931 2.96 11-0.001 3.744-3.595 8.312-9.675 6.655-16.994z"></path>
</svg>
