<!-- Generated by IcoMoon.io -->
<svg version="1.1" xmlns="http://www.w3.org/2000/svg" width="32" height="32" viewBox="0 0 32 32">
<path d="M16 17.333c-0.406-0.005-0.804 0.115-1.139 0.343s-0.594 0.554-0.739 0.933-0.171 0.794-0.073 1.188c0.097 0.394 0.313 0.749 0.619 1.017v1.853c0 0.354 0.141 0.693 0.391 0.943s0.589 0.391 0.943 0.391 0.693-0.14 0.943-0.391c0.25-0.25 0.391-0.589 0.391-0.943v-1.853c0.305-0.268 0.521-0.622 0.619-1.017s0.072-0.809-0.073-1.188-0.403-0.705-0.739-0.933c-0.336-0.228-0.733-0.348-1.139-0.343zM22.667 12h-10.667v-2.667c-0.002-0.792 0.231-1.566 0.67-2.225s1.063-1.173 1.794-1.478c0.731-0.304 1.536-0.384 2.313-0.231s1.49 0.534 2.051 1.094c0.501 0.512 0.86 1.146 1.040 1.84 0.044 0.17 0.121 0.329 0.226 0.47s0.237 0.258 0.389 0.347c0.151 0.089 0.318 0.148 0.492 0.172s0.35 0.015 0.52-0.029 0.329-0.121 0.47-0.226c0.14-0.105 0.258-0.237 0.347-0.389s0.148-0.318 0.172-0.492 0.015-0.35-0.029-0.52c-0.304-1.154-0.906-2.207-1.747-3.053-0.933-0.93-2.121-1.563-3.413-1.819s-2.632-0.122-3.849 0.383c-1.217 0.505-2.257 1.359-2.989 2.455s-1.122 2.384-1.123 3.701v2.667c-1.061 0-2.078 0.421-2.828 1.172s-1.172 1.768-1.172 2.828v9.333c0 1.061 0.421 2.078 1.172 2.828s1.768 1.172 2.828 1.172h13.333c1.061 0 2.078-0.421 2.828-1.172s1.172-1.767 1.172-2.828v-9.333c0-1.061-0.421-2.078-1.172-2.828s-1.768-1.172-2.828-1.172zM24 25.333c0 0.354-0.141 0.693-0.391 0.943s-0.589 0.391-0.943 0.391h-13.333c-0.354 0-0.693-0.14-0.943-0.391s-0.391-0.589-0.391-0.943v-9.333c0-0.354 0.14-0.693 0.391-0.943s0.589-0.391 0.943-0.391h13.333c0.354 0 0.693 0.141 0.943 0.391s0.391 0.589 0.391 0.943v9.333z"></path>
</svg>
