<!-- Generated by IcoMoon.io -->
<svg version="1.1" xmlns="http://www.w3.org/2000/svg" width="32" height="32" viewBox="0 0 32 32">
<title>logoutcurve</title>
<path d="M14.767 5.677c-1.054 0.855-1.71 2.239-1.904 4.489-0.047 0.55-0.532 0.958-1.082 0.911s-0.958-0.532-0.911-1.082c0.22-2.549 1.003-4.546 2.636-5.871 1.605-1.302 3.849-1.803 6.64-1.803h0.173c3.079 0 5.495 0.61 7.115 2.231s2.231 4.037 2.231 7.115v8.693c0 3.079-0.61 5.495-2.231 7.115s-4.037 2.231-7.115 2.231h-0.173c-2.771 0-5.001-0.494-6.603-1.776-1.631-1.305-2.425-3.272-2.659-5.785-0.051-0.55 0.353-1.037 0.903-1.088s1.037 0.353 1.088 0.903c0.206 2.207 0.865 3.567 1.917 4.409 1.081 0.865 2.765 1.337 5.354 1.337h0.173c2.881 0 4.639-0.583 5.701-1.645s1.645-2.82 1.645-5.701v-8.693c0-2.881-0.583-4.639-1.645-5.701s-2.82-1.645-5.701-1.645h-0.173c-2.608 0-4.298 0.479-5.38 1.357zM8.507 10.827c0.391 0.391 0.391 1.024 0 1.414l-2.76 2.76h14.252c0.552 0 1 0.448 1 1s-0.448 1-1 1h-14.252l2.76 2.76c0.391 0.391 0.391 1.024 0 1.414s-1.024 0.391-1.414 0l-4.467-4.467c-0.391-0.391-0.391-1.024 0-1.414l4.467-4.467c0.391-0.391 1.024-0.391 1.414 0z"></path>
</svg>
