<!-- Generated by IcoMoon.io -->
<svg version="1.1" xmlns="http://www.w3.org/2000/svg" width="30" height="32" viewBox="0 0 30 32">
<path d="M1.339 5.253v-1.024c-0.565 0-1.024 0.458-1.024 1.024h1.024zM28.974 5.253h1.023c0-0.565-0.458-1.024-1.023-1.024v1.024zM28.974 26.747v1.023c0.565 0 1.023-0.458 1.023-1.023h-1.023zM1.339 26.747h-1.024c0 0.565 0.458 1.023 1.024 1.023v-1.023zM1.836 7.429c-0.494-0.274-1.117-0.096-1.392 0.398s-0.096 1.117 0.398 1.392l0.994-1.789zM15.156 16l-0.497 0.895c0.309 0.172 0.685 0.172 0.994 0l-0.497-0.895zM29.471 9.218c0.494-0.274 0.672-0.898 0.398-1.392s-0.898-0.672-1.392-0.398l0.994 1.789zM1.339 6.277h27.635v-2.047h-27.635v2.047zM27.95 5.253v21.494h2.047v-21.494h-2.047zM28.974 25.723h-27.635v2.047h27.635v-2.047zM2.362 26.747v-21.494h-2.047v21.494h2.047zM0.842 9.218l13.817 7.676 0.994-1.789-13.817-7.676-0.994 1.789zM15.653 16.895l13.817-7.676-0.994-1.789-13.818 7.676 0.994 1.789z"></path>
</svg>
