<!-- Generated by IcoMoon.io -->
<svg version="1.1" xmlns="http://www.w3.org/2000/svg" width="32" height="32" viewBox="0 0 32 32">
<title>map</title>
<path d="M29.25 7.399c0.35 0.101 0.617 0.384 0.698 0.739 0.26 1.142 0.385 2.419 0.385 3.862v8c0 3.433-0.681 6.092-2.45 7.877-0.187 0.189-0.442 0.295-0.708 0.296s-0.521-0.105-0.709-0.293l-8.507-8.507c-0.188-0.188-0.293-0.442-0.293-0.707s0.105-0.519 0.293-0.707l10.307-10.307c0.257-0.257 0.634-0.355 0.984-0.254zM20.081 18.667l7.015 7.015c0.81-1.248 1.238-3.062 1.238-5.681v-8c0-0.543-0.019-1.052-0.057-1.529l-8.195 8.195z"></path>
<path d="M5.54 5.54c-1.221 1.221-1.874 3.225-1.874 6.46v8c0 2.556 0.411 4.351 1.189 5.59 0.677 1.078 1.691 1.83 3.202 2.272l19.805-19.805c-0.442-1.511-1.194-2.525-2.272-3.202-1.239-0.778-3.034-1.189-5.59-1.189h-8c-3.235 0-5.239 0.653-6.46 1.874zM4.126 4.126c1.779-1.779 4.442-2.46 7.874-2.46h8c2.724 0 4.956 0.429 6.653 1.495 1.738 1.091 2.789 2.767 3.295 4.975 0.077 0.336-0.024 0.687-0.268 0.931l-20.613 20.613c-0.243 0.243-0.595 0.345-0.931 0.268-2.208-0.506-3.884-1.557-4.975-3.295-1.065-1.697-1.495-3.929-1.495-6.653v-8c0-3.432 0.68-6.094 2.46-7.874z"></path>
<path d="M17.96 17.96c0.391-0.391 1.024-0.391 1.414 0l8.507 8.507c0.188 0.188 0.293 0.443 0.293 0.709s-0.107 0.521-0.296 0.708c-1.785 1.769-4.444 2.45-7.877 2.45h-8c-1.443 0-2.72-0.125-3.862-0.385-0.355-0.081-0.638-0.348-0.739-0.698s-0.004-0.727 0.254-0.984l10.307-10.307zM10.471 28.276c0.477 0.038 0.986 0.057 1.529 0.057h8c2.619 0 4.434-0.428 5.681-1.238l-7.015-7.015-8.195 8.195z"></path>
<path d="M12.16 8.71c-1.328 0-2.539 0.746-2.866 2.156l-0 0c-0.404 1.736 0.68 3.331 1.9 4.487 0.551 0.519 1.398 0.511 1.929 0.004l0.003-0.003v0c1.215-1.151 2.293-2.749 1.9-4.49-0.328-1.408-1.538-2.154-2.865-2.154zM12.16 6.71c2.059 0 4.235 1.207 4.814 3.704l0.001 0.005c0.645 2.843-1.155 5.137-2.473 6.386-1.309 1.251-3.367 1.243-4.682 0.003l-0.002-0.002c-1.313-1.244-3.136-3.542-2.473-6.392zM12.16 6.71c-2.059 0-4.234 1.207-4.814 3.703l4.814-3.704z"></path>
<path d="M10.793 11.6c0-0.736 0.597-1.333 1.333-1.333h0.012c0.736 0 1.333 0.597 1.333 1.333s-0.597 1.333-1.333 1.333h-0.012c-0.736 0-1.333-0.597-1.333-1.333z"></path>
</svg>
