<!-- Generated by IcoMoon.io -->
<svg version="1.1" xmlns="http://www.w3.org/2000/svg" width="35" height="32" viewBox="0 0 35 32">
<title>marche_tab</title>
<path d="M22.66 2.91c0.872-0.141 1.718-0.282 2.615-0.436-0.078 0.111-0.127 0.193-0.163 0.255-0.006 0.010-0.011 0.019-0.016 0.027-1.795 2.538-3.59 5.077-5.372 7.615-0.141 0.192-0.282 0.269-0.526 0.269-1.519-0.006-3.042-0.006-4.564-0.006s-3.045 0-4.564-0.006c-0.256 0-0.41 0.077-0.551 0.282-0.974 1.372-1.946 2.744-2.917 4.116s-1.942 2.744-2.917 4.115c-0.042 0.067-0.084 0.129-0.129 0.195-0.024 0.036-0.049 0.072-0.076 0.112 0.263 0.186 0.522 0.369 0.782 0.551s0.519 0.365 0.782 0.551c0.090-0.128 0.167-0.231 0.244-0.333 1.744-2.461 3.487-4.923 5.231-7.397 0.141-0.205 0.282-0.269 0.526-0.269 1.519 0.006 3.042 0.006 4.564 0.006s3.045 0 4.564 0.006c0.256 0 0.41-0.077 0.551-0.282 0.987-1.397 1.974-2.798 2.961-4.198s1.975-2.802 2.962-4.199c0.031-0.043 0.061-0.083 0.096-0.129 0.038-0.050 0.081-0.106 0.134-0.179 0.090 0.496 0.172 0.97 0.252 1.435 0.070 0.401 0.138 0.796 0.209 1.193 0.254-0.045 0.5-0.088 0.744-0.13 0.384-0.067 0.761-0.133 1.153-0.203-0.346-1.974-0.68-3.91-1.013-5.872-1.987 0.346-3.936 0.679-5.884 1.013 0.103 0.654 0.205 1.256 0.32 1.897zM34.365 30.090h-2.013v-20.885c-0.035-0.006-0.062-0.012-0.083-0.016-0.026-0.006-0.044-0.009-0.058-0.009-1.885 0-3.756 0-5.641 0.013-0.115 0-0.282 0.115-0.359 0.231-1.295 1.808-2.577 3.628-3.859 5.462-0.141 0.205-0.282 0.295-0.538 0.295-3.051-0.013-6.115-0.013-9.167-0.013-0.205 0-0.346 0.051-0.474 0.231l-8.423 11.846c-0.090 0.128-0.154 0.308-0.154 0.462-0.013 0.68-0.013 1.372 0 2.051 0 0.269-0.077 0.346-0.346 0.333-0.367-0.009-0.733-0.006-1.104-0.003-0.187 0.001-0.374 0.003-0.563 0.003v1.91h32.782v-1.91zM30.403 11.077v18.987c-2.282 0-4.526 0-6.795 0.013v-0.372c0-4.32 0-8.654 0.013-12.974 0-0.18 0.064-0.397 0.167-0.551 0.564-0.808 1.135-1.615 1.705-2.423s1.141-1.615 1.705-2.423c0.115-0.179 0.244-0.256 0.461-0.256 0.596 0.009 1.198 0.006 1.809 0.003 0.309-0.001 0.621-0.003 0.935-0.003zM21.66 30.064h-7.731v-12.961h7.731v12.961zM11.926 19.062c0.016-0.019 0.034-0.039 0.054-0.062v11.077h-6.474c0-0.224-0.001-0.444-0.003-0.664-0.003-0.435-0.006-0.863 0.003-1.298 0-0.064 0.064-0.154 0.115-0.218l6.192-8.692c0.029-0.048 0.064-0.088 0.113-0.143z"></path>
</svg>
