<!-- Generated by IcoMoon.io -->
<svg version="1.1" xmlns="http://www.w3.org/2000/svg" width="32" height="32" viewBox="0 0 32 32">
<title>Market-Tracking</title>
<path d="M18.133 18.743c3.048-3.048 6.095-6.095 9.295-9.295-0.152 0-0.152 0-0.305 0-1.371 0-2.895 0-4.419 0-0.61 0-1.219-0.457-1.219-1.219 0-0.61 0.305-1.219 0.914-1.371 0.152 0 0.305 0 0.61 0 2.438 0 4.724 0 7.162 0 0.305 0 0.457 0 0.762 0 0.61 0.152 1.067 0.61 1.067 1.219 0 2.59 0 5.181 0 7.771 0 0.762-0.61 1.371-1.219 1.371-0.762 0-1.371-0.61-1.371-1.371 0-1.371 0-2.743 0-4.114 0-0.152 0-0.152 0-0.457-0.152 0.152-0.152 0.152-0.305 0.305-3.2 3.2-6.552 6.552-9.752 9.752-0.457 0.457-0.914 0.61-1.524 0.457-0.305-0.152-0.457-0.305-0.61-0.457-1.676-1.676-3.505-3.505-5.181-5.181 0 0-0.152-0.152-0.305-0.305-0.152 0.152-0.152 0.152-0.152 0.305-2.895 2.895-5.79 5.638-8.533 8.533-0.457 0.457-0.914 0.61-1.524 0.457-0.914-0.305-1.219-1.371-0.61-2.133 0 0 0.152-0.152 0.152-0.152 3.352-3.2 6.4-6.4 9.6-9.6 0.762-0.762 1.371-0.762 2.133 0 1.676 1.676 3.505 3.505 5.181 5.181 0.152 0.152 0.152 0.152 0.152 0.305z"></path>
</svg>
