<!-- Generated by IcoMoon.io -->
<svg version="1.1" xmlns="http://www.w3.org/2000/svg" width="32" height="32" viewBox="0 0 32 32">
<path d="M16 3.667c-4.454 0-8 3.468-8 7.667s3.546 7.667 8 7.667c4.454 0 8-3.468 8-7.667s-3.546-7.667-8-7.667zM6 11.333c0-5.374 4.513-9.667 10-9.667s10 4.293 10 9.667c0 5.374-4.513 9.667-10 9.667s-10-4.293-10-9.667z"></path>
<path d="M22.013 16.787c0.552 0 1 0.448 1 1v10.080c0 0.825-0.3 1.63-0.991 2.102-0.704 0.481-1.565 0.446-2.312 0.097l-0.003-0.002-3.593-1.696c-0.003-0.001-0.007-0.002-0.013-0.003-0.023-0.005-0.055-0.008-0.093-0.008s-0.071 0.004-0.093 0.008c-0.006 0.001-0.011 0.002-0.013 0.003l-0.005 0.002-3.573 1.693c-0.753 0.357-1.619 0.397-2.327-0.093-0.69-0.477-0.981-1.286-0.981-2.104l0.013-9.841c0.001-0.552 0.449-0.999 1.001-0.999s0.999 0.449 0.999 1.001l-0.013 9.839c0 0.185 0.033 0.306 0.063 0.375 0.029 0.065 0.056 0.084 0.056 0.084s0.004 0.003 0.009 0.004c0.005 0.002 0.017 0.005 0.039 0.005 0.045 0.001 0.139-0.010 0.284-0.078l3.566-1.69c0.323-0.158 0.679-0.21 0.976-0.21s0.653 0.051 0.975 0.209l3.577 1.689c0.14 0.065 0.233 0.076 0.28 0.075 0.042-0.001 0.056-0.012 0.056-0.012 0.003-0.002 0.028-0.019 0.057-0.083 0.030-0.066 0.062-0.185 0.062-0.368v-10.080c0-0.552 0.448-1 1-1zM15.914 28.361v0zM16.099 28.361v0z"></path>
</svg>
