<!-- Generated by IcoMoon.io -->
<svg version="1.1" xmlns="http://www.w3.org/2000/svg" width="32" height="32" viewBox="0 0 32 32">
<title>message-question</title>
<path fill="none" stroke-linejoin="round" stroke-linecap="round" stroke-miterlimit="10" stroke-width="2" stroke="#000" d="M22.667 24.574h-5.333l-5.933 3.947c-0.88 0.587-2.067-0.040-2.067-1.107v-2.84c-4 0-6.667-2.667-6.667-6.667v-8c0-4 2.667-6.667 6.667-6.667h13.333c4 0 6.667 2.667 6.667 6.667v8c0 4-2.667 6.667-6.667 6.667z"></path>
<path d="M12.786 11.361c0-1.779 1.434-3.213 3.213-3.213s3.213 1.434 3.213 3.213c0 1.404-0.923 2.145-1.527 2.558-0.259 0.179-0.426 0.32-0.535 0.465-0.090 0.121-0.152 0.26-0.152 0.484v0.28c0 0.552-0.448 1-1 1s-1-0.448-1-1v-0.28c0-1.436 0.945-2.177 1.552-2.596l0.004-0.003c0.247-0.169 0.408-0.306 0.512-0.446 0.087-0.117 0.145-0.251 0.145-0.461 0-0.674-0.539-1.213-1.213-1.213s-1.213 0.539-1.213 1.213c0 0.552-0.448 1-1 1s-1-0.448-1-1z"></path>
<path fill="none" stroke-linejoin="round" stroke-linecap="round" stroke-miterlimit="4" stroke-width="2" stroke="#000" d="M15.994 18.333h0.012"></path>
</svg>
