<!-- Generated by IcoMoon.io -->
<svg version="1.1" xmlns="http://www.w3.org/2000/svg" width="32" height="32" viewBox="0 0 32 32">
<path fill="none" stroke-linejoin="round" stroke-linecap="round" stroke-miterlimit="4" stroke-width="1.3333" stroke="#000" d="M13.021 21.942l-4.749 4.749v-5.907h-2.412c-1.473 0-2.667-1.194-2.667-2.667v-11.53c0-1.473 1.194-2.667 2.667-2.667h17.395c1.473 0 2.667 1.194 2.667 2.667v6.024"></path>
<path d="M25.956 14.534c1.203 0 2.178 0.975 2.178 2.177v4.824c-0 1.203-0.976 2.177-2.178 2.177h-0.324c-0.368 0-0.667 0.299-0.667 0.667v2.1l-2.572-2.572c-0.094-0.094-0.213-0.157-0.341-0.182l-0.13-0.013h-4.499c-1.203 0-2.178-0.975-2.178-2.177v-4.824c0-1.203 0.976-2.177 2.178-2.177h8.533z"></path>
</svg>
