<!-- Generated by IcoMoon.io -->
<svg version="1.1" xmlns="http://www.w3.org/2000/svg" width="32" height="32" viewBox="0 0 32 32">
<title>message</title>
<path d="M5.374 5.374c-1.080 1.080-1.707 2.78-1.707 5.293v6.667c0 3.247 0.658 4.872 1.659 5.747 1.033 0.904 2.693 1.253 5.341 1.253h0.667c0.377 0 0.744 0.118 1.032 0.261 0.285 0.141 0.607 0.364 0.838 0.677l1.996 2.662c0.279 0.372 0.578 0.48 0.8 0.48s0.521-0.108 0.8-0.48l2.004-2.672c0.439-0.578 1.132-0.928 1.863-0.928h0.667c2.513 0 4.213-0.627 5.293-1.707s1.707-2.78 1.707-5.293v-6.667c0-2.513-0.627-4.213-1.707-5.293s-2.78-1.707-5.293-1.707h-10.667c-2.513 0-4.213 0.627-5.293 1.707zM3.96 3.96c1.587-1.587 3.886-2.293 6.707-2.293h10.667c2.821 0 5.12 0.706 6.707 2.293s2.293 3.886 2.293 6.707v6.667c0 2.821-0.706 5.12-2.293 6.707s-3.886 2.293-6.707 2.293h-0.667c-0.095 0-0.202 0.049-0.269 0.137-0.001 0.001-0.001 0.001-0.001 0.002l-1.996 2.662c-0.601 0.801-1.462 1.28-2.4 1.28s-1.799-0.479-2.4-1.28l-2.002-2.669c-0.003-0.003-0.009-0.008-0.019-0.016-0.024-0.019-0.059-0.041-0.102-0.063s-0.084-0.036-0.117-0.045c-0.019-0.005-0.031-0.007-0.034-0.007h-0.66c-2.684 0-5.025-0.318-6.659-1.747-1.666-1.458-2.341-3.833-2.341-7.253v-6.667c0-2.821 0.706-5.12 2.293-6.707z"></path>
<path d="M19.995 14.667c0-0.736 0.597-1.333 1.333-1.333h0.012c0.736 0 1.333 0.597 1.333 1.333s-0.597 1.333-1.333 1.333h-0.012c-0.736 0-1.333-0.597-1.333-1.333z"></path>
<path d="M14.661 14.667c0-0.736 0.597-1.333 1.333-1.333h0.012c0.736 0 1.333 0.597 1.333 1.333s-0.597 1.333-1.333 1.333h-0.012c-0.736 0-1.333-0.597-1.333-1.333z"></path>
<path d="M9.326 14.667c0-0.736 0.597-1.333 1.333-1.333h0.012c0.736 0 1.333 0.597 1.333 1.333s-0.597 1.333-1.333 1.333h-0.012c-0.736 0-1.333-0.597-1.333-1.333z"></path>
</svg>
