<!-- Generated by IcoMoon.io -->
<svg version="1.1" xmlns="http://www.w3.org/2000/svg" width="32" height="32" viewBox="0 0 32 32">
<path fill="none" stroke-linejoin="round" stroke-linecap="round" stroke-miterlimit="4" stroke-width="1.3333" stroke="#000" d="M25.956 13.156v-6.4c0-1.571-1.274-2.844-2.845-2.844h-17.067c-1.571 0-2.844 1.274-2.844 2.844v11.131c0 1.571 1.273 2.844 2.844 2.844h2.226v5.936l5.936-5.936h0.371M21.921 24.379l3.71 3.71v-3.71h0.325c1.571 0 2.844-1.273 2.844-2.844v-4.823c0-1.571-1.273-2.844-2.844-2.844h-8.533c-1.571 0-2.845 1.273-2.845 2.844v4.823c0 1.571 1.273 2.844 2.845 2.844h4.499z"></path>
</svg>
