<!-- Generated by IcoMoon.io -->
<svg version="1.1" xmlns="http://www.w3.org/2000/svg" width="32" height="32" viewBox="0 0 32 32">
<path fill="none" stroke-linejoin="round" stroke-linecap="round" stroke-miterlimit="4" stroke-width="1.28" stroke="#000" d="M25.133 13.013v-6.144c0-1.508-1.223-2.731-2.731-2.731h-16.384c-1.508 0-2.731 1.223-2.731 2.731v10.685c0 1.508 1.223 2.731 2.731 2.731h2.137v5.699l5.699-5.699h0.356M21.259 23.787l3.562 3.562v-3.562h0.312c1.508 0 2.731-1.223 2.731-2.731v-4.63c0-1.508-1.223-2.731-2.731-2.731h-8.192c-1.508 0-2.731 1.223-2.731 2.731v4.63c0 1.508 1.223 2.731 2.731 2.731h4.319z"></path>
</svg>
