<!-- Generated by IcoMoon.io -->
<svg version="1.1" xmlns="http://www.w3.org/2000/svg" width="32" height="32" viewBox="0 0 32 32">
<path d="M22.4 3.756h-12.8c-3.84 0-6.4 2.56-6.4 6.4v7.68c0 3.84 2.56 6.4 6.4 6.4v2.726c0 1.024 1.139 1.638 1.984 1.062l5.696-3.789h5.12c3.84 0 6.4-2.56 6.4-6.4v-7.68c0-3.84-2.56-6.4-6.4-6.4zM16 19.334c-0.538 0-0.96-0.435-0.96-0.96s0.422-0.96 0.96-0.96c0.538 0 0.96 0.435 0.96 0.96s-0.422 0.96-0.96 0.96zM17.613 14.022c-0.499 0.333-0.653 0.55-0.653 0.909v0.269c0 0.525-0.435 0.96-0.96 0.96s-0.96-0.435-0.96-0.96v-0.269c0-1.485 1.088-2.214 1.498-2.496 0.474-0.32 0.627-0.538 0.627-0.87 0-0.64-0.525-1.165-1.165-1.165s-1.165 0.525-1.165 1.165c0 0.525-0.435 0.96-0.96 0.96s-0.96-0.435-0.96-0.96c0-1.702 1.382-3.085 3.085-3.085s3.085 1.382 3.085 3.085c0 1.459-1.075 2.189-1.472 2.458z"></path>
</svg>
