<!-- Generated by IcoMoon.io -->
<svg version="1.1" xmlns="http://www.w3.org/2000/svg" width="32" height="32" viewBox="0 0 32 32">
<path d="M9.667 8c0-3.499 2.834-6.333 6.333-6.333s6.333 2.834 6.333 6.333v7.333c0 3.499-2.834 6.333-6.333 6.333s-6.333-2.834-6.333-6.333v-7.333zM16 3.667c-2.394 0-4.333 1.939-4.333 4.333v7.333c0 2.394 1.939 4.333 4.333 4.333s4.333-1.939 4.333-4.333v-7.333c0-2.394-1.939-4.333-4.333-4.333z"></path>
<path d="M5.8 11.867c0.552 0 1 0.448 1 1v2.267c0 5.074 4.126 9.2 9.2 9.2s9.2-4.126 9.2-9.2v-2.267c0-0.552 0.448-1 1-1s1 0.448 1 1v2.267c0 6.179-5.021 11.2-11.2 11.2s-11.2-5.021-11.2-11.2v-2.267c0-0.552 0.448-1 1-1z"></path>
<path d="M17.509 9.512c-0.978-0.358-2.040-0.358-3.018 0-0.519 0.19-1.093-0.076-1.283-0.595s0.076-1.093 0.595-1.283c1.422-0.521 2.973-0.521 4.395 0 0.519 0.19 0.785 0.765 0.595 1.283s-0.765 0.785-1.283 0.595z"></path>
<path d="M16.824 12.367c-0.539-0.142-1.097-0.142-1.636 0-0.534 0.141-1.081-0.177-1.222-0.711s0.177-1.081 0.711-1.222c0.874-0.231 1.783-0.231 2.657 0 0.534 0.141 0.853 0.688 0.711 1.222s-0.688 0.853-1.222 0.711z"></path>
<path d="M16 24.333c0.552 0 1 0.448 1 1v4c0 0.552-0.448 1-1 1s-1-0.448-1-1v-4c0-0.552 0.448-1 1-1z"></path>
</svg>
