<!-- Generated by IcoMoon.io -->
<svg version="1.1" xmlns="http://www.w3.org/2000/svg" width="32" height="32" viewBox="0 0 32 32">
<title>mirror</title>
<path d="M16 3.667c-5.339 0-9.667 4.328-9.667 9.667s4.328 9.667 9.667 9.667c5.339 0 9.667-4.328 9.667-9.667s-4.328-9.667-9.667-9.667zM4.333 13.333c0-6.443 5.223-11.667 11.667-11.667s11.667 5.223 11.667 11.667c0 6.443-5.223 11.667-11.667 11.667s-11.667-5.223-11.667-11.667z"></path>
<path d="M7 29.333c0-0.552 0.448-1 1-1h16c0.552 0 1 0.448 1 1s-0.448 1-1 1h-16c-0.552 0-1-0.448-1-1z"></path>
</svg>
