<!-- Generated by IcoMoon.io -->
<svg version="1.1" xmlns="http://www.w3.org/2000/svg" width="32" height="32" viewBox="0 0 32 32">
<path fill="none" stroke="#000" stroke-linejoin="round" stroke-linecap="round" stroke-miterlimit="4" stroke-width="2" d="M29.333 16c0 7.36-5.973 13.333-13.333 13.333s-13.333-5.973-13.333-13.333c0-7.36 5.973-13.333 13.333-13.333"></path>
<path fill="none" stroke="#000" stroke-linejoin="round" stroke-linecap="round" stroke-miterlimit="4" stroke-width="2" d="M22.667 4v5.333h5.333"></path>
<path fill="none" stroke="#000" stroke-linejoin="round" stroke-linecap="round" stroke-miterlimit="4" stroke-width="2" d="M29.333 2.667l-6.667 6.667"></path>
<path d="M9.703 19.537v-7.074h2.255c0.059 0 0.175 0.002 0.349 0.005 0.177 0.003 0.347 0.015 0.511 0.034 0.56 0.072 1.033 0.272 1.42 0.599 0.39 0.324 0.685 0.739 0.884 1.243s0.3 1.056 0.3 1.656-0.1 1.151-0.3 1.656c-0.2 0.504-0.495 0.92-0.884 1.248-0.386 0.324-0.86 0.522-1.42 0.595-0.16 0.020-0.329 0.031-0.506 0.034s-0.295 0.005-0.354 0.005h-2.255zM10.907 18.422h1.051c0.098 0 0.223-0.003 0.373-0.010 0.154-0.007 0.29-0.021 0.408-0.044 0.334-0.062 0.606-0.211 0.816-0.447s0.363-0.522 0.462-0.86c0.102-0.337 0.152-0.691 0.152-1.061 0-0.383-0.051-0.743-0.152-1.081s-0.259-0.621-0.472-0.85c-0.21-0.229-0.478-0.375-0.806-0.437-0.118-0.026-0.254-0.041-0.408-0.044-0.151-0.007-0.275-0.010-0.373-0.010h-1.051v4.844z"></path>
<path d="M16.583 19.537v-7.074h1.184v2.977h3.351v-2.977h1.179v7.074h-1.179v-2.987h-3.351v2.987h-1.184z"></path>
<path fill="none" stroke="#000" stroke-linejoin="miter" stroke-linecap="butt" stroke-miterlimit="4" stroke-width="0.6667" d="M9.703 19.537v-7.074h2.255c0.059 0 0.175 0.002 0.349 0.005 0.177 0.003 0.347 0.015 0.511 0.034 0.56 0.072 1.033 0.272 1.42 0.599 0.39 0.324 0.685 0.739 0.884 1.243s0.3 1.056 0.3 1.656-0.1 1.151-0.3 1.656c-0.2 0.504-0.495 0.92-0.884 1.248-0.386 0.324-0.86 0.522-1.42 0.595-0.16 0.020-0.329 0.031-0.506 0.034s-0.295 0.005-0.354 0.005h-2.255zM10.907 18.422h1.051c0.098 0 0.223-0.003 0.373-0.010 0.154-0.007 0.29-0.021 0.408-0.044 0.334-0.062 0.606-0.211 0.816-0.447s0.363-0.522 0.462-0.86c0.102-0.337 0.152-0.691 0.152-1.061 0-0.383-0.051-0.743-0.152-1.081s-0.259-0.621-0.472-0.85c-0.21-0.229-0.478-0.375-0.806-0.437-0.118-0.026-0.254-0.041-0.408-0.044-0.151-0.007-0.275-0.010-0.373-0.010h-1.051v4.844z"></path>
<path fill="none" stroke="#000" stroke-linejoin="miter" stroke-linecap="butt" stroke-miterlimit="4" stroke-width="0.6667" d="M16.583 19.537v-7.074h1.184v2.977h3.351v-2.977h1.179v7.074h-1.179v-2.987h-3.351v2.987h-1.184z"></path>
</svg>
