<!-- Generated by IcoMoon.io -->
<svg version="1.1" xmlns="http://www.w3.org/2000/svg" width="32" height="32" viewBox="0 0 32 32">
<path fill="none" stroke-linejoin="round" stroke-linecap="round" stroke-miterlimit="4" stroke-width="2" stroke="#000" d="M23.999 10.667v-2.667c0-0.707-0.281-1.386-0.781-1.886s-1.178-0.781-1.886-0.781h-16c-0.707 0-1.386 0.281-1.886 0.781s-0.781 1.178-0.781 1.886v9.333c0 0.707 0.281 1.386 0.781 1.886s1.178 0.781 1.886 0.781h10.667"></path>
<path fill="none" stroke-linejoin="round" stroke-linecap="round" stroke-miterlimit="4" stroke-width="2" stroke="#000" d="M13.334 25.333v-1.080"></path>
<path fill="none" stroke-linejoin="round" stroke-linecap="round" stroke-miterlimit="4" stroke-width="2" stroke="#000" d="M9.334 25.333h6.667"></path>
<path fill="none" stroke-linejoin="round" stroke-linecap="round" stroke-miterlimit="4" stroke-width="2" stroke="#000" d="M26.667 16h-2.667c-1.473 0-2.667 1.194-2.667 2.667v8c0 1.473 1.194 2.667 2.667 2.667h2.667c1.473 0 2.667-1.194 2.667-2.667v-8c0-1.473-1.194-2.667-2.667-2.667z"></path>
</svg>
