<!-- Generated by IcoMoon.io -->
<svg version="1.1" xmlns="http://www.w3.org/2000/svg" width="32" height="32" viewBox="0 0 32 32">
<path d="M25.067 20.216c1.512 0.012 2.974-0.248 4.4-0.744 0.657-0.223 1.264 0.062 1.376 0.682 0.037 0.223 0 0.483-0.087 0.694-1.971 5.044-5.552 8.353-10.82 9.568-5.726 1.326-10.708-0.26-14.773-4.511-2.256-2.367-3.545-5.255-3.916-8.514-0.818-7.077 3.247-13.72 9.902-16.161 0.434-0.161 0.83-0.149 1.177 0.186 0.335 0.335 0.347 0.719 0.198 1.153-0.533 1.524-0.793 3.098-0.719 4.71 0.235 4.871 2.442 8.601 6.606 11.129 2.020 1.239 4.276 1.797 6.655 1.809zM28.079 21.939c-5.305 0.843-9.989-0.421-13.782-4.214-3.805-3.805-5.081-8.49-4.239-13.782-3.817 1.909-7.449 6.779-6.866 12.964 0.57 6.011 5.255 10.944 11.365 11.836 5.961 0.868 11.278-2.429 13.521-6.804z"></path>
</svg>
