<!-- Generated by IcoMoon.io -->
<svg version="1.1" xmlns="http://www.w3.org/2000/svg" width="11" height="32" viewBox="0 0 11 32">
<path d="M2.444 24.883c0.833-0.786 1.794-1.178 2.884-1.178s2.051 0.393 2.884 1.178c0.833 0.786 1.25 1.692 1.25 2.719s-0.417 1.934-1.25 2.719-1.794 1.178-2.884 1.178c-1.089 0-2.051-0.393-2.884-1.178s-1.25-1.692-1.25-2.719c0-1.027 0.417-1.934 1.25-2.719zM2.444 13.281c0.833-0.786 1.794-1.178 2.884-1.178s2.051 0.393 2.884 1.178c0.833 0.786 1.25 1.692 1.25 2.719s-0.417 1.934-1.25 2.719c-0.833 0.786-1.794 1.178-2.884 1.178s-2.051-0.393-2.884-1.178c-0.833-0.786-1.25-1.692-1.25-2.719s0.417-1.934 1.25-2.719zM8.212 7.117c-0.833 0.786-1.794 1.178-2.884 1.178s-2.051-0.393-2.884-1.178c-0.833-0.786-1.25-1.692-1.25-2.719s0.417-1.934 1.25-2.719c0.833-0.786 1.794-1.178 2.884-1.178s2.051 0.393 2.884 1.178c0.833 0.786 1.25 1.692 1.25 2.719s-0.417 1.934-1.25 2.719z"></path>
</svg>
