<!-- Generated by IcoMoon.io -->
<svg version="1.1" xmlns="http://www.w3.org/2000/svg" width="32" height="32" viewBox="0 0 32 32">
<path d="M17.403 13.043c-0.415 0.282-0.903 0.432-1.403 0.432-0.67 0-1.312-0.27-1.786-0.751s-0.74-1.133-0.74-1.813c0-0.507 0.148-1.003 0.426-1.424s0.672-0.75 1.133-0.944c0.461-0.194 0.969-0.245 1.459-0.146s0.94 0.343 1.293 0.702c0.353 0.359 0.594 0.815 0.691 1.313s0.047 1.013-0.144 1.481c-0.191 0.468-0.515 0.869-0.93 1.151z"></path>
<path d="M16 18.525c-0.499 0-0.988 0.15-1.403 0.432s-0.739 0.682-0.93 1.151-0.241 0.984-0.144 1.481c0.097 0.497 0.338 0.954 0.691 1.313s0.803 0.603 1.293 0.702c0.49 0.099 0.998 0.048 1.459-0.146s0.856-0.523 1.133-0.944 0.426-0.917 0.426-1.424c0-0.68-0.266-1.332-0.74-1.813s-1.116-0.751-1.785-0.751z"></path>
</svg>
