<!-- Generated by IcoMoon.io -->
<svg version="1.1" xmlns="http://www.w3.org/2000/svg" width="32" height="32" viewBox="0 0 32 32">
<title>more</title>
<path d="M21.986 16c0-1.105 0.895-2 1.998-2h0.018c1.103 0 1.998 0.895 1.998 2s-0.894 2-1.998 2h-0.018c-1.103 0-1.998-0.895-1.998-2z"></path>
<path d="M13.993 16c0-1.105 0.895-2 1.998-2h0.018c1.103 0 1.998 0.895 1.998 2s-0.894 2-1.998 2h-0.018c-1.103 0-1.998-0.895-1.998-2z"></path>
<path d="M6 16c0-1.105 0.894-2 1.998-2h0.018c1.103 0 1.998 0.895 1.998 2s-0.894 2-1.998 2h-0.018c-1.103 0-1.998-0.895-1.998-2z"></path>
</svg>
