<!-- Generated by IcoMoon.io -->
<svg version="1.1" xmlns="http://www.w3.org/2000/svg" width="32" height="32" viewBox="0 0 32 32">
<path d="M26.483 18.643l-1.446-2.406c-0.32-0.525-0.602-1.536-0.602-2.15v-2.394c0-4.646-3.776-8.422-8.41-8.422-4.646 0.013-8.422 3.776-8.422 8.422v2.381c0 0.614-0.282 1.626-0.589 2.15l-1.446 2.406c-0.55 0.934-0.678 1.997-0.333 2.918 0.346 0.934 1.126 1.677 2.15 2.010 1.382 0.461 2.778 0.794 4.198 1.037 0.141 0.026 0.282 0.038 0.422 0.064 0.179 0.026 0.371 0.051 0.563 0.077 0.333 0.051 0.666 0.090 1.011 0.115 0.806 0.077 1.626 0.115 2.445 0.115 0.806 0 1.613-0.038 2.406-0.115 0.294-0.026 0.589-0.051 0.87-0.090 0.23-0.026 0.461-0.051 0.691-0.090 0.141-0.013 0.282-0.038 0.422-0.064 1.434-0.23 2.854-0.589 4.237-1.050 0.986-0.333 1.741-1.075 2.099-2.022 0.358-0.96 0.256-2.010-0.269-2.893zM16.96 13.446c0 0.538-0.435 0.973-0.973 0.973s-0.973-0.435-0.973-0.973v-3.968c0-0.538 0.435-0.973 0.973-0.973s0.973 0.435 0.973 0.973v3.968z"></path>
<path d="M19.622 26.259c-0.538 1.485-1.958 2.547-3.622 2.547-1.011 0-2.010-0.41-2.714-1.139-0.41-0.384-0.717-0.896-0.896-1.421 0.166 0.026 0.333 0.038 0.512 0.064 0.294 0.038 0.602 0.077 0.909 0.102 0.73 0.064 1.472 0.102 2.214 0.102 0.73 0 1.459-0.038 2.176-0.102 0.269-0.026 0.538-0.038 0.794-0.077 0.205-0.026 0.41-0.051 0.627-0.077z"></path>
</svg>
