<!-- Generated by IcoMoon.io -->
<svg version="1.1" xmlns="http://www.w3.org/2000/svg" width="32" height="32" viewBox="0 0 32 32">
<title>notification</title>
<path d="M7.027 11.88c0-4.966 4.034-9 9-9 4.952 0 9 4.048 9 9v3.853c0 0.286 0.065 0.706 0.188 1.154 0.121 0.443 0.278 0.836 0.421 1.086l1.529 2.539c1.207 2.012 0.242 4.634-1.982 5.37-5.952 1.988-12.374 1.988-18.326-0.001l-0.004-0.001c-1.123-0.38-1.966-1.166-2.342-2.183-0.377-1.018-0.249-2.165 0.366-3.186l1.531-2.543c0-0.001 0.001-0.001 0.001-0.002 0.146-0.245 0.306-0.637 0.429-1.082 0.124-0.446 0.189-0.865 0.189-1.151v-3.853zM16.027 4.88c-3.861 0-7 3.139-7 7v3.853c0 0.527-0.109 1.135-0.261 1.686s-0.373 1.125-0.64 1.573l-0.002 0.004-1.533 2.546c-0 0 0 0 0 0-0.332 0.552-0.35 1.066-0.204 1.461s0.497 0.776 1.106 0.983c5.54 1.851 11.517 1.85 17.058-0.001l0.003-0.001c1.001-0.331 1.449-1.522 0.897-2.442-0-0 0 0 0 0l-1.543-2.562c-0.256-0.444-0.471-1.014-0.621-1.564s-0.259-1.156-0.259-1.683v-3.853c0-3.848-3.152-7-7-7z"></path>
<path d="M12.63 3.902c0.533-1.359 1.855-2.315 3.398-2.315s2.865 0.956 3.398 2.315c0.139 0.355 0.064 0.758-0.193 1.039s-0.651 0.392-1.017 0.286c-0.37-0.107-0.743-0.188-1.121-0.234l-0.004-0c-1.153-0.144-2.242-0.059-3.25 0.235-0.366 0.106-0.761-0.005-1.018-0.286s-0.332-0.684-0.193-1.039z"></path>
<path d="M13.027 25.413c0 0.817 0.34 1.579 0.88 2.119s1.303 0.881 2.12 0.881c1.648 0 3-1.352 3-3h2c0 2.752-2.248 5-5 5-1.37 0-2.634-0.567-3.534-1.466s-1.466-2.164-1.466-3.534h2z"></path>
</svg>
