<!-- Generated by IcoMoon.io -->
<svg version="1.1" xmlns="http://www.w3.org/2000/svg" width="32" height="32" viewBox="0 0 32 32">
<path d="M29.046 11.692c-0.246-0.123-0.615-0.369-0.862-0.492 2.954-2.708 2.215-6.892 0-8.862-2.338-2.215-5.785-2.338-8.246-0.369-1.231 0.985-1.969 2.338-2.092 3.815-0.246 2.215 0.369 3.938 1.846 5.415-0.492 0.246-0.985 0.492-1.354 0.738s-0.738 0.369-1.108 0.615c-1.231-2.462-3.2-3.815-5.908-3.815-2.462 0.123-4.308 1.354-5.292 3.692-1.108 2.585-0.492 4.923 1.354 7.015-0.123 0-0.123 0.123-0.246 0.123 0 0-0.123 0-0.123 0-2.954 1.231-5.046 3.323-6.277 6.4-0.369 0.985-0.615 1.969-0.246 3.077 0.369 1.354 1.723 2.338 3.077 2.338 2.585 0 5.046 0 7.631 0 0.985 0 1.969 0 3.077 0 0.738 0 1.354-0.738 1.108-1.477-0.123-0.615-0.615-0.862-1.231-0.862h-10.215c-1.108 0-1.6-0.738-1.231-1.846 0.738-1.969 1.969-3.569 3.815-4.554 1.969-1.231 4.185-1.723 6.523-1.231 1.354 0.246 2.462 0.738 3.569 1.477 0.615 0.369 1.354 0.246 1.723-0.369s0.246-1.354-0.369-1.723c-0.492-0.246-0.862-0.492-1.354-0.738-0.246-0.123-0.369-0.246-0.615-0.369-0.123 0-0.123-0.123-0.246-0.123 0 0 0 0 0 0s0 0 0 0c1.108-0.985 1.6-2.215 1.846-3.692 0-0.123 0.123-0.246 0.123-0.246 2.462-2.215 5.292-2.954 8.492-2.092 0.985 0.246 1.969 0.738 2.831 1.354 0.246 0.246 0.615 0.246 0.985 0.246 0.492-0.123 0.862-0.492 0.862-0.985 0.123-0.492-0.123-0.985-0.615-1.231-0.369-0.615-0.862-0.985-1.231-1.231zM7.754 15.015c0-2.092 1.723-3.692 3.692-3.692 2.092 0 3.692 1.723 3.692 3.692 0 2.092-1.723 3.692-3.692 3.692s-3.692-1.723-3.692-3.692zM23.877 2.954c2.092 0 3.692 1.6 3.692 3.692s-1.723 3.692-3.692 3.692c-2.092 0-3.692-1.723-3.692-3.692s1.723-3.569 3.692-3.692zM27.569 24.492c-0.369 0-0.738 0-1.108 0 0-0.123 0-0.246 0-0.369 0-0.369 0-0.615 0-0.985 0-0.615 0-1.231 0-1.969s-0.492-1.231-1.231-1.231-1.231 0.492-1.231 1.231v3.323h-0.369c-0.369 0-0.615 0-0.985 0-0.615 0-1.231 0-1.969 0s-1.231 0.492-1.231 1.231 0.492 1.231 1.231 1.231h3.2v0.369c0 0.369 0 0.615 0 0.985 0 0.615 0 1.354 0 1.969 0 0.492 0.246 0.862 0.738 1.108 0.369 0.123 0.862 0.123 1.231-0.123 0.246-0.246 0.369-0.615 0.369-0.985v-3.2h3.2c0.369 0 0.738-0.123 0.985-0.369 0.369-0.369 0.369-0.862 0.246-1.231-0.246-0.492-0.615-0.738-1.108-0.738-0.492-0.246-1.231-0.246-1.969-0.246z"></path>
</svg>
