<!-- Generated by IcoMoon.io -->
<svg version="1.1" xmlns="http://www.w3.org/2000/svg" width="32" height="32" viewBox="0 0 32 32">
<title>personalcard</title>
<path d="M4.707 6.040c-0.682 0.682-1.040 1.952-1.040 4.626v10.667c0 2.674 0.358 3.944 1.040 4.626s1.952 1.040 4.626 1.040h13.333c2.674 0 3.944-0.358 4.626-1.040s1.040-1.952 1.040-4.626v-10.667c0-2.674-0.358-3.944-1.040-4.626s-1.952-1.040-4.626-1.040h-13.333c-2.674 0-3.944 0.358-4.626 1.040zM3.293 4.626c1.318-1.318 3.381-1.626 6.040-1.626h13.333c2.659 0 4.722 0.308 6.040 1.626s1.626 3.381 1.626 6.040v10.667c0 2.659-0.308 4.722-1.626 6.040s-3.381 1.626-6.040 1.626h-13.333c-2.66 0-4.722-0.308-6.040-1.626s-1.626-3.381-1.626-6.040v-10.667c0-2.66 0.308-4.722 1.626-6.040z"></path>
<path d="M17.667 10.667c0-0.552 0.448-1 1-1h6.667c0.552 0 1 0.448 1 1s-0.448 1-1 1h-6.667c-0.552 0-1-0.448-1-1z"></path>
<path d="M19 16c0-0.552 0.448-1 1-1h5.333c0.552 0 1 0.448 1 1s-0.448 1-1 1h-5.333c-0.552 0-1-0.448-1-1z"></path>
<path d="M21.667 21.333c0-0.552 0.448-1 1-1h2.667c0.552 0 1 0.448 1 1s-0.448 1-1 1h-2.667c-0.552 0-1-0.448-1-1z"></path>
<path d="M11.333 11.227c-0.781 0-1.413 0.633-1.413 1.413s0.633 1.413 1.413 1.413 1.413-0.633 1.413-1.413c0-0.781-0.633-1.413-1.413-1.413zM7.92 12.64c0-1.885 1.528-3.413 3.413-3.413s3.413 1.528 3.413 3.413c0 1.885-1.528 3.413-3.413 3.413s-3.413-1.528-3.413-3.413z"></path>
<path d="M12.441 17.151c2.409 0.219 4.321 2.115 4.554 4.526 0.053 0.55-0.35 1.038-0.899 1.091s-1.038-0.35-1.091-0.899c-0.14-1.454-1.292-2.596-2.747-2.727l-0.010-0.001v-0c-0.6-0.060-1.214-0.060-1.83 0l-0.001 0c-1.466 0.141-2.614 1.279-2.754 2.727-0.053 0.55-0.542 0.952-1.091 0.899s-0.952-0.542-0.899-1.091c0.234-2.418 2.152-4.294 4.552-4.526 0.742-0.073 1.486-0.073 2.218-0z"></path>
</svg>
