<!-- Generated by IcoMoon.io -->
<svg version="1.1" xmlns="http://www.w3.org/2000/svg" width="32" height="32" viewBox="0 0 32 32">
<path d="M19.977 10.179c-4.735 0-8.573 3.838-8.573 8.573s3.838 8.573 8.573 8.573 8.573-3.838 8.573-8.573c0-4.735-3.838-8.573-8.573-8.573zM9.99 18.752c0-5.516 4.471-9.987 9.987-9.987s9.987 4.472 9.987 9.987c0 5.516-4.472 9.987-9.987 9.987s-9.987-4.471-9.987-9.987z"></path>
<path d="M19.314 15.482c-0.703 0-1.282 0.578-1.282 1.282s0.578 1.281 1.282 1.281h1.326c1.484 0 2.696 1.211 2.696 2.696s-1.211 2.696-2.696 2.696h-1.326v-0.707c0 0.707 0 0.707-0.001 0.707h-0.015l-0.023-0.001c-0.018-0.001-0.041-0.002-0.069-0.004-0.055-0.004-0.129-0.011-0.218-0.025-0.177-0.027-0.417-0.081-0.683-0.187-0.541-0.216-1.189-0.652-1.613-1.5-0.175-0.349-0.033-0.774 0.316-0.949s0.774-0.033 0.949 0.316c0.239 0.478 0.585 0.705 0.873 0.82 0.148 0.059 0.28 0.088 0.373 0.103 0.046 0.007 0.081 0.010 0.1 0.012l0.017 0.001h1.319c0.703 0 1.282-0.578 1.282-1.282s-0.578-1.282-1.282-1.282h-1.326c-1.484 0-2.696-1.211-2.696-2.696s1.211-2.696 2.696-2.696h1.326v0.707c0-0.707 0-0.707 0.001-0.707h0.015l0.023 0.001c0.018 0.001 0.041 0.002 0.069 0.004 0.055 0.004 0.129 0.011 0.218 0.025 0.177 0.027 0.417 0.081 0.683 0.187 0.541 0.216 1.189 0.652 1.613 1.5 0.175 0.349 0.033 0.774-0.316 0.949s-0.774 0.033-0.949-0.316c-0.239-0.478-0.585-0.705-0.873-0.82-0.148-0.059-0.281-0.088-0.373-0.103-0.046-0.007-0.081-0.010-0.1-0.012l-0.017-0.001h-1.319z"></path>
<path d="M19.977 12.742c0.391 0 0.707 0.317 0.707 0.707v1.326c0 0.39-0.317 0.707-0.707 0.707s-0.707-0.317-0.707-0.707v-1.326c0-0.39 0.317-0.707 0.707-0.707z"></path>
<path d="M19.977 22.023c0.391 0 0.707 0.317 0.707 0.707v1.326c0 0.391-0.317 0.707-0.707 0.707s-0.707-0.317-0.707-0.707v-1.326c0-0.391 0.317-0.707 0.707-0.707z"></path>
<path d="M5.659 3.993v3.889h7.689c0.391 0 0.707 0.317 0.707 0.707s-0.317 0.707-0.707 0.707h-8.397c-0.391 0-0.707-0.317-0.707-0.707v-4.861c0-0.635 0.514-1.149 1.149-1.149h16.351c0.635 0 1.149 0.514 1.149 1.149v3.093c0 0.391-0.317 0.707-0.707 0.707s-0.707-0.317-0.707-0.707v-2.828h-15.821z"></path>
<path d="M7.604 4.788c0.391 0 0.707 0.317 0.707 0.707v3.093c0 0.39-0.317 0.707-0.707 0.707s-0.707-0.317-0.707-0.707v-3.093c0-0.391 0.317-0.707 0.707-0.707z"></path>
<path d="M11.139 4.788c0.39 0 0.707 0.317 0.707 0.707v3.093c0 0.39-0.317 0.707-0.707 0.707s-0.707-0.317-0.707-0.707v-3.093c0-0.391 0.317-0.707 0.707-0.707z"></path>
<path d="M3.449 9.296h1.503c0.391 0 0.707-0.317 0.707-0.707s-0.317-0.707-0.707-0.707h-1.768c-0.635 0-1.149 0.514-1.149 1.149v4.419c0 0.635 0.514 1.149 1.149 1.149h5.745c0.39 0 0.707-0.317 0.707-0.707s-0.317-0.707-0.707-0.707h-5.48v-3.889z"></path>
<path d="M5.394 10.091c0.391 0 0.707 0.317 0.707 0.707v3.093c0 0.391-0.317 0.707-0.707 0.707s-0.707-0.317-0.707-0.707v-3.093c0-0.39 0.317-0.707 0.707-0.707z"></path>
<path d="M8.929 10.091c0.39 0 0.707 0.317 0.707 0.707v3.093c0 0.391-0.317 0.707-0.707 0.707s-0.707-0.317-0.707-0.707v-3.093c0-0.39 0.317-0.707 0.707-0.707z"></path>
<path d="M4.952 13.185c0.391 0 0.707 0.317 0.707 0.707v4.596h2.386c0.39 0 0.707 0.317 0.707 0.707s-0.317 0.707-0.707 0.707h-3.093c-0.391 0-0.707-0.317-0.707-0.707v-5.303c0-0.391 0.317-0.707 0.707-0.707z"></path>
<path d="M7.604 15.395c0.391 0 0.707 0.317 0.707 0.707v3.093c0 0.391-0.317 0.707-0.707 0.707s-0.707-0.317-0.707-0.707v-3.093c0-0.391 0.317-0.707 0.707-0.707z"></path>
<path d="M2.565 19.902h2.386c0.391 0 0.707-0.317 0.707-0.707s-0.317-0.707-0.707-0.707h-2.652c-0.635 0-1.149 0.514-1.149 1.149v4.419c0 0.635 0.514 1.149 1.149 1.149h7.071c0.39 0 0.707-0.317 0.707-0.707s-0.317-0.707-0.707-0.707h-6.806v-3.889z"></path>
<path d="M4.51 20.697c0.391 0 0.707 0.317 0.707 0.707v3.093c0 0.391-0.317 0.707-0.707 0.707s-0.707-0.317-0.707-0.707v-3.093c0-0.391 0.317-0.707 0.707-0.707z"></path>
<path d="M8.045 20.697c0.39 0 0.707 0.317 0.707 0.707v3.093c0 0.391-0.317 0.707-0.707 0.707s-0.707-0.317-0.707-0.707v-3.093c0-0.391 0.317-0.707 0.707-0.707z"></path>
</svg>
