<!-- Generated by IcoMoon.io -->
<svg version="1.1" xmlns="http://www.w3.org/2000/svg" width="32" height="32" viewBox="0 0 32 32">
<title>police</title>
<path d="M4.756 10.193c-0.064 0.050-0.13 0.102-0.197 0.154-0.384 0.298-0.818 0.636-1.206 1.081-0.455 0.523-0.753 1.1-0.753 1.765 0 0.184 0.066 0.45 0.243 0.797 0.174 0.34 0.426 0.703 0.725 1.065 0.491 0.594 1.061 1.128 1.486 1.483l22.424-0.115c0.338-0.314 0.769-0.776 1.141-1.307 0.491-0.7 0.78-1.379 0.78-1.924 0-0.57-0.245-1.168-0.655-1.724-0.41-0.555-0.929-0.991-1.332-1.226-1.153-0.672-3.144-1.696-5.324-2.558-2.203-0.871-4.494-1.532-6.284-1.565-1.765-0.032-3.963 0.606-6.065 1.482-2.054 0.857-3.906 1.895-4.985 2.59zM26.872 18.427l-21.174 0.108-0.015 1.967h21.219l-0.030-2.075zM26.222 22.502h-20.029c0.305 0.415 0.723 0.819 1.229 1.201 0.878 0.663 1.881 1.151 2.575 1.412h12.569c1.156-0.217 2.129-0.879 2.897-1.684 0.291-0.305 0.544-0.622 0.76-0.929zM3.701 18.013c-0.495-0.42-1.12-1.013-1.674-1.683-0.358-0.433-0.705-0.92-0.966-1.431-0.257-0.504-0.461-1.090-0.461-1.706 0-1.316 0.604-2.342 1.243-3.077 0.53-0.61 1.148-1.087 1.527-1.38 0.068-0.053 0.129-0.099 0.18-0.14l0.038-0.030 0.041-0.026c1.164-0.754 3.142-1.865 5.341-2.782 2.177-0.908 4.685-1.675 6.87-1.636 2.16 0.039 4.723 0.811 6.983 1.704 2.282 0.902 4.364 1.972 5.596 2.689 0.64 0.373 1.363 0.993 1.935 1.767 0.57 0.773 1.046 1.779 1.046 2.912 0 1.159-0.568 2.253-1.142 3.072-0.45 0.642-0.964 1.199-1.394 1.602l0.055 3.821-0.074 0.186c-0.31 0.776-0.96 1.915-1.936 2.938-0.979 1.026-2.345 1.994-4.088 2.289l-0.083 0.014h-13.087l-0.161-0.056c-0.853-0.299-2.135-0.899-3.274-1.759-1.114-0.841-2.262-2.058-2.527-3.631l-0.014-0.086 0.027-3.569z"></path>
<path d="M15.616 8.194c0.241-0.181 0.573-0.177 0.81 0.007l0.408 0.318c0.423 0.329 0.899 0.584 1.408 0.751l0.377 0.124c0.239 0.079 0.413 0.284 0.45 0.533 0.108 0.705 0.009 1.881-0.394 2.897-0.401 1.009-1.215 2.099-2.66 2.099-0.685 0-1.257-0.208-1.712-0.577-0.444-0.36-0.737-0.842-0.935-1.334-0.389-0.968-0.469-2.13-0.504-2.956-0.012-0.3 0.178-0.572 0.464-0.663l0.441-0.14c0.498-0.159 0.967-0.4 1.385-0.714l0.46-0.345zM16.009 9.566l-0.053 0.039c-0.524 0.393-1.108 0.697-1.73 0.901 0.047 0.693 0.145 1.421 0.381 2.008 0.144 0.358 0.324 0.623 0.538 0.797 0.203 0.165 0.474 0.279 0.871 0.279 0.625 0 1.097-0.443 1.421-1.258 0.246-0.619 0.341-1.314 0.341-1.811-0.637-0.216-1.233-0.537-1.763-0.95l-0.006-0.005z"></path>
</svg>
