<!-- Generated by IcoMoon.io -->
<svg version="1.1" xmlns="http://www.w3.org/2000/svg" width="32" height="32" viewBox="0 0 32 32">
<path fill="none" stroke-linejoin="round" stroke-linecap="round" stroke-miterlimit="10" stroke-width="2" stroke="#000" d="M9.667 9.333h12.667v-2.667c0-2.667-1-4-4-4h-4.667c-3 0-4 1.333-4 4v2.667z"></path>
<path fill="none" stroke-linejoin="round" stroke-linecap="round" stroke-miterlimit="10" stroke-width="2" stroke="#000" d="M21.333 20v5.333c0 2.667-1.333 4-4 4h-2.667c-2.667 0-4-1.333-4-4v-5.333h10.667z"></path>
<path fill="none" stroke-linejoin="round" stroke-linecap="round" stroke-miterlimit="10" stroke-width="2" stroke="#000" d="M28 13.333v6.667c0 2.667-1.333 4-4 4h-2.667v-4h-10.667v4h-2.667c-2.667 0-4-1.333-4-4v-6.667c0-2.667 1.333-4 4-4h16c2.667 0 4 1.333 4 4z"></path>
<path fill="none" stroke-linejoin="round" stroke-linecap="round" stroke-miterlimit="10" stroke-width="2" stroke="#000" d="M22.667 20h-13.333"></path>
<path fill="none" stroke-linejoin="round" stroke-linecap="round" stroke-miterlimit="10" stroke-width="2" stroke="#000" d="M9.333 14.667h4"></path>
</svg>
