<!-- Generated by IcoMoon.io -->
<svg version="1.1" xmlns="http://www.w3.org/2000/svg" width="32" height="32" viewBox="0 0 32 32">
<title>profile</title>
<path d="M16 3.667c-2.726 0-4.92 2.204-4.92 4.92 0 2.644 2.065 4.789 4.673 4.905 0.158-0.011 0.325-0.012 0.483-0 2.605-0.117 4.672-2.261 4.684-4.907-0.001-2.713-2.206-4.918-4.92-4.918zM9.080 8.587c0-3.817 3.086-6.92 6.92-6.92 3.819 0 6.92 3.101 6.92 6.92v0.004c-0.016 3.734-2.959 6.777-6.673 6.902-0.045 0.001-0.089 0-0.133-0.004-0.064-0.006-0.16-0.007-0.25 0.001-0.041 0.004-0.083 0.005-0.124 0.004-3.714-0.125-6.66-3.168-6.66-6.906z"></path>
<path d="M16.23 16.583c2.571 0 5.193 0.645 7.219 1.998 1.821 1.212 2.865 2.911 2.865 4.74s-1.043 3.531-2.864 4.749l-0 0c-2.032 1.36-4.657 2.009-7.229 2.009s-5.196-0.649-7.228-2.008c-1.822-1.212-2.865-2.911-2.865-4.74s1.043-3.531 2.864-4.749l0.004-0.003c2.038-1.351 4.665-1.997 7.236-1.997zM10.101 20.246c-1.405 0.941-1.974 2.078-1.974 3.086s0.569 2.141 1.974 3.076l0.002 0.001c1.634 1.093 3.849 1.671 6.117 1.671s4.483-0.577 6.117-1.671c1.406-0.941 1.976-2.079 1.976-3.087s-0.569-2.141-1.974-3.076l-0.001-0.001c-1.627-1.087-3.839-1.662-6.108-1.662-2.268 0-4.487 0.574-6.129 1.662z"></path>
</svg>
