<!-- Generated by IcoMoon.io -->
<svg version="1.1" xmlns="http://www.w3.org/2000/svg" width="32" height="32" viewBox="0 0 32 32">
<title>rachatvetuste</title>
<path d="M4.801 20.217c0.196 0.042 0.367 0.162 0.473 0.332l4.641 7.426c0.106 0.169 0.139 0.373 0.092 0.567s-0.169 0.361-0.34 0.463l-2.318 1.389c-0.352 0.211-0.808 0.096-1.019-0.255s-0.096-0.808 0.255-1.019l1.669-1-3.835-6.136-2.146 1.429c-0.341 0.227-0.802 0.135-1.030-0.206s-0.135-0.802 0.206-1.030l2.783-1.853c0.167-0.111 0.372-0.15 0.568-0.108z"></path>
<path d="M10.032 18.004c0.58-0.387 1.26-0.593 1.957-0.593h7.511c1.431 0 2.599 1.168 2.599 2.599s-1.168 2.599-2.599 2.599h-5.57c-0.41 0-0.743-0.333-0.743-0.743s0.332-0.743 0.743-0.743h5.57c0.611 0 1.114-0.503 1.114-1.114s-0.503-1.114-1.114-1.114h-7.511c-0.404 0-0.797 0.119-1.132 0.343l-5.117 3.412c-0.341 0.227-0.802 0.135-1.030-0.206s-0.135-0.802 0.206-1.030l5.117-3.411c0 0 0 0 0 0z"></path>
<path d="M29.812 20.061c-0.234-0.565-0.892-0.837-1.456-0.603l-0.023 0.009-7.946 2.987c-0.384 0.144-0.812-0.050-0.956-0.434s0.050-0.812 0.434-0.956l7.935-2.983c1.32-0.539 2.838 0.094 3.384 1.412 0.548 1.321-0.083 2.847-1.404 3.394l-8.195 3.474c-0.664 0.281-1.379 0.427-2.101 0.427h-7.228c-0.4 0-0.79 0.117-1.121 0.336l-1.847 1.215c-0.343 0.225-0.803 0.131-1.029-0.212s-0.13-0.803 0.212-1.029l1.845-1.214c-0 0 0 0 0 0 0.576-0.38 1.251-0.581 1.94-0.581h7.228c0.522 0 1.040-0.105 1.522-0.309-0 0 0 0 0 0l8.204-3.478c0.564-0.233 0.836-0.89 0.602-1.454z"></path>
<path d="M25.66 1.178c0.255 0.045 0.469 0.219 0.564 0.461l4.177 10.675c0.099 0.252 0.052 0.538-0.121 0.746l-0.571-0.475c0.571 0.475 0.57 0.476 0.57 0.476l-0.001 0.001-0.001 0.001-0.003 0.003-0.008 0.010-0.027 0.031c-0.022 0.026-0.054 0.061-0.095 0.105-0.081 0.088-0.199 0.209-0.353 0.355-0.307 0.291-0.758 0.679-1.346 1.082-1.176 0.805-2.915 1.675-5.153 1.924-0.408 0.045-0.775-0.248-0.82-0.656s0.248-0.775 0.656-0.82c1.939-0.215 3.45-0.97 4.478-1.673 0.514-0.352 0.904-0.688 1.163-0.934 0.027-0.025 0.052-0.049 0.075-0.073l-3.586-9.165c-1.578 1.445-3.403 2.226-5.358 2.689-1.823 0.432-3.807 0.595-5.813 0.761-0.494 0.041-0.99 0.082-1.485 0.127-2.418 0.22-3.908 0.983-4.78 1.649-0.439 0.335-0.728 0.653-0.904 0.876-0.015 0.019-0.030 0.038-0.043 0.056l2.629 6.134c0.162 0.377-0.013 0.813-0.39 0.975s-0.814-0.013-0.975-0.39l-2.785-6.498c-0.086-0.201-0.079-0.429 0.018-0.625l0.664 0.332c-0.664-0.332-0.664-0.333-0.664-0.333l0-0.001 0.004-0.007 0.007-0.013c0.005-0.010 0.012-0.023 0.021-0.038 0.017-0.031 0.041-0.071 0.071-0.12 0.061-0.098 0.151-0.231 0.273-0.387 0.245-0.313 0.623-0.721 1.17-1.14 1.101-0.842 2.86-1.704 5.547-1.948 0.528-0.048 1.045-0.091 1.553-0.133 1.994-0.165 3.834-0.317 5.538-0.721 2.101-0.498 3.919-1.365 5.414-3.073 0.171-0.195 0.431-0.287 0.687-0.243z"></path>
<path d="M14.179 8.204c0.113 0.394-0.116 0.805-0.51 0.918l-2.786 0.796c-0.113 0.447-0.332 0.834-0.514 1.107-0.075 0.112-0.149 0.213-0.217 0.301l1.043 2.433c0.475 0.107 0.887 0.339 1.173 0.529 0.148 0.099 0.277 0.197 0.382 0.282l1.961-0.392c0.402-0.080 0.793 0.18 0.874 0.583s-0.18 0.793-0.583 0.874l-2.321 0.464c-0.243 0.049-0.494-0.027-0.669-0.202l-0.003-0.003-0.021-0.020c-0.020-0.019-0.052-0.048-0.094-0.084-0.085-0.073-0.206-0.169-0.349-0.265-0.311-0.207-0.624-0.339-0.864-0.339-0.297 0-0.566-0.177-0.683-0.45l-1.392-3.249c-0.119-0.278-0.058-0.601 0.156-0.816 0.001-0.001 0.001-0.001 0.001-0.002l0.525 0.525c-0.525-0.525-0.525-0.525-0.525-0.525s-0.001 0.001-0.001 0.002l0.003-0.003 0.020-0.021c0.019-0.020 0.048-0.052 0.084-0.094 0.073-0.085 0.169-0.206 0.265-0.349 0.207-0.311 0.339-0.624 0.339-0.864 0-0.332 0.22-0.623 0.539-0.714l3.249-0.928c0.394-0.113 0.805 0.116 0.918 0.51z"></path>
<path d="M20.434 6.837c0.102 0.397 0.507 0.636 0.904 0.534l1.604-0.295c0.323 0.328 0.709 0.552 1.003 0.695 0.121 0.059 0.236 0.108 0.34 0.15l0.332 2.626c-0.355 0.333-0.594 0.742-0.744 1.050-0.078 0.16-0.14 0.31-0.187 0.437l-1.89 0.654c-0.388 0.134-0.593 0.557-0.459 0.945s0.557 0.593 0.945 0.459l2.237-0.774c0.234-0.081 0.412-0.273 0.475-0.513l0.001-0.005 0.008-0.028c0.008-0.027 0.021-0.068 0.039-0.12 0.036-0.106 0.092-0.25 0.167-0.405 0.163-0.336 0.366-0.608 0.574-0.73 0.256-0.15 0.398-0.439 0.361-0.734l-0.443-3.507c-0.038-0.301-0.255-0.548-0.547-0.625l-0.002-0.001-0.187 0.719c0.187-0.719 0.187-0.719 0.187-0.719l0.002 0.001-0.005-0.001-0.028-0.008c-0.027-0.008-0.068-0.021-0.12-0.039-0.105-0.036-0.25-0.092-0.405-0.167-0.336-0.163-0.608-0.366-0.73-0.574-0.168-0.286-0.505-0.426-0.826-0.343l-2.071 0.415c-0.397 0.102-0.636 0.507-0.534 0.904z"></path>
<path d="M18.054 8.491c-0.523-0.306-1.029-0.342-1.441-0.158-0.418 0.187-0.762 0.611-0.922 1.244-0.16 0.632-0.119 1.419 0.194 2.196s0.818 1.345 1.344 1.653c0.523 0.306 1.029 0.342 1.441 0.158 0.418-0.187 0.762-0.611 0.922-1.245 0.16-0.632 0.119-1.419-0.194-2.196s-0.818-1.345-1.344-1.653zM18.805 7.21c0.841 0.492 1.549 1.333 1.971 2.38s0.5 2.157 0.257 3.116c-0.243 0.957-0.824 1.819-1.756 2.236-0.939 0.419-1.953 0.262-2.797-0.232-0.841-0.492-1.549-1.333-1.971-2.38s-0.5-2.157-0.257-3.116c0.243-0.957 0.824-1.819 1.756-2.236 0.939-0.419 1.953-0.262 2.797 0.232z"></path>
</svg>
