<!-- Generated by IcoMoon.io -->
<svg version="1.1" xmlns="http://www.w3.org/2000/svg" width="32" height="32" viewBox="0 0 32 32">
<path d="M11.76 12.574v-0.941c-0.52 0-0.941 0.421-0.941 0.941h0.941zM11.88 12.574h0.941c0-0.52-0.421-0.941-0.941-0.941v0.941zM18.988 12.574v-0.941c-0.52 0-0.941 0.421-0.941 0.941h0.941zM19.095 12.574h0.941c0-0.52-0.421-0.941-0.941-0.941v0.941zM11.88 12.67v0.941c0.52 0 0.941-0.421 0.941-0.941h-0.941zM11.76 12.67h-0.941c0 0.52 0.421 0.941 0.941 0.941v-0.941zM19.095 12.67v0.941c0.52 0 0.941-0.421 0.941-0.941h-0.941zM18.988 12.67h-0.941c0 0.52 0.421 0.941 0.941 0.941v-0.941zM15.374 19.204v0zM18.75 22.060c0.274 0.442 0.854 0.578 1.296 0.305s0.578-0.854 0.305-1.296l-1.601 0.991zM10.398 21.069c-0.274 0.442-0.137 1.022 0.305 1.296s1.022 0.137 1.296-0.305l-1.601-0.991zM27.421 16.188h-0.941c0 6.134-4.972 11.106-11.106 11.106v1.882c7.173 0 12.988-5.815 12.988-12.988h-0.941zM15.374 28.235v-0.941c-6.134 0-11.106-4.972-11.106-11.106h-1.882c0 7.173 5.815 12.988 12.988 12.988v-0.941zM3.327 16.188h0.941c0-6.134 4.972-11.106 11.106-11.106v-1.882c-7.173 0-12.988 5.815-12.988 12.988h0.941zM15.374 4.141v0.941c6.134 0 11.106 4.972 11.106 11.106h1.882c0-7.173-5.815-12.988-12.988-12.988v0.941zM11.76 12.574v0.941h0.12v-1.882h-0.12v0.941zM18.988 12.574v0.941h0.107v-1.882h-0.107v0.941zM11.88 12.574h-0.941v0.096h1.882v-0.096h-0.941zM11.88 12.67v-0.941h-0.12v1.882h0.12v-0.941zM11.76 12.67h0.941v-0.096h-1.882v0.096h0.941zM19.095 12.574h-0.941v0.096h1.882v-0.096h-0.941zM19.095 12.67v-0.941h-0.107v1.882h0.107v-0.941zM18.988 12.67h0.941v-0.096h-1.882v0.096h0.941zM15.374 19.204v0.941c1.408 0 2.658 0.753 3.376 1.914l1.601-0.991c-1.038-1.677-2.873-2.806-4.977-2.806v0.941zM11.198 21.564l0.8 0.495c0.719-1.161 1.968-1.914 3.376-1.914v-1.882c-2.103 0-3.938 1.129-4.977 2.806l0.8 0.495z"></path>
</svg>
