<!-- Generated by IcoMoon.io -->
<svg version="1.1" xmlns="http://www.w3.org/2000/svg" width="32" height="32" viewBox="0 0 32 32">
<title>refresh</title>
<path d="M5.358 5.605c2.346-1.957 5.899-3.939 10.642-3.939 7.968 0 14.333 6.424 14.333 14.333 0 6.653-4.531 12.241-10.679 13.86-0.534 0.141-1.081-0.178-1.222-0.712s0.178-1.081 0.712-1.222c5.292-1.394 9.188-6.205 9.188-11.926 0-6.81-5.475-12.333-12.333-12.333-4.15 0-7.264 1.725-9.361 3.475-0.816 0.681-1.474 1.362-1.971 1.939h3.919c0.552 0 1 0.448 1 1s-0.448 1-1 1h-5.92c-0.552 0-1-0.448-1-1v-6.080c0-0.552 0.448-1 1-1s1 0.448 1 1v3.203c0.472-0.504 1.036-1.051 1.691-1.597z"></path>
<path d="M2.667 15c0.552 0 1 0.448 1 1 0 0.547 0.036 1.085 0.104 1.612 0.072 0.548-0.314 1.050-0.862 1.121s-1.050-0.315-1.121-0.862c-0.080-0.613-0.121-1.237-0.121-1.871 0-0.552 0.448-1 1-1zM3.296 20.18c0.51-0.212 1.095 0.030 1.307 0.54 0.416 1.002 0.96 1.938 1.613 2.787 0.337 0.438 0.254 1.066-0.183 1.402s-1.066 0.255-1.402-0.183c-0.758-0.986-1.391-2.073-1.874-3.239-0.212-0.51 0.030-1.095 0.54-1.307zM7.091 25.968c0.337-0.438 0.964-0.52 1.402-0.183 0.849 0.653 1.785 1.197 2.787 1.613 0.51 0.212 0.752 0.797 0.54 1.307s-0.797 0.752-1.307 0.54c-1.165-0.484-2.253-1.116-3.239-1.874-0.438-0.337-0.52-0.964-0.183-1.402zM13.267 29.091c0.072-0.548 0.573-0.934 1.121-0.862 0.527 0.069 1.065 0.104 1.612 0.104 0.552 0 1 0.448 1 1s-0.448 1-1 1c-0.634 0-1.258-0.041-1.871-0.121-0.548-0.071-0.934-0.573-0.862-1.121z"></path>
</svg>
