<!-- Generated by IcoMoon.io -->
<svg version="1.1" xmlns="http://www.w3.org/2000/svg" width="32" height="32" viewBox="0 0 32 32">
<title>refresh-2</title>
<path d="M16 3.667c-6.858 0-12.333 5.523-12.333 12.333 0 0.552-0.448 1-1 1s-1-0.448-1-1c0-7.91 6.365-14.333 14.333-14.333 4.744 0 8.296 1.981 10.642 3.939 0.655 0.547 1.219 1.093 1.691 1.597v-3.789c0-0.552 0.448-1 1-1s1 0.448 1 1v6.667c0 0.552-0.448 1-1 1h-5.92c-0.552 0-1-0.448-1-1s0.448-1 1-1h3.919c-0.498-0.577-1.155-1.258-1.971-1.939-2.097-1.749-5.211-3.475-9.361-3.475zM29.333 15c0.552 0 1 0.448 1 1 0 7.912-6.421 14.333-14.333 14.333-4.027 0-7.221-2.027-9.358-3.966-0.567-0.515-1.067-1.029-1.495-1.507v3.726c0 0.552-0.448 1-1 1s-1-0.448-1-1v-6.667c0-0.552 0.448-1 1-1h6.027c0.552 0 1 0.448 1 1s-0.448 1-1 1h-4.057c0.481 0.585 1.108 1.276 1.869 1.966 1.949 1.768 4.682 3.447 8.015 3.447 6.808 0 12.333-5.526 12.333-12.333 0-0.552 0.448-1 1-1z"></path>
</svg>
