<!-- Generated by IcoMoon.io -->
<svg version="1.1" xmlns="http://www.w3.org/2000/svg" width="36" height="32" viewBox="0 0 36 32">
<title>responsabilitecivil</title>
<path d="M25.701 22.937l-0.78-0.78 3.687-3.687c0.378-0.378 0.378-0.992 0-1.37s-0.992-0.378-1.37 0l-3.687 3.687-0.78-0.78 3.687-3.687c0.392-0.392 0.912-0.607 1.465-0.607s1.074 0.216 1.465 0.607c0.392 0.392 0.607 0.911 0.607 1.465s-0.216 1.074-0.607 1.465l-3.688 3.686z"></path>
<path d="M24.989 30.666l-1.103-0.044 0.067-1.675c0.035-0.872 0.394-1.692 1.011-2.309l4.641-4.641c0.514-0.514 0.899-1.152 1.114-1.846l2.956-9.549c0.158-0.51-0.129-1.054-0.639-1.212-0.247-0.077-0.51-0.052-0.739 0.068s-0.397 0.323-0.474 0.57l-1.844 5.956-1.054-0.326 1.844-5.956c0.163-0.529 0.523-0.962 1.013-1.22s1.050-0.31 1.579-0.146c0.529 0.163 0.962 0.523 1.22 1.013s0.31 1.050 0.146 1.579l-2.956 9.549c-0.268 0.865-0.748 1.66-1.387 2.3l-4.641 4.641c-0.421 0.421-0.665 0.979-0.689 1.574l-0.067 1.675 0.001-0.001z"></path>
<path d="M19.722 29.537l-1.102-0.055 0.185-3.759c0.005-0.099 0-0.195-0.013-0.284-0.078-0.517-0.124-1.876 1.123-3.341 0.648-0.761 1.291-1.116 1.859-1.429 0.381-0.21 0.709-0.392 0.987-0.67l0.78 0.78c-0.388 0.388-0.819 0.625-1.234 0.855-0.509 0.281-1.035 0.572-1.553 1.179-0.98 1.151-0.916 2.175-0.872 2.461 0.024 0.161 0.033 0.33 0.024 0.503l-0.185 3.759 0.001 0.001z"></path>
<path d="M10.256 22.939l-3.687-3.687c-0.392-0.392-0.607-0.911-0.607-1.465s0.216-1.074 0.607-1.465c0.808-0.808 2.122-0.808 2.93 0l3.687 3.687-0.78 0.78-3.687-3.687c-0.378-0.378-0.992-0.378-1.37 0-0.183 0.183-0.283 0.426-0.283 0.685s0.101 0.502 0.283 0.685l3.687 3.687-0.78 0.78v0.001z"></path>
<path d="M10.968 30.667l-0.067-1.675c-0.023-0.594-0.268-1.153-0.689-1.574l-4.641-4.641c-0.64-0.64-1.12-1.435-1.387-2.3l-2.956-9.55c-0.338-1.092 0.275-2.254 1.367-2.592 0.529-0.163 1.090-0.112 1.579 0.146s0.85 0.692 1.013 1.22l1.844 5.956-1.054 0.326-1.844-5.956c-0.077-0.247-0.245-0.45-0.474-0.57s-0.491-0.145-0.739-0.068c-0.51 0.158-0.797 0.702-0.639 1.212l2.956 9.549c0.215 0.694 0.6 1.332 1.114 1.846l4.641 4.641c0.617 0.617 0.976 1.438 1.011 2.309l0.067 1.675-1.103 0.044 0.001 0.001z"></path>
<path d="M16.236 29.537l-0.185-3.759c-0.008-0.172 0-0.341 0.024-0.503 0.043-0.286 0.108-1.31-0.872-2.461-0.518-0.607-1.044-0.898-1.553-1.179-0.416-0.23-0.846-0.467-1.234-0.855l0.78-0.78c0.278 0.278 0.607 0.459 0.987 0.67 0.567 0.313 1.211 0.669 1.859 1.429 1.247 1.465 1.201 2.824 1.123 3.341-0.013 0.089-0.018 0.185-0.013 0.284l0.185 3.759-1.101 0.054z"></path>
<path d="M17.831 9.758c-2.322 0-4.212-1.889-4.212-4.212s1.889-4.212 4.212-4.212c2.322 0 4.212 1.889 4.212 4.212s-1.889 4.212-4.212 4.212v0.001zM17.831 2.437c-1.714 0-3.109 1.394-3.109 3.108s1.394 3.108 3.109 3.108c1.714 0 3.109-1.394 3.109-3.108s-1.394-3.108-3.109-3.108z"></path>
<path d="M23.48 16.572h-1.103v-3.557c0-0.868-0.706-1.575-1.575-1.575h-2.97v-1.103h2.97c1.476 0 2.678 1.201 2.678 2.678v3.557z"></path>
<path d="M13.287 16.572h-1.103v-3.557c0-1.476 1.201-2.678 2.678-2.678h2.97v1.103h-2.97c-0.868 0-1.575 0.706-1.575 1.575v3.557z"></path>
</svg>
