<!-- Generated by IcoMoon.io -->
<svg version="1.1" xmlns="http://www.w3.org/2000/svg" width="31" height="32" viewBox="0 0 31 32">
<path d="M5.447 13.627c0.022-0.028 0.043-0.056 0.065-0.085 0.012 0.006 0.021 0.009 0.025 0.011l0.003 0.001h-0.004v7.629c0 0.108 0 0.216 0.012 0.323 0.036 0.275 0.252 0.479 0.515 0.515s0.539-0.12 0.623-0.371c0.048-0.12 0.060-0.275 0.060-0.407v-4.731h5.030v12.504c0 0.084 0 0.156-0.012 0.24-0.060 0.419-0.347 0.743-0.755 0.838-0.383 0.084-0.814-0.072-1.006-0.431-0.096-0.192-0.144-0.443-0.144-0.659-0.012-2.803-0.012-5.605-0.012-8.408v0c0-0.108 0-0.216-0.012-0.323-0.048-0.347-0.311-0.551-0.647-0.527-0.347 0.024-0.539 0.275-0.539 0.695v8.504c0 0.719-0.359 1.162-0.946 1.174s-0.958-0.431-0.958-1.15v-2.659c0-0.407-0.263-0.671-0.611-0.671-0.347 0.012-0.587 0.263-0.587 0.659-0.012 0.982-0.012 1.976 0 2.958 0.012 0.958 0.731 1.809 1.665 2.012 0.779 0.168 1.449-0.060 2.036-0.599 0.084 0.072 0.156 0.132 0.24 0.192 0.503 0.371 1.054 0.527 1.665 0.419 1.114-0.192 1.821-1.066 1.821-2.252v-17.151c0.054 0.048 0.090 0.084 0.118 0.112v0c0.028 0.028 0.049 0.049 0.073 0.067 0.14 0.128 0.277 0.258 0.414 0.389v0c0.274 0.261 0.548 0.522 0.844 0.761 0.192 0.156 0.287 0.275 0.287 0.527 0 2.982 0 5.965 0.012 8.947 0 0.515 0.204 0.731 0.719 0.731h0.659c0 0.084 0 0.132-0.012 0.18-0.241 1.247-0.486 2.489-0.731 3.731v0c-0.204 1.037-0.409 2.072-0.61 3.108-0.12 0.599 0.108 0.886 0.707 0.886h2.395c0.443 0 0.635-0.144 0.719-0.587 0.275-1.389 0.551-2.789 0.826-4.189v0-0.002c0.204-1.030 0.407-2.060 0.611-3.102h5.33c0.144 0.695 0.275 1.377 0.407 2.060 0.155 0.785 0.307 1.568 0.46 2.35 0.189 0.971 0.378 1.939 0.57 2.908 0.084 0.395 0.287 0.575 0.683 0.575 0.279 0 0.559 0.001 0.839 0.003h0.001c0.564 0.003 1.132 0.005 1.699-0.003 0.467-0.012 0.707-0.323 0.623-0.779-0.168-0.91-0.347-1.821-0.527-2.731-0.287-1.449-0.575-2.91-0.862-4.395h0.671c0.551 0 0.755-0.216 0.755-0.767v-18.828c0-0.563-0.204-0.767-0.779-0.767h-5.138v-1.665c0-0.515-0.228-0.731-0.731-0.731h-2.479c-0.695 0-0.862 0.156-0.862 0.862v1.533h-5.162c-0.599 0-0.791 0.192-0.791 0.79v4.096c-0.14-0.113-0.275-0.226-0.409-0.339v0c-0.334-0.281-0.657-0.553-1.017-0.775-0.353-0.224-0.749-0.392-1.139-0.557-0.153-0.065-0.306-0.13-0.454-0.197 1.15-1.437 0.79-3.677-0.371-4.647-1.15-0.97-2.779-1.018-3.964-0.084-0.587 0.455-0.97 1.054-1.102 1.773-0.204 1.114-0.048 2.156 0.707 3.042-0.009 0.013-0.014 0.023-0.018 0.030v0c-0.007 0.013-0.010 0.018-0.018 0.018-0.042 0.018-0.084 0.033-0.126 0.048s-0.084 0.030-0.126 0.048c-1.078 0.395-1.964 1.042-2.563 2.012-1.1 1.796-2.183 3.609-3.263 5.418v0l-0.606 1.014c-0.275 0.443-0.311 0.934-0.132 1.437 0.228 0.647 0.695 1.042 1.365 1.162 0.707 0.12 1.305-0.12 1.737-0.695 0.545-0.72 1.082-1.455 1.618-2.187v0c0.159-0.217 0.318-0.435 0.477-0.652 0.042-0.067 0.089-0.127 0.138-0.191zM15.968 4.284h13.498v15.534h-13.522v-6.192c0.779-0.036 1.341-0.467 1.88-0.958 0.213-0.199 0.431-0.387 0.647-0.574 0.161-0.139 0.321-0.277 0.479-0.42 0.779-0.707 0.886-1.773 0.252-2.551s-1.689-0.886-2.551-0.264c-0.087 0.063-0.172 0.124-0.26 0.186v0c-0.13 0.093-0.266 0.19-0.423 0.305v-5.066zM11.8 14.931v0.359h-5.018v-3.497c0-0.419-0.132-0.647-0.431-0.743-0.275-0.084-0.515 0.024-0.755 0.347-1.066 1.461-2.144 2.922-3.222 4.383v0c-0.010 0.014-0.020 0.029-0.031 0.044-0.050 0.072-0.103 0.148-0.173 0.208-0.204 0.192-0.515 0.204-0.719 0.036-0.216-0.18-0.287-0.407-0.18-0.671 0.016-0.056 0.043-0.101 0.069-0.146 0.013-0.023 0.027-0.045 0.039-0.069 0.432-0.719 0.861-1.438 1.29-2.156v0c0.771-1.292 1.542-2.583 2.327-3.868 0.826-1.365 2.072-1.988 3.701-1.976v1.234c0 0.080-0.001 0.16-0.003 0.24v0c-0.003 0.16-0.005 0.319 0.003 0.479 0.012 0.371 0.252 0.623 0.587 0.623s0.599-0.252 0.611-0.611c0.008-0.376 0.005-0.757 0.003-1.136-0.001-0.189-0.003-0.378-0.003-0.565v-0.24c0.563-0.060 1.114-0.012 1.653 0.132 0.731 0.204 1.353 0.575 1.892 1.102l1.988 1.988c0.335 0.335 0.587 0.359 0.97 0.084 0.162-0.114 0.323-0.234 0.485-0.353s0.323-0.24 0.485-0.353c0.335-0.228 0.659-0.204 0.886 0.060 0.228 0.275 0.192 0.623-0.108 0.898-0.121 0.106-0.241 0.213-0.361 0.319l-0.003 0.003c-0.378 0.335-0.755 0.669-1.145 0.995-0.563 0.467-1.258 0.443-1.785-0.072-0.647-0.635-1.281-1.281-1.916-1.928v0c-0.228-0.216-0.467-0.347-0.778-0.216s-0.359 0.395-0.359 0.695v4.372zM15.968 21.052h13.498v1.15h-13.498v-1.15zM8.363 5.757c-0.647-0.359-0.982-0.982-0.982-1.689-0.012-0.934 0.287-1.569 1.006-1.964 0.635-0.347 1.282-0.323 1.904 0.060 0.898 0.563 1.198 1.928 0.623 2.898-0.527 0.886-1.653 1.198-2.551 0.695zM27.634 28.827c-0.348-1.789-0.697-3.587-1.054-5.392h1.437l0.251 1.293v0.001c0.348 1.788 0.697 3.585 1.054 5.389h-1.437l-0.251-1.291zM18.142 26.783c-0.219 1.111-0.437 2.222-0.653 3.336h-1.437c0.216-1.114 0.434-2.225 0.653-3.336s0.437-2.222 0.653-3.336h1.437c-0.215 1.113-0.434 2.223-0.652 3.334v0.002zM21.897 3.050v-1.174h1.629v1.174h-1.629zM6.195 24.441c0.311-0.012 0.587-0.299 0.575-0.611-0.012-0.323-0.299-0.599-0.635-0.587-0.323 0.012-0.563 0.287-0.563 0.611 0.012 0.335 0.287 0.599 0.623 0.587zM20.843 13.83v-1.293c0-0.479 0.216-0.683 0.695-0.695h2.168v-0.958c0.012-0.395 0.239-0.635 0.635-0.635 0.922-0.012 1.856-0.012 2.779 0 0.431 0 0.647 0.252 0.647 0.719v5.773c0 0.068 0.001 0.135 0.003 0.202v0c0.003 0.132 0.005 0.262-0.003 0.397-0.024 0.359-0.24 0.587-0.611 0.611h-8.408c-0.599 0-0.803-0.192-0.803-0.779v-2.635c0-0.515 0.204-0.719 0.731-0.719 0.719 0.012 1.413 0.012 2.168 0.012zM26.568 16.752v-5.282h-1.629v5.282h1.629zM23.693 16.752v-3.689h-1.641v3.689h1.641zM20.819 16.752v-1.701h-1.641v1.701h1.641zM27.131 5.457h-6.132c-0.383 0-0.635 0.252-0.635 0.599s0.24 0.599 0.611 0.599h6.192c0.263 0 0.455-0.132 0.563-0.371 0.18-0.407-0.12-0.826-0.599-0.826zM24.484 7.853h2.575c0.443 0 0.731 0.252 0.731 0.611-0.012 0.359-0.287 0.587-0.719 0.587h-5.174c-0.443 0-0.731-0.252-0.731-0.611 0.012-0.359 0.287-0.587 0.719-0.587h2.599zM18.555 5.457c-0.335 0.012-0.587 0.275-0.587 0.599 0 0.335 0.264 0.611 0.611 0.599 0.311-0.012 0.587-0.287 0.587-0.599 0-0.323-0.287-0.599-0.611-0.599z"></path>
</svg>
