<!-- Generated by IcoMoon.io -->
<svg version="1.1" xmlns="http://www.w3.org/2000/svg" width="32" height="32" viewBox="0 0 32 32">
<path d="M16 7.2c-1.304 0-2.487 0.209-3.567 0.531-0.529 0.158-1.086-0.143-1.244-0.672s0.143-1.086 0.672-1.244c1.24-0.371 2.617-0.615 4.14-0.615 6.939 0 12.56 5.621 12.56 12.56s-5.621 12.56-12.56 12.56c-6.939 0-12.56-5.621-12.56-12.56 0-2.578 0.783-4.983 2.115-6.981 0.306-0.46 0.927-0.584 1.387-0.277s0.584 0.927 0.277 1.387c-1.121 1.682-1.779 3.703-1.779 5.872 0 5.834 4.726 10.56 10.56 10.56s10.56-4.726 10.56-10.56c0-5.834-4.726-10.56-10.56-10.56z"></path>
<path d="M15.003 1.912c0.417 0.363 0.46 0.994 0.098 1.411l-3.853 4.427c-0.363 0.417-0.994 0.46-1.411 0.098s-0.46-0.994-0.098-1.411l3.853-4.427c0.363-0.417 0.994-0.46 1.411-0.098z"></path>
<path d="M9.686 6.504c0.326-0.446 0.951-0.544 1.397-0.218l4.493 3.28c0.446 0.326 0.544 0.951 0.218 1.397s-0.951 0.544-1.397 0.218l-4.493-3.28c-0.446-0.326-0.544-0.951-0.218-1.397z"></path>
</svg>
