<!-- Generated by IcoMoon.io -->
<svg version="1.1" xmlns="http://www.w3.org/2000/svg" width="32" height="32" viewBox="0 0 32 32">
<path d="M3.44 17.76c0-6.939 5.621-12.56 12.56-12.56 1.523 0 2.899 0.245 4.14 0.615 0.529 0.158 0.83 0.715 0.672 1.244s-0.715 0.83-1.245 0.672c-1.080-0.323-2.263-0.531-3.567-0.531-5.834 0-10.56 4.726-10.56 10.56 0 5.849 4.726 10.573 10.56 10.573s10.56-4.726 10.56-10.56c0-2.169-0.657-4.19-1.779-5.872-0.306-0.46-0.182-1.080 0.277-1.387s1.080-0.182 1.387 0.277c1.332 1.998 2.115 4.403 2.115 6.981 0 6.939-5.621 12.56-12.56 12.56s-12.56-5.622-12.56-12.573z"></path>
<path d="M16.997 1.912c0.417-0.363 1.048-0.319 1.411 0.098l3.853 4.427c0.363 0.417 0.319 1.048-0.098 1.411s-1.048 0.319-1.411-0.098l-3.853-4.427c-0.363-0.417-0.319-1.048 0.098-1.411z"></path>
<path d="M22.315 6.504c0.326 0.446 0.228 1.072-0.218 1.397l-4.493 3.28c-0.446 0.326-1.072 0.228-1.397-0.218s-0.228-1.072 0.218-1.397l4.493-3.28c0.446-0.326 1.072-0.228 1.397 0.218z"></path>
</svg>
