<!-- Generated by IcoMoon.io -->
<svg version="1.1" xmlns="http://www.w3.org/2000/svg" width="32" height="32" viewBox="0 0 32 32">
<title>Search</title>
<path d="M20.543 23.151c-5.571 3.881-13.034 2.488-16.915-2.75-3.785-5.107-3.095-12.154 1.607-16.451 4.642-4.238 11.761-4.25 16.463-0.048 4.833 4.321 5.583 11.82 1.238 17.070 0.059 0.060 0.107 0.131 0.167 0.19 2.321 2.416 4.642 4.833 6.964 7.249 0.607 0.631 0.714 1.417 0.298 2.083-0.571 0.893-1.774 1-2.535 0.214-0.964-0.988-1.916-1.988-2.869-2.976-1.417-1.476-2.833-2.94-4.25-4.416-0.048-0.060-0.107-0.107-0.167-0.167zM13.496 22.151c5.035-0.012 9.106-4.095 9.082-9.118-0.024-5.035-4.095-9.082-9.118-9.071-5.011 0.024-9.059 4.107-9.047 9.118s4.095 9.082 9.082 9.071z"></path>
</svg>
