<!-- Generated by IcoMoon.io -->
<svg version="1.1" xmlns="http://www.w3.org/2000/svg" width="32" height="32" viewBox="0 0 32 32">
<path d="M15.333 3.667c-6.443 0-11.667 5.223-11.667 11.667s5.223 11.667 11.667 11.667c6.443 0 11.667-5.223 11.667-11.667s-5.223-11.667-11.667-11.667zM1.667 15.333c0-7.548 6.119-13.667 13.667-13.667s13.667 6.119 13.667 13.667c0 7.548-6.119 13.667-13.667 13.667s-13.667-6.119-13.667-13.667z"></path>
<path d="M25.96 25.96c0.391-0.391 1.024-0.391 1.414 0l2.667 2.667c0.391 0.391 0.391 1.024 0 1.414s-1.024 0.391-1.414 0l-2.667-2.667c-0.391-0.391-0.391-1.024 0-1.414z"></path>
</svg>
