<!-- Generated by IcoMoon.io -->
<svg version="1.1" xmlns="http://www.w3.org/2000/svg" width="32" height="32" viewBox="0 0 32 32">
<path d="M29.002 10.156c0.013 5.138-4.176 9.34-9.314 9.353s-9.34-4.176-9.353-9.314c-0.013-5.151 4.176-9.353 9.327-9.353s9.327 4.176 9.34 9.314zM19.454 18.312c4.384 0.169 8.169-3.382 8.352-7.844 0.182-4.449-3.343-8.26-7.818-8.443-4.501-0.182-8.286 3.33-8.469 7.896-0.182 4.449 3.382 8.208 7.935 8.39zM8.656 18.688v0c0.45-0.149 0.896-0.296 1.354-0.402 1.626-0.377 3.148-0.013 4.553 0.832 0.422 0.253 0.822 0.556 1.221 0.858v0c0.216 0.164 0.432 0.327 0.652 0.482 0.143 0.104 0.299 0.208 0.468 0.26 0.807 0.247 1.613 0.494 2.433 0.702 1.353 0.338 2.199 1.158 2.433 2.602 0.051-0.017 0.102-0.032 0.153-0.046 0.064-0.018 0.127-0.036 0.186-0.058 1.496-0.533 2.992-1.067 4.501-1.6 1.795-0.637 3.668-0.156 4.839 1.236 0.637 0.767 0.455 1.704-0.455 2.12-1.050 0.477-2.098 0.956-3.147 1.436h-0.001c-2.524 1.154-5.048 2.308-7.584 3.429-1.977 0.872-3.981 0.794-5.958-0.065v0c-2.315-1.002-4.631-2.003-6.933-3.005-0.049-0.024-0.097-0.044-0.149-0.064v0c-0.031-0.012-0.064-0.025-0.098-0.040-0.26 0.611-0.663 1.028-1.301 1.184-0.169 0.039-0.338 0.052-0.507 0.052h-3.187c-1.171 0.026-1.951-0.742-1.951-1.886v-8.39c0-1.327 1.093-2.159 2.381-1.834 0.513 0.131 1.023 0.263 1.533 0.396h0.001c0.809 0.21 1.615 0.419 2.421 0.619 0.78 0.195 1.275 0.663 1.496 1.392 0.219-0.067 0.435-0.139 0.65-0.21zM12.494 23.75h0.13c1.216 0.215 2.429 0.433 3.642 0.65v0c1.213 0.218 2.426 0.436 3.642 0.65 0.403 0.065 0.546-0.039 0.624-0.442 0.156-0.898-0.312-1.678-1.184-1.938-0.461-0.139-0.922-0.273-1.381-0.407v0c-0.526-0.153-1.051-0.305-1.571-0.465-0.234-0.078-0.468-0.221-0.663-0.364-0.229-0.16-0.45-0.331-0.671-0.502-0.318-0.246-0.636-0.493-0.981-0.708-1.028-0.637-2.146-1.015-3.395-0.845-0.911 0.117-1.756 0.442-2.576 0.859-0.091 0.052-0.169 0.208-0.182 0.325-0.111 0.885-0.215 1.772-0.319 2.66s-0.208 1.776-0.319 2.66c-0.026 0.221 0.052 0.299 0.234 0.377 2.394 1.028 4.787 2.055 7.181 3.109 1.795 0.78 3.564 0.793 5.347-0.026 1.71-0.78 3.424-1.561 5.138-2.341l0.003-0.001c1.713-0.78 3.426-1.56 5.136-2.341 0.104-0.052 0.208-0.104 0.312-0.169-0.030-0.046-0.052-0.082-0.070-0.113-0.013-0.022-0.023-0.040-0.034-0.056-0.78-0.963-2.133-1.366-3.356-0.963-1.413 0.481-2.819 0.985-4.223 1.489v0 0c-0.418 0.15-0.835 0.3-1.253 0.449-0.104 0.039-0.195 0.13-0.26 0.221-0.416 0.598-0.976 0.82-1.691 0.69-1.873-0.338-3.746-0.677-5.62-1.002-0.515-0.088-1.029-0.184-1.551-0.283l-0.296-0.056c0.065-0.377 0.13-0.741 0.208-1.119zM1.359 22.514v4.124c0 0.572 0.234 0.806 0.82 0.806h2.927c0.676 0 0.859-0.169 0.937-0.845 0.145-1.241 0.286-2.483 0.427-3.726v0c0.125-1.102 0.251-2.205 0.379-3.311 0.065-0.546-0.091-0.767-0.637-0.91-1.288-0.338-2.576-0.677-3.864-1.002-0.637-0.169-0.989 0.104-0.989 0.767v4.098zM20.26 15.724v-1.106c0.13-0.013 0.195-0.013 0.273-0.013 1.327-0.104 2.276-1.067 2.341-2.342 0.065-1.236-0.832-2.303-2.12-2.511l-1.99-0.312c-0.728-0.117-1.171-0.689-1.093-1.405 0.078-0.702 0.663-1.145 1.405-1.080 0.243 0.023 0.475 0.056 0.715 0.091 0.030 0.004 0.061 0.009 0.091 0.013v0c0.637 0.091 1.275 0.182 1.938 0.273 0.065-0.416 0.117-0.78 0.169-1.171-0.253-0.038-0.497-0.075-0.738-0.11-0.329-0.049-0.654-0.097-0.992-0.15v-1.275h-1.197v1.093c-0.054 0.006-0.099 0.009-0.141 0.012-0.050 0.004-0.096 0.007-0.145 0.014-1.34 0.13-2.289 1.119-2.315 2.407-0.026 1.236 0.885 2.263 2.185 2.459 0.663 0.091 1.327 0.195 1.99 0.312 0.65 0.117 1.093 0.689 1.041 1.327-0.065 0.676-0.598 1.171-1.288 1.145-0.227-0.010-0.447-0.042-0.664-0.074-0.069-0.010-0.138-0.020-0.207-0.030-0.309-0.042-0.618-0.088-0.929-0.133-0.356-0.052-0.713-0.104-1.075-0.153-0.065 0.403-0.117 0.78-0.169 1.171 0.473 0.063 0.928 0.134 1.394 0.208 0.111 0.017 0.223 0.035 0.336 0.053v1.288h1.184z"></path>
</svg>
