<!-- Generated by IcoMoon.io -->
<svg version="1.1" xmlns="http://www.w3.org/2000/svg" width="40" height="32" viewBox="0 0 40 32">
<path fill="#fff" d="M23.701 17.759c0.354-1.279 0.673-2.525 1.010-3.771 0.421-1.515 1.498-2.407 3.114-2.575 1.33-0.135 2.66 0.606 3.333 1.902 0.034 0.050 0.050 0.101 0.067 0.101 0.555-0.034 1.094-0.135 1.599-0.067 1.313 0.168 2.256 0.875 2.744 2.121 0.084 0.219 0.168 0.32 0.438 0.337 1.515 0.067 2.626 0.808 3.148 2.239 0.539 1.431 0.219 2.71-0.875 3.771-2.272 2.205-4.562 4.393-6.851 6.598-0.758 0.741-1.65 1.060-2.693 1.060-5.69 0-11.396 0-17.085-0.017-0.32 0-0.488 0.050-0.589 0.404-0.252 0.808-0.976 1.279-1.835 1.296-2.087 0-4.175 0-6.262 0-1.128 0-1.953-0.842-1.953-1.97 0-3.198 0-6.396 0-9.595 0-1.128 0.825-1.969 1.969-1.969 2.104-0.017 4.208-0.017 6.312 0 0.976 0 1.717 0.623 1.936 1.565 0.034 0.118 0.152 0.32 0.219 0.32 0.236 0 0.572-0.017 0.673-0.151 0.741-1.178 1.818-1.616 3.165-1.582 2.643 0.034 5.269 0.017 7.911 0.017 0.151-0.034 0.303-0.034 0.505-0.034zM11.211 26.849c0.185 0 0.337 0 0.488 0 5.605 0 11.211 0 16.833 0 0.488 0 0.858-0.151 1.195-0.488 2.138-2.087 4.276-4.174 6.43-6.245 0.135-0.135 0.269-0.252 0.387-0.387 0.202-0.253 0.236-0.539 0.084-0.825-0.168-0.286-0.455-0.404-0.758-0.32-0.219 0.051-0.438 0.202-0.606 0.354-1.7 1.599-3.4 3.215-5.1 4.831-0.555 0.539-1.195 0.892-1.986 0.892-3.4 0.017-6.817 0-10.217 0-0.488 0-0.858-0.236-1.111-0.64-0.269-0.421-0.269-0.875-0.034-1.313 0.269-0.505 0.724-0.724 1.279-0.724 2.239 0 4.494 0 6.733 0 0.522 0 0.572-0.051 0.572-0.572 0-0.051 0-0.118 0-0.168 0-0.707-0.017-0.724-0.69-0.724-2.239 0-4.494 0-6.733 0-0.993 0-1.986 0-2.979 0-0.303 0-0.505 0.101-0.572 0.421-0.185 0.976-0.589 1.313-1.565 1.313-0.539 0-1.077 0-1.633 0-0.017 1.549-0.017 3.047-0.017 4.595zM3.738 20.318c0 2.71 0 5.42 0 8.096 1.599 0 3.165 0 4.73 0 0-2.71 0-5.403 0-8.096-1.582 0-3.148 0-4.73 0zM27.169 18.584c0.909-1.060 1.347-2.289 1.599-3.602 0.084-0.404-0.202-0.623-0.522-0.757-0.32-0.152-0.623-0.067-0.825 0.185-0.118 0.135-0.101 0.37-0.152 0.556-0.252 0.943-0.522 1.885-0.774 2.828-0.034 0.118 0 0.303 0.067 0.387 0.185 0.151 0.421 0.269 0.606 0.404zM28.717 21.328c0.017 0.017 0.050 0.034 0.067 0.051 1.313-1.279 2.643-2.558 3.956-3.838 0.067-0.051 0.101-0.135 0.152-0.202 0.303-0.471 0.252-0.926-0.135-1.178-0.404-0.252-0.791-0.135-1.094 0.387-0.926 1.498-1.852 3.013-2.777 4.511-0.084 0.084-0.118 0.185-0.168 0.269z"></path>
<path fill="#fff" d="M17.288 10.874c-1.145 0-1.767-1.094-1.246-2.020 0.69-1.212 1.397-2.39 2.104-3.585 0.741-1.262 1.465-2.508 2.222-3.771 0.337-0.555 0.943-0.774 1.515-0.572 0.606 0.202 1.010 0.757 0.926 1.38-0.034 0.236-0.118 0.454-0.236 0.656-1.397 2.407-2.811 4.814-4.225 7.204-0.269 0.454-0.657 0.69-1.061 0.707z"></path>
<path fill="#fff" d="M17.102 2.189c0 0.757-0.606 1.363-1.347 1.363-0.724 0-1.33-0.623-1.347-1.347 0-0.741 0.623-1.363 1.363-1.363 0.724 0 1.33 0.606 1.33 1.347z"></path>
<path fill="#fff" d="M22.893 10.874c-0.724 0-1.33-0.606-1.33-1.33 0-0.741 0.606-1.363 1.364-1.363 0.724 0 1.33 0.623 1.33 1.347 0 0.741-0.606 1.347-1.363 1.347z"></path>
</svg>
