<!-- Generated by IcoMoon.io -->
<svg version="1.1" xmlns="http://www.w3.org/2000/svg" width="32" height="32" viewBox="0 0 32 32">
<title>send1</title>
<path d="M6.601 12.165l1.16 2.321c0.082 0.163 0.146 0.337 0.195 0.514h6.497c0.552 0 1 0.448 1 1s-0.448 1-1 1h-6.494c-0.049 0.182-0.115 0.36-0.198 0.527l-1.16 2.307c-0.929 1.856-1.399 3.367-1.509 4.512-0.111 1.15 0.148 1.793 0.489 2.135s0.985 0.601 2.135 0.491c1.146-0.109 2.658-0.578 4.517-1.507l11.413-5.707c2.415-1.207 3.287-2.628 3.287-3.759s-0.872-2.551-3.287-3.759l-11.413-5.707c-1.856-0.93-3.367-1.398-4.512-1.508-1.149-0.11-1.793 0.149-2.136 0.492s-0.601 0.987-0.492 2.136c0.109 1.145 0.578 2.655 1.507 4.511zM7.911 3.036c1.481 0.141 3.239 0.72 5.217 1.71l11.413 5.707c2.705 1.353 4.393 3.306 4.393 5.548s-1.688 4.195-4.393 5.548l-11.413 5.707c-1.98 0.99-3.74 1.568-5.222 1.71-1.478 0.141-2.818-0.146-3.74-1.069s-1.207-2.263-1.065-3.74c0.142-1.481 0.721-3.239 1.712-5.216l1.16-2.307c0.058-0.116 0.114-0.341 0.114-0.625s-0.056-0.51-0.114-0.626l-1.16-2.32c-0.99-1.977-1.568-3.735-1.71-5.216-0.141-1.477 0.146-2.817 1.069-3.74s2.263-1.209 3.74-1.069z"></path>
</svg>
