<!-- Generated by IcoMoon.io -->
<svg version="1.1" xmlns="http://www.w3.org/2000/svg" width="32" height="32" viewBox="0 0 32 32">
<path d="M21.503 5.602c2.386-0.795 3.869-0.426 4.591 0.298 0.724 0.725 1.092 2.213 0.303 4.599l-3.773 11.318c-0.612 1.839-1.298 3.14-1.976 3.961-0.681 0.825-1.262 1.064-1.688 1.064s-1.007-0.239-1.688-1.064c-0.678-0.821-1.365-2.123-1.977-3.962l-1.005-3.014 4.671-4.684c0.39-0.391 0.389-1.024-0.002-1.414s-1.024-0.389-1.414 0.002l-4.773 4.787c-0.018 0.018-0.036 0.037-0.052 0.057l-2.537-0.846c-1.839-0.612-3.14-1.298-3.962-1.975-0.825-0.68-1.064-1.26-1.064-1.685s0.239-1.006 1.065-1.688c0.822-0.679 2.124-1.367 3.963-1.982l11.319-3.773zM28.296 11.127c0.891-2.693 0.72-5.132-0.787-6.641-1.508-1.51-3.945-1.68-6.639-0.782l-11.321 3.774c-1.967 0.658-3.521 1.444-4.602 2.337-1.078 0.891-1.79 1.983-1.79 3.229s0.713 2.338 1.791 3.228c1.082 0.892 2.636 1.675 4.603 2.33l2.885 0.962 0.962 2.886c0.655 1.967 1.438 3.521 2.332 4.603 0.891 1.079 1.983 1.791 3.23 1.791s2.34-0.712 3.23-1.791c0.893-1.082 1.677-2.636 2.332-4.603l3.774-11.322z"></path>
</svg>
