<!-- Generated by IcoMoon.io -->
<svg version="1.1" xmlns="http://www.w3.org/2000/svg" width="32" height="32" viewBox="0 0 32 32">
<path d="M21.177 4.104c4.050-1.257 7.845 2.538 6.588 6.588l-5.177 16.68c-1.523 4.87-8.401 4.962-10.021 0.103l-1.527-4.582c-0.325-0.974-1.090-1.739-2.064-2.064l-4.582-1.527c-4.851-1.617-4.785-8.507 0.105-10.021l16.678-5.176zM25.855 10.099c0.78-2.512-1.573-4.864-4.085-4.085l-16.678 5.176c-3.029 0.938-3.076 5.21-0.065 6.214l4.582 1.527c1.571 0.524 2.805 1.757 3.329 3.329l1.527 4.582c1.001 3.004 5.266 2.964 6.214-0.066 0 0 0 0 0 0l5.176-16.677z"></path>
</svg>
