<!-- Generated by IcoMoon.io -->
<svg version="1.1" xmlns="http://www.w3.org/2000/svg" width="32" height="32" viewBox="0 0 32 32">
<title>send2</title>
<path d="M3.667 29.333c0-0.552 0.448-1 1-1h22.667c0.552 0 1 0.448 1 1s-0.448 1-1 1h-22.667c-0.552 0-1-0.448-1-1z"></path>
<path d="M5.96 3.96c0.391-0.391 1.024-0.391 1.414 0l18.667 18.667c0.391 0.391 0.391 1.024 0 1.414s-1.024 0.391-1.414 0l-18.667-18.667c-0.391-0.391-0.391-1.024 0-1.414z"></path>
<path d="M5.667 4.667c0-0.552 0.448-1 1-1h13.693c0.552 0 1 0.448 1 1s-0.448 1-1 1h-12.693v12.693c0 0.552-0.448 1-1 1s-1-0.448-1-1v-13.693z"></path>
</svg>
