<!-- Generated by IcoMoon.io -->
<svg version="1.1" xmlns="http://www.w3.org/2000/svg" width="32" height="32" viewBox="0 0 32 32">
<title>setting-5</title>
<path d="M25.333 13.667c0.552 0 1 0.448 1 1v14.667c0 0.552-0.448 1-1 1s-1-0.448-1-1v-14.667c0-0.552 0.448-1 1-1z"></path>
<path d="M25.333 1.667c0.552 0 1 0.448 1 1v6.667c0 0.552-0.448 1-1 1s-1-0.448-1-1v-6.667c0-0.552 0.448-1 1-1z"></path>
<path d="M16 21.667c0.552 0 1 0.448 1 1v6.667c0 0.552-0.448 1-1 1s-1-0.448-1-1v-6.667c0-0.552 0.448-1 1-1z"></path>
<path d="M16 1.667c0.552 0 1 0.448 1 1v14.667c0 0.552-0.448 1-1 1s-1-0.448-1-1v-14.667c0-0.552 0.448-1 1-1z"></path>
<path d="M6.667 13.667c0.552 0 1 0.448 1 1v14.667c0 0.552-0.448 1-1 1s-1-0.448-1-1v-14.667c0-0.552 0.448-1 1-1z"></path>
<path d="M6.667 1.667c0.552 0 1 0.448 1 1v6.667c0 0.552-0.448 1-1 1s-1-0.448-1-1v-6.667c0-0.552 0.448-1 1-1z"></path>
<path d="M3 14.667c0-0.552 0.448-1 1-1h5.333c0.552 0 1 0.448 1 1s-0.448 1-1 1h-5.333c-0.552 0-1-0.448-1-1z"></path>
<path d="M21.667 14.667c0-0.552 0.448-1 1-1h5.333c0.552 0 1 0.448 1 1s-0.448 1-1 1h-5.333c-0.552 0-1-0.448-1-1z"></path>
<path d="M12.333 17.333c0-0.552 0.448-1 1-1h5.333c0.552 0 1 0.448 1 1s-0.448 1-1 1h-5.333c-0.552 0-1-0.448-1-1z"></path>
</svg>
