<!-- Generated by IcoMoon.io -->
<svg version="1.1" xmlns="http://www.w3.org/2000/svg" width="32" height="32" viewBox="0 0 32 32">
<path fill="none" stroke-linejoin="round" stroke-linecap="round" stroke-miterlimit="4" stroke-width="2" stroke="#000" d="M12.004 5.755l1.695-2.436c0.249-0.358 0.658-0.572 1.094-0.572h2.407c0.435 0 0.842 0.212 1.092 0.568l1.677 2.392M12.004 5.755c-0.462 0.66-1.231 0.983-2.047 0.925M12.004 5.755c-0.465 0.658-1.231 0.986-2.047 0.925M9.957 6.681l-2.999-0.188c-0.428-0.027-0.842 0.154-1.114 0.485l-1.521 1.853c-0.288 0.351-0.378 0.825-0.237 1.258l0.874 2.693M4.96 12.781c0.119 0.384 0.134 0.796 0.049 1.185M4.96 12.781c0.12 0.384 0.135 0.795 0.048 1.189M5.009 13.967c-0.086 0.384-0.27 0.747-0.544 1.041M5.009 13.967l-0.001 0.004M4.465 15.008l-1.981 2.131c-0.305 0.328-0.425 0.786-0.32 1.221l0.537 2.224c0.105 0.433 0.419 0.786 0.837 0.939l2.722 0.998c0.38 0.147 0.708 0.386 0.956 0.687M4.465 15.008c0.275-0.291 0.458-0.653 0.543-1.037M7.217 23.208c0.247 0.302 0.415 0.666 0.48 1.061M7.217 23.208c0.249 0.302 0.417 0.665 0.48 1.061M7.217 23.208l-0.004-0.004c-0.016-0.020-0.034-0.040-0.051-0.059M7.697 24.268l0.464 2.847c0.071 0.436 0.354 0.809 0.755 0.995l2.171 1.008c0.388 0.18 0.839 0.163 1.212-0.046l2.552-1.428M14.85 27.645c0.353-0.199 0.748-0.298 1.142-0.299M14.85 27.645c0.14-0.080 0.287-0.143 0.437-0.191 0.229-0.073 0.467-0.108 0.705-0.108M15.992 27.347c0.205 0 0.41 0.028 0.61 0.081 0.186 0.050 0.367 0.122 0.538 0.217M15.992 27.347c0.396-0.001 0.793 0.099 1.149 0.299M17.141 27.645l2.671 1.446c0.375 0.203 0.825 0.214 1.209 0.031l2.16-1.032c0.399-0.191 0.678-0.567 0.744-1.005l0.415-2.767M24.341 24.319c0.062-0.397 0.228-0.764 0.474-1.068M24.341 24.319c0.060-0.398 0.227-0.764 0.474-1.068M24.815 23.25c0.244-0.301 0.569-0.542 0.946-0.69M24.815 23.25c0.244-0.303 0.567-0.543 0.946-0.69M25.761 22.56l2.751-1.078c0.411-0.161 0.715-0.515 0.813-0.945l0.514-2.251c0.098-0.429-0.022-0.878-0.32-1.202l-1.993-2.158M27.526 14.927c-0.279-0.295-0.473-0.647-0.568-1.022M27.526 14.927c-0.131-0.138-0.243-0.288-0.335-0.448-0.104-0.181-0.183-0.374-0.233-0.574M26.958 13.905c-0.093-0.372-0.087-0.766 0.030-1.147l0.862-2.764c0.134-0.429 0.043-0.897-0.243-1.244l-1.483-1.804c-0.275-0.335-0.695-0.515-1.127-0.483l-2.964 0.217M22.033 6.681c-0.406 0.029-0.805-0.049-1.16-0.215M22.033 6.681c-0.406 0.030-0.805-0.048-1.16-0.215M20.873 6.466c-0.357-0.168-0.671-0.427-0.904-0.757M20.873 6.466c-0.358-0.168-0.672-0.426-0.904-0.757M5.009 13.971l0.001-0.006M20.511 16.095c0 2.487-2.061 4.502-4.603 4.502s-4.603-2.016-4.603-4.502c0-2.487 2.061-4.502 4.603-4.502s4.603 2.016 4.603 4.502z"></path>
</svg>
