<!-- Generated by IcoMoon.io -->
<svg version="1.1" xmlns="http://www.w3.org/2000/svg" width="32" height="32" viewBox="0 0 32 32">
<title>setting-2</title>
<path d="M16 13c-1.657 0-3 1.343-3 3s1.343 3 3 3c1.657 0 3-1.343 3-3s-1.343-3-3-3zM11 16c0-2.761 2.239-5 5-5s5 2.239 5 5c0 2.761-2.239 5-5 5s-5-2.239-5-5z"></path>
<path d="M12.805 5.027c-0.357-0.595-1.108-0.78-1.667-0.447l-0.015 0.009-2.307 1.32c-0.73 0.417-0.982 1.363-0.564 2.085l-0.866 0.5 0.865-0.501c0.713 1.231 0.905 2.58 0.268 3.686s-1.9 1.616-3.32 1.616c-0.844 0-1.533 0.696-1.533 1.533v2.347c0 0.838 0.689 1.533 1.533 1.533 1.42 0 2.683 0.51 3.32 1.616s0.446 2.455-0.268 3.685c-0.417 0.722-0.166 1.667 0.564 2.084l2.322 1.329c0.558 0.332 1.31 0.147 1.667-0.447l0.143-0.247c0.713-1.231 1.788-2.069 3.064-2.069 1.277 0 2.348 0.839 3.055 2.071 0 0.001 0.001 0.001 0.001 0.002l0.141 0.244c0.357 0.595 1.109 0.779 1.667 0.447l0.015-0.009 2.307-1.32c0.728-0.416 0.983-1.348 0.563-2.087-0.712-1.23-0.903-2.578-0.266-3.683s1.9-1.616 3.32-1.616c0.844 0 1.533-0.695 1.533-1.533v-2.347c0-0.844-0.695-1.533-1.533-1.533-1.42 0-2.683-0.51-3.32-1.616s-0.446-2.454 0.267-3.685c0.417-0.722 0.166-1.667-0.564-2.084l-2.322-1.329c-0.558-0.332-1.31-0.147-1.667 0.447l-0.143 0.247c-0.713 1.23-1.788 2.069-3.064 2.069s-2.348-0.839-3.055-2.071c-0-0.001-0.001-0.001-0.001-0.002l-0.141-0.244zM10.123 2.856c1.546-0.914 3.507-0.353 4.403 1.153l0.006 0.010 0.149 0.257c0.493 0.861 1.008 1.067 1.321 1.067 0.314 0 0.833-0.208 1.333-1.071 0 0 0-0 0 0l0.153-0.264c0.896-1.506 2.857-2.067 4.403-1.153l2.299 1.316c1.697 0.97 2.272 3.144 1.303 4.822l-0.001 0.001c-0.5 0.862-0.421 1.413-0.265 1.684s0.593 0.614 1.587 0.614c1.935 0 3.533 1.578 3.533 3.533v2.347c0 1.936-1.578 3.533-3.533 3.533-0.994 0-1.431 0.343-1.587 0.614s-0.235 0.822 0.265 1.684l0.003 0.005c0.964 1.687 0.393 3.847-1.305 4.817-0 0 0-0 0 0l-2.3 1.316c-1.546 0.914-3.507 0.353-4.403-1.153l-0.006-0.010-0.149-0.257c-0.493-0.861-1.008-1.067-1.321-1.067-0.314 0-0.833 0.209-1.333 1.071-0 0 0-0 0 0l-0.153 0.264c-0.896 1.506-2.857 2.067-4.403 1.153l-2.3-1.316c-0-0 0 0 0 0-1.696-0.97-2.272-3.145-1.303-4.822l0.001-0.001c0.5-0.862 0.421-1.413 0.265-1.684s-0.593-0.614-1.587-0.614c-1.956 0-3.533-1.598-3.533-3.533v-2.347c0-1.935 1.578-3.533 3.533-3.533 0.994 0 1.431-0.343 1.587-0.614s0.234-0.822-0.265-1.684l-0.001-0.001c-0.969-1.677-0.394-3.852 1.303-4.822l2.3-1.316z"></path>
</svg>
