<!-- Generated by IcoMoon.io -->
<svg version="1.1" xmlns="http://www.w3.org/2000/svg" width="32" height="32" viewBox="0 0 32 32">
<path d="M15.667 4.667c-6.075 0-11 4.925-11 11s4.925 11 11 11c6.075 0 11-4.925 11-11s-4.925-11-11-11zM2.667 15.667c0-7.18 5.82-13 13-13s13 5.82 13 13c0 7.18-5.82 13-13 13s-13-5.82-13-13z"></path>
<path d="M11.219 9.173c0.494-0.247 1.095-0.047 1.342 0.447l4 8c0.247 0.494 0.047 1.095-0.447 1.342s-1.095 0.047-1.342-0.447l-4-8c-0.247-0.494-0.047-1.095 0.447-1.342z"></path>
<path d="M7.469 18.068c0-0.552 0.448-1 1-1h14.4c0.552 0 1 0.448 1 1s-0.448 1-1 1h-14.4c-0.552 0-1-0.448-1-1z"></path>
</svg>
