<!-- Generated by IcoMoon.io -->
<svg version="1.1" xmlns="http://www.w3.org/2000/svg" width="32" height="32" viewBox="0 0 32 32">
<path d="M12 17.666c1.289 0 2.334 1.045 2.334 2.334v6.666c0 1.289-1.045 2.334-2.334 2.334h-6.666c-1.289 0-2.334-1.045-2.334-2.334v-6.666c0-1.289 1.045-2.334 2.334-2.334h6.666zM23.334 17.666c3.129 0 5.666 2.539 5.666 5.668s-2.537 5.666-5.666 5.666c-3.129 0-5.668-2.537-5.668-5.666s2.538-5.668 5.668-5.668zM5.334 19.666c-0.184 0-0.334 0.15-0.334 0.334v6.666c0 0.184 0.15 0.334 0.334 0.334h6.666c0.184 0 0.334-0.15 0.334-0.334v-6.666c0-0.184-0.15-0.334-0.334-0.334h-6.666zM23.334 19.666c-2.025 0-3.668 1.643-3.668 3.668s1.643 3.666 3.668 3.666c2.024-0 3.666-1.642 3.666-3.666s-1.641-3.668-3.666-3.668zM15.947 2.521c0.333-0.012 0.663 0.062 0.959 0.215s0.547 0.38 0.729 0.658l0.012 0.020 4.924 7.906c0.191 0.284 0.304 0.613 0.326 0.955 0.023 0.352-0.050 0.703-0.213 1.016s-0.41 0.576-0.711 0.76c-0.301 0.183-0.646 0.282-0.998 0.283h-9.885c-0.345 0.013-0.688-0.068-0.992-0.232-0.314-0.169-0.575-0.422-0.754-0.73s-0.268-0.659-0.26-1.016c0.009-0.354 0.114-0.7 0.305-0.998l4.953-7.871c0.161-0.279 0.389-0.513 0.664-0.682 0.284-0.174 0.609-0.271 0.941-0.283zM11.137 12.333h9.709l-4.83-7.754-4.879 7.754z"></path>
</svg>
