<!-- Generated by IcoMoon.io -->
<svg version="1.1" xmlns="http://www.w3.org/2000/svg" width="30" height="32" viewBox="0 0 30 32">
<path fill="none" stroke-linejoin="round" stroke-linecap="round" stroke-miterlimit="4" stroke-width="1.8824" stroke="#000" d="M10.78 17.635l8.571 4.995M19.338 8.851l-8.558 4.995M26.353 6.956c0 2.079-1.685 3.765-3.765 3.765s-3.765-1.685-3.765-3.765c0-2.079 1.685-3.765 3.765-3.765s3.765 1.686 3.765 3.765zM11.294 15.74c0 2.079-1.685 3.765-3.765 3.765s-3.765-1.686-3.765-3.765c0-2.079 1.686-3.765 3.765-3.765s3.765 1.685 3.765 3.765zM26.353 24.524c0 2.079-1.685 3.765-3.765 3.765s-3.765-1.685-3.765-3.765c0-2.079 1.685-3.765 3.765-3.765s3.765 1.686 3.765 3.765z"></path>
</svg>
