<!-- Generated by IcoMoon.io -->
<svg version="1.1" xmlns="http://www.w3.org/2000/svg" width="32" height="32" viewBox="0 0 32 32">
<path d="M20.93 7.535l-4.93-4.93-4.93 4.93-1.302-1.302 6.233-6.233 6.233 6.233z"></path>
<path d="M15.070 1.302h1.86v19.535h-1.86z"></path>
<path d="M25.302 32h-18.605c-1.581 0-2.791-1.209-2.791-2.791v-16.744c0-1.581 1.209-2.791 2.791-2.791h6.512v1.86h-6.512c-0.558 0-0.93 0.372-0.93 0.93v16.744c0 0.558 0.372 0.93 0.93 0.93h18.605c0.558 0 0.93-0.372 0.93-0.93v-16.744c0-0.558-0.372-0.93-0.93-0.93h-6.512v-1.86h6.512c1.581 0 2.791 1.209 2.791 2.791v16.744c0 1.581-1.209 2.791-2.791 2.791z"></path>
</svg>
