<!-- Generated by IcoMoon.io -->
<svg version="1.1" xmlns="http://www.w3.org/2000/svg" width="32" height="32" viewBox="0 0 32 32">
<title>shield-tick</title>
<path d="M16.004 1.663c0.811 0 1.671 0.112 2.379 0.371l0.008 0.003 6.653 2.493c0-0 0 0 0 0 0.996 0.372 1.845 1.12 2.441 1.981s0.996 1.919 0.996 2.982v9.907c0 0.985-0.319 2.050-0.785 2.978s-1.132 1.819-1.923 2.41l-5.731 4.278c-0.001 0.001-0.001 0.001-0.002 0.001-1.144 0.859-2.608 1.259-4.026 1.259s-2.882-0.4-4.026-1.259c-0.001-0.001-0.001-0.001-0.002-0.001l-5.731-4.278c-0.791-0.591-1.457-1.483-1.923-2.41s-0.785-1.992-0.785-2.978v-9.907c0-1.058 0.401-2.113 0.997-2.971s1.443-1.606 2.439-1.978c0-0 0.001-0 0.001-0l6.654-2.507c0.7-0.261 1.557-0.373 2.367-0.373zM14.338 3.91c-0 0-0.001 0-0.001 0l-6.653 2.507c-0.537 0.201-1.082 0.647-1.497 1.245s-0.64 1.263-0.64 1.832v9.907c0 0.588 0.201 1.343 0.572 2.079s0.857 1.351 1.333 1.706zM7.452 23.185l5.736 4.282c0.736 0.553 1.758 0.859 2.826 0.859s2.090-0.306 2.826-0.859l0.003-0.002 5.733-4.28c0.476-0.356 0.964-0.971 1.334-1.707s0.572-1.491 0.572-2.079v-9.907c0-0.577-0.227-1.246-0.641-1.844s-0.959-1.045-1.496-1.246l-6.65-2.492c-0.425-0.154-1.037-0.248-1.69-0.248-0.656 0-1.258 0.095-1.666 0.246z"></path>
<path d="M20.654 11.533c0.391 0.391 0.391 1.024 0 1.414l-5.733 5.733c-0.391 0.391-1.024 0.391-1.414 0l-2.147-2.147c-0.391-0.391-0.391-1.024 0-1.414s1.024-0.39 1.414 0l1.44 1.44 5.026-5.026c0.391-0.391 1.024-0.391 1.414 0z"></path>
</svg>
