<!-- Generated by IcoMoon.io -->
<svg version="1.1" xmlns="http://www.w3.org/2000/svg" width="32" height="32" viewBox="0 0 32 32">
<path d="M10.637 3.2c-1.907 0-3.494 0.461-4.71 1.344-0.538 0.371-1.011 0.845-1.382 1.382-0.883 1.216-1.344 2.803-1.344 4.71v10.726c0 4.659 2.778 7.437 7.437 7.437h9.562v-25.6h-9.562zM16.154 16.678l-3.277 3.277c-0.192 0.192-0.435 0.282-0.678 0.282s-0.486-0.090-0.678-0.282c-0.371-0.371-0.371-0.986 0-1.357l2.586-2.598-2.586-2.598c-0.384-0.371-0.384-0.986 0-1.357s0.986-0.371 1.357 0l3.277 3.277c0.371 0.371 0.371 0.986 0 1.357z"></path>
<path d="M22.118 3.239v25.536c1.574-0.102 2.906-0.55 3.955-1.318 0.538-0.371 1.011-0.845 1.382-1.382 0.883-1.216 1.344-2.803 1.344-4.71v-10.726c0-4.403-2.483-7.13-6.682-7.398z"></path>
</svg>
