<!-- Generated by IcoMoon.io -->
<svg version="1.1" xmlns="http://www.w3.org/2000/svg" width="32" height="32" viewBox="0 0 32 32">
<path fill="none" stroke-linejoin="round" stroke-linecap="round" stroke-miterlimit="4" stroke-width="2.1333" stroke="#000" d="M15.573 29.092h-8.533c-1.885 0-3.413-1.528-3.413-3.413l0-20.48c0-1.885 1.528-3.413 3.413-3.413h15.36c1.885 0 3.413 1.528 3.413 3.413v6.827M9.6 8.612h10.24M9.6 13.732h10.24M19.84 20.493v4.187c0 2.069 2.206 3.967 4.276 3.967s4.258-1.898 4.258-3.967v-5.289c0-1.096-0.63-2.207-2.031-2.207-1.499 0-2.227 1.112-2.227 2.207v5.069M9.6 18.852h5.12"></path>
</svg>
