<!-- Generated by IcoMoon.io -->
<svg version="1.1" xmlns="http://www.w3.org/2000/svg" width="32" height="32" viewBox="0 0 32 32">
<title>slash</title>
<path d="M1.667 16c0-7.912 6.421-14.333 14.333-14.333s14.333 6.421 14.333 14.333c0 7.912-6.421 14.333-14.333 14.333s-14.333-6.421-14.333-14.333zM16 3.667c-6.808 0-12.333 5.526-12.333 12.333s5.526 12.333 12.333 12.333c6.808 0 12.333-5.526 12.333-12.333s-5.526-12.333-12.333-12.333z"></path>
<path d="M25.907 5.96c0.391 0.391 0.391 1.024 0 1.414l-18.667 18.667c-0.391 0.391-1.024 0.391-1.414 0s-0.391-1.024 0-1.414l18.667-18.667c0.391-0.391 1.024-0.391 1.414 0z"></path>
</svg>
