<!-- Generated by IcoMoon.io -->
<svg version="1.1" xmlns="http://www.w3.org/2000/svg" width="32" height="32" viewBox="0 0 32 32">
<path d="M5.955 10.274c0.739-0.759 1.8-1.114 3.205-1.114h7.027c1.406 0 2.463 0.356 3.202 1.114 0.7 0.719 0.964 1.659 1.136 2.447l0.001 0.007 1.133 5.4c0.062 0.295-0.013 0.602-0.202 0.836s-0.475 0.37-0.776 0.37h-16c-0.301 0-0.586-0.136-0.776-0.37s-0.264-0.541-0.202-0.836l1.132-5.395c0.159-0.796 0.42-1.737 1.121-2.458zM7.388 11.669c-0.273 0.281-0.447 0.724-0.594 1.46l-0.002 0.009-0.88 4.195h13.537l-0.88-4.191c-0.162-0.744-0.337-1.189-0.614-1.473-0.238-0.245-0.695-0.509-1.768-0.509h-7.027c-1.075 0-1.534 0.265-1.772 0.509z"></path>
<path d="M4.209 21.148l-0.561 6.101c-0.057 0.556 0.396 1.085 1.032 1.085h1.88c0.211 0 0.32-0.022 0.368-0.037 0.001-0.003 0.003-0.005 0.004-0.008 0.027-0.059 0.053-0.135 0.104-0.291l0.002-0.007 0.202-0.605c0.006-0.018 0.012-0.037 0.019-0.056 0.112-0.333 0.299-0.891 0.75-1.317 0.523-0.493 1.23-0.679 2.085-0.679h5.12c0.828 0 1.537 0.158 2.067 0.647 0.451 0.417 0.642 0.98 0.761 1.331 0.008 0.024 0.016 0.048 0.024 0.070l0.003 0.009 0.197 0.59c0.054 0.152 0.081 0.227 0.112 0.291 0.005 0.010 0.009 0.018 0.013 0.025 0.044 0.014 0.148 0.038 0.357 0.038h1.88c0.624 0 1.082-0.52 1.031-1.095 0-0.001 0-0.001 0-0.002l-0.573-6.087c0-0.001 0-0.001 0-0.002-0.076-0.78-0.175-1.156-0.366-1.383-0.142-0.169-0.51-0.446-1.692-0.446h-12.76c-1.182 0-1.55 0.277-1.692 0.446-0.191 0.227-0.29 0.603-0.366 1.382zM18.363 28.285c0 0 0.004 0.001 0.010 0.005-0.007-0.003-0.010-0.005-0.010-0.005zM3.045 18.478c0.691-0.821 1.777-1.158 3.222-1.158h12.76c1.445 0 2.53 0.336 3.222 1.158 0.642 0.763 0.756 1.753 0.827 2.479v0.003l0.574 6.096c0.161 1.771-1.247 3.277-3.023 3.277h-1.88c-0.673 0-1.276-0.145-1.732-0.578-0.372-0.353-0.534-0.818-0.617-1.056-0.007-0.020-0.013-0.039-0.020-0.056l-0.007-0.020-0.198-0.595c-0.074-0.215-0.119-0.344-0.169-0.449-0.045-0.094-0.072-0.121-0.080-0.129-0.004-0.004-0.031-0.029-0.123-0.056-0.105-0.031-0.286-0.061-0.587-0.061h-5.12c-0.574 0-0.7 0.123-0.712 0.134 0 0 0 0 0 0-0.053 0.050-0.104 0.138-0.247 0.559l-0.198 0.594c-0.005 0.014-0.009 0.029-0.015 0.045-0.080 0.25-0.234 0.732-0.623 1.099-0.461 0.433-1.071 0.57-1.739 0.57h-1.88c-1.762 0-3.202-1.494-3.022-3.283l0.56-6.094c0.071-0.726 0.185-1.716 0.827-2.479z"></path>
<path d="M2.667 15.333c0-0.552 0.448-1 1-1h1c0.552 0 1 0.448 1 1s-0.448 1-1 1h-1c-0.552 0-1-0.448-1-1z"></path>
<path d="M19.667 15.333c0-0.552 0.448-1 1-1h1c0.552 0 1 0.448 1 1s-0.448 1-1 1h-1c-0.552 0-1-0.448-1-1z"></path>
<path d="M5.667 22.333c0-0.552 0.448-1 1-1h3c0.552 0 1 0.448 1 1s-0.448 1-1 1h-3c-0.552 0-1-0.448-1-1z"></path>
<path d="M14.667 22.333c0-0.552 0.448-1 1-1h3c0.552 0 1 0.448 1 1s-0.448 1-1 1h-3c-0.552 0-1-0.448-1-1z"></path>
<path d="M25.324 8.031c-0.832-1.253-2.165-2.050-3.512-2.031-0.552 0.008-0.994 0.462-0.986 1.014s0.462 0.994 1.014 0.986c0.545-0.008 1.29 0.341 1.819 1.139v0l0.005 0.007c0.541 0.802 0.577 1.616 0.364 2.111-0.218 0.507 0.016 1.096 0.523 1.314s1.096-0.016 1.314-0.523c0.533-1.237 0.303-2.767-0.541-4.018z"></path>
<path d="M21.194 2.546c0.067-0.548 0.565-0.939 1.114-0.872 2.398 0.292 4.779 1.78 6.35 4.13 1.57 2.348 2.045 5.112 1.399 7.437-0.148 0.532-0.699 0.843-1.231 0.695s-0.843-0.699-0.695-1.231c0.473-1.702 0.149-3.87-1.135-5.789-1.282-1.917-3.168-3.042-4.93-3.257-0.548-0.067-0.939-0.565-0.872-1.114z"></path>
</svg>
