<!-- Generated by IcoMoon.io -->
<svg version="1.1" xmlns="http://www.w3.org/2000/svg" width="32" height="32" viewBox="0 0 32 32">
<title>smart-car-crush</title>
<path d="M8.646 10.274c0.739-0.759 1.8-1.114 3.205-1.114h7.027c1.407 0 2.463 0.356 3.202 1.114 0.7 0.719 0.965 1.659 1.136 2.447l0.002 0.007 1.133 5.4c0.062 0.295-0.012 0.602-0.202 0.836s-0.475 0.37-0.776 0.37h-16c-0.301 0-0.586-0.136-0.776-0.37s-0.264-0.541-0.202-0.836l1.132-5.395c0.159-0.796 0.42-1.737 1.121-2.458zM10.079 11.669c-0.273 0.281-0.447 0.724-0.594 1.46l-0.002 0.009h-0l-0.88 4.195h13.537l-0.88-4.191c-0.162-0.744-0.337-1.189-0.614-1.473-0.239-0.245-0.695-0.509-1.769-0.509h-7.027c-1.075 0-1.534 0.265-1.772 0.509z"></path>
<path d="M6.899 21.148l-0.561 6.101c-0.057 0.556 0.396 1.085 1.032 1.085h1.88c0.211 0 0.32-0.022 0.368-0.037 0.001-0.003 0.003-0.005 0.004-0.008 0.027-0.059 0.053-0.135 0.104-0.291l0.002-0.007 0.202-0.605c0.006-0.018 0.012-0.037 0.019-0.056 0.112-0.333 0.299-0.891 0.75-1.317 0.523-0.493 1.23-0.679 2.085-0.679h5.12c0.828 0 1.537 0.158 2.067 0.647 0.451 0.417 0.642 0.98 0.762 1.331 0.008 0.024 0.016 0.048 0.024 0.070l0.003 0.009 0.197 0.59c0.054 0.152 0.081 0.227 0.112 0.291 0.005 0.010 0.009 0.018 0.013 0.025 0.044 0.014 0.148 0.038 0.357 0.038h1.88c0.624 0 1.082-0.52 1.031-1.095 0-0.001-0-0.001-0-0.002l-0.573-6.087c0-0.001-0-0.001-0-0.002-0.076-0.78-0.175-1.156-0.366-1.383-0.142-0.169-0.51-0.446-1.692-0.446h-12.76c-1.182 0-1.55 0.277-1.692 0.446-0.191 0.227-0.29 0.603-0.366 1.382zM21.054 28.285c0-0 0.004 0.001 0.010 0.005-0.007-0.003-0.010-0.005-0.010-0.005zM5.736 18.478c0.691-0.821 1.777-1.158 3.222-1.158h12.76c1.445 0 2.53 0.336 3.222 1.158 0.642 0.763 0.756 1.753 0.827 2.479l0 0.003 0.574 6.096c0.161 1.771-1.247 3.277-3.023 3.277h-1.88c-0.673 0-1.276-0.145-1.732-0.578-0.373-0.353-0.534-0.818-0.617-1.056-0.007-0.020-0.014-0.039-0.020-0.056l-0.007-0.020-0.198-0.595c-0.074-0.215-0.119-0.344-0.169-0.449-0.045-0.094-0.072-0.121-0.080-0.129-0.005-0.004-0.031-0.029-0.123-0.056-0.105-0.031-0.286-0.061-0.587-0.061h-5.12c-0.574 0-0.7 0.123-0.712 0.134-0 0 0-0 0 0-0.053 0.050-0.104 0.138-0.247 0.559l-0.198 0.594c-0.005 0.014-0.009 0.029-0.015 0.045-0.080 0.25-0.234 0.732-0.623 1.099-0.461 0.433-1.071 0.57-1.739 0.57h-1.88c-1.762 0-3.202-1.494-3.022-3.283l0.56-6.094c0.071-0.726 0.185-1.716 0.827-2.479z"></path>
<path d="M5.357 15.333c0-0.552 0.448-1 1-1h1c0.552 0 1 0.448 1 1s-0.448 1-1 1h-1c-0.552 0-1-0.448-1-1z"></path>
<path d="M22.357 15.333c0-0.552 0.448-1 1-1h1c0.552 0 1 0.448 1 1s-0.448 1-1 1h-1c-0.552 0-1-0.448-1-1z"></path>
<path d="M8.357 22.333c0-0.552 0.448-1 1-1h3c0.552 0 1 0.448 1 1s-0.448 1-1 1h-3c-0.552 0-1-0.448-1-1z"></path>
<path d="M17.357 22.333c0-0.552 0.448-1 1-1h3c0.552 0 1 0.448 1 1s-0.448 1-1 1h-3c-0.552 0-1-0.448-1-1z"></path>
<path d="M10.642 3.363c0.363 0.064 0.605 0.41 0.541 0.772l-0.443 2.514c-0.064 0.363-0.41 0.605-0.772 0.541s-0.605-0.41-0.541-0.772l0.443-2.514c0.064-0.363 0.41-0.605 0.772-0.541z"></path>
<path d="M5.104 2.413c0.307-0.204 0.72-0.12 0.924 0.186l2.721 4.094c0.204 0.307 0.12 0.72-0.186 0.924s-0.72 0.12-0.924-0.186l-2.721-4.094c-0.204-0.307-0.12-0.72 0.186-0.924z"></path>
<path d="M3.992 7.927c0.093-0.356 0.458-0.569 0.814-0.476l2.226 0.584c0.356 0.093 0.569 0.458 0.476 0.814s-0.458 0.569-0.814 0.476l-2.226-0.584c-0.356-0.093-0.569-0.458-0.476-0.814z"></path>
</svg>
