<!-- Generated by IcoMoon.io -->
<svg version="1.1" xmlns="http://www.w3.org/2000/svg" width="32" height="32" viewBox="0 0 32 32">
<path d="M22.4 5.126h-12.8c-3.84 0-6.4 1.92-6.4 6.4v8.96c0 4.48 2.56 6.4 6.4 6.4h12.8c3.84 0 6.4-1.92 6.4-6.4v-8.96c0-4.48-2.56-6.4-6.4-6.4zM23.002 12.921l-4.006 3.2c-0.845 0.678-1.92 1.011-2.995 1.011s-2.163-0.333-2.995-1.011l-4.006-3.2c-0.41-0.333-0.474-0.947-0.154-1.357 0.333-0.41 0.934-0.486 1.344-0.154l4.006 3.2c0.973 0.781 2.624 0.781 3.597 0l4.006-3.2c0.41-0.333 1.024-0.269 1.344 0.154 0.333 0.41 0.269 1.024-0.141 1.357z"></path>
</svg>
