<!-- Generated by IcoMoon.io -->
<svg version="1.1" xmlns="http://www.w3.org/2000/svg" width="32" height="32" viewBox="0 0 32 32">
<title>sms</title>
<path d="M5.18 6.983c-0.907 0.842-1.514 2.208-1.514 4.351v9.333c0 2.143 0.607 3.509 1.514 4.351 0.92 0.854 2.306 1.316 4.153 1.316h13.333c1.847 0 3.233-0.462 4.153-1.316 0.907-0.842 1.514-2.208 1.514-4.351v-9.333c0-2.143-0.607-3.509-1.514-4.351-0.92-0.854-2.306-1.316-4.153-1.316h-13.333c-1.847 0-3.233 0.462-4.153 1.316zM3.82 5.517c1.413-1.312 3.361-1.851 5.514-1.851h13.333c2.153 0 4.101 0.538 5.514 1.851 1.427 1.325 2.153 3.292 2.153 5.816v9.333c0 2.524-0.726 4.491-2.153 5.816-1.413 1.312-3.36 1.851-5.514 1.851h-13.333c-2.153 0-4.1-0.538-5.514-1.851-1.427-1.325-2.153-3.292-2.153-5.816v-9.333c0-2.524 0.726-4.491 2.153-5.816z"></path>
<path d="M23.448 11.376c0.345 0.432 0.274 1.061-0.157 1.405l-4.175 3.334c-1.738 1.383-4.508 1.383-6.246 0l-0.002-0.002-4.16-3.333c-0.431-0.345-0.5-0.975-0.155-1.406s0.975-0.5 1.406-0.155l4.159 3.332c1.009 0.802 2.744 0.802 3.753-0.001-0 0 0 0 0 0l4.173-3.333c0.431-0.345 1.061-0.274 1.405 0.157z"></path>
</svg>
