<!-- Generated by IcoMoon.io -->
<svg version="1.1" xmlns="http://www.w3.org/2000/svg" width="32" height="32" viewBox="0 0 32 32">
<title>sondage</title>
<path d="M10.4 31.111c-0.356 0-0.622-0.089-0.978-0.178-0.533-0.267-0.978-0.622-1.244-1.067s-0.356-0.889-0.356-1.422v-2.222c-0.622-0.178-1.244-0.356-1.778-0.622v0c-2.489-1.156-4.267-3.022-5.333-5.6-0.533-1.156-0.711-2.4-0.711-3.822l0.889-0.089h-0.889v-5.778c0-2.933 0.978-5.333 2.844-7.289 1.6-1.6 3.467-2.578 5.689-2.844 0.711-0.178 1.422-0.178 1.867-0.178 2.311 0 4.622 0 6.933 0h3.467c3.111 0 5.778 1.156 7.733 3.467 1.778 1.867 2.578 4.089 2.578 6.667v1.067c0 1.778 0 3.556 0 5.333-0.089 3.822-1.867 6.844-5.156 8.8-1.511 0.889-3.2 1.333-5.067 1.244-1.422 0-2.578 0.089-3.644 0.444h-0.089c-1.6 0.533-2.933 1.333-4.178 2.578l-0.8 0.8c-0.356 0.356-0.8 0.622-1.156 0.711-0.178 0-0.444 0-0.622 0zM6.756 24c0.711 0.267 1.422 0.533 2.133 0.622l0.8 0.089v3.733c0 0.267 0 0.444 0.089 0.533 0.089 0.178 0.178 0.267 0.356 0.356s0.356 0.089 0.444 0c0.178 0 0.267-0.089 0.444-0.267l0.8-0.8c1.333-1.333 3.022-2.4 4.8-2.933h0.089c1.244-0.444 2.667-0.622 4.267-0.533 1.511 0 2.933-0.356 4.178-1.067 2.756-1.6 4.267-4.089 4.267-7.289 0-1.778 0-3.556 0-5.244v-1.067c-0.089-2.133-0.8-3.911-2.133-5.511-1.689-1.867-3.822-2.844-6.4-2.844h-3.467c-2.311 0-4.622 0-6.933 0-0.444 0-1.067 0-1.689 0.089-1.778 0.267-3.378 1.067-4.622 2.4-1.6 1.6-2.4 3.644-2.4 5.956v5.956c0 1.156 0.178 2.222 0.533 3.2 0.889 2.133 2.311 3.733 4.444 4.622v0zM9.6 15.111c-0.444 0-0.978-0.178-1.244-0.533-0.356-0.356-0.533-0.8-0.533-1.244s0.178-0.978 0.533-1.333c0.356-0.356 0.8-0.533 1.333-0.533v0c0.444 0 0.889 0.178 1.244 0.533s0.533 0.8 0.533 1.333c-0.089 0.978-0.889 1.778-1.867 1.778 0 0 0 0 0 0zM9.6 12.267v0.889c0 0-0.089 0-0.089 0.089h0.089v-0.978zM15.556 15.111c0 0 0 0 0 0v0c-0.533 0-0.978-0.178-1.333-0.533s-0.533-0.8-0.533-1.333c0-0.444 0.178-0.978 0.533-1.333s0.8-0.533 1.244-0.533c0.978 0 1.778 0.8 1.778 1.867 0.089 1.067-0.711 1.867-1.689 1.867zM15.556 13.244c0 0-0.089 0 0 0v0 0c0 0.089 0.089 0 0 0 0 0 0 0 0 0zM21.511 15.111c-0.533 0-0.978-0.178-1.333-0.533s-0.533-0.8-0.533-1.244v0c0-0.978 0.8-1.867 1.867-1.867 0.978 0 1.867 0.8 1.867 1.867 0 0.978-0.889 1.778-1.867 1.778zM21.511 13.244v0c0 0 0 0 0 0v0z"></path>
</svg>
