<!-- Generated by IcoMoon.io -->
<svg version="1.1" xmlns="http://www.w3.org/2000/svg" width="32" height="32" viewBox="0 0 32 32">
<path d="M4.186 17.519c-0.283 0.284-0.52 0.832-0.52 1.987v6.333c0 1.147 0.236 1.692 0.519 1.975s0.827 0.519 1.975 0.519h6.333c1.155 0 1.703-0.237 1.987-0.52s0.519-0.826 0.519-1.973v-2.173h-2.173c-1.346 0-2.549-0.264-3.39-1.107s-1.104-2.048-1.104-3.399v-2.16h-2.173c-1.147 0-1.691 0.236-1.974 0.519zM2.77 16.107c0.841-0.843 2.044-1.107 3.39-1.107h3.173c0.552 0 1 0.448 1 1v3.16c0 1.155 0.237 1.703 0.52 1.987s0.826 0.519 1.974 0.519h3.173c0.552 0 1 0.448 1 1v3.173c0 1.346-0.264 2.549-1.107 3.39s-2.048 1.103-3.399 1.103h-6.333c-1.346 0-2.548-0.264-3.389-1.105s-1.105-2.043-1.105-3.389v-6.333c0-1.351 0.263-2.557 1.104-3.399z"></path>
<path d="M10.852 10.852c-0.283 0.283-0.519 0.827-0.519 1.975v6.333c0 1.155 0.237 1.703 0.52 1.987s0.826 0.519 1.973 0.519h6.333c1.155 0 1.702-0.237 1.986-0.52s0.52-0.831 0.52-1.986v-2.16h-2.173c-1.346 0-2.549-0.264-3.39-1.107s-1.103-2.048-1.103-3.399v-2.16h-2.173c-1.147 0-1.692 0.236-1.975 0.519zM9.438 9.438c0.841-0.841 2.043-1.105 3.389-1.105h3.173c0.552 0 1 0.448 1 1v3.16c0 1.155 0.237 1.703 0.52 1.987s0.826 0.519 1.973 0.519h3.173c0.552 0 1 0.448 1 1v3.16c0 1.351-0.263 2.558-1.106 3.4s-2.049 1.106-3.4 1.106h-6.333c-1.346 0-2.549-0.264-3.39-1.107s-1.104-2.048-1.104-3.399v-6.333c0-1.346 0.264-2.548 1.105-3.389z"></path>
<path d="M17.519 4.185c-0.283 0.283-0.519 0.827-0.519 1.975v6.333c0 1.155 0.237 1.703 0.52 1.987s0.826 0.519 1.973 0.519h6.333c1.155 0 1.702-0.237 1.986-0.52s0.52-0.831 0.52-1.986v-6.333c0-1.147-0.236-1.691-0.519-1.974s-0.832-0.52-1.987-0.52h-6.333c-1.147 0-1.692 0.236-1.975 0.519zM16.105 2.771c0.841-0.841 2.043-1.105 3.389-1.105h6.333c1.351 0 2.557 0.263 3.399 1.104s1.107 2.044 1.107 3.39v6.333c0 1.351-0.263 2.558-1.106 3.4s-2.049 1.106-3.4 1.106h-6.333c-1.346 0-2.549-0.264-3.39-1.107s-1.103-2.048-1.103-3.399v-6.333c0-1.346 0.264-2.548 1.105-3.389z"></path>
</svg>
