<svg width="24" height="24" viewBox="0 0 24 24" fill="none" xmlns="http://www.w3.org/2000/svg">
<path fill-rule="evenodd" clip-rule="evenodd" d="M14.1517 2.84784C13.6224 1.78419 12.7952 1 11.7492 1C10.7044 1 9.87454 1.78285 9.34034 2.84569L7.57964 6.36709L7.57691 6.3726C7.52408 6.48046 7.39779 6.63395 7.2075 6.77504C7.01786 6.91565 6.83389 6.99261 6.71596 7.0129L6.7149 7.01309L3.52753 7.54264C2.37743 7.73433 1.41154 8.29403 1.0985 9.27435C0.785682 10.254 1.24712 11.2698 2.07013 12.0928L4.55013 14.5728C4.64773 14.6704 4.75709 14.8543 4.82567 15.0939C4.89383 15.332 4.89959 15.548 4.86905 15.6865L4.86861 15.6885L4.15977 18.7534C3.86422 20.0307 3.96673 21.2987 4.87588 21.9621C5.78447 22.6251 7.0241 22.3376 8.15322 21.6675L11.1376 19.9008L11.1395 19.8997C11.2737 19.8222 11.4948 19.7625 11.7542 19.7625C12.0155 19.7625 12.2321 19.823 12.3581 19.8977L15.3484 21.6679C16.4789 22.3357 17.72 22.6284 18.6285 21.966C19.5383 21.3028 19.6359 20.0323 19.3413 18.7541L18.6323 15.6885L18.6319 15.6865C18.6013 15.548 18.6071 15.332 18.6752 15.0939C18.7438 14.8543 18.8532 14.6704 18.9508 14.5728L21.429 12.0946L21.43 12.0936C22.2582 11.2706 22.721 10.254 22.4057 9.27299C22.0908 8.29329 21.1231 7.73426 19.9738 7.5427L16.7838 7.0127" fill="white"/>
</svg>
