<!-- Generated by IcoMoon.io -->
<svg version="1.1" xmlns="http://www.w3.org/2000/svg" width="30" height="32" viewBox="0 0 30 32">
<path d="M13.37 6.611c0.691-1.399 2.685-1.399 3.376 0l1.752 3.55c0.274 0.555 0.803 0.94 1.416 1.029l3.922 0.573c1.543 0.226 2.159 2.123 1.041 3.211l-2.835 2.761c-0.444 0.432-0.647 1.056-0.542 1.667l0.669 3.898c0.264 1.538-1.35 2.711-2.731 1.984l-3.503-1.842c-0.549-0.288-1.204-0.288-1.752 0l-3.503 1.842c-1.381 0.726-2.995-0.447-2.731-1.984l0.669-3.898c0.105-0.611-0.098-1.234-0.542-1.667l-2.835-2.761c-1.117-1.088-0.502-2.985 1.041-3.211l3.921-0.573c0.612-0.090 1.142-0.474 1.416-1.029l1.752-3.55z"></path>
</svg>
