<!-- Generated by IcoMoon.io -->
<svg version="1.1" xmlns="http://www.w3.org/2000/svg" width="32" height="32" viewBox="0 0 32 32">
<path fill="none" stroke="#fff" stroke-linejoin="round" stroke-linecap="round" stroke-miterlimit="4" stroke-width="2" d="M18.307 4.68l2.347 4.693c0.32 0.653 1.173 1.28 1.893 1.4l4.253 0.707c2.72 0.453 3.36 2.427 1.4 4.373l-3.307 3.307c-0.56 0.56-0.867 1.64-0.693 2.413l0.947 4.093c0.747 3.24-0.973 4.493-3.84 2.8l-3.987-2.36c-0.72-0.427-1.907-0.427-2.64 0l-3.987 2.36c-2.853 1.693-4.587 0.427-3.84-2.8l0.947-4.093c0.173-0.773-0.133-1.853-0.693-2.413l-3.307-3.307c-1.947-1.947-1.32-3.92 1.4-4.373l4.253-0.707c0.707-0.12 1.56-0.747 1.88-1.4l2.347-4.693c1.28-2.547 3.36-2.547 4.627 0z"></path>
</svg>
