<!-- Generated by IcoMoon.io -->
<svg version="1.1" xmlns="http://www.w3.org/2000/svg" width="32" height="32" viewBox="0 0 32 32">
<path fill="none" stroke-linejoin="round" stroke-linecap="round" stroke-miterlimit="4" stroke-width="2.1333" stroke="#000" d="M14.884 6.455c0.457-0.925 1.775-0.925 2.232 0l2.44 4.944c0.181 0.367 0.531 0.621 0.936 0.681l5.459 0.798c1.020 0.149 1.427 1.403 0.688 2.123l-3.948 3.845c-0.293 0.286-0.427 0.698-0.358 1.102l0.931 5.431c0.174 1.017-0.893 1.792-1.806 1.312l-4.879-2.566c-0.363-0.191-0.796-0.191-1.158 0l-4.879 2.566c-0.913 0.48-1.98-0.295-1.806-1.312l0.931-5.431c0.069-0.404-0.065-0.816-0.358-1.102l-3.948-3.845c-0.739-0.72-0.332-1.974 0.688-2.123l5.459-0.798c0.405-0.059 0.755-0.314 0.936-0.681l2.44-4.944z"></path>
</svg>
