<!-- Generated by IcoMoon.io -->
<svg version="1.1" xmlns="http://www.w3.org/2000/svg" width="32" height="32" viewBox="0 0 32 32">
<path d="M18.869 3.797c-0.706-1.418-1.809-2.464-3.203-2.464-1.393 0-2.5 1.044-3.212 2.461l-2.351 4.703c-0.070 0.144-0.239 0.348-0.493 0.537s-0.498 0.29-0.655 0.317l-0.001 0-4.25 0.706c-1.533 0.256-2.821 1.002-3.239 2.309s0.198 2.661 1.296 3.758l3.307 3.307c0.13 0.13 0.276 0.375 0.367 0.695 0.091 0.317 0.099 0.605 0.058 0.79l-0.001 0.003-0.945 4.087c-0.394 1.703-0.257 3.394 0.955 4.278s2.864 0.501 4.37-0.393l3.982-2.357c0.179-0.103 0.474-0.183 0.82-0.183 0.348 0 0.637 0.081 0.805 0.18l3.987 2.36c1.507 0.89 3.162 1.281 4.373 0.397 1.213-0.884 1.343-2.578 0.95-4.283l-0.946-4.090c-0.041-0.185-0.033-0.473 0.058-0.79 0.091-0.319 0.237-0.565 0.367-0.695l3.306-3.306c1.104-1.097 1.721-2.453 1.301-3.761-0.42-1.306-1.71-2.052-3.243-2.307l-4.253-0.707z"></path>
</svg>
