<!-- Generated by IcoMoon.io -->
<svg version="1.1" xmlns="http://www.w3.org/2000/svg" width="32" height="32" viewBox="0 0 32 32">
<title>status-up</title>
<path d="M9.173 20.44c0.552 0 1 0.448 1 1v2.76c0 0.552-0.448 1-1 1s-1-0.448-1-1v-2.76c0-0.552 0.448-1 1-1z"></path>
<path d="M16 17.68c0.552 0 1 0.448 1 1v5.52c0 0.552-0.448 1-1 1s-1-0.448-1-1v-5.52c0-0.552 0.448-1 1-1z"></path>
<path d="M22.827 14.907c0.552 0 1 0.448 1 1v8.293c0 0.552-0.448 1-1 1s-1-0.448-1-1v-8.293c0-0.552 0.448-1 1-1z"></path>
<path d="M23.475 7.039c0.42 0.358 0.471 0.989 0.113 1.41l-0.615 0.722c-3.536 4.132-8.277 7.057-13.558 8.373-0.536 0.134-1.079-0.192-1.212-0.728s0.192-1.079 0.728-1.212c4.879-1.217 9.257-3.918 12.522-7.732-0 0 0-0 0 0l0.612-0.719c0.358-0.42 0.989-0.471 1.41-0.113z"></path>
<path d="M17.92 7.8c0-0.552 0.448-1 1-1h3.907c0.552 0 1 0.448 1 1v3.893c0 0.552-0.448 1-1 1s-1-0.448-1-1v-2.893h-2.907c-0.552 0-1-0.448-1-1z"></path>
<path d="M4.126 4.126c1.779-1.779 4.442-2.46 7.874-2.46h8c3.432 0 6.095 0.68 7.874 2.46s2.46 4.442 2.46 7.874v8c0 3.432-0.68 6.095-2.46 7.874s-4.442 2.46-7.874 2.46h-8c-3.432 0-6.094-0.68-7.874-2.46s-2.46-4.442-2.46-7.874v-8c0-3.432 0.68-6.094 2.46-7.874zM5.54 5.54c-1.221 1.221-1.874 3.225-1.874 6.46v8c0 3.235 0.653 5.239 1.874 6.46s3.225 1.874 6.46 1.874h8c3.235 0 5.239-0.653 6.46-1.874s1.874-3.225 1.874-6.46v-8c0-3.235-0.653-5.239-1.874-6.46s-3.225-1.874-6.46-1.874h-8c-3.235 0-5.239 0.653-6.46 1.874z"></path>
</svg>
