<!-- Generated by IcoMoon.io -->
<svg version="1.1" xmlns="http://www.w3.org/2000/svg" width="32" height="32" viewBox="0 0 32 32">
<title>sun</title>
<path d="M8.609 15.978c0.014-4.095 3.317-7.369 7.398-7.369 4.095 0.014 7.369 3.317 7.369 7.398-0.014 4.081-3.317 7.383-7.398 7.369-4.095-0.014-7.383-3.317-7.369-7.398zM20.896 16.036c0.014-2.74-2.163-4.932-4.889-4.946-2.711-0.014-4.918 2.149-4.932 4.86-0.014 2.74 2.149 4.946 4.874 4.961 2.726 0.029 4.932-2.149 4.946-4.874z"></path>
<path d="M24.717 8.58c-0.519-0.058-0.908-0.288-1.125-0.735s-0.202-0.923 0.13-1.283c0.634-0.692 1.298-1.356 1.99-1.976 0.462-0.418 1.168-0.332 1.601 0.115 0.433 0.433 0.519 1.139 0.101 1.601-0.634 0.692-1.298 1.341-1.99 1.976-0.188 0.159-0.476 0.202-0.707 0.303z"></path>
<path d="M24.862 23.463c0.144 0.072 0.461 0.159 0.692 0.361 0.606 0.548 1.168 1.139 1.73 1.716 0.519 0.534 0.505 1.283 0.014 1.774-0.49 0.476-1.226 0.476-1.745-0.029-0.591-0.562-1.168-1.139-1.73-1.73-0.375-0.389-0.462-0.865-0.245-1.37 0.188-0.447 0.577-0.692 1.284-0.721z"></path>
<path d="M7.225 8.61c-0.274-0.144-0.591-0.245-0.822-0.461-0.606-0.548-1.168-1.139-1.731-1.731-0.505-0.519-0.49-1.255 0-1.745 0.476-0.476 1.211-0.49 1.716 0 0.606 0.577 1.197 1.183 1.774 1.788 0.375 0.389 0.447 0.88 0.216 1.37-0.202 0.461-0.591 0.692-1.154 0.779z"></path>
<path d="M8.595 24.732c-0.159 0.288-0.26 0.62-0.476 0.851-0.534 0.591-1.125 1.154-1.702 1.716-0.519 0.505-1.255 0.505-1.745 0.029-0.505-0.49-0.505-1.24 0-1.774 0.562-0.591 1.139-1.168 1.731-1.73 0.389-0.375 0.865-0.461 1.37-0.245 0.476 0.202 0.721 0.591 0.822 1.154z"></path>
<path d="M14.753 2.452c0-0.404-0.014-0.822 0-1.226 0.014-0.707 0.562-1.24 1.24-1.226 0.663 0.014 1.197 0.534 1.211 1.226 0.014 0.822 0.014 1.658 0 2.48-0.014 0.692-0.548 1.197-1.226 1.211-0.678 0-1.211-0.505-1.226-1.197 0-0.418 0-0.836 0-1.269z"></path>
<path d="M29.534 14.767c0.404 0 0.822-0.014 1.226 0 0.707 0.014 1.24 0.562 1.24 1.24-0.014 0.663-0.534 1.197-1.226 1.211-0.822 0.014-1.658 0.014-2.48 0-0.692-0.014-1.211-0.548-1.211-1.226s0.505-1.211 1.197-1.226c0.404 0 0.822 0 1.255 0z"></path>
<path d="M17.218 29.52c0 0.418 0.014 0.836 0 1.255-0.014 0.678-0.548 1.211-1.211 1.226-0.663 0-1.226-0.519-1.226-1.197-0.014-0.836-0.014-1.687 0-2.524 0.014-0.692 0.548-1.197 1.24-1.197 0.678 0 1.197 0.519 1.211 1.211-0.014 0.404-0.014 0.822-0.014 1.226z"></path>
<path d="M2.452 17.233c-0.389 0-0.793 0-1.183 0-0.735-0.014-1.283-0.548-1.269-1.24 0-0.678 0.548-1.211 1.255-1.211 0.808-0.014 1.615-0.014 2.408 0 0.721 0.014 1.24 0.519 1.24 1.211 0 0.707-0.519 1.226-1.269 1.24-0.389 0-0.793 0-1.183 0z"></path>
</svg>
