<!-- Generated by IcoMoon.io -->
<svg version="1.1" xmlns="http://www.w3.org/2000/svg" width="32" height="32" viewBox="0 0 32 32">
<path d="M26.105 22.565h-2.378v-12.092c-0.44-10.303-15.648-9.823-15.458 0.477v9.621c0.002 1.728 0.612 3.404 1.726 4.746s2.667 2.27 4.398 2.629c0.29-0.335 0.683-0.57 1.12-0.672s0.896-0.064 1.31 0.108c0.414 0.171 0.76 0.468 0.989 0.845s0.329 0.817 0.284 1.253c-0.045 0.437-0.231 0.848-0.532 1.174s-0.701 0.549-1.141 0.637-0.898 0.036-1.306-0.148c-0.408-0.184-0.745-0.491-0.962-0.875-1.972-0.36-3.789-1.284-5.223-2.655s-2.417-3.126-2.828-5.044c-8.002 0-8.204-11.35-0.214-11.615 0-13.718 20.214-13.718 20.214 0 7.86 0.244 7.86 11.371 0 11.615v-0.005z"></path>
</svg>
