<!-- Generated by IcoMoon.io -->
<svg version="1.1" xmlns="http://www.w3.org/2000/svg" width="32" height="32" viewBox="0 0 32 32">
<path d="M21.363 3.206h-10.726c-4.659 0-7.437 2.778-7.437 7.437v10.726c0 4.659 2.778 7.437 7.437 7.437h10.726c4.659 0 7.437-2.778 7.437-7.437v-10.726c0-4.659-2.778-7.437-7.437-7.437zM13.402 19.718l-2.88 2.88c-0.192 0.192-0.435 0.282-0.678 0.282s-0.499-0.090-0.678-0.282l-0.96-0.96c-0.384-0.371-0.384-0.986 0-1.357 0.371-0.371 0.973-0.371 1.357 0l0.282 0.282 2.202-2.202c0.371-0.371 0.973-0.371 1.357 0 0.371 0.371 0.371 0.986 0 1.357zM13.402 10.758l-2.88 2.88c-0.192 0.192-0.435 0.282-0.678 0.282s-0.499-0.090-0.678-0.282l-0.96-0.96c-0.384-0.371-0.384-0.986 0-1.357 0.371-0.371 0.973-0.371 1.357 0l0.282 0.282 2.202-2.202c0.371-0.371 0.973-0.371 1.357 0 0.371 0.371 0.371 0.986 0 1.357zM23.117 21.92h-6.72c-0.525 0-0.96-0.435-0.96-0.96s0.435-0.96 0.96-0.96h6.72c0.538 0 0.96 0.435 0.96 0.96s-0.422 0.96-0.96 0.96zM23.117 12.96h-6.72c-0.525 0-0.96-0.435-0.96-0.96s0.435-0.96 0.96-0.96h6.72c0.538 0 0.96 0.435 0.96 0.96s-0.422 0.96-0.96 0.96z"></path>
</svg>
