<!-- Generated by IcoMoon.io -->
<svg version="1.1" xmlns="http://www.w3.org/2000/svg" width="32" height="32" viewBox="0 0 32 32">
<path d="M11.985 4.8c-2.29 0-4.146 1.856-4.146 4.146v1.427h17.4v-1.427c0-2.29-1.856-4.146-4.146-4.146h-9.109zM6.24 8.945c0-3.173 2.572-5.746 5.746-5.746h9.109c3.173 0 5.746 2.572 5.746 5.746v2.227c0 0.442-0.358 0.8-0.8 0.8h-19c-0.442 0-0.8-0.358-0.8-0.8v-2.227z"></path>
<path d="M10.009 15.683c0.177-0.122 0.403-0.151 0.605-0.077l4.644 1.688c0.219 0.079 0.38 0.267 0.426 0.496 0.052 0.259-0.004 0.497-0.080 0.68-0.077 0.186-0.191 0.357-0.315 0.508-0.25 0.301-0.597 0.585-0.986 0.814-0.755 0.446-1.843 0.788-2.861 0.449-0.553-0.184-0.908-0.612-1.132-1.031-0.225-0.42-0.359-0.902-0.441-1.329-0.083-0.433-0.12-0.845-0.137-1.146-0.008-0.152-0.012-0.277-0.013-0.366-0.001-0.045-0.001-0.080-0.001-0.105v-0.043c0 0 0 0 0.667 0.012l-0.667-0.012c0.004-0.215 0.112-0.416 0.289-0.537zM11.113 17.206c0.017 0.137 0.039 0.28 0.066 0.424 0.069 0.362 0.17 0.697 0.306 0.951 0.137 0.256 0.271 0.36 0.378 0.396 0.501 0.167 1.172 0.017 1.762-0.332 0.19-0.112 0.352-0.235 0.478-0.351l-2.991-1.087zM23.38 16.073c0.169 0.095 0.289 0.26 0.327 0.45 0.092 0.46 0.086 1.203-0.12 1.901s-0.661 1.506-1.59 1.816c-0.899 0.299-1.831 0.045-2.525-0.289s-1.305-0.821-1.596-1.21c-0.127-0.169-0.166-0.388-0.106-0.59s0.213-0.364 0.411-0.437l4.644-1.688c0.183-0.066 0.385-0.050 0.555 0.046zM19.723 18.574c0.102 0.061 0.211 0.121 0.327 0.176 0.559 0.269 1.104 0.366 1.527 0.225 0.337-0.112 0.586-0.429 0.732-0.927 0.044-0.15 0.074-0.302 0.094-0.448l-2.679 0.974zM7.187 22.14c0-0.368 0.298-0.667 0.667-0.667h17.311c0.368 0 0.667 0.298 0.667 0.667s-0.299 0.667-0.667 0.667h-17.311c-0.368 0-0.667-0.299-0.667-0.667z"></path>
<path d="M5.468 16.254c0.611-0.686 1.512-0.94 2.56-0.678 0.297 0.074 0.505 0.34 0.505 0.646l0.005 4.641c0 0.205-0.094 0.399-0.256 0.526s-0.373 0.171-0.572 0.122c-0.559-0.14-1.293-0.34-1.89-0.725-0.632-0.408-1.152-1.054-1.153-2.030-0.002-0.935 0.229-1.859 0.801-2.501zM6.463 17.141c-0.274 0.307-0.465 0.86-0.463 1.612 0.001 0.415 0.188 0.683 0.543 0.912 0.191 0.123 0.415 0.224 0.662 0.311l-0.004-3.168c-0.343 0.011-0.573 0.149-0.737 0.333z"></path>
<path d="M27.586 16.254c-0.611-0.686-1.512-0.94-2.56-0.678-0.297 0.074-0.505 0.34-0.505 0.646l-0.005 4.641c0 0.205 0.094 0.399 0.256 0.526s0.373 0.171 0.572 0.122c0.559-0.14 1.293-0.34 1.89-0.725 0.633-0.408 1.152-1.054 1.153-2.030 0.002-0.935-0.229-1.859-0.801-2.501zM26.59 17.141c0.274 0.307 0.465 0.86 0.463 1.612-0.001 0.415-0.188 0.683-0.543 0.912-0.191 0.123-0.415 0.224-0.662 0.311l0.004-3.168c0.343 0.011 0.573 0.149 0.737 0.333z"></path>
<path d="M5.414 11.172c0-0.442 0.358-0.8 0.8-0.8h21.111c0.442 0 0.8 0.358 0.8 0.8v2.532c0 0.442-0.358 0.8-0.8 0.8h-1.311v10.062c0 2.832-2.296 5.127-5.127 5.127h-8.656c-2.832 0-5.127-2.296-5.127-5.127v-10.062h-0.889c-0.442 0-0.8-0.358-0.8-0.8v-2.532zM26.525 12.903v-0.932h-19.511v0.932h19.511zM8.703 14.503v10.062c0 1.948 1.579 3.527 3.527 3.527h8.656c1.948 0 3.527-1.579 3.527-3.527v-10.062h-15.711z"></path>
</svg>
