<!-- Generated by IcoMoon.io -->
<svg version="1.1" xmlns="http://www.w3.org/2000/svg" width="32" height="32" viewBox="0 0 32 32">
<title>tick-circle</title>
<path d="M1.667 16c0-7.886 6.448-14.333 14.333-14.333s14.333 6.448 14.333 14.333c0 7.886-6.448 14.333-14.333 14.333s-14.333-6.448-14.333-14.333zM16 3.667c-6.781 0-12.333 5.552-12.333 12.333s5.552 12.333 12.333 12.333c6.781 0 12.333-5.552 12.333-12.333s-5.552-12.333-12.333-12.333z"></path>
<path d="M22.374 11.52c0.39 0.391 0.39 1.024-0.001 1.414l-7.56 7.547c-0.391 0.39-1.023 0.39-1.414-0.001l-3.773-3.773c-0.391-0.391-0.391-1.024 0-1.414s1.024-0.391 1.414 0l3.067 3.067 6.853-6.841c0.391-0.39 1.024-0.39 1.414 0.001z"></path>
</svg>
