<!-- Generated by IcoMoon.io -->
<svg version="1.1" xmlns="http://www.w3.org/2000/svg" width="32" height="32" viewBox="0 0 32 32">
<path fill="none" stroke-linejoin="round" stroke-linecap="round" stroke-miterlimit="4" stroke-width="1.3333" stroke="#000" d="M2.667 14.146c0.59-0.872 2.246-1.5 4.196-1.5s3.666 0.651 4.228 1.548h0.069c0.562-0.897 2.242-1.548 4.228-1.548s3.666 0.651 4.228 1.548h0.107c0.562-0.897 2.242-1.548 4.228-1.548s3.598 0.626 4.193 1.495"></path>
<path fill="none" stroke-linejoin="round" stroke-linecap="round" stroke-miterlimit="4" stroke-width="1.3333" stroke="#000" d="M15.344 12.717v14.499c0 1.164-0.943 2.107-2.107 2.107s-2.107-0.943-2.107-2.107v-0.507"></path>
<path fill="none" stroke-linejoin="round" stroke-linecap="round" stroke-miterlimit="4" stroke-width="1.3333" stroke="#000" d="M2.667 14.144c0-6.334 5.703-11.477 12.737-11.477s12.737 5.134 12.737 11.468"></path>
<path fill="none" stroke-linejoin="round" stroke-linecap="round" stroke-miterlimit="4" stroke-width="1.3333" stroke="#000" d="M11.13 14.193c0-5.857 2.374-10.712 3.825-11.518"></path>
<path fill="none" stroke-linejoin="round" stroke-linecap="round" stroke-miterlimit="4" stroke-width="1.3333" stroke="#000" d="M15.844 2.675c1.45 0.806 3.823 5.661 3.823 11.518"></path>
<path fill="none" stroke-linejoin="round" stroke-linecap="round" stroke-miterlimit="4" stroke-width="1.3333" stroke="#000" d="M21.010 23.078c0.303 0.397 0.839 0.661 1.447 0.661 0.945 0 1.712-0.635 1.712-1.419 0-0.403-0.216-0.768-0.525-1.016-0.374-0.3-0.809-0.329-1.259-0.433-0.599-0.139-1.197-0.575-1.197-1.249 0-0.711 0.697-1.289 1.555-1.289 0.545 0 1.025 0.233 1.303 0.585"></path>
<path fill="none" stroke-linejoin="round" stroke-linecap="round" stroke-miterlimit="4" stroke-width="1.3333" stroke="#000" d="M22.591 23.799v1.004"></path>
<path fill="none" stroke-linejoin="round" stroke-linecap="round" stroke-miterlimit="4" stroke-width="1.3333" stroke="#000" d="M22.591 17.198v1.047"></path>
<path fill="none" stroke-linejoin="round" stroke-linecap="round" stroke-miterlimit="4" stroke-width="1.3333" stroke="#000" d="M24.578 25.66c2.626-1.088 3.873-4.099 2.785-6.725s-4.099-3.873-6.725-2.786-3.873 4.099-2.786 6.725c1.088 2.626 4.099 3.873 6.725 2.785z"></path>
<path fill="none" stroke-linejoin="round" stroke-linecap="round" stroke-miterlimit="4" stroke-width="1.3333" stroke="#000" d="M10.914 16.815v6.067l-3.078 3.078h-3.29c-0.583 0-1.056-0.473-1.056-1.056v-8.089c0-0.583 0.473-1.056 1.056-1.056h5.312c0.583 0 1.056 0.473 1.056 1.056z"></path>
<path fill="none" stroke-linejoin="round" stroke-linecap="round" stroke-miterlimit="4" stroke-width="1.3333" stroke="#000" d="M7.836 25.96v-2.022c0-0.583 0.473-1.056 1.056-1.056h2.022l-3.078 3.079z"></path>
<path fill="none" stroke-linejoin="round" stroke-linecap="round" stroke-miterlimit="4" stroke-width="1.3333" stroke="#000" d="M5.379 18.007h3.646"></path>
<path fill="none" stroke-linejoin="round" stroke-linecap="round" stroke-miterlimit="4" stroke-width="1.3333" stroke="#000" d="M5.379 20.811h3.646"></path>
</svg>
