<!-- Generated by IcoMoon.io -->
<svg version="1.1" xmlns="http://www.w3.org/2000/svg" width="31" height="32" viewBox="0 0 31 32">
<title>tierceoptimale</title>
<path d="M14.941 1.382c0.262-0.137 0.575-0.137 0.837 0l8.797 4.589h2.548c0.451 0 0.832 0.331 0.89 0.773l-0.89 0.115c0.89-0.115 0.89-0.114 0.89-0.114l0 0.001 0 0.004 0.002 0.012 0.005 0.043c0.004 0.037 0.010 0.091 0.018 0.159 0.014 0.137 0.033 0.336 0.051 0.589 0.037 0.506 0.072 1.23 0.070 2.113-0.005 1.764-0.161 4.18-0.772 6.776-1.223 5.193-4.3 11.208-11.705 14.034-0.208 0.079-0.438 0.079-0.646 0-7.405-2.826-10.482-8.841-11.705-14.034-0.611-2.596-0.768-5.012-0.772-6.776-0.002-0.883 0.033-1.607 0.070-2.113 0.018-0.253 0.037-0.452 0.051-0.589 0.007-0.069 0.013-0.122 0.018-0.159l0.005-0.043 0.002-0.012 0.001-0.004 0-0.001c0-0 0-0.001 0.89 0.114l-0.89-0.115c0.058-0.442 0.439-0.773 0.89-0.773h2.549l8.796-4.589zM4.416 7.747c-0.032 0.465-0.063 1.12-0.061 1.916 0.004 1.671 0.153 3.947 0.725 6.377 1.126 4.781 3.858 10.065 10.28 12.653 6.421-2.588 9.154-7.872 10.28-12.653 0.572-2.431 0.721-4.707 0.725-6.378 0.002-0.796-0.029-1.451-0.061-1.916h-1.951c-0.146 0-0.29-0.035-0.419-0.103l-8.574-4.473-8.574 4.473c-0.129 0.067-0.273 0.103-0.419 0.103h-1.951z"></path>
<path d="M8.113 14.195c0-3.581 3.229-6.304 6.977-6.304s6.977 2.723 6.977 6.304c0 0.505-0.409 0.914-0.914 0.914h-12.126c-0.505 0-0.914-0.409-0.914-0.914zM10.052 13.28h10.078c-0.479-1.974-2.477-3.561-5.039-3.561s-4.56 1.587-5.039 3.561z"></path>
<path d="M15.091 12.606c0.505 0 0.914 0.409 0.914 0.914v8.421c0 0.425 0.345 0.77 0.77 0.77s0.77-0.345 0.77-0.77v-1.011c0-0.505 0.409-0.914 0.914-0.914s0.914 0.409 0.914 0.914v1.011c0 1.435-1.164 2.599-2.598 2.599s-2.599-1.164-2.599-2.599v-8.421c0-0.505 0.409-0.914 0.914-0.914z"></path>
<path d="M15.091 6.544c0.505 0 0.914 0.409 0.914 0.914v1.347c0 0.505-0.409 0.914-0.914 0.914s-0.914-0.409-0.914-0.914v-1.347c0-0.505 0.409-0.914 0.914-0.914z"></path>
</svg>
