<!-- Generated by IcoMoon.io -->
<svg version="1.1" xmlns="http://www.w3.org/2000/svg" width="32" height="32" viewBox="0 0 32 32">
<path fill="none" stroke-linejoin="round" stroke-linecap="round" stroke-miterlimit="4" stroke-width="1.8667" stroke="#000" d="M4.053 7.787h23.893M13.013 22.72v-8.96M18.987 22.72v-8.96M21.973 28.693h-11.947c-1.649 0-2.987-1.337-2.987-2.987v-16.427c0-0.825 0.669-1.493 1.493-1.493h14.933c0.825 0 1.493 0.669 1.493 1.493v16.427c0 1.649-1.337 2.987-2.987 2.987zM13.013 7.787h5.973c0.825 0 1.493-0.669 1.493-1.493v-1.493c0-0.825-0.669-1.493-1.493-1.493h-5.973c-0.825 0-1.493 0.669-1.493 1.493v1.493c0 0.825 0.669 1.493 1.493 1.493z"></path>
</svg>
