<!-- Generated by IcoMoon.io -->
<svg version="1.1" xmlns="http://www.w3.org/2000/svg" width="32" height="32" viewBox="0 0 32 32">
<title>trash</title>
<path d="M6.621 6.712c2.673-0.27 5.346-0.405 8.019-0.405 4.487 0 8.987 0.228 13.459 0.672 0.55 0.054 0.951 0.544 0.897 1.094s-0.544 0.951-1.094 0.896c-4.408-0.437-8.842-0.662-13.261-0.662-2.606 0-5.213 0.132-7.82 0.395l-0.003 0-2.72 0.267c-0.55 0.054-1.039-0.348-1.093-0.898s0.348-1.039 0.898-1.093l2.719-0.267z"></path>
<path d="M12.613 5.046l-0.293 1.746c-0.091 0.545-0.607 0.912-1.152 0.821s-0.912-0.607-0.821-1.152l0.293-1.747c0.005-0.030 0.010-0.062 0.016-0.095 0.092-0.554 0.226-1.368 0.769-1.983 0.632-0.717 1.596-0.97 2.828-0.97h3.493c1.247 0 2.21 0.274 2.839 0.998 0.543 0.626 0.674 1.442 0.762 1.987 0.004 0.027 0.008 0.052 0.013 0.078l0.293 1.73c0.092 0.545-0.275 1.061-0.819 1.153s-1.061-0.275-1.153-0.819l-0.294-1.739c-0.112-0.684-0.182-0.93-0.312-1.079-0.072-0.083-0.322-0.309-1.328-0.309h-3.493c-1.021 0-1.264 0.22-1.328 0.293-0.123 0.139-0.192 0.373-0.312 1.086z"></path>
<path d="M25.198 11.189c0.551 0.036 0.969 0.511 0.934 1.062l-0.867 13.432-0.002 0.025c-0.035 0.502-0.074 1.053-0.177 1.567-0.107 0.532-0.296 1.094-0.679 1.592-0.801 1.044-2.166 1.466-4.126 1.466h-8.56c-1.961 0-3.325-0.422-4.126-1.466-0.383-0.498-0.572-1.060-0.679-1.592-0.103-0.513-0.142-1.065-0.177-1.567l-0.002-0.031-0.867-13.427c-0.036-0.551 0.382-1.027 0.933-1.062s1.027 0.382 1.062 0.934l0.866 13.421c0 0.001 0 0.002 0 0.003 0.038 0.537 0.069 0.963 0.144 1.334 0.073 0.361 0.174 0.599 0.304 0.769 0.225 0.293 0.781 0.684 2.54 0.684h8.56c1.759 0 2.315-0.391 2.54-0.684 0.131-0.17 0.232-0.407 0.304-0.769 0.075-0.371 0.107-0.797 0.144-1.334 0-0.001 0-0.002 0-0.003l0.866-13.421c0.036-0.551 0.511-0.969 1.062-0.934z"></path>
<path d="M12.773 22c0-0.552 0.448-1 1-1h4.44c0.552 0 1 0.448 1 1s-0.448 1-1 1h-4.44c-0.552 0-1-0.448-1-1z"></path>
<path d="M11.667 16.667c0-0.552 0.448-1 1-1h6.667c0.552 0 1 0.448 1 1s-0.448 1-1 1h-6.667c-0.552 0-1-0.448-1-1z"></path>
</svg>
