<!-- Generated by IcoMoon.io -->
<svg version="1.1" xmlns="http://www.w3.org/2000/svg" width="32" height="32" viewBox="0 0 32 32">
<path d="M8.762 8.114v3.534c-0.109 0.014-0.177 0.014-0.258 0.014v0c-1.699 0.136-3.017 1.509-3.017 3.221-0.014 3.438-0.027 6.89 0 10.329 0.027 3.221 2.772 5.98 6.007 6.007s6.483 0.027 9.717 0c3.235-0.041 5.98-2.772 6.007-6.007 0.027-3.452 0.014-6.904 0-10.356 0-1.373-0.884-2.555-2.188-3.004-0.224-0.084-0.467-0.129-0.716-0.176-0.114-0.021-0.229-0.043-0.344-0.069 0-0.398 0.001-0.797 0.003-1.197 0.003-0.803 0.006-1.611-0.003-2.418-0.014-1.359-0.367-2.623-1.101-3.765-1.862-2.895-4.961-3.968-8.385-3.248-3.398 0.707-5.708 3.669-5.722 7.135zM8.925 13.835h7.434c2.487 0 4.961 0 7.448-0.014 0.843 0 1.264 0.421 1.264 1.278v9.812c0 2.365-1.753 4.131-4.118 4.131h-9.174c-2.338 0-4.104-1.767-4.104-4.104v-9.853c0-0.829 0.421-1.25 1.25-1.25zM21.815 10.425c-0.003 0.405-0.006 0.812-0.006 1.222h-0.001c-3.642 0-7.23 0-10.804-0.014v0c-0.014-0.014-0.041-0.041-0.041-0.054 0.004-0.434-0.001-0.869-0.005-1.303-0.011-0.992-0.021-1.981 0.073-2.964 0.231-2.365 2.392-4.254 4.784-4.349 1.087-0.041 2.175 0.014 3.167 0.544 1.807 0.965 2.773 2.487 2.827 4.539 0.018 0.786 0.012 1.578 0.006 2.379zM15.282 22.522c0.002 0.166 0.003 0.333 0.003 0.501v1.536c0 0.748 0.448 1.237 1.101 1.237 0.639 0 1.074-0.503 1.074-1.223 0-0.34 0.002-0.68 0.003-1.019 0.003-0.679 0.006-1.359-0.003-2.039 0-0.231 0.041-0.394 0.258-0.557 0.734-0.557 1.006-1.508 0.72-2.378-0.299-0.897-1.101-1.481-2.025-1.495-0.938-0.014-1.753 0.544-2.079 1.413-0.326 0.884-0.068 1.875 0.68 2.446 0.217 0.163 0.285 0.326 0.272 0.584-0.009 0.335-0.006 0.663-0.003 0.994z"></path>
</svg>
