<!-- Generated by IcoMoon.io -->
<svg version="1.1" xmlns="http://www.w3.org/2000/svg" width="32" height="32" viewBox="0 0 32 32">
<path fill="none" stroke-linejoin="round" stroke-linecap="round" stroke-miterlimit="4" stroke-width="1.6" stroke="#000" d="M21.333 21.333l-5.333-5.333M16 16l-5.333 5.333M16 16v12M27.187 24.52c1.3-0.709 2.328-1.831 2.92-3.188s0.715-2.874 0.35-4.309c-0.365-1.435-1.198-2.708-2.367-3.618s-2.608-1.404-4.089-1.405h-1.68c-0.404-1.561-1.156-3.010-2.2-4.239s-2.353-2.204-3.829-2.854c-1.476-0.65-3.079-0.956-4.691-0.897s-3.188 0.483-4.612 1.24c-1.424 0.756-2.658 1.826-3.609 3.128s-1.595 2.803-1.882 4.389c-0.288 1.586-0.212 3.218 0.222 4.77s1.213 2.988 2.281 4.196"></path>
</svg>
