<!-- Generated by IcoMoon.io -->
<svg version="1.1" xmlns="http://www.w3.org/2000/svg" width="32" height="32" viewBox="0 0 32 32">
<path fill="none" stroke-linejoin="round" stroke-linecap="round" stroke-miterlimit="4" stroke-width="1.92" stroke="#000" d="M15.077 18.347c2.106 0 3.814-1.707 3.814-3.814s-1.707-3.814-3.814-3.814c-2.106 0-3.814 1.707-3.814 3.814s1.707 3.814 3.814 3.814z"></path>
<path fill="none" stroke-linejoin="round" stroke-linecap="round" stroke-miterlimit="4" stroke-width="1.92" stroke="#000" d="M22.119 27.127c0-3.162-3.148-5.741-7.044-5.741s-7.044 2.565-7.044 5.741"></path>
<path fill="none" stroke-linejoin="round" stroke-linecap="round" stroke-miterlimit="4" stroke-width="1.92" stroke="#000" d="M28.023 16.679c0 7.125-5.768 12.893-12.893 12.893s-12.893-5.768-12.893-12.893c0-7.125 5.768-12.893 12.893-12.893 1.778 0 3.474 0.353 5.021 1.004-0.176 0.543-0.271 1.113-0.271 1.71 0 1.018 0.285 1.982 0.787 2.796 0.271 0.461 0.624 0.882 1.031 1.235 0.95 0.868 2.212 1.398 3.61 1.398 0.597 0 1.167-0.095 1.697-0.285 0.651 1.547 1.018 3.257 1.018 5.035z"></path>
<path fill="none" stroke-linejoin="round" stroke-linecap="round" stroke-miterlimit="10" stroke-width="1.92" stroke="#000" d="M30.738 6.5c0 0.434-0.054 0.855-0.163 1.262-0.122 0.543-0.339 1.072-0.624 1.534-0.651 1.099-1.697 1.954-2.945 2.348-0.529 0.19-1.099 0.285-1.697 0.285-1.398 0-2.66-0.529-3.61-1.398-0.407-0.353-0.76-0.774-1.031-1.235-0.502-0.814-0.787-1.778-0.787-2.796 0-0.597 0.095-1.167 0.271-1.71 0.258-0.787 0.692-1.493 1.262-2.076 0.991-1.018 2.375-1.642 3.895-1.642 1.601 0 3.054 0.692 4.031 1.805 0.868 0.964 1.398 2.239 1.398 3.624z"></path>
<path fill="none" stroke-linejoin="round" stroke-linecap="round" stroke-miterlimit="10" stroke-width="1.92" stroke="#000" d="M27.331 6.473h-4.044"></path>
<path fill="none" stroke-linejoin="round" stroke-linecap="round" stroke-miterlimit="10" stroke-width="1.92" stroke="#000" d="M25.309 4.491v4.058"></path>
</svg>
