<!-- Generated by IcoMoon.io -->
<svg version="1.1" xmlns="http://www.w3.org/2000/svg" width="32" height="32" viewBox="0 0 32 32">
<title>user-octagon</title>
<path d="M17.596 4.094c-1.001-0.571-2.22-0.568-3.202-0.001l-7.916 4.571c-0.989 0.583-1.597 1.642-1.597 2.776v9.12c0 1.151 0.611 2.207 1.593 2.774l7.916 4.571c0.001 0 0.001 0.001 0.002 0.001 1 0.571 2.22 0.568 3.202 0.001 0 0 0 0 0 0l7.913-4.569c0.001-0.001 0.002-0.001 0.003-0.002 0.989-0.583 1.597-1.642 1.597-2.776v-9.12c0-1.145-0.606-2.193-1.597-2.776-0.001-0.001-0.002-0.001-0.003-0.002l-7.909-4.567c-0.001-0-0.001-0.001-0.002-0.001zM13.394 2.361c1.604-0.926 3.584-0.924 5.196-0.002l0.004 0.002 7.927 4.577c1.594 0.937 2.587 2.635 2.587 4.502v9.12c0 1.852-0.991 3.565-2.587 4.502l-0.007 0.004-7.92 4.573c-1.604 0.926-3.584 0.924-5.196 0.002l-0.004-0.002-7.92-4.573c-1.605-0.926-2.593-2.644-2.593-4.506v-9.12c0-1.852 0.991-3.565 2.587-4.502l0.007-0.004 7.92-4.573z"></path>
<path d="M16 9.453c-1.163 0-2.107 0.943-2.107 2.107s0.943 2.107 2.107 2.107 2.107-0.943 2.107-2.107c0-1.163-0.943-2.107-2.107-2.107zM11.893 11.56c0-2.268 1.839-4.107 4.107-4.107s4.107 1.839 4.107 4.107c0 2.268-1.839 4.107-4.107 4.107s-4.107-1.839-4.107-4.107z"></path>
<path d="M9.667 22.213c0-3.134 3.035-5.347 6.333-5.347s6.333 2.213 6.333 5.347c0 0.552-0.448 1-1 1s-1-0.448-1-1c0-1.667-1.738-3.347-4.333-3.347s-4.333 1.68-4.333 3.347c0 0.552-0.448 1-1 1s-1-0.448-1-1z"></path>
</svg>
