<!-- Generated by IcoMoon.io -->
<svg version="1.1" xmlns="http://www.w3.org/2000/svg" width="32" height="32" viewBox="0 0 32 32">
<title>user-square</title>
<path d="M8.963 28.078c0.871 0.171 1.877 0.255 3.037 0.255h8c1.161 0 2.166-0.085 3.037-0.255-0.691-2.435-3.449-4.451-7.037-4.451s-6.346 2.017-7.037 4.451zM6.817 28.742c0.351-4.143 4.507-7.116 9.183-7.116s8.833 2.972 9.183 7.116c0.040 0.473-0.258 0.909-0.713 1.043-1.294 0.382-2.783 0.548-4.47 0.548h-8c-1.687 0-3.176-0.165-4.47-0.548-0.455-0.134-0.753-0.57-0.713-1.043z"></path>
<path d="M4.126 4.126c1.779-1.779 4.442-2.46 7.874-2.46h8c3.432 0 6.095 0.68 7.874 2.46s2.46 4.442 2.46 7.874v8c0 2.601-0.389 4.752-1.347 6.417-0.982 1.706-2.501 2.798-4.528 3.372-0.287 0.081-0.596 0.030-0.841-0.14s-0.402-0.441-0.427-0.738c-0.236-2.79-3.2-5.284-7.19-5.284s-6.954 2.495-7.19 5.284c-0.025 0.297-0.182 0.568-0.427 0.738s-0.554 0.221-0.841 0.14c-2.027-0.574-3.546-1.666-4.528-3.372-0.958-1.665-1.347-3.816-1.347-6.417v-8c0-3.432 0.68-6.094 2.46-7.874zM5.54 5.54c-1.221 1.221-1.874 3.225-1.874 6.46v8c0 2.439 0.371 4.188 1.080 5.42 0.524 0.911 1.264 1.594 2.3 2.068 0.993-3.476 4.764-5.861 8.953-5.861s7.961 2.385 8.953 5.861c1.036-0.474 1.776-1.157 2.3-2.068 0.709-1.232 1.080-2.98 1.080-5.42v-8c0-3.235-0.653-5.239-1.874-6.46s-3.225-1.874-6.46-1.874h-8c-3.235 0-5.239 0.653-6.46 1.874zM16 10.333c-2.088 0-3.773 1.686-3.773 3.773 0 2.091 1.689 3.787 3.773 3.787s3.773-1.695 3.773-3.787c0-2.088-1.686-3.773-3.773-3.773zM10.227 14.107c0-3.192 2.581-5.773 5.773-5.773s5.773 2.581 5.773 5.773c0 3.189-2.577 5.787-5.773 5.787s-5.773-2.598-5.773-5.787z"></path>
<path d="M16 10.333c-2.088 0-3.773 1.686-3.773 3.773 0 2.091 1.689 3.787 3.773 3.787s3.773-1.695 3.773-3.787c0-2.088-1.686-3.773-3.773-3.773zM10.227 14.107c0-3.192 2.581-5.773 5.773-5.773s5.773 2.581 5.773 5.773c0 3.189-2.577 5.787-5.773 5.787s-5.773-2.598-5.773-5.787z"></path>
</svg>
