<!-- Generated by IcoMoon.io -->
<svg version="1.1" xmlns="http://www.w3.org/2000/svg" width="34" height="32" viewBox="0 0 34 32">
<path fill="none" stroke-linejoin="miter" stroke-linecap="round" stroke-miterlimit="4" stroke-width="2" stroke="#000" d="M27.195 18.248c1.69 1.263 3.2 4.441 3.2 6.4 0 0.61-0.445 1.105-0.994 1.105h-0.606M22.395 13.073c1.093-0.632 1.828-1.814 1.828-3.168s-0.735-2.536-1.828-3.168M5.789 25.752h17.516c0.549 0 0.994-0.495 0.994-1.105 0-3.835-3.204-6.945-9.752-6.945s-9.752 3.109-9.752 6.945c0 0.61 0.445 1.105 0.994 1.105zM18.204 9.905c0 2.020-1.637 3.657-3.657 3.657s-3.657-1.637-3.657-3.657c0-2.020 1.637-3.657 3.657-3.657s3.657 1.637 3.657 3.657z"></path>
</svg>
