<!-- Generated by IcoMoon.io -->
<svg version="1.1" xmlns="http://www.w3.org/2000/svg" width="32" height="32" viewBox="0 0 32 32">
<path fill="none" stroke-linejoin="miter" stroke-linecap="round" stroke-miterlimit="4" stroke-width="2.4" stroke="#000" d="M16 1.2c8.174 0 14.8 6.626 14.8 14.8s-6.626 14.8-14.8 14.8c-8.174 0-14.8-6.626-14.8-14.8s6.626-14.8 14.8-14.8z"></path>
<path d="M12.431 9.842l3.631 10.752 3.642-10.828c0.19-0.569 0.332-0.963 0.427-1.181 0.095-0.226 0.252-0.427 0.47-0.602 0.219-0.182 0.518-0.273 0.897-0.273 0.277 0 0.532 0.069 0.766 0.208 0.241 0.139 0.427 0.324 0.558 0.558 0.139 0.226 0.208 0.456 0.208 0.689 0 0.16-0.022 0.335-0.066 0.525-0.044 0.182-0.098 0.365-0.164 0.547-0.066 0.175-0.131 0.357-0.197 0.547l-3.883 10.478c-0.139 0.401-0.277 0.784-0.416 1.148-0.139 0.357-0.299 0.674-0.481 0.952-0.182 0.27-0.427 0.492-0.733 0.667-0.299 0.175-0.667 0.262-1.105 0.262s-0.809-0.087-1.116-0.262c-0.299-0.168-0.543-0.39-0.733-0.667-0.182-0.284-0.343-0.605-0.481-0.963s-0.277-0.736-0.416-1.137l-3.817-10.391c-0.066-0.19-0.135-0.376-0.208-0.558-0.066-0.182-0.124-0.379-0.175-0.591-0.044-0.211-0.066-0.39-0.066-0.536 0-0.372 0.149-0.711 0.448-1.017s0.674-0.459 1.127-0.459c0.554 0 0.944 0.171 1.17 0.514 0.233 0.335 0.47 0.875 0.711 1.619z"></path>
</svg>
