<!-- Generated by IcoMoon.io -->
<svg version="1.1" xmlns="http://www.w3.org/2000/svg" width="32" height="32" viewBox="0 0 32 32">
<path d="M1.479 15.448h29.016c-0.013-0.053-0.025-0.104-0.036-0.152v0c-0.023-0.097-0.044-0.185-0.068-0.273-1.203-4.34-2.406-8.68-3.609-13.020-0.174-0.629-0.236-0.675-0.896-0.675h-19.738c-0.705 0-0.776 0.054-0.965 0.735-0.957 3.454-1.914 6.908-2.87 10.363-0.184 0.664-0.366 1.328-0.552 2.001v0 0c-0.093 0.338-0.187 0.678-0.281 1.022zM1.329 16.542v3.805c0 2.844 0 5.689 0 8.533 0 1.191 0.596 1.791 1.781 1.791 8.593 0.001 17.187 0.001 25.78 0 1.168 0 1.781-0.618 1.782-1.794 0.001-2.835 0-5.671 0-8.506v-3.829h-29.344zM15.981 31.721c-1.162 0-2.324 0-3.486 0-3.146 0-6.292-0.001-9.437 0.002-1.129 0.001-1.991-0.465-2.492-1.476-0.179-0.361-0.273-0.803-0.274-1.208-0.017-3.709-0.014-7.419-0.011-11.129l0.001-1.795c0-0.114 0.023-0.231 0.054-0.341 0.959-3.502 1.919-7.003 2.878-10.504l0.001-0.004 0.976-3.562c0.281-1.024 0.803-1.428 1.857-1.428 6.636 0 13.273 0 19.909 0 1.045 0 1.544 0.368 1.82 1.369 1.303 4.721 2.603 9.443 3.9 14.166 0.036 0.132 0.044 0.274 0.044 0.412 0.002 4.226 0.003 8.453 0.001 12.679-0.001 1.719-1.097 2.815-2.818 2.816-3.096 0.001-6.191 0.001-9.287 0.001-1.212 0-2.424 0-3.637 0zM11.558 19.922v0c0.136 0.452 0.27 0.896 0.412 1.338 0.081 0.252 0.288 0.357 0.544 0.357 0.286 0 0.571 0.001 0.857 0.001v0c1.541 0.002 3.082 0.005 4.623-0.013 0.17-0.002 0.434-0.154 0.489-0.299 0.172-0.455 0.311-0.922 0.452-1.398v0c0.052-0.175 0.105-0.352 0.159-0.53h-7.701c0.056 0.183 0.11 0.364 0.164 0.544zM15.245 18.234c0.349 0 0.698 0 1.047 0h0.001c0.872 0 1.744-0.001 2.617 0.001s1.36 0.606 1.141 1.453c-0.174 0.674-0.379 1.342-0.602 2.002-0.221 0.654-0.74 1.023-1.425 1.026-1.85 0.008-3.7 0.009-5.55 0-0.727-0.004-1.247-0.404-1.488-1.147-0.208-0.641-0.394-1.291-0.563-1.943-0.191-0.74 0.319-1.386 1.087-1.39 0.874-0.005 1.747-0.004 2.621-0.003 0.371 0 0.743 0.001 1.114 0.001zM26.616 12.549c0.001 0.021 0.002 0.045 0.004 0.073h-21.237c0.005-0.033 0.008-0.065 0.012-0.095 0.007-0.062 0.014-0.119 0.029-0.174 0.228-0.832 0.456-1.665 0.684-2.497 0.541-1.974 1.083-3.948 1.619-5.923 0.060-0.219 0.148-0.293 0.378-0.292 5.263 0.006 10.526 0.005 15.79 0.003 0.173 0 0.301 0.002 0.36 0.221 0.571 2.104 1.148 4.206 1.725 6.308 0.209 0.76 0.417 1.52 0.625 2.281 0.008 0.028 0.009 0.057 0.011 0.095zM12.239 13.764c1.242 0 2.484 0 3.726 0 1.077 0 2.154 0 3.23 0 2.696 0 5.392 0 8.088 0 0.58 0 0.777-0.257 0.623-0.821-0.897-3.288-1.796-6.574-2.696-9.861-0.137-0.5-0.233-0.568-0.761-0.568-5.636 0-11.272 0-16.909 0-0.514 0-0.618 0.079-0.756 0.581-0.895 3.252-1.789 6.504-2.683 9.756-0.186 0.677-0.009 0.914 0.684 0.914 2.484 0 4.969 0 7.453 0z"></path>
</svg>
