<!-- Generated by IcoMoon.io -->
<svg version="1.1" xmlns="http://www.w3.org/2000/svg" width="32" height="32" viewBox="0 0 32 32">
<title>volRetroviseur</title>
<path d="M20.819 30.023h-3.296c-1.473 0-2.626-1.114-2.626-2.537v-4.322c0-0.286 0.232-0.518 0.518-0.518s0.518 0.232 0.518 0.518v4.322c0 0.841 0.698 1.5 1.589 1.5h3.296c0.836 0 1.376-0.589 1.376-1.5v-0.582c0-0.286 0.232-0.518 0.518-0.518s0.518 0.232 0.518 0.518v0.582c0 1.47-1.014 2.537-2.412 2.537z"></path>
<path d="M30.869 26.824h-9.577c-0.959 0-2.021-0.316-3.158-0.939-0.006-0.003-0.012-0.007-0.018-0.010l-0.788-0.473c-2.347-1.291-3.804-3.717-3.804-6.334v-2.195c0-1.218 0.451-2.419 1.302-3.471 0.003-0.003 0.005-0.006 0.008-0.009l1.81-2.135h-3.007c-1.2 0-2.177-0.976-2.177-2.177v-0.846c0-1.080 0.878-1.958 1.958-1.958h2.866c0.739 0 1.377 0.486 1.552 1.182l0.064 0.231c0.001 0.005 0.003 0.009 0.003 0.014 0.039 0.158 0.177 0.279 0.27 0.279h0.296l0.234-0.46c0 0 0.003-0.006 0.005-0.009 1.92-3.591 5.611-5.822 9.632-5.822l2.555 0.022c0.286 0.003 0.516 0.236 0.514 0.522s-0.239 0.517-0.523 0.514l-2.551-0.022c-3.632 0-6.971 2.019-8.711 5.27l-0.376 0.737c-0.088 0.173-0.267 0.283-0.462 0.283h-0.614c-0.585 0-1.119-0.445-1.275-1.060l-0.064-0.231c-0.001-0.005-0.003-0.009-0.003-0.014-0.059-0.24-0.279-0.401-0.547-0.401h-2.866c-0.509 0-0.922 0.413-0.922 0.922v0.846c0 0.629 0.512 1.141 1.141 1.141h3.911c0.18 0 0.347 0.093 0.442 0.247s0.102 0.345 0.021 0.505l-0.317 0.627c-0.019 0.036-0.041 0.070-0.067 0.101l-1.999 2.356c-0.699 0.865-1.068 1.837-1.068 2.814v2.195c0 2.242 1.255 4.322 3.275 5.43 0.006 0.003 0.012 0.007 0.017 0.010l0.787 0.473c0.979 0.536 1.871 0.807 2.651 0.807h9.577c0.286 0 0.518 0.232 0.518 0.518s-0.232 0.518-0.518 0.518h0.001z"></path>
<path d="M30.87 22.419h-0.001l-4.201-0.013c-0.703 0-1.381-0.126-2.038-0.248l-0.16-0.030c-0.008-0.001-0.015-0.003-0.023-0.005l-0.818-0.19c-0.72-0.137-1.204-0.597-1.235-1.175-0.029-0.552 0.377-1.034 1.034-1.229 0.039-0.012 0.079-0.019 0.119-0.021l0.184-0.010c1.618-0.451 5.785-0.592 7.141-0.592 0.286 0 0.518 0.232 0.518 0.518s-0.232 0.518-0.518 0.518c-1.686 0-5.57 0.171-6.907 0.567-0.039 0.012-0.079 0.019-0.119 0.021l-0.176 0.010c-0.188 0.066-0.238 0.149-0.24 0.164 0.002 0.030 0.104 0.158 0.4 0.212 0.008 0.001 0.015 0.003 0.023 0.005l0.818 0.189 0.15 0.028c0.61 0.113 1.242 0.231 1.851 0.231l4.203 0.013c0.286 0.001 0.518 0.233 0.517 0.52s-0.233 0.517-0.518 0.517h-0.001zM20.272 19.834c-0.139 0-0.279-0.019-0.416-0.058l-2.451-0.701c-0.907-0.259-1.665-0.895-2.077-1.744-0.125-0.258-0.017-0.567 0.241-0.692s0.567-0.017 0.692 0.24c0.283 0.584 0.804 1.022 1.428 1.2l2.451 0.701c0.196 0.056 0.41-0.017 0.532-0.18l0.39-0.524c0.080-0.108 0.112-0.24 0.091-0.372s-0.093-0.248-0.203-0.325l-3.925-2.777c-0.234-0.165-0.289-0.489-0.124-0.722s0.489-0.289 0.722-0.124l3.925 2.777c0.339 0.24 0.562 0.598 0.627 1.008s-0.035 0.82-0.283 1.153l-0.39 0.525c-0.292 0.393-0.756 0.617-1.233 0.617v-0.001zM30.87 11.405c-7.589 0-9.74-1.075-10.346-1.724-0.032-0.030-0.060-0.064-0.084-0.102-0.081-0.129-0.101-0.287-0.055-0.432 0.515-1.621 1.494-3.029 2.831-4.071 0.226-0.176 0.551-0.135 0.728 0.090s0.135 0.551-0.090 0.728c-1.080 0.842-1.893 1.956-2.368 3.239 0.598 0.377 2.694 1.236 9.384 1.236 0.286 0 0.518 0.232 0.518 0.518s-0.232 0.518-0.518 0.518v-0.001z"></path>
<path d="M6.946 7.942c-1.999 0-3.626-1.627-3.626-3.626s1.627-3.626 3.626-3.626c1.999 0 3.626 1.627 3.626 3.626s-1.627 3.626-3.626 3.626zM6.946 1.727c-1.428 0-2.589 1.162-2.589 2.589s1.162 2.589 2.589 2.589c1.428 0 2.589-1.162 2.589-2.589s-1.162-2.589-2.589-2.589z"></path>
<path d="M9.921 13.718c-0.223 0-0.446-0.040-0.657-0.122l-3.862-1.522c-0.266-0.105-0.397-0.406-0.292-0.672s0.406-0.397 0.672-0.292l3.859 1.522c0.224 0.087 0.484 0.064 0.691-0.063 0.008-0.006 0.017-0.010 0.026-0.015l3.978-2.123c0.252-0.135 0.567-0.039 0.701 0.214s0.039 0.567-0.213 0.701l-3.966 2.117c-0.285 0.17-0.611 0.257-0.938 0.257l0.001-0.001z"></path>
<path d="M9.63 10.815c-0.264 0-0.529-0.057-0.775-0.173l-1.802-0.848c-0.259-0.122-0.37-0.431-0.248-0.69s0.431-0.37 0.69-0.248l1.802 0.848c0.254 0.12 0.555 0.094 0.785-0.067l1.574-1.102c0.234-0.164 0.558-0.107 0.721 0.127s0.107 0.558-0.127 0.722l-1.574 1.102c-0.311 0.218-0.678 0.329-1.046 0.329v-0.001z"></path>
<path d="M10.236 30.023c-1.072 0-1.944-0.872-1.944-1.944v-6.903h-4.115c-1.043 0-2.034-0.453-2.715-1.243s-0.985-1.835-0.833-2.868l1.191-8.383c0.142-0.998 0.714-1.875 1.569-2.408l0.816-0.508c0.243-0.151 0.563-0.077 0.714 0.166s0.077 0.563-0.166 0.714l-0.816 0.508c-0.594 0.37-0.992 0.981-1.090 1.674l-1.191 8.386c-0.109 0.737 0.106 1.48 0.592 2.042s1.189 0.884 1.931 0.884h4.633c0.286 0 0.518 0.232 0.518 0.518v7.422c0 0.5 0.407 0.907 0.907 0.907s0.907-0.407 0.907-0.907v-8.292c0-0.811-0.821-1.33-1.373-1.48l-4.101-1.171c-0.275-0.079-0.435-0.365-0.356-0.641s0.366-0.435 0.641-0.356l4.094 1.17c1.023 0.279 2.13 1.175 2.13 2.479v8.293c0 1.072-0.872 1.944-1.944 1.944v-0.001z"></path>
<path d="M2.695 29.845c-0.080 0-0.16-0.005-0.241-0.016-0.489-0.064-0.923-0.317-1.219-0.713-0.578-0.771-0.454-1.86 0.281-2.482l3.847-3.185-2.201-2.514c-0.189-0.216-0.167-0.543 0.048-0.731s0.542-0.167 0.731 0.048l2.551 2.915c0.092 0.105 0.138 0.243 0.126 0.383s-0.078 0.268-0.186 0.358l-4.253 3.522c-0.312 0.264-0.366 0.733-0.117 1.065 0.128 0.17 0.314 0.279 0.524 0.307s0.419-0.030 0.586-0.161l4.067-3.269c0.223-0.18 0.549-0.144 0.728 0.079s0.144 0.549-0.079 0.728l-4.072 3.272c-0.328 0.258-0.719 0.393-1.125 0.393l0.002 0.001z"></path>
<path d="M6.909 17.374c-0.030 0-0.060-0.003-0.090-0.008-0.282-0.049-0.471-0.318-0.421-0.6l0.731-4.168c0.050-0.282 0.318-0.471 0.6-0.421s0.471 0.318 0.421 0.6l-0.731 4.168c-0.044 0.252-0.263 0.429-0.51 0.429z"></path>
</svg>
