<!-- Generated by IcoMoon.io -->
<svg version="1.1" xmlns="http://www.w3.org/2000/svg" width="33" height="32" viewBox="0 0 33 32">
<path d="M30 14.633v2.747c0 0.733-0.587 1.333-1.333 1.36h-2.613c-1.44 0-2.76-1.053-2.88-2.493-0.080-0.84 0.24-1.627 0.8-2.173 0.493-0.507 1.173-0.8 1.92-0.8h2.773c0.747 0.027 1.333 0.627 1.333 1.36z"></path>
<path d="M27.96 20.74h-1.907c-2.533 0-4.667-1.907-4.88-4.333-0.12-1.387 0.387-2.773 1.4-3.76 0.853-0.88 2.040-1.373 3.32-1.373h2.067c0.387 0 0.707-0.32 0.667-0.707-0.293-3.24-2.44-5.453-5.627-5.827-0.32-0.053-0.653-0.067-1-0.067h-12c-0.373 0-0.733 0.027-1.080 0.080-3.4 0.427-5.587 2.96-5.587 6.587v9.333c0 3.68 2.987 6.667 6.667 6.667h12c3.733 0 6.307-2.333 6.627-5.893 0.040-0.387-0.28-0.707-0.667-0.707zM18 13.007h-8c-0.547 0-1-0.453-1-1s0.453-1 1-1h8c0.547 0 1 0.453 1 1s-0.453 1-1 1z"></path>
</svg>
