<!-- Generated by IcoMoon.io -->
<svg version="1.1" xmlns="http://www.w3.org/2000/svg" width="32" height="32" viewBox="0 0 32 32">
<path fill="none" stroke-linejoin="round" stroke-linecap="round" stroke-miterlimit="4" stroke-width="2" stroke="#000" d="M17.333 12.007h-8"></path>
<path fill="none" stroke-linejoin="round" stroke-linecap="round" stroke-miterlimit="4" stroke-width="2" stroke="#000" d="M29.333 14.633v2.747c0 0.733-0.587 1.333-1.333 1.36h-2.613c-1.44 0-2.76-1.053-2.88-2.493-0.080-0.84 0.24-1.627 0.8-2.173 0.493-0.507 1.173-0.8 1.92-0.8h2.773c0.747 0.027 1.333 0.627 1.333 1.36z"></path>
<path fill="none" stroke-linejoin="round" stroke-linecap="round" stroke-miterlimit="4" stroke-width="2" stroke="#000" d="M23.307 14.073c-0.56 0.547-0.88 1.333-0.8 2.173 0.12 1.44 1.44 2.493 2.88 2.493h2.613v1.933c0 4-2.667 6.667-6.667 6.667h-12c-4 0-6.667-2.667-6.667-6.667v-9.333c0-3.627 2.187-6.16 5.587-6.587 0.347-0.053 0.707-0.080 1.080-0.080h12c0.347 0 0.68 0.013 1 0.067 3.44 0.4 5.667 2.947 5.667 6.6v1.933h-2.773c-0.747 0-1.427 0.293-1.92 0.8z"></path>
</svg>
