<!-- Generated by IcoMoon.io -->
<svg version="1.1" xmlns="http://www.w3.org/2000/svg" width="32" height="32" viewBox="0 0 32 32">
<path d="M28.8 22.080v1c0.552 0 1-0.448 1-1h-1zM28.8 15.040h1c0-0.552-0.448-1-1-1v1zM9.699 8.439c-0.465 0.299-0.599 0.917-0.3 1.382s0.917 0.599 1.382 0.3l-1.082-1.682zM19.2 3.52l0.789-0.614c-0.318-0.409-0.895-0.507-1.33-0.227l0.541 0.841zM22.891 9.894c0.339 0.436 0.967 0.514 1.403 0.175s0.514-0.967 0.175-1.403l-1.579 1.228zM28.8 21.080h-4.16v2h4.16v-2zM24.64 16.040h4.16v-2h-4.16v2zM27.8 15.040v7.040h2v-7.040h-2zM22.12 18.56c0-1.392 1.128-2.52 2.52-2.52v-2c-2.496 0-4.52 2.024-4.52 4.52h2zM24.64 21.080c-1.392 0-2.52-1.128-2.52-2.52h-2c0 2.496 2.024 4.52 4.52 4.52v-2zM10.781 10.121l8.96-5.76-1.081-1.682-8.96 5.76 1.082 1.682zM18.411 4.134l4.48 5.76 1.579-1.228-4.48-5.76-1.579 1.228zM4.48 10.28h21.76v-2h-21.76v2zM26.24 27.48h-21.76v2h21.76v-2zM4.2 27.2v-16.64h-2v16.64h2zM4.48 27.48c-0.155 0-0.28-0.125-0.28-0.28h-2c0 1.259 1.021 2.28 2.28 2.28v-2zM26.52 27.2c0 0.155-0.125 0.28-0.28 0.28v2c1.259 0 2.28-1.021 2.28-2.28h-2zM26.24 10.28c0.154 0 0.28 0.125 0.28 0.28h2c0-1.259-1.021-2.28-2.28-2.28v2zM4.48 8.28c-1.259 0-2.28 1.021-2.28 2.28h2c0-0.155 0.125-0.28 0.28-0.28v-2zM26.52 23.040v4.16h2v-4.16h-2zM26.52 10.56v3.36h2v-3.36h-2z"></path>
</svg>
