<!-- Generated by IcoMoon.io -->
<svg version="1.1" xmlns="http://www.w3.org/2000/svg" width="32" height="32" viewBox="0 0 32 32">
<path d="M14.883 1.448c-0.739 0.216-1.372 0.604-1.875 1.119l-0.001 0.001c-0.475 0.484-0.693 0.857-6.564 11.306-3.339 5.941-6.135 10.985-6.211 11.204-0.147 0.412-0.232 0.887-0.232 1.382 0 1.866 1.205 3.451 2.88 4.018l0.030 0.009 0.524 0.171h25.133l0.524-0.171c1.704-0.576 2.91-2.16 2.91-4.027 0-0.495-0.085-0.97-0.241-1.412l0.009 0.030c-0.076-0.22-2.872-5.263-6.211-11.204-5.871-10.448-6.089-10.822-6.564-11.306-0.51-0.523-1.153-0.914-1.875-1.117l-0.030-0.007c-0.52-0.135-1.696-0.133-2.205 0.004zM16.946 7.701c0.438 0.219 0.78 0.574 0.977 1.009l0.005 0.013c0.146 0.313 0.148 0.408 0.148 4.017v3.696l-0.196 0.403c-0.348 0.699-1.057 1.17-1.876 1.17-0.262 0-0.512-0.048-0.742-0.136l0.014 0.005c-0.51-0.19-0.915-0.558-1.15-1.027l-0.005-0.012-0.196-0.403-0.023-3.485c-0.015-2.376 0.002-3.599 0.055-3.846 0.289-1.324 1.751-2.011 2.991-1.405zM16.946 22.485c0.735 0.359 1.128 1.010 1.13 1.871 0 0.437-0.034 0.596-0.196 0.931-0.24 0.481-0.646 0.849-1.141 1.034l-0.014 0.005c-1.552 0.581-3.155-0.838-2.769-2.452 0.225-0.934 1.054-1.617 2.042-1.617 0.346 0 0.673 0.084 0.961 0.233l-0.012-0.006z"></path>
</svg>
