<svg width="882" height="525" viewBox="0 0 882 525" fill="none" xmlns="http://www.w3.org/2000/svg">
<path d="M705.815 136.376C646.904 169.299 688.89 155.868 631.371 190.974C611.77 203.423 592.315 216.108 573.006 229.029C584.344 202.822 595.127 176.433 605.355 149.862C610.214 137.223 614.937 124.665 619.578 111.644C620.28 109.761 620.596 107.757 620.506 105.75C620.416 103.743 619.921 101.775 619.053 99.9637C618.184 98.1523 616.959 96.5348 615.45 95.208C613.942 93.8813 612.181 92.8725 610.274 92.2422C608.366 91.6119 606.351 91.3729 604.349 91.5397C602.347 91.7064 600.399 92.2754 598.622 93.2126C596.845 94.1498 595.276 95.4359 594.008 96.9939C592.739 98.5519 591.798 100.35 591.241 102.28L590.45 103.973L588.757 107.385C580.565 123.553 570.124 138.479 557.746 151.718C549.903 160.879 540.309 168.381 529.526 173.781C518.744 179.182 506.991 182.373 494.958 183.167C491.863 183.368 488.761 182.893 485.867 181.775C485.522 181.614 485.221 181.37 484.994 181.065C484.609 180.364 484.367 179.594 484.284 178.799C488.108 154.309 497.259 130.956 511.092 110.388C512.622 107.242 512.9 103.632 511.868 100.29C510.836 96.9472 508.572 94.1218 505.535 92.3862C502.498 90.6506 498.914 90.1346 495.511 90.9427C492.107 91.7508 489.138 93.8226 487.205 96.7383C478.194 111.623 470.257 127.131 463.455 143.147C459.659 152.074 457.105 161.48 455.866 171.101C454.855 176.558 455.159 182.176 456.752 187.493C458.345 192.809 461.181 197.669 465.025 201.671C468.87 205.673 473.613 208.702 478.861 210.506C484.108 212.311 489.711 212.84 495.204 212.049C517.128 211.533 538.388 204.427 556.217 191.657C547.29 213.141 536.944 237.192 525.615 261.761C482.811 292.033 441.794 324.755 402.769 359.764C387.261 373.816 372.944 389.129 359.964 405.544C347.871 421.159 332.502 447.148 350 464.92C356.457 469.619 363.816 472.932 371.614 474.651C379.413 476.371 387.482 476.459 395.317 474.911C399.599 474.643 403.843 473.938 407.983 472.809C465.611 455.747 522.639 338.716 552.013 275.874C593.398 246.146 636.039 218.11 679.062 191.029C694.759 181.938 729.374 155.54 765.218 132.855V105.965C744.989 115.302 725.334 125.921 705.897 136.458M406.373 442.043C402.177 444.352 397.507 445.669 392.723 445.892C385.48 446.988 378.089 446.56 371.02 444.637C371.02 444.364 371.02 444.036 371.184 443.654C373.75 436.056 377.692 428.995 382.814 422.825C394.818 407.678 408.018 393.519 422.288 380.484C447.239 357.498 473.228 335.686 499.954 314.803C470.225 372.431 436.975 424.299 406.455 442.016" fill="#213A38"/>
<path d="M868.959 106.158V96.5212H881.107C876.478 90.6471 870.162 86.3314 863.008 84.1547C848.176 80.7478 832.704 81.3508 818.182 85.9019C799.993 91.1244 782.255 97.8071 765.141 105.885V132.911C808.191 105.803 852.961 84.5642 868.877 106.158" fill="#213A38"/>
<path d="M353.68 276.743C391.571 203.446 433.502 132.25 468.663 57.478C473.126 48.1444 476.779 38.445 479.583 28.4865C480.13 26.1821 480.477 23.8348 480.62 21.4707C481.081 16.7831 479.811 12.0889 477.051 8.27247C474.29 4.45604 470.229 1.78081 465.633 0.750742C460.378 0.484706 455.123 1.30224 450.197 3.15254C445.271 5.00285 440.778 7.8464 436.997 11.5065C421.833 23.6416 407.445 36.7162 393.919 50.6533C342.487 102.822 293.267 156.546 245.358 211.717C253.274 185.592 261.464 159.44 268.698 133.096C270.691 125.725 272.657 118.355 274.322 110.493C275.767 104.663 276.455 98.6718 276.369 92.6664C276.502 86.5106 274.193 80.5525 269.948 76.0927C265.703 71.6328 259.866 69.0333 253.711 68.8617C237.366 71.1917 222.06 78.2517 209.678 89.1721C191.299 103.132 173.744 118.145 157.1 134.134C102.758 186.474 51.5646 241.988 3.78902 300.384C1.45335 303.498 0.410881 307.394 0.879255 311.259C1.34763 315.123 3.29064 318.657 6.30263 321.123C9.31461 323.589 13.1627 324.796 17.0435 324.493C20.9244 324.189 24.5379 322.398 27.1297 319.494C45.9113 296.563 65.3482 274.095 85.2219 251.983C124.268 207.597 166.141 165.778 210.579 126.79C216.039 122.149 221.771 117.645 227.477 113.468C233.043 109.238 238.92 105.433 245.057 102.085C243.583 109.728 241.536 117.317 239.461 125.152C229.524 161.105 217.95 196.457 207.576 232.464C204.846 241.828 202.116 251.383 200.314 261.429C198.995 266.7 199.799 272.278 202.553 276.962C203.812 278.833 205.457 280.412 207.378 281.593C209.299 282.775 211.451 283.53 213.689 283.81C215.926 284.089 218.198 283.886 220.35 283.213C222.503 282.54 224.486 281.414 226.167 279.91C267.634 231.509 309.947 183.244 353.38 136.481C380.105 107.954 407.131 79.0169 436.178 53.0829C416.113 97.7986 394.192 141.723 372.871 185.947C346.883 239.999 321.003 294.16 297.635 349.441C279.071 390.775 264.332 433.723 253.602 477.746C249.11 492.859 249.608 509.018 255.022 523.827C255.315 524.351 255.804 524.738 256.383 524.902C256.962 525.066 257.581 524.993 258.106 524.7C258.631 524.407 259.018 523.917 259.182 523.339C259.346 522.76 259.273 522.14 258.98 521.615C251.664 505.946 262.583 474.961 268.125 458.5C292.742 396.189 321.319 335.516 353.68 276.853" fill="#213A38"/>
</svg>
