<?xml version="1.0" encoding="UTF-8" standalone="no"?>
<!DOCTYPE svg PUBLIC "-//W3C//DTD SVG 1.1//EN"
 "http://www.w3.org/Graphics/SVG/1.1/DTD/svg11.dtd">
<!-- Generated by graphviz version 2.47.0 (20210316.0004)
 -->
<!-- Title: dependencies Pages: 1 -->
<svg width="11641pt" height="284pt"
 viewBox="0.00 0.00 11641.00 284.00" xmlns="http://www.w3.org/2000/svg" xmlns:xlink="http://www.w3.org/1999/xlink">
<g id="graph0" class="graph" transform="scale(1 1) rotate(0) translate(4 280)">
<title>dependencies</title>
<polygon fill="white" stroke="transparent" points="-4,4 -4,-280 11637,-280 11637,4 -4,4"/>
<text text-anchor="start" x="5795.51" y="-42.4" font-family="Times-12" font-weight="bold" font-size="14.00">Legend</text>
<polygon fill="#ffffb3" stroke="transparent" points="5582.5,-10 5582.5,-30 5602.5,-30 5602.5,-10 5582.5,-10"/>
<text text-anchor="start" x="5606.13" y="-15.4" font-family="Times-12" font-size="14.00"> &#160;Declarations</text>
<polygon fill="#8dd3c7" stroke="transparent" points="5695.5,-10 5695.5,-30 5715.5,-30 5715.5,-10 5695.5,-10"/>
<text text-anchor="start" x="5719.23" y="-15.4" font-family="Times-12" font-size="14.00"> &#160;Module</text>
<polygon fill="#80b1d3" stroke="transparent" points="5781.5,-10 5781.5,-30 5801.5,-30 5801.5,-10 5781.5,-10"/>
<text text-anchor="start" x="5805.28" y="-15.4" font-family="Times-12" font-size="14.00"> &#160;Bootstrap</text>
<polygon fill="#fdb462" stroke="transparent" points="5878.5,-10 5878.5,-30 5898.5,-30 5898.5,-10 5878.5,-10"/>
<text text-anchor="start" x="5902.17" y="-15.4" font-family="Times-12" font-size="14.00"> &#160;Providers</text>
<polygon fill="#fb8072" stroke="transparent" points="5974.5,-10 5974.5,-30 5994.5,-30 5994.5,-10 5974.5,-10"/>
<text text-anchor="start" x="5998.23" y="-15.4" font-family="Times-12" font-size="14.00"> &#160;Exports</text>
<g id="clust1" class="cluster">
<title>cluster_AppModule</title>
<polygon fill="none" stroke="black" stroke-dasharray="1,5" points="8,-70 8,-268 11625,-268 11625,-70 8,-70"/>
</g>
<g id="clust2" class="cluster">
<title>cluster_AppModule_declarations</title>
<polygon fill="none" stroke="black" points="180,-78 180,-130 11617,-130 11617,-78 180,-78"/>
</g>
<g id="clust62" class="cluster">
<title>cluster_AppModule_imports</title>
<polygon fill="none" stroke="black" points="16,-78 16,-130 172,-130 172,-78 16,-78"/>
</g>
<g id="clust64" class="cluster">
<title>cluster_AppModule_bootstrap</title>
<polygon fill="none" stroke="black" points="5419,-208 5419,-260 5543,-260 5543,-208 5419,-208"/>
</g>
<!-- AccordionStoryComponent -->
<g id="node1" class="node">
<title>AccordionStoryComponent</title>
<polygon fill="#ffffb3" stroke="black" points="11609.25,-122 11438.75,-122 11438.75,-86 11609.25,-86 11609.25,-122"/>
<text text-anchor="middle" x="11524" y="-99.8" font-family="Times,serif" font-size="14.00">AccordionStoryComponent</text>
</g>
<!-- AppModule -->
<g id="node60" class="node">
<title>AppModule</title>
<polygon fill="#8dd3c7" stroke="black" points="5522.66,-187 5519.66,-191 5498.66,-191 5495.66,-187 5439.34,-187 5439.34,-151 5522.66,-151 5522.66,-187"/>
<text text-anchor="middle" x="5481" y="-164.8" font-family="Times,serif" font-size="14.00">AppModule</text>
</g>
<!-- AccordionStoryComponent&#45;&gt;AppModule -->
<g id="edge1" class="edge">
<title>AccordionStoryComponent&#45;&gt;AppModule</title>
<path fill="none" stroke="black" d="M11524,-122.2C11524,-146.36 11524,-186 11524,-186 11524,-186 5532.82,-186 5532.82,-186"/>
<polygon fill="black" stroke="black" points="5532.82,-182.5 5522.82,-186 5532.82,-189.5 5532.82,-182.5"/>
</g>
<!-- AccountFilialHoldingCardStoryComponent -->
<g id="node2" class="node">
<title>AccountFilialHoldingCardStoryComponent</title>
<polygon fill="#ffffb3" stroke="black" points="11420.75,-122 11159.25,-122 11159.25,-86 11420.75,-86 11420.75,-122"/>
<text text-anchor="middle" x="11290" y="-99.8" font-family="Times,serif" font-size="14.00">AccountFilialHoldingCardStoryComponent</text>
</g>
<!-- AccountFilialHoldingCardStoryComponent&#45;&gt;AppModule -->
<g id="edge2" class="edge">
<title>AccountFilialHoldingCardStoryComponent&#45;&gt;AppModule</title>
<path fill="none" stroke="black" d="M11290,-122.38C11290,-146.28 11290,-185 11290,-185 11290,-185 5532.79,-185 5532.79,-185"/>
<polygon fill="black" stroke="black" points="5532.79,-181.5 5522.79,-185 5532.79,-188.5 5532.79,-181.5"/>
</g>
<!-- AccountGridCardStoryComponent -->
<g id="node3" class="node">
<title>AccountGridCardStoryComponent</title>
<polygon fill="#ffffb3" stroke="black" points="11140.96,-122 10929.04,-122 10929.04,-86 11140.96,-86 11140.96,-122"/>
<text text-anchor="middle" x="11035" y="-99.8" font-family="Times,serif" font-size="14.00">AccountGridCardStoryComponent</text>
</g>
<!-- AccountGridCardStoryComponent&#45;&gt;AppModule -->
<g id="edge3" class="edge">
<title>AccountGridCardStoryComponent&#45;&gt;AppModule</title>
<path fill="none" stroke="black" d="M11035,-122.15C11035,-145.76 11035,-184 11035,-184 11035,-184 5532.91,-184 5532.91,-184"/>
<polygon fill="black" stroke="black" points="5532.91,-180.5 5522.91,-184 5532.91,-187.5 5532.91,-180.5"/>
</g>
<!-- AccountGridHoldingCardStoryComponent -->
<g id="node4" class="node">
<title>AccountGridHoldingCardStoryComponent</title>
<polygon fill="#ffffb3" stroke="black" points="10910.85,-122 10653.15,-122 10653.15,-86 10910.85,-86 10910.85,-122"/>
<text text-anchor="middle" x="10782" y="-99.8" font-family="Times,serif" font-size="14.00">AccountGridHoldingCardStoryComponent</text>
</g>
<!-- AccountGridHoldingCardStoryComponent&#45;&gt;AppModule -->
<g id="edge4" class="edge">
<title>AccountGridHoldingCardStoryComponent&#45;&gt;AppModule</title>
<path fill="none" stroke="black" d="M10782,-122.32C10782,-145.66 10782,-183 10782,-183 10782,-183 5532.9,-183 5532.9,-183"/>
<polygon fill="black" stroke="black" points="5532.9,-179.5 5522.9,-183 5532.9,-186.5 5532.9,-179.5"/>
</g>
<!-- AccountHoldingCardStoryComponent -->
<g id="node5" class="node">
<title>AccountHoldingCardStoryComponent</title>
<polygon fill="#ffffb3" stroke="black" points="10635.19,-122 10402.81,-122 10402.81,-86 10635.19,-86 10635.19,-122"/>
<text text-anchor="middle" x="10519" y="-99.8" font-family="Times,serif" font-size="14.00">AccountHoldingCardStoryComponent</text>
</g>
<!-- AccountHoldingCardStoryComponent&#45;&gt;AppModule -->
<g id="edge5" class="edge">
<title>AccountHoldingCardStoryComponent&#45;&gt;AppModule</title>
<path fill="none" stroke="black" d="M10519,-122.25C10519,-145.02 10519,-181 10519,-181 10519,-181 5532.67,-181 5532.67,-181"/>
<polygon fill="black" stroke="black" points="5532.67,-177.5 5522.67,-181 5532.67,-184.5 5532.67,-177.5"/>
</g>
<!-- AccountHoldingSelectedCardStoryComponent -->
<g id="node6" class="node">
<title>AccountHoldingSelectedCardStoryComponent</title>
<polygon fill="#ffffb3" stroke="black" points="10384.61,-122 10105.39,-122 10105.39,-86 10384.61,-86 10384.61,-122"/>
<text text-anchor="middle" x="10245" y="-99.8" font-family="Times,serif" font-size="14.00">AccountHoldingSelectedCardStoryComponent</text>
</g>
<!-- AccountHoldingSelectedCardStoryComponent&#45;&gt;AppModule -->
<g id="edge6" class="edge">
<title>AccountHoldingSelectedCardStoryComponent&#45;&gt;AppModule</title>
<path fill="none" stroke="black" d="M10245,-122.01C10245,-144.49 10245,-180 10245,-180 10245,-180 5532.91,-180 5532.91,-180"/>
<polygon fill="black" stroke="black" points="5532.91,-176.5 5522.91,-180 5532.91,-183.5 5532.91,-176.5"/>
</g>
<!-- AccountSelectedCardStoryComponent -->
<g id="node7" class="node">
<title>AccountSelectedCardStoryComponent</title>
<polygon fill="#ffffb3" stroke="black" points="10086.73,-122 9853.27,-122 9853.27,-86 10086.73,-86 10086.73,-122"/>
<text text-anchor="middle" x="9970" y="-99.8" font-family="Times,serif" font-size="14.00">AccountSelectedCardStoryComponent</text>
</g>
<!-- AccountSelectedCardStoryComponent&#45;&gt;AppModule -->
<g id="edge7" class="edge">
<title>AccountSelectedCardStoryComponent&#45;&gt;AppModule</title>
<path fill="none" stroke="black" d="M9970,-122.16C9970,-144.35 9970,-179 9970,-179 9970,-179 5532.92,-179 5532.92,-179"/>
<polygon fill="black" stroke="black" points="5532.92,-175.5 5522.92,-179 5532.92,-182.5 5532.92,-175.5"/>
</g>
<!-- AccountSliderCardStoryComponent -->
<g id="node8" class="node">
<title>AccountSliderCardStoryComponent</title>
<polygon fill="#ffffb3" stroke="black" points="9834.74,-122 9615.26,-122 9615.26,-86 9834.74,-86 9834.74,-122"/>
<text text-anchor="middle" x="9725" y="-99.8" font-family="Times,serif" font-size="14.00">AccountSliderCardStoryComponent</text>
</g>
<!-- AccountSliderCardStoryComponent&#45;&gt;AppModule -->
<g id="edge8" class="edge">
<title>AccountSliderCardStoryComponent&#45;&gt;AppModule</title>
<path fill="none" stroke="black" d="M9725,-122.29C9725,-144.21 9725,-178 9725,-178 9725,-178 5532.66,-178 5532.66,-178"/>
<polygon fill="black" stroke="black" points="5532.66,-174.5 5522.66,-178 5532.66,-181.5 5532.66,-174.5"/>
</g>
<!-- AccountsSelectStoryComponent -->
<g id="node9" class="node">
<title>AccountsSelectStoryComponent</title>
<polygon fill="#ffffb3" stroke="black" points="9597.24,-122 9398.76,-122 9398.76,-86 9597.24,-86 9597.24,-122"/>
<text text-anchor="middle" x="9498" y="-99.8" font-family="Times,serif" font-size="14.00">AccountsSelectStoryComponent</text>
</g>
<!-- AccountsSelectStoryComponent&#45;&gt;AppModule -->
<g id="edge9" class="edge">
<title>AccountsSelectStoryComponent&#45;&gt;AppModule</title>
<path fill="none" stroke="black" d="M9498,-122.04C9498,-143.66 9498,-177 9498,-177 9498,-177 5532.73,-177 5532.73,-177"/>
<polygon fill="black" stroke="black" points="5532.73,-173.5 5522.73,-177 5532.73,-180.5 5532.73,-173.5"/>
</g>
<!-- ActionsLayoutStoryComponent -->
<g id="node10" class="node">
<title>ActionsLayoutStoryComponent</title>
<polygon fill="#ffffb3" stroke="black" points="9380.37,-122 9185.63,-122 9185.63,-86 9380.37,-86 9380.37,-122"/>
<text text-anchor="middle" x="9283" y="-99.8" font-family="Times,serif" font-size="14.00">ActionsLayoutStoryComponent</text>
</g>
<!-- ActionsLayoutStoryComponent&#45;&gt;AppModule -->
<g id="edge10" class="edge">
<title>ActionsLayoutStoryComponent&#45;&gt;AppModule</title>
<path fill="none" stroke="black" d="M9283,-122.28C9283,-143.32 9283,-175 9283,-175 9283,-175 5532.72,-175 5532.72,-175"/>
<polygon fill="black" stroke="black" points="5532.72,-171.5 5522.72,-175 5532.72,-178.5 5532.72,-171.5"/>
</g>
<!-- AppComponent -->
<g id="node11" class="node">
<title>AppComponent</title>
<polygon fill="#ffffb3" stroke="black" points="9167.94,-122 9062.06,-122 9062.06,-86 9167.94,-86 9167.94,-122"/>
<text text-anchor="middle" x="9115" y="-99.8" font-family="Times,serif" font-size="14.00">AppComponent</text>
</g>
<!-- AppComponent&#45;&gt;AppModule -->
<g id="edge11" class="edge">
<title>AppComponent&#45;&gt;AppModule</title>
<path fill="none" stroke="black" d="M9115,-122.03C9115,-142.77 9115,-174 9115,-174 9115,-174 5532.75,-174 5532.75,-174"/>
<polygon fill="black" stroke="black" points="5532.75,-170.5 5522.75,-174 5532.75,-177.5 5532.75,-170.5"/>
</g>
<!-- AvatarStoryComponent -->
<g id="node12" class="node">
<title>AvatarStoryComponent</title>
<polygon fill="#ffffb3" stroke="black" points="9043.75,-122 8894.25,-122 8894.25,-86 9043.75,-86 9043.75,-122"/>
<text text-anchor="middle" x="8969" y="-99.8" font-family="Times,serif" font-size="14.00">AvatarStoryComponent</text>
</g>
<!-- AvatarStoryComponent&#45;&gt;AppModule -->
<g id="edge12" class="edge">
<title>AvatarStoryComponent&#45;&gt;AppModule</title>
<path fill="none" stroke="black" d="M8969,-122.13C8969,-142.57 8969,-173 8969,-173 8969,-173 5532.91,-173 5532.91,-173"/>
<polygon fill="black" stroke="black" points="5532.91,-169.5 5522.91,-173 5532.91,-176.5 5532.91,-169.5"/>
</g>
<!-- BadgeStoryComponent -->
<g id="node13" class="node">
<title>BadgeStoryComponent</title>
<polygon fill="#ffffb3" stroke="black" points="8875.93,-122 8728.07,-122 8728.07,-86 8875.93,-86 8875.93,-122"/>
<text text-anchor="middle" x="8802" y="-99.8" font-family="Times,serif" font-size="14.00">BadgeStoryComponent</text>
</g>
<!-- BadgeStoryComponent&#45;&gt;AppModule -->
<g id="edge13" class="edge">
<title>BadgeStoryComponent&#45;&gt;AppModule</title>
<path fill="none" stroke="black" d="M8802,-122.22C8802,-142.37 8802,-172 8802,-172 8802,-172 5532.69,-172 5532.69,-172"/>
<polygon fill="black" stroke="black" points="5532.69,-168.5 5522.69,-172 5532.69,-175.5 5532.69,-168.5"/>
</g>
<!-- BalanceFormatterStoryComponent -->
<g id="node14" class="node">
<title>BalanceFormatterStoryComponent</title>
<polygon fill="#ffffb3" stroke="black" points="8709.96,-122 8498.04,-122 8498.04,-86 8709.96,-86 8709.96,-122"/>
<text text-anchor="middle" x="8604" y="-99.8" font-family="Times,serif" font-size="14.00">BalanceFormatterStoryComponent</text>
</g>
<!-- BalanceFormatterStoryComponent&#45;&gt;AppModule -->
<g id="edge14" class="edge">
<title>BalanceFormatterStoryComponent&#45;&gt;AppModule</title>
<path fill="none" stroke="black" d="M8604,-122.31C8604,-142.15 8604,-171 8604,-171 8604,-171 5532.79,-171 5532.79,-171"/>
<polygon fill="black" stroke="black" points="5532.79,-167.5 5522.79,-171 5532.79,-174.5 5532.79,-167.5"/>
</g>
<!-- BreadcrumbStoryComponent -->
<g id="node15" class="node">
<title>BreadcrumbStoryComponent</title>
<polygon fill="#ffffb3" stroke="black" points="8480.36,-122 8299.64,-122 8299.64,-86 8480.36,-86 8480.36,-122"/>
<text text-anchor="middle" x="8390" y="-99.8" font-family="Times,serif" font-size="14.00">BreadcrumbStoryComponent</text>
</g>
<!-- BreadcrumbStoryComponent&#45;&gt;AppModule -->
<g id="edge15" class="edge">
<title>BreadcrumbStoryComponent&#45;&gt;AppModule</title>
<path fill="none" stroke="black" d="M8390,-122.11C8390,-141.34 8390,-169 8390,-169 8390,-169 5532.68,-169 5532.68,-169"/>
<polygon fill="black" stroke="black" points="5532.68,-165.5 5522.68,-169 5532.68,-172.5 5532.68,-165.5"/>
</g>
<!-- ButtonStoryComponent -->
<g id="node16" class="node">
<title>ButtonStoryComponent</title>
<polygon fill="#ffffb3" stroke="black" points="8281.78,-122 8132.22,-122 8132.22,-86 8281.78,-86 8281.78,-122"/>
<text text-anchor="middle" x="8207" y="-99.8" font-family="Times,serif" font-size="14.00">ButtonStoryComponent</text>
</g>
<!-- ButtonStoryComponent&#45;&gt;AppModule -->
<g id="edge16" class="edge">
<title>ButtonStoryComponent&#45;&gt;AppModule</title>
<path fill="none" stroke="black" d="M8207,-122.17C8207,-141.09 8207,-168 8207,-168 8207,-168 5532.73,-168 5532.73,-168"/>
<polygon fill="black" stroke="black" points="5532.73,-164.5 5522.73,-168 5532.73,-171.5 5532.73,-164.5"/>
</g>
<!-- CallToActionIconsStoryComponent -->
<g id="node17" class="node">
<title>CallToActionIconsStoryComponent</title>
<polygon fill="#ffffb3" stroke="black" points="8114.47,-122 7895.53,-122 7895.53,-86 8114.47,-86 8114.47,-122"/>
<text text-anchor="middle" x="8005" y="-99.8" font-family="Times,serif" font-size="14.00">CallToActionIconsStoryComponent</text>
</g>
<!-- CallToActionIconsStoryComponent&#45;&gt;AppModule -->
<g id="edge17" class="edge">
<title>CallToActionIconsStoryComponent&#45;&gt;AppModule</title>
<path fill="none" stroke="black" d="M8005,-122.22C8005,-140.83 8005,-167 8005,-167 8005,-167 5532.7,-167 5532.7,-167"/>
<polygon fill="black" stroke="black" points="5532.7,-163.5 5522.7,-167 5532.7,-170.5 5532.7,-163.5"/>
</g>
<!-- CheckboxStoryComponent -->
<g id="node18" class="node">
<title>CheckboxStoryComponent</title>
<polygon fill="#ffffb3" stroke="black" points="7877.43,-122 7708.57,-122 7708.57,-86 7877.43,-86 7877.43,-122"/>
<text text-anchor="middle" x="7793" y="-99.8" font-family="Times,serif" font-size="14.00">CheckboxStoryComponent</text>
</g>
<!-- CheckboxStoryComponent&#45;&gt;AppModule -->
<g id="edge18" class="edge">
<title>CheckboxStoryComponent&#45;&gt;AppModule</title>
<path fill="none" stroke="black" d="M7793,-122.27C7793,-140.56 7793,-166 7793,-166 7793,-166 5533.1,-166 5533.1,-166"/>
<polygon fill="black" stroke="black" points="5533.1,-162.5 5523.1,-166 5533.1,-169.5 5533.1,-162.5"/>
</g>
<!-- CurrencyConverterStoryComponent -->
<g id="node19" class="node">
<title>CurrencyConverterStoryComponent</title>
<polygon fill="#ffffb3" stroke="black" points="7690.73,-122 7471.27,-122 7471.27,-86 7690.73,-86 7690.73,-122"/>
<text text-anchor="middle" x="7581" y="-99.8" font-family="Times,serif" font-size="14.00">CurrencyConverterStoryComponent</text>
</g>
<!-- CurrencyConverterStoryComponent&#45;&gt;AppModule -->
<g id="edge19" class="edge">
<title>CurrencyConverterStoryComponent&#45;&gt;AppModule</title>
<path fill="none" stroke="black" d="M7581,-122.3C7581,-140.27 7581,-165 7581,-165 7581,-165 5532.95,-165 5532.95,-165"/>
<polygon fill="black" stroke="black" points="5532.95,-161.5 5522.95,-165 5532.95,-168.5 5532.95,-161.5"/>
</g>
<!-- DisplayValueStoryComponent -->
<g id="node20" class="node">
<title>DisplayValueStoryComponent</title>
<polygon fill="#ffffb3" stroke="black" points="7453.14,-122 7264.86,-122 7264.86,-86 7453.14,-86 7453.14,-122"/>
<text text-anchor="middle" x="7359" y="-99.8" font-family="Times,serif" font-size="14.00">DisplayValueStoryComponent</text>
</g>
<!-- DisplayValueStoryComponent&#45;&gt;AppModule -->
<g id="edge20" class="edge">
<title>DisplayValueStoryComponent&#45;&gt;AppModule</title>
<path fill="none" stroke="black" d="M7359,-122.02C7359,-139.37 7359,-163 7359,-163 7359,-163 5532.86,-163 5532.86,-163"/>
<polygon fill="black" stroke="black" points="5532.86,-159.5 5522.86,-163 5532.86,-166.5 5532.86,-159.5"/>
</g>
<!-- DropdownStoryComponent -->
<g id="node21" class="node">
<title>DropdownStoryComponent</title>
<polygon fill="#ffffb3" stroke="black" points="7246.54,-122 7075.46,-122 7075.46,-86 7246.54,-86 7246.54,-122"/>
<text text-anchor="middle" x="7161" y="-99.8" font-family="Times,serif" font-size="14.00">DropdownStoryComponent</text>
</g>
<!-- DropdownStoryComponent&#45;&gt;AppModule -->
<g id="edge21" class="edge">
<title>DropdownStoryComponent&#45;&gt;AppModule</title>
<path fill="none" stroke="black" d="M7161,-122.03C7161,-139.06 7161,-162 7161,-162 7161,-162 5532.95,-162 5532.95,-162"/>
<polygon fill="black" stroke="black" points="5532.95,-158.5 5522.95,-162 5532.95,-165.5 5532.95,-158.5"/>
</g>
<!-- EmptyCardStoryComponent -->
<g id="node22" class="node">
<title>EmptyCardStoryComponent</title>
<polygon fill="#ffffb3" stroke="black" points="7057.21,-122 6880.79,-122 6880.79,-86 7057.21,-86 7057.21,-122"/>
<text text-anchor="middle" x="6969" y="-99.8" font-family="Times,serif" font-size="14.00">EmptyCardStoryComponent</text>
</g>
<!-- EmptyCardStoryComponent&#45;&gt;AppModule -->
<g id="edge22" class="edge">
<title>EmptyCardStoryComponent&#45;&gt;AppModule</title>
<path fill="none" stroke="black" d="M6969,-122.04C6969,-138.73 6969,-161 6969,-161 6969,-161 5532.74,-161 5532.74,-161"/>
<polygon fill="black" stroke="black" points="5532.74,-157.5 5522.74,-161 5532.74,-164.5 5532.74,-157.5"/>
</g>
<!-- FilialCardStoryComponent -->
<g id="node23" class="node">
<title>FilialCardStoryComponent</title>
<polygon fill="#ffffb3" stroke="black" points="6863.44,-122 6694.56,-122 6694.56,-86 6863.44,-86 6863.44,-122"/>
<text text-anchor="middle" x="6779" y="-99.8" font-family="Times,serif" font-size="14.00">FilialCardStoryComponent</text>
</g>
<!-- FilialCardStoryComponent&#45;&gt;AppModule -->
<g id="edge23" class="edge">
<title>FilialCardStoryComponent&#45;&gt;AppModule</title>
<path fill="none" stroke="black" d="M6779,-122.03C6779,-138.4 6779,-160 6779,-160 6779,-160 5532.72,-160 5532.72,-160"/>
<polygon fill="black" stroke="black" points="5532.72,-156.5 5522.72,-160 5532.72,-163.5 5532.72,-156.5"/>
</g>
<!-- HeadingStoryComponent -->
<g id="node24" class="node">
<title>HeadingStoryComponent</title>
<polygon fill="#ffffb3" stroke="black" points="6676.59,-122 6517.41,-122 6517.41,-86 6676.59,-86 6676.59,-122"/>
<text text-anchor="middle" x="6597" y="-99.8" font-family="Times,serif" font-size="14.00">HeadingStoryComponent</text>
</g>
<!-- HeadingStoryComponent&#45;&gt;AppModule -->
<g id="edge24" class="edge">
<title>HeadingStoryComponent&#45;&gt;AppModule</title>
<path fill="none" stroke="black" d="M6597,-122.01C6597,-138.05 6597,-159 6597,-159 6597,-159 5532.71,-159 5532.71,-159"/>
<polygon fill="black" stroke="black" points="5532.71,-155.5 5522.71,-159 5532.71,-162.5 5532.71,-155.5"/>
</g>
<!-- HoldingCardStoryComponent -->
<g id="node25" class="node">
<title>HoldingCardStoryComponent</title>
<polygon fill="#ffffb3" stroke="black" points="6499.27,-122 6314.73,-122 6314.73,-86 6499.27,-86 6499.27,-122"/>
<text text-anchor="middle" x="6407" y="-99.8" font-family="Times,serif" font-size="14.00">HoldingCardStoryComponent</text>
</g>
<!-- HoldingCardStoryComponent&#45;&gt;AppModule -->
<g id="edge25" class="edge">
<title>HoldingCardStoryComponent&#45;&gt;AppModule</title>
<path fill="none" stroke="black" d="M6407,-122.24C6407,-137.57 6407,-157 6407,-157 6407,-157 5532.89,-157 5532.89,-157"/>
<polygon fill="black" stroke="black" points="5532.89,-153.5 5522.89,-157 5532.89,-160.5 5532.89,-153.5"/>
</g>
<!-- HomeComponent -->
<g id="node26" class="node">
<title>HomeComponent</title>
<polygon fill="#ffffb3" stroke="black" points="6296.55,-122 6181.45,-122 6181.45,-86 6296.55,-86 6296.55,-122"/>
<text text-anchor="middle" x="6239" y="-99.8" font-family="Times,serif" font-size="14.00">HomeComponent</text>
</g>
<!-- HomeComponent&#45;&gt;AppModule -->
<g id="edge26" class="edge">
<title>HomeComponent&#45;&gt;AppModule</title>
<path fill="none" stroke="black" d="M6239,-122.19C6239,-137.18 6239,-156 6239,-156 6239,-156 5532.83,-156 5532.83,-156"/>
<polygon fill="black" stroke="black" points="5532.83,-152.5 5522.83,-156 5532.83,-159.5 5532.83,-152.5"/>
</g>
<!-- IconStoryComponent -->
<g id="node27" class="node">
<title>IconStoryComponent</title>
<polygon fill="#ffffb3" stroke="black" points="6163.04,-122 6026.96,-122 6026.96,-86 6163.04,-86 6163.04,-122"/>
<text text-anchor="middle" x="6095" y="-99.8" font-family="Times,serif" font-size="14.00">IconStoryComponent</text>
</g>
<!-- IconStoryComponent&#45;&gt;AppModule -->
<g id="edge27" class="edge">
<title>IconStoryComponent&#45;&gt;AppModule</title>
<path fill="none" stroke="black" d="M6095,-122.12C6095,-136.78 6095,-155 6095,-155 6095,-155 5532.72,-155 5532.72,-155"/>
<polygon fill="black" stroke="black" points="5532.72,-151.5 5522.72,-155 5532.72,-158.5 5532.72,-151.5"/>
</g>
<!-- InboxCardStoryComponent -->
<g id="node28" class="node">
<title>InboxCardStoryComponent</title>
<polygon fill="#ffffb3" stroke="black" points="6008.54,-122 5837.46,-122 5837.46,-86 6008.54,-86 6008.54,-122"/>
<text text-anchor="middle" x="5923" y="-99.8" font-family="Times,serif" font-size="14.00">InboxCardStoryComponent</text>
</g>
<!-- InboxCardStoryComponent&#45;&gt;AppModule -->
<g id="edge28" class="edge">
<title>InboxCardStoryComponent&#45;&gt;AppModule</title>
<path fill="none" stroke="black" d="M5923,-122.05C5923,-136.37 5923,-154 5923,-154 5923,-154 5532.98,-154 5532.98,-154"/>
<polygon fill="black" stroke="black" points="5532.98,-150.5 5522.98,-154 5532.98,-157.5 5532.98,-150.5"/>
</g>
<!-- InputStoryComponent -->
<g id="node29" class="node">
<title>InputStoryComponent</title>
<polygon fill="#ffffb3" stroke="black" points="5819.72,-122 5678.28,-122 5678.28,-86 5819.72,-86 5819.72,-122"/>
<text text-anchor="middle" x="5749" y="-99.8" font-family="Times,serif" font-size="14.00">InputStoryComponent</text>
</g>
<!-- InputStoryComponent&#45;&gt;AppModule -->
<g id="edge29" class="edge">
<title>InputStoryComponent&#45;&gt;AppModule</title>
<path fill="none" stroke="black" d="M5749,-122.25C5749,-136.18 5749,-153 5749,-153 5749,-153 5532.88,-153 5532.88,-153"/>
<polygon fill="black" stroke="black" points="5532.88,-149.5 5522.88,-153 5532.87,-156.5 5532.88,-149.5"/>
</g>
<!-- InvoiceCardStoryComponent -->
<g id="node30" class="node">
<title>InvoiceCardStoryComponent</title>
<polygon fill="#ffffb3" stroke="black" points="5660.36,-122 5479.64,-122 5479.64,-86 5660.36,-86 5660.36,-122"/>
<text text-anchor="middle" x="5570" y="-99.8" font-family="Times,serif" font-size="14.00">InvoiceCardStoryComponent</text>
</g>
<!-- InvoiceCardStoryComponent&#45;&gt;AppModule -->
<g id="edge30" class="edge">
<title>InvoiceCardStoryComponent&#45;&gt;AppModule</title>
<path fill="none" stroke="black" d="M5501.2,-122.11C5501.2,-122.11 5501.2,-140.99 5501.2,-140.99"/>
<polygon fill="black" stroke="black" points="5497.7,-140.99 5501.2,-150.99 5504.7,-140.99 5497.7,-140.99"/>
</g>
<!-- NotFoundComponent -->
<g id="node31" class="node">
<title>NotFoundComponent</title>
<polygon fill="#ffffb3" stroke="black" points="5462.11,-122 5323.89,-122 5323.89,-86 5462.11,-86 5462.11,-122"/>
<text text-anchor="middle" x="5393" y="-99.8" font-family="Times,serif" font-size="14.00">NotFoundComponent</text>
</g>
<!-- NotFoundComponent&#45;&gt;AppModule -->
<g id="edge31" class="edge">
<title>NotFoundComponent&#45;&gt;AppModule</title>
<path fill="none" stroke="black" d="M5450.61,-122.11C5450.61,-122.11 5450.61,-140.99 5450.61,-140.99"/>
<polygon fill="black" stroke="black" points="5447.11,-140.99 5450.61,-150.99 5454.11,-140.99 5447.11,-140.99"/>
</g>
<!-- NotificationCardStoryComponent -->
<g id="node32" class="node">
<title>NotificationCardStoryComponent</title>
<polygon fill="#ffffb3" stroke="black" points="5306.03,-122 5099.97,-122 5099.97,-86 5306.03,-86 5306.03,-122"/>
<text text-anchor="middle" x="5203" y="-99.8" font-family="Times,serif" font-size="14.00">NotificationCardStoryComponent</text>
</g>
<!-- NotificationCardStoryComponent&#45;&gt;AppModule -->
<g id="edge32" class="edge">
<title>NotificationCardStoryComponent&#45;&gt;AppModule</title>
<path fill="none" stroke="black" d="M5203,-122.25C5203,-136.18 5203,-153 5203,-153 5203,-153 5429.08,-153 5429.08,-153"/>
<polygon fill="black" stroke="black" points="5429.08,-156.5 5439.08,-153 5429.08,-149.5 5429.08,-156.5"/>
</g>
<!-- NumbersCardStoryComponent -->
<g id="node33" class="node">
<title>NumbersCardStoryComponent</title>
<polygon fill="#ffffb3" stroke="black" points="5082.2,-122 4891.8,-122 4891.8,-86 5082.2,-86 5082.2,-122"/>
<text text-anchor="middle" x="4987" y="-99.8" font-family="Times,serif" font-size="14.00">NumbersCardStoryComponent</text>
</g>
<!-- NumbersCardStoryComponent&#45;&gt;AppModule -->
<g id="edge33" class="edge">
<title>NumbersCardStoryComponent&#45;&gt;AppModule</title>
<path fill="none" stroke="black" d="M4987,-122.05C4987,-136.37 4987,-154 4987,-154 4987,-154 5429.31,-154 5429.31,-154"/>
<polygon fill="black" stroke="black" points="5429.31,-157.5 5439.31,-154 5429.31,-150.5 5429.31,-157.5"/>
</g>
<!-- PaginationStoryComponent -->
<g id="node34" class="node">
<title>PaginationStoryComponent</title>
<polygon fill="#ffffb3" stroke="black" points="4873.55,-122 4702.45,-122 4702.45,-86 4873.55,-86 4873.55,-122"/>
<text text-anchor="middle" x="4788" y="-99.8" font-family="Times,serif" font-size="14.00">PaginationStoryComponent</text>
</g>
<!-- PaginationStoryComponent&#45;&gt;AppModule -->
<g id="edge34" class="edge">
<title>PaginationStoryComponent&#45;&gt;AppModule</title>
<path fill="none" stroke="black" d="M4788,-122.12C4788,-136.78 4788,-155 4788,-155 4788,-155 5429.21,-155 5429.21,-155"/>
<polygon fill="black" stroke="black" points="5429.21,-158.5 5439.21,-155 5429.21,-151.5 5429.21,-158.5"/>
</g>
<!-- PaymentCardStoryComponent -->
<g id="node35" class="node">
<title>PaymentCardStoryComponent</title>
<polygon fill="#ffffb3" stroke="black" points="4683.87,-122 4496.13,-122 4496.13,-86 4683.87,-86 4683.87,-122"/>
<text text-anchor="middle" x="4590" y="-99.8" font-family="Times,serif" font-size="14.00">PaymentCardStoryComponent</text>
</g>
<!-- PaymentCardStoryComponent&#45;&gt;AppModule -->
<g id="edge35" class="edge">
<title>PaymentCardStoryComponent&#45;&gt;AppModule</title>
<path fill="none" stroke="black" d="M4590,-122.19C4590,-137.18 4590,-156 4590,-156 4590,-156 5429.22,-156 5429.22,-156"/>
<polygon fill="black" stroke="black" points="5429.22,-159.5 5439.22,-156 5429.22,-152.5 5429.22,-159.5"/>
</g>
<!-- PaymentDetailsCardStoryComponent -->
<g id="node36" class="node">
<title>PaymentDetailsCardStoryComponent</title>
<polygon fill="#ffffb3" stroke="black" points="4477.52,-122 4250.48,-122 4250.48,-86 4477.52,-86 4477.52,-122"/>
<text text-anchor="middle" x="4364" y="-99.8" font-family="Times,serif" font-size="14.00">PaymentDetailsCardStoryComponent</text>
</g>
<!-- PaymentDetailsCardStoryComponent&#45;&gt;AppModule -->
<g id="edge36" class="edge">
<title>PaymentDetailsCardStoryComponent&#45;&gt;AppModule</title>
<path fill="none" stroke="black" d="M4364,-122.24C4364,-137.57 4364,-157 4364,-157 4364,-157 5429.25,-157 5429.25,-157"/>
<polygon fill="black" stroke="black" points="5429.25,-160.5 5439.25,-157 5429.25,-153.5 5429.25,-160.5"/>
</g>
<!-- PopupStoryComponent -->
<g id="node37" class="node">
<title>PopupStoryComponent</title>
<polygon fill="#ffffb3" stroke="black" points="4232.95,-122 4085.05,-122 4085.05,-86 4232.95,-86 4232.95,-122"/>
<text text-anchor="middle" x="4159" y="-99.8" font-family="Times,serif" font-size="14.00">PopupStoryComponent</text>
</g>
<!-- PopupStoryComponent&#45;&gt;AppModule -->
<g id="edge37" class="edge">
<title>PopupStoryComponent&#45;&gt;AppModule</title>
<path fill="none" stroke="black" d="M4159,-122.01C4159,-138.05 4159,-159 4159,-159 4159,-159 5429.25,-159 5429.25,-159"/>
<polygon fill="black" stroke="black" points="5429.25,-162.5 5439.25,-159 5429.25,-155.5 5429.25,-162.5"/>
</g>
<!-- PortfolioDropdownStoryComponent -->
<g id="node38" class="node">
<title>PortfolioDropdownStoryComponent</title>
<polygon fill="#ffffb3" stroke="black" points="4067.82,-122 3846.18,-122 3846.18,-86 4067.82,-86 4067.82,-122"/>
<text text-anchor="middle" x="3957" y="-99.8" font-family="Times,serif" font-size="14.00">PortfolioDropdownStoryComponent</text>
</g>
<!-- PortfolioDropdownStoryComponent&#45;&gt;AppModule -->
<g id="edge38" class="edge">
<title>PortfolioDropdownStoryComponent&#45;&gt;AppModule</title>
<path fill="none" stroke="black" d="M3957,-122.03C3957,-138.4 3957,-160 3957,-160 3957,-160 5429.05,-160 5429.05,-160"/>
<polygon fill="black" stroke="black" points="5429.05,-163.5 5439.05,-160 5429.05,-156.5 5429.05,-163.5"/>
</g>
<!-- PortfolioItemCardStory -->
<g id="node39" class="node">
<title>PortfolioItemCardStory</title>
<polygon fill="#ffffb3" stroke="black" points="3828.48,-122 3679.52,-122 3679.52,-86 3828.48,-86 3828.48,-122"/>
<text text-anchor="middle" x="3754" y="-99.8" font-family="Times,serif" font-size="14.00">PortfolioItemCardStory</text>
</g>
<!-- PortfolioItemCardStory&#45;&gt;AppModule -->
<g id="edge39" class="edge">
<title>PortfolioItemCardStory&#45;&gt;AppModule</title>
<path fill="none" stroke="black" d="M3754,-122.04C3754,-138.73 3754,-161 3754,-161 3754,-161 5429.17,-161 5429.17,-161"/>
<polygon fill="black" stroke="black" points="5429.17,-164.5 5439.17,-161 5429.17,-157.5 5429.17,-164.5"/>
</g>
<!-- PortfolioSelectCardStory -->
<g id="node40" class="node">
<title>PortfolioSelectCardStory</title>
<polygon fill="#ffffb3" stroke="black" points="3661.53,-122 3504.47,-122 3504.47,-86 3661.53,-86 3661.53,-122"/>
<text text-anchor="middle" x="3583" y="-99.8" font-family="Times,serif" font-size="14.00">PortfolioSelectCardStory</text>
</g>
<!-- PortfolioSelectCardStory&#45;&gt;AppModule -->
<g id="edge40" class="edge">
<title>PortfolioSelectCardStory&#45;&gt;AppModule</title>
<path fill="none" stroke="black" d="M3583,-122.03C3583,-139.06 3583,-162 3583,-162 3583,-162 5429.15,-162 5429.15,-162"/>
<polygon fill="black" stroke="black" points="5429.15,-165.5 5439.15,-162 5429.15,-158.5 5429.15,-165.5"/>
</g>
<!-- PortfolioVisionCardStory -->
<g id="node41" class="node">
<title>PortfolioVisionCardStory</title>
<polygon fill="#ffffb3" stroke="black" points="3486.15,-122 3325.85,-122 3325.85,-86 3486.15,-86 3486.15,-122"/>
<text text-anchor="middle" x="3406" y="-99.8" font-family="Times,serif" font-size="14.00">PortfolioVisionCardStory</text>
</g>
<!-- PortfolioVisionCardStory&#45;&gt;AppModule -->
<g id="edge41" class="edge">
<title>PortfolioVisionCardStory&#45;&gt;AppModule</title>
<path fill="none" stroke="black" d="M3406,-122.02C3406,-139.37 3406,-163 3406,-163 3406,-163 5429.08,-163 5429.08,-163"/>
<polygon fill="black" stroke="black" points="5429.08,-166.5 5439.08,-163 5429.08,-159.5 5429.08,-166.5"/>
</g>
<!-- ProgressStoryComponent -->
<g id="node42" class="node">
<title>ProgressStoryComponent</title>
<polygon fill="#ffffb3" stroke="black" points="3307.87,-122 3148.13,-122 3148.13,-86 3307.87,-86 3307.87,-122"/>
<text text-anchor="middle" x="3228" y="-99.8" font-family="Times,serif" font-size="14.00">ProgressStoryComponent</text>
</g>
<!-- ProgressStoryComponent&#45;&gt;AppModule -->
<g id="edge42" class="edge">
<title>ProgressStoryComponent&#45;&gt;AppModule</title>
<path fill="none" stroke="black" d="M3228,-122.3C3228,-140.27 3228,-165 3228,-165 3228,-165 5428.99,-165 5428.99,-165"/>
<polygon fill="black" stroke="black" points="5428.99,-168.5 5438.99,-165 5428.99,-161.5 5428.99,-168.5"/>
</g>
<!-- RadioStoryComponent -->
<g id="node43" class="node">
<title>RadioStoryComponent</title>
<polygon fill="#ffffb3" stroke="black" points="3130.61,-122 2985.39,-122 2985.39,-86 3130.61,-86 3130.61,-122"/>
<text text-anchor="middle" x="3058" y="-99.8" font-family="Times,serif" font-size="14.00">RadioStoryComponent</text>
</g>
<!-- RadioStoryComponent&#45;&gt;AppModule -->
<g id="edge43" class="edge">
<title>RadioStoryComponent&#45;&gt;AppModule</title>
<path fill="none" stroke="black" d="M3058,-122.27C3058,-140.56 3058,-166 3058,-166 3058,-166 5429.2,-166 5429.2,-166"/>
<polygon fill="black" stroke="black" points="5429.2,-169.5 5439.2,-166 5429.2,-162.5 5429.2,-169.5"/>
</g>
<!-- RangeStoryComponent -->
<g id="node44" class="node">
<title>RangeStoryComponent</title>
<polygon fill="#ffffb3" stroke="black" points="2967.93,-122 2820.07,-122 2820.07,-86 2967.93,-86 2967.93,-122"/>
<text text-anchor="middle" x="2894" y="-99.8" font-family="Times,serif" font-size="14.00">RangeStoryComponent</text>
</g>
<!-- RangeStoryComponent&#45;&gt;AppModule -->
<g id="edge44" class="edge">
<title>RangeStoryComponent&#45;&gt;AppModule</title>
<path fill="none" stroke="black" d="M2894,-122.22C2894,-140.83 2894,-167 2894,-167 2894,-167 5429.32,-167 5429.32,-167"/>
<polygon fill="black" stroke="black" points="5429.32,-170.5 5439.32,-167 5429.32,-163.5 5429.32,-170.5"/>
</g>
<!-- SelectStoryComponent -->
<g id="node45" class="node">
<title>SelectStoryComponent</title>
<polygon fill="#ffffb3" stroke="black" points="2801.87,-122 2656.13,-122 2656.13,-86 2801.87,-86 2801.87,-122"/>
<text text-anchor="middle" x="2729" y="-99.8" font-family="Times,serif" font-size="14.00">SelectStoryComponent</text>
</g>
<!-- SelectStoryComponent&#45;&gt;AppModule -->
<g id="edge45" class="edge">
<title>SelectStoryComponent&#45;&gt;AppModule</title>
<path fill="none" stroke="black" d="M2729,-122.17C2729,-141.09 2729,-168 2729,-168 2729,-168 5429.15,-168 5429.15,-168"/>
<polygon fill="black" stroke="black" points="5429.15,-171.5 5439.15,-168 5429.15,-164.5 5429.15,-171.5"/>
</g>
<!-- SheetCardStoryComponent -->
<g id="node46" class="node">
<title>SheetCardStoryComponent</title>
<polygon fill="#ffffb3" stroke="black" points="2637.98,-122 2468.02,-122 2468.02,-86 2637.98,-86 2637.98,-122"/>
<text text-anchor="middle" x="2553" y="-99.8" font-family="Times,serif" font-size="14.00">SheetCardStoryComponent</text>
</g>
<!-- SheetCardStoryComponent&#45;&gt;AppModule -->
<g id="edge46" class="edge">
<title>SheetCardStoryComponent&#45;&gt;AppModule</title>
<path fill="none" stroke="black" d="M2553,-122.11C2553,-141.34 2553,-169 2553,-169 2553,-169 5429.33,-169 5429.33,-169"/>
<polygon fill="black" stroke="black" points="5429.33,-172.5 5439.33,-169 5429.33,-165.5 5429.33,-172.5"/>
</g>
<!-- SheetLatestOpsStoryComponent -->
<g id="node47" class="node">
<title>SheetLatestOpsStoryComponent</title>
<polygon fill="#ffffb3" stroke="black" points="2449.53,-122 2250.47,-122 2250.47,-86 2449.53,-86 2449.53,-122"/>
<text text-anchor="middle" x="2350" y="-99.8" font-family="Times,serif" font-size="14.00">SheetLatestOpsStoryComponent</text>
</g>
<!-- SheetLatestOpsStoryComponent&#45;&gt;AppModule -->
<g id="edge47" class="edge">
<title>SheetLatestOpsStoryComponent&#45;&gt;AppModule</title>
<path fill="none" stroke="black" d="M2350,-122.31C2350,-142.15 2350,-171 2350,-171 2350,-171 5429.11,-171 5429.11,-171"/>
<polygon fill="black" stroke="black" points="5429.11,-174.5 5439.11,-171 5429.11,-167.5 5429.11,-174.5"/>
</g>
<!-- ShortcutsCardStoryComponent -->
<g id="node48" class="node">
<title>ShortcutsCardStoryComponent</title>
<polygon fill="#ffffb3" stroke="black" points="2231.76,-122 2040.24,-122 2040.24,-86 2231.76,-86 2231.76,-122"/>
<text text-anchor="middle" x="2136" y="-99.8" font-family="Times,serif" font-size="14.00">ShortcutsCardStoryComponent</text>
</g>
<!-- ShortcutsCardStoryComponent&#45;&gt;AppModule -->
<g id="edge48" class="edge">
<title>ShortcutsCardStoryComponent&#45;&gt;AppModule</title>
<path fill="none" stroke="black" d="M2136,-122.22C2136,-142.37 2136,-172 2136,-172 2136,-172 5429.31,-172 5429.31,-172"/>
<polygon fill="black" stroke="black" points="5429.31,-175.5 5439.31,-172 5429.31,-168.5 5429.31,-175.5"/>
</g>
<!-- SidebarComponent -->
<g id="node49" class="node">
<title>SidebarComponent</title>
<polygon fill="#ffffb3" stroke="black" points="2022.1,-122 1897.9,-122 1897.9,-86 2022.1,-86 2022.1,-122"/>
<text text-anchor="middle" x="1960" y="-99.8" font-family="Times,serif" font-size="14.00">SidebarComponent</text>
</g>
<!-- SidebarComponent&#45;&gt;AppModule -->
<g id="edge49" class="edge">
<title>SidebarComponent&#45;&gt;AppModule</title>
<path fill="none" stroke="black" d="M1960,-122.13C1960,-142.57 1960,-173 1960,-173 1960,-173 5429.32,-173 5429.32,-173"/>
<polygon fill="black" stroke="black" points="5429.32,-176.5 5439.32,-173 5429.32,-169.5 5429.32,-176.5"/>
</g>
<!-- SidebarStoryComponent -->
<g id="node50" class="node">
<title>SidebarStoryComponent</title>
<polygon fill="#ffffb3" stroke="black" points="1880.43,-122 1725.57,-122 1725.57,-86 1880.43,-86 1880.43,-122"/>
<text text-anchor="middle" x="1803" y="-99.8" font-family="Times,serif" font-size="14.00">SidebarStoryComponent</text>
</g>
<!-- SidebarStoryComponent&#45;&gt;AppModule -->
<g id="edge50" class="edge">
<title>SidebarStoryComponent&#45;&gt;AppModule</title>
<path fill="none" stroke="black" d="M1803,-122.03C1803,-142.77 1803,-174 1803,-174 1803,-174 5429.06,-174 5429.06,-174"/>
<polygon fill="black" stroke="black" points="5429.06,-177.5 5439.06,-174 5429.06,-170.5 5429.06,-177.5"/>
</g>
<!-- StepsStoryComponent -->
<g id="node51" class="node">
<title>StepsStoryComponent</title>
<polygon fill="#ffffb3" stroke="black" points="1708,-122 1566,-122 1566,-86 1708,-86 1708,-122"/>
<text text-anchor="middle" x="1637" y="-99.8" font-family="Times,serif" font-size="14.00">StepsStoryComponent</text>
</g>
<!-- StepsStoryComponent&#45;&gt;AppModule -->
<g id="edge51" class="edge">
<title>StepsStoryComponent&#45;&gt;AppModule</title>
<path fill="none" stroke="black" d="M1637,-122.28C1637,-143.32 1637,-175 1637,-175 1637,-175 5429.14,-175 5429.14,-175"/>
<polygon fill="black" stroke="black" points="5429.14,-178.5 5439.14,-175 5429.14,-171.5 5429.14,-178.5"/>
</g>
<!-- TableStoryComponent -->
<g id="node52" class="node">
<title>TableStoryComponent</title>
<polygon fill="#ffffb3" stroke="black" points="1547.54,-122 1404.46,-122 1404.46,-86 1547.54,-86 1547.54,-122"/>
<text text-anchor="middle" x="1476" y="-99.8" font-family="Times,serif" font-size="14.00">TableStoryComponent</text>
</g>
<!-- TableStoryComponent&#45;&gt;AppModule -->
<g id="edge52" class="edge">
<title>TableStoryComponent&#45;&gt;AppModule</title>
<path fill="none" stroke="black" d="M1476,-122.04C1476,-143.66 1476,-177 1476,-177 1476,-177 5429.06,-177 5429.06,-177"/>
<polygon fill="black" stroke="black" points="5429.06,-180.5 5439.06,-177 5429.06,-173.5 5429.06,-180.5"/>
</g>
<!-- TabsStoryComponent -->
<g id="node53" class="node">
<title>TabsStoryComponent</title>
<polygon fill="#ffffb3" stroke="black" points="1386.38,-122 1247.62,-122 1247.62,-86 1386.38,-86 1386.38,-122"/>
<text text-anchor="middle" x="1317" y="-99.8" font-family="Times,serif" font-size="14.00">TabsStoryComponent</text>
</g>
<!-- TabsStoryComponent&#45;&gt;AppModule -->
<g id="edge53" class="edge">
<title>TabsStoryComponent&#45;&gt;AppModule</title>
<path fill="none" stroke="black" d="M1317,-122.29C1317,-144.21 1317,-178 1317,-178 1317,-178 5429.11,-178 5429.11,-178"/>
<polygon fill="black" stroke="black" points="5429.11,-181.5 5439.11,-178 5429.11,-174.5 5429.11,-181.5"/>
</g>
<!-- TestingStoryComponent -->
<g id="node54" class="node">
<title>TestingStoryComponent</title>
<polygon fill="#ffffb3" stroke="black" points="1229.66,-122 1076.34,-122 1076.34,-86 1229.66,-86 1229.66,-122"/>
<text text-anchor="middle" x="1153" y="-99.8" font-family="Times,serif" font-size="14.00">TestingStoryComponent</text>
</g>
<!-- TestingStoryComponent&#45;&gt;AppModule -->
<g id="edge54" class="edge">
<title>TestingStoryComponent&#45;&gt;AppModule</title>
<path fill="none" stroke="black" d="M1153,-122.16C1153,-144.35 1153,-179 1153,-179 1153,-179 5429.21,-179 5429.21,-179"/>
<polygon fill="black" stroke="black" points="5429.21,-182.5 5439.21,-179 5429.21,-175.5 5429.21,-182.5"/>
</g>
<!-- TextStoryComponent -->
<g id="node55" class="node">
<title>TextStoryComponent</title>
<polygon fill="#ffffb3" stroke="black" points="1058.82,-122 921.18,-122 921.18,-86 1058.82,-86 1058.82,-122"/>
<text text-anchor="middle" x="990" y="-99.8" font-family="Times,serif" font-size="14.00">TextStoryComponent</text>
</g>
<!-- TextStoryComponent&#45;&gt;AppModule -->
<g id="edge55" class="edge">
<title>TextStoryComponent&#45;&gt;AppModule</title>
<path fill="none" stroke="black" d="M990,-122.01C990,-144.49 990,-180 990,-180 990,-180 5429.06,-180 5429.06,-180"/>
<polygon fill="black" stroke="black" points="5429.06,-183.5 5439.06,-180 5429.06,-176.5 5429.06,-183.5"/>
</g>
<!-- TextareaStoryComponent -->
<g id="node56" class="node">
<title>TextareaStoryComponent</title>
<polygon fill="#ffffb3" stroke="black" points="903.13,-122 742.87,-122 742.87,-86 903.13,-86 903.13,-122"/>
<text text-anchor="middle" x="823" y="-99.8" font-family="Times,serif" font-size="14.00">TextareaStoryComponent</text>
</g>
<!-- TextareaStoryComponent&#45;&gt;AppModule -->
<g id="edge56" class="edge">
<title>TextareaStoryComponent&#45;&gt;AppModule</title>
<path fill="none" stroke="black" d="M823,-122.25C823,-145.02 823,-181 823,-181 823,-181 5429.31,-181 5429.31,-181"/>
<polygon fill="black" stroke="black" points="5429.31,-184.5 5439.31,-181 5429.31,-177.5 5429.31,-184.5"/>
</g>
<!-- TickerCardStoryComponent -->
<g id="node57" class="node">
<title>TickerCardStoryComponent</title>
<polygon fill="#ffffb3" stroke="black" points="724.91,-122 549.09,-122 549.09,-86 724.91,-86 724.91,-122"/>
<text text-anchor="middle" x="637" y="-99.8" font-family="Times,serif" font-size="14.00">TickerCardStoryComponent</text>
</g>
<!-- TickerCardStoryComponent&#45;&gt;AppModule -->
<g id="edge57" class="edge">
<title>TickerCardStoryComponent&#45;&gt;AppModule</title>
<path fill="none" stroke="black" d="M637,-122.32C637,-145.66 637,-183 637,-183 637,-183 5429.12,-183 5429.12,-183"/>
<polygon fill="black" stroke="black" points="5429.12,-186.5 5439.12,-183 5429.12,-179.5 5429.12,-186.5"/>
</g>
<!-- ToggleStoryComponent -->
<g id="node58" class="node">
<title>ToggleStoryComponent</title>
<polygon fill="#ffffb3" stroke="black" points="531.82,-122 380.18,-122 380.18,-86 531.82,-86 531.82,-122"/>
<text text-anchor="middle" x="456" y="-99.8" font-family="Times,serif" font-size="14.00">ToggleStoryComponent</text>
</g>
<!-- ToggleStoryComponent&#45;&gt;AppModule -->
<g id="edge58" class="edge">
<title>ToggleStoryComponent&#45;&gt;AppModule</title>
<path fill="none" stroke="black" d="M456,-122.15C456,-145.76 456,-184 456,-184 456,-184 5429.07,-184 5429.07,-184"/>
<polygon fill="black" stroke="black" points="5429.07,-187.5 5439.07,-184 5429.07,-180.5 5429.07,-187.5"/>
</g>
<!-- UploadFileStoryComponent -->
<g id="node59" class="node">
<title>UploadFileStoryComponent</title>
<polygon fill="#ffffb3" stroke="black" points="362.16,-122 187.84,-122 187.84,-86 362.16,-86 362.16,-122"/>
<text text-anchor="middle" x="275" y="-99.8" font-family="Times,serif" font-size="14.00">UploadFileStoryComponent</text>
</g>
<!-- UploadFileStoryComponent&#45;&gt;AppModule -->
<g id="edge59" class="edge">
<title>UploadFileStoryComponent&#45;&gt;AppModule</title>
<path fill="none" stroke="black" d="M275,-122.38C275,-146.28 275,-185 275,-185 275,-185 5429.09,-185 5429.09,-185"/>
<polygon fill="black" stroke="black" points="5429.09,-188.5 5439.09,-185 5429.09,-181.5 5429.09,-188.5"/>
</g>
<!-- AppComponent  -->
<g id="node62" class="node">
<title>AppComponent </title>
<polygon fill="#80b1d3" stroke="black" points="5535.44,-252 5426.56,-252 5426.56,-216 5535.44,-216 5535.44,-252"/>
<text text-anchor="middle" x="5481" y="-229.8" font-family="Times,serif" font-size="14.00">AppComponent </text>
</g>
<!-- AppModule&#45;&gt;AppComponent  -->
<g id="edge61" class="edge">
<title>AppModule&#45;&gt;AppComponent </title>
<path fill="none" stroke="black" stroke-dasharray="1,5" d="M5481,-187.11C5481,-187.11 5481,-205.99 5481,-205.99"/>
<polygon fill="black" stroke="black" points="5477.5,-205.99 5481,-215.99 5484.5,-205.99 5477.5,-205.99"/>
</g>
<!-- DesignSystemModule -->
<g id="node61" class="node">
<title>DesignSystemModule</title>
<polygon fill="#8dd3c7" stroke="black" points="164.43,-122 161.43,-126 140.43,-126 137.43,-122 23.57,-122 23.57,-86 164.43,-86 164.43,-122"/>
<text text-anchor="middle" x="94" y="-99.8" font-family="Times,serif" font-size="14.00">DesignSystemModule</text>
</g>
<!-- DesignSystemModule&#45;&gt;AppModule -->
<g id="edge60" class="edge">
<title>DesignSystemModule&#45;&gt;AppModule</title>
<path fill="none" stroke="black" d="M94,-122.2C94,-146.36 94,-186 94,-186 94,-186 5429.2,-186 5429.2,-186"/>
<polygon fill="black" stroke="black" points="5429.2,-189.5 5439.2,-186 5429.2,-182.5 5429.2,-189.5"/>
</g>
</g>
</svg>
