<svg width="140" height="17" viewBox="0 0 140 17" fill="none" xmlns="http://www.w3.org/2000/svg">
<mask id="path-1-inside-1_3415_4268" fill="white">
<path d="M0 0.378296H26.4253V15.9926H0V0.378296Z"/>
</mask>
<path d="M26.4253 14.2577H0V17.7275H26.4253V14.2577Z" fill="#DC2626" mask="url(#path-1-inside-1_3415_4268)"/>
<path d="M18.896 12.5227V7.56087L19.5379 9.26109L14.1943 0.378296H17.1784L21.2728 7.19654H19.5552L23.667 0.378296H26.4255L21.082 9.26109L21.7065 7.56087V12.5227H18.896Z" fill="#DC2626"/>
<path d="M0 12.5227V0.378296H2.32479L7.49486 8.94881H6.26307L11.3464 0.378296H13.6538L13.6885 12.5227H11.0514L11.0341 4.42066H11.5199L7.46016 11.2389H6.19367L2.04721 4.42066H2.63708V12.5227H0Z" fill="#DC2626"/>
<path d="M132.698 16.3387C131.437 16.3387 130.228 16.1735 129.071 15.8431C127.915 15.4977 126.984 15.0547 126.278 14.5141L127.517 11.766C128.193 12.2466 128.989 12.6445 129.905 12.9599C130.836 13.2602 131.774 13.4104 132.721 13.4104C133.441 13.4104 134.019 13.3428 134.455 13.2077C134.905 13.0575 135.236 12.8548 135.446 12.5995C135.656 12.3442 135.761 12.0514 135.761 11.721C135.761 11.3005 135.596 10.9701 135.266 10.7299C134.936 10.4746 134.5 10.2719 133.959 10.1217C133.419 9.95651 132.818 9.80634 132.157 9.67119C131.512 9.52102 130.858 9.34082 130.198 9.13058C129.552 8.92035 128.959 8.65005 128.418 8.31968C127.878 7.98931 127.435 7.55382 127.089 7.01321C126.759 6.47261 126.594 5.78184 126.594 4.94089C126.594 4.03988 126.834 3.22147 127.314 2.48564C127.81 1.7348 128.546 1.14164 129.522 0.706151C130.513 0.255648 131.752 0.0303955 133.239 0.0303955C134.23 0.0303955 135.206 0.15053 136.167 0.390798C137.128 0.61605 137.976 0.961437 138.712 1.42696L137.586 4.19756C136.85 3.77709 136.114 3.46925 135.379 3.27403C134.643 3.06379 133.922 2.95867 133.216 2.95867C132.51 2.95867 131.932 3.04127 131.482 3.20645C131.031 3.37164 130.708 3.58938 130.513 3.85968C130.318 4.11497 130.22 4.4153 130.22 4.76069C130.22 5.16615 130.385 5.49652 130.716 5.7518C131.046 5.99207 131.482 6.18729 132.022 6.33746C132.563 6.48763 133.156 6.63779 133.802 6.78796C134.462 6.93813 135.116 7.11082 135.761 7.30604C136.422 7.50126 137.023 7.76405 137.563 8.09443C138.104 8.42479 138.54 8.86028 138.87 9.40089C139.215 9.94149 139.388 10.6248 139.388 11.4507C139.388 12.3367 139.14 13.1476 138.645 13.8834C138.149 14.6192 137.406 15.2124 136.415 15.6629C135.439 16.1134 134.2 16.3387 132.698 16.3387Z" fill="white"/>
<path d="M119.237 16.3387C117.975 16.3387 116.766 16.1735 115.61 15.8431C114.454 15.4977 113.523 15.0547 112.817 14.5141L114.056 11.766C114.732 12.2466 115.527 12.6445 116.443 12.9599C117.375 13.2602 118.313 13.4104 119.259 13.4104C119.98 13.4104 120.558 13.3428 120.994 13.2077C121.444 13.0575 121.774 12.8548 121.985 12.5995C122.195 12.3442 122.3 12.0514 122.3 11.721C122.3 11.3005 122.135 10.9701 121.804 10.7299C121.474 10.4746 121.039 10.2719 120.498 10.1217C119.957 9.95651 119.357 9.80634 118.696 9.67119C118.05 9.52102 117.397 9.34082 116.736 9.13058C116.091 8.92035 115.497 8.65005 114.957 8.31968C114.416 7.98931 113.973 7.55382 113.628 7.01321C113.297 6.47261 113.132 5.78184 113.132 4.94089C113.132 4.03988 113.373 3.22147 113.853 2.48564C114.349 1.7348 115.084 1.14164 116.061 0.706151C117.052 0.255648 118.291 0.0303955 119.777 0.0303955C120.768 0.0303955 121.744 0.15053 122.705 0.390798C123.667 0.61605 124.515 0.961437 125.251 1.42696L124.125 4.19756C123.389 3.77709 122.653 3.46925 121.917 3.27403C121.181 3.06379 120.46 2.95867 119.755 2.95867C119.049 2.95867 118.471 3.04127 118.02 3.20645C117.57 3.37164 117.247 3.58938 117.052 3.85968C116.856 4.11497 116.759 4.4153 116.759 4.76069C116.759 5.16615 116.924 5.49652 117.254 5.7518C117.585 5.99207 118.02 6.18729 118.561 6.33746C119.101 6.48763 119.695 6.63779 120.34 6.78796C121.001 6.93813 121.654 7.11082 122.3 7.30604C122.961 7.50126 123.561 7.76405 124.102 8.09443C124.643 8.42479 125.078 8.86028 125.408 9.40089C125.754 9.94149 125.927 10.6248 125.927 11.4507C125.927 12.3367 125.679 13.1476 125.183 13.8834C124.688 14.6192 123.944 15.2124 122.953 15.6629C121.977 16.1134 120.738 16.3387 119.237 16.3387Z" fill="white"/>
<path d="M103.198 6.65411H110.789V9.49229H103.198V6.65411ZM103.468 13.1414H112.05V16.0697H99.8418V0.302002H111.758V3.23028H103.468V13.1414Z" fill="white"/>
<path d="M82.5537 16.0697V0.302002H85.5721L94.875 11.6547H93.4109V0.302002H97.0149V16.0697H94.019L84.6936 4.71695H86.1577V16.0697H82.5537Z" fill="white"/>
<path d="M76.064 16.0697V0.302002H79.7131V16.0697H76.064Z" fill="white"/>
<path d="M67.782 16.3387C66.5206 16.3387 65.3117 16.1735 64.1554 15.8431C62.9991 15.4977 62.0681 15.0547 61.3623 14.5141L62.6012 11.766C63.2769 12.2466 64.0728 12.6445 64.9889 12.9599C65.9199 13.2602 66.8585 13.4104 67.8045 13.4104C68.5253 13.4104 69.1035 13.3428 69.539 13.2077C69.9895 13.0575 70.3198 12.8548 70.5301 12.5995C70.7403 12.3442 70.8454 12.0514 70.8454 11.721C70.8454 11.3005 70.6802 10.9701 70.3499 10.7299C70.0195 10.4746 69.584 10.2719 69.0434 10.1217C68.5028 9.95651 67.9021 9.80634 67.2414 9.67119C66.5957 9.52102 65.9424 9.34082 65.2817 9.13058C64.636 8.92035 64.0428 8.65005 63.5022 8.31968C62.9616 7.98931 62.5186 7.55382 62.1732 7.01321C61.8428 6.47261 61.6777 5.78184 61.6777 4.94089C61.6777 4.03988 61.9179 3.22147 62.3985 2.48564C62.894 1.7348 63.6298 1.14164 64.6059 0.706151C65.597 0.255648 66.8359 0.0303955 68.3226 0.0303955C69.3137 0.0303955 70.2898 0.15053 71.2509 0.390798C72.212 0.61605 73.0604 0.961437 73.7962 1.42696L72.67 4.19756C71.9341 3.77709 71.1983 3.46925 70.4625 3.27403C69.7267 3.06379 69.0059 2.95867 68.3001 2.95867C67.5943 2.95867 67.0161 3.04127 66.5656 3.20645C66.1151 3.37164 65.7923 3.58938 65.597 3.85968C65.4018 4.11497 65.3042 4.4153 65.3042 4.76069C65.3042 5.16615 65.4694 5.49652 65.7998 5.7518C66.1301 5.99207 66.5656 6.18729 67.1062 6.33746C67.6468 6.48763 68.24 6.63779 68.8857 6.78796C69.5465 6.93813 70.1997 7.11082 70.8454 7.30604C71.5062 7.50126 72.1068 7.76405 72.6474 8.09443C73.188 8.42479 73.6235 8.86028 73.9539 9.40089C74.2993 9.94149 74.472 10.6248 74.472 11.4507C74.472 12.3367 74.2242 13.1476 73.7287 13.8834C73.2331 14.6192 72.4898 15.2124 71.4987 15.6629C70.5226 16.1134 69.2837 16.3387 67.782 16.3387Z" fill="white"/>
<path d="M52.7518 16.34C50.5143 16.34 48.7649 15.7168 47.5034 14.4704C46.242 13.224 45.6113 11.4445 45.6113 9.13189V0.302002H49.2604V8.99674C49.2604 10.4984 49.5683 11.5796 50.1839 12.2404C50.7996 12.9011 51.6631 13.2315 52.7743 13.2315C53.8856 13.2315 54.7491 12.9011 55.3648 12.2404C55.9804 11.5796 56.2883 10.4984 56.2883 8.99674V0.302002H59.8923V9.13189C59.8923 11.4445 59.2616 13.224 58.0002 14.4704C56.7388 15.7168 54.9893 16.34 52.7518 16.34Z" fill="white"/>
<path d="M29.4253 16.0697V0.302002H37.1289C39.1111 0.302002 40.5978 0.677422 41.5889 1.42826C42.595 2.1791 43.0981 3.17021 43.0981 4.40159C43.0981 5.22752 42.8954 5.94832 42.4899 6.56401C42.0845 7.16469 41.5288 7.63021 40.8231 7.96058C40.1173 8.29095 39.3064 8.45613 38.3903 8.45613L38.8183 7.5326C39.8094 7.5326 40.6879 7.69778 41.4538 8.02815C42.2196 8.34351 42.8128 8.81654 43.2333 9.44724C43.6687 10.0779 43.8865 10.8513 43.8865 11.7673C43.8865 13.1189 43.3534 14.1775 42.2872 14.9434C41.221 15.6942 39.6517 16.0697 37.5794 16.0697H29.4253ZM33.0519 13.3216H37.3091C38.2552 13.3216 38.9685 13.1714 39.449 12.8711C39.9446 12.5557 40.1923 12.0602 40.1923 11.3844C40.1923 10.7237 39.9446 10.2356 39.449 9.92027C38.9685 9.5899 38.2552 9.42472 37.3091 9.42472H32.7816V6.76674H36.6784C37.5644 6.76674 38.2402 6.61657 38.7057 6.31624C39.1862 6.00088 39.4265 5.52785 39.4265 4.89715C39.4265 4.28146 39.1862 3.82345 38.7057 3.52311C38.2402 3.20776 37.5644 3.05008 36.6784 3.05008H33.0519V13.3216Z" fill="white"/>
</svg>
