<?xml version="1.0" encoding="utf-8"?>
<!-- Generator: Adobe Illustrator 21.0.2, SVG Export Plug-In . SVG Version: 6.00 Build 0)  -->
<svg version="1.1" id="Calque_1" xmlns="http://www.w3.org/2000/svg" xmlns:xlink="http://www.w3.org/1999/xlink" x="0px" y="0px"
	 viewBox="0 0 305.6 61.6" style="enable-background:new 0 0 305.6 61.6;" xml:space="preserve">
<style type="text/css">
	.st0{fill:#FFFFFF;}
	.st1{fill:#E9041E;}
	.st2{fill:none;}
</style>
<g>
	<g>
		<g>
			<path class="st0" d="M12.5,20.6c0-4.9,3.8-8.4,8.9-8.4c3,0,5.4,1.1,7,3.1l-2.9,2.6c-1-1.2-2.3-1.9-3.8-1.9
				c-2.7,0-4.5,1.9-4.5,4.6c0,2.8,1.9,4.6,4.5,4.6c1.6,0,2.8-0.7,3.8-1.9l2.9,2.6c-1.6,2-4,3.1-7,3.1C16.3,29.1,12.5,25.6,12.5,20.6
				z"/>
			<path class="st0" d="M34.6,13.9c0,0.6-0.1,1.2-0.7,2.7L32.4,20h-2.8l1.1-3.8c-0.8-0.4-1.4-1.2-1.4-2.3c0-1.6,1.1-2.6,2.6-2.6
				C33.5,11.3,34.6,12.4,34.6,13.9z"/>
			<path class="st0" d="M49.8,25.2v3.5h-13V12.5h12.7V16h-8.2v2.7h7.2v3.4h-7.2v3h8.5V25.2z"/>
			<path class="st0" d="M51.1,27.3l1.5-3.4c1.4,0.9,3.5,1.6,5.3,1.6c1.9,0,2.6-0.5,2.6-1.3c0-2.6-9.2-0.7-9.2-6.7
				c0-2.9,2.4-5.3,7.2-5.3c2.1,0,4.3,0.5,5.9,1.4L63,17c-1.6-0.8-3.1-1.3-4.5-1.3c-1.9,0-2.6,0.6-2.6,1.5c0,2.5,9.2,0.6,9.2,6.6
				c0,2.8-2.4,5.2-7.2,5.2C55.2,29.1,52.6,28.3,51.1,27.3z"/>
			<path class="st0" d="M71,16.2h-5v-3.6h14.5v3.6h-5v12.6H71V16.2z"/>
			<path class="st0" d="M104.7,12.5l-6.9,16.2h-4.5l-6.9-16.2h5l4.4,10.6l4.5-10.6H104.7z"/>
			<path class="st0" d="M104.1,20.6c0-4.9,3.8-8.4,9-8.4s9,3.6,9,8.4s-3.8,8.4-9,8.4C107.9,29.1,104.1,25.5,104.1,20.6z M117.4,20.6
				c0-2.8-1.9-4.6-4.4-4.6s-4.4,1.8-4.4,4.6s1.9,4.6,4.4,4.6C115.5,25.3,117.4,23.4,117.4,20.6z"/>
			<path class="st0" d="M124.7,21.5v-9h4.6v8.8c0,2.8,1.2,3.9,3.1,3.9c1.9,0,3.1-1.1,3.1-3.9v-8.8h4.5v9c0,4.8-2.8,7.5-7.6,7.5
				C127.5,29.1,124.7,26.3,124.7,21.5z"/>
			<path class="st0" d="M141.8,27.3l1.5-3.4c1.4,0.9,3.5,1.6,5.3,1.6c1.9,0,2.6-0.5,2.6-1.3c0-2.6-9.2-0.7-9.2-6.7
				c0-2.9,2.4-5.3,7.2-5.3c2.1,0,4.3,0.5,5.9,1.4l-1.4,3.4c-1.6-0.8-3.1-1.3-4.5-1.3c-1.9,0-2.6,0.6-2.6,1.5c0,2.5,9.2,0.6,9.2,6.6
				c0,2.8-2.4,5.2-7.2,5.2C146,29.1,143.3,28.3,141.8,27.3z"/>
			<path class="st0" d="M48.1,32.9h4.6v12.6h7.7v3.6H48.1V32.9z"/>
			<path class="st0" d="M64.8,34.3c0,0.6-0.1,1.2-0.7,2.7l-1.5,3.4h-2.8l1.1-3.8c-0.8-0.4-1.4-1.2-1.4-2.3c0-1.6,1.1-2.6,2.6-2.6
				C63.7,31.7,64.8,32.7,64.8,34.3z"/>
			<path class="st0" d="M76.5,45.9h-6.9L68.3,49h-4.7l7.2-16.2h4.5L82.5,49h-4.8L76.5,45.9z M75.1,42.6L73,37.4l-2.1,5.2
				C70.9,42.6,75.1,42.6,75.1,42.6z"/>
			<path class="st0" d="M97.4,32.9l-6.9,16.2H86l-7-16.2h5l4.4,10.6l4.5-10.6H97.4z"/>
			<path class="st0" d="M112.1,45.5V49H99V32.9h12.7v3.5h-8.2v2.7h7.2v3.4h-7.2v3C103.5,45.5,112.1,45.5,112.1,45.5z"/>
			<path class="st0" d="M129.9,32.9v16.2h-3.8l-7.2-8.6v8.6h-4.5V32.9h3.8l7.2,8.6v-8.6H129.9z"/>
			<path class="st0" d="M133,32.9h4.6v16.2H133V32.9z"/>
			<path class="st0" d="M147.9,44.8h-2.5v4.3h-4.6V32.9h7.4c4.4,0,7.2,2.3,7.2,6c0,2.4-1.2,4.1-3.2,5.1l3.5,5.1h-4.9L147.9,44.8z
				 M147.9,36.5h-2.5v4.7h2.5c1.9,0,2.8-0.9,2.8-2.4C150.7,37.4,149.8,36.5,147.9,36.5z"/>
		</g>
		<g>
			<g>
				<g>
					<rect x="164.5" y="17.5" class="st0" width="26.5" height="26.5"/>
					<g>
						<g>
							<path class="st0" d="M206.9,21.1c-1.3-0.6-2.8-0.9-4.1-0.9c-1.9,0-2.8,0.4-2.8,1.1c0,2.1,8.4,0.4,8.4,4.8
								c0,1.8-1.7,3.2-5.2,3.2c-2,0-3.6-0.4-5.5-1.4l0.8-1.6c1.6,0.9,3.1,1.3,4.7,1.3c2,0,3.1-0.6,3.1-1.5c0-2.3-8.4-0.6-8.4-4.7
								c0-1.8,1.7-3,4.8-3c1.8,0,3.4,0.4,4.9,1.1L206.9,21.1z"/>
							<path class="st0" d="M216.2,20.1c-2.4,0-4.1,1.6-4.1,3.8s1.6,3.8,4.1,3.8s4.1-1.6,4.1-3.8S218.7,20.1,216.2,20.1 M216.2,29.4
								c-3.3,0-6.1-2.2-6.1-5.5s2.8-5.6,6.1-5.6c3.4,0,6.1,2.3,6.1,5.6S219.6,29.4,216.2,29.4"/>
							<path class="st0" d="M230.3,29.4c-3.5,0-6.2-2.2-6.2-5.6c0-3.3,2.7-5.5,6.2-5.5c2.1,0,3.5,0.6,4.9,1.6l-1,1.5
								c-1-0.7-2.2-1.3-3.8-1.3c-2.6,0-4.2,1.6-4.2,3.7c0,2.2,1.6,3.7,4.2,3.7c1.6,0,2.9-0.5,3.8-1.3l1,1.5
								C233.9,28.8,232.3,29.4,230.3,29.4"/>
							<rect x="237.3" y="18.6" class="st0" width="1.9" height="10.5"/>
							<polygon class="st0" points="242.2,18.6 242.2,29.1 252.1,29.1 252.1,27.4 244.1,27.4 244.1,24.6 250,24.6 250,22.9 
								244.1,22.9 244.1,20.3 251.7,20.3 251.7,18.6 							"/>
							<polygon class="st0" points="253.1,18.6 253.1,20.3 257.4,20.3 257.4,29.1 259.3,29.1 259.3,20.3 263.6,20.3 263.6,18.6 
															"/>
							<polygon class="st0" points="265.1,18.6 265.1,29.1 275,29.1 275,27.4 267.1,27.4 267.1,24.6 273,24.6 273,22.9 267.1,22.9 
								267.1,20.3 274.7,20.3 274.7,18.6 							"/>
							<path class="st0" d="M203.7,41.5c1.1,0,2.2-0.2,3-0.6v-3h1.9V42c-1.3,0.9-3.2,1.4-5,1.4c-3.5,0-6.1-2.2-6.1-5.5
								s2.7-5.5,6.1-5.5c2,0,3.6,0.6,4.9,1.5l-1,1.5c-1-0.7-2.2-1.2-3.8-1.2c-2.6-0.1-4.1,1.6-4.1,3.7
								C199.6,40,201.2,41.5,203.7,41.5"/>
							<polygon class="st0" points="211.2,32.6 211.2,43 221.1,43 221.1,41.3 213.1,41.3 213.1,38.6 219,38.6 219,36.8 213.1,36.8 
								213.1,34.3 220.7,34.3 220.7,32.6 							"/>
							<path class="st0" d="M224.9,43.1H223V32.6h2l6.8,7.9l0,0c-0.1-2-0.1-3.6-0.1-5.1v-2.7h1.9v10.5h-2l-6.8-7.9l0,0
								c0.1,1.6,0.1,4.3,0.1,5.1V43.1z"/>
							<polygon class="st0" points="236.3,32.6 236.3,43 246.2,43 246.2,41.3 238.3,41.3 238.3,38.6 244.2,38.6 244.2,36.8 
								238.3,36.8 238.3,34.3 245.9,34.3 245.9,32.6 							"/>
							<path class="st0" d="M254.8,37.4c1.2,0,1.9-0.6,1.9-1.5c0-1-0.6-1.6-1.7-1.6h-4.8v3.1H254.8z M253.4,39.2h-3.1V43h-1.9V32.6
								h6.7c2.2,0,3.6,1.4,3.6,3.3c0,1.9-1.4,3-3,3.2l3.1,3.9h-2.4L253.4,39.2z"/>
							<path class="st0" d="M265.6,34.6l2,4.3h-4L265.6,34.6z M264.5,32.6L259.4,43h2.1l1.2-2.5h5.7l1.2,2.5h2.1l-5.1-10.5
								L264.5,32.6L264.5,32.6z"/>
							<polygon class="st0" points="273.1,32.6 273.1,43 282.1,43 282.1,41.3 275.1,41.3 275.1,32.6 							"/>
							<polygon class="st0" points="283.4,32.6 283.4,43 293.3,43 293.3,41.3 285.3,41.3 285.3,38.6 291.2,38.6 291.2,36.8 
								285.3,36.8 285.3,34.3 292.9,34.3 292.9,32.6 							"/>
							<rect x="165.2" y="18.3" class="st1" width="25.1" height="12.8"/>
							<rect x="165.2" y="30.8" width="25.1" height="12.5"/>
							<rect x="169.5" y="30" class="st0" width="16.3" height="1.5"/>
						</g>
					</g>
				</g>
			</g>
		</g>
	</g>
	<g>
		<rect x="0" y="0" class="st2" width="305.6" height="61.6"/>
	</g>
</g>
</svg>
