<?xml version="1.0" encoding="UTF-8"?>
<svg id="Layer_2" data-name="Layer 2" xmlns="http://www.w3.org/2000/svg" viewBox="0 0 2712.69 799.69">
  <defs>
    <style>
      .cls-1 {
        fill: #213634;
      }

      .cls-2 {
        fill: #cd3a1c;
      }
    </style>
  </defs>
  <g id="Calque_1" data-name="Calque 1">
    <g>
      <path class="cls-2" d="M2134.75,491.81c-20.1,1.96-39.08,3.37-56.78,4.16-60.39,2.86-100-5.07-112.71-15.86,7.79,4.7-44.02-17.64,51.85-94.52,18-13.53,41.46-28.95,73.13-46.54,39.99-25.16,208.5-106.3,209.95-107.26-9.27-2.74-151.03,50.6-219.58,85.25-5.76,2.82-11.21,5.5-16.21,7.99-22.06,11.14-44.53,23.52-65.57,36.15-70.14,42.15-119.55,90.24-125.21,126.58-2.83,16.46.58,30.6,8.65,42.1,30.43,42.1,118.44,24.75,209.09,2.13,16.27-4.12,32.43-8.42,47.68-12.54,48.55-13.19,85.28-19.69,82.97-23.37-5.77-9.29-58.2-7.11-87.27-4.29"/>
      <path class="cls-2" d="M2541.74,295.55c11.53,38.89,18.82,67.64,15.64,87.5-16.61,103.29-108.25-12.84-108.39-11.37-13.82,120.59-109.06,68.48-109.06,68.48-8.86-4.86-18-4.52-20.26.75.46-.13,24.43,66.28,79.38,63.18,34.78-1.97,50.33-51.74,50.33-51.74,3.4-10.9,10.32-12.38,15.37-3.31l6.28,7.9c21.18,26.54,45.99,40.53,65.68,36.38,36.89-8.66,52.05-66.12,52.05-66.12,2.93-11.09,9.14-14.73,13.75-8.09l4.86,5.55c18.68,21.77,39.87,35.38,53.28,34.04,29.87-3.21,59.88-68.95,50.17-127.31C2674.88,115.64,2369.52,14.15,2268.95.08c-18.03-2.52,281.67,57.21,386.71,297.78,14.84,34.08-3.16,99.77-51.57,56.13,0,0-64.09-64.29-62.35-58.43"/>
      <path class="cls-2" d="M2280.73,459.47c.33,0,34,16.52,65.28-18.57,29.58-35.26,104.33-183.34,51.89-187.62.59,0-39.27-3.77-93.81,58.98-31.68,22.73-179.31,290.94-65.87,319.85,1.13,0,39.04,11.1,79.54-123.33,0,0,5.3-25.36-6.35-5.73-1.84,0-117.94,167.24-44.41-57.09-3.28,0,77.1-185.91,102.27-112.07,1.68,0,9.86,34.73-88.54,125.59"/>
      <path class="cls-2" d="M2340.42,747.68c-208.43-108.22-418.07-417.15-349.24-590.93,33.61-72.13,113.64-87.95,119.42,36.64,0,0-3.65,12.68,5.69,3.65-1.98.15,95.55-175.96-41.5-140.82-90.57,23.21-114.74,139.39-114.11,139.33-56.61,288.27,112.78,441.61,258.2,522.61,150.81,80.54,277.63,88.77,260.58,77.43-1.63-.89-95.25-26.74-139.03-47.92"/>
      <path class="cls-1" d="M35.56,326.65c-8.01,0-14.88-2.88-20.63-8.62-5.75-5.75-8.62-12.69-8.62-20.84v-10.48s26.19,0,26.19,0v5.9c0,3.64.36,5.82,1.09,6.54.73.73,2.91,1.09,6.55,1.09h89.05c3.63,0,5.86-.37,6.66-1.09.8-.73,1.2-2.91,1.2-6.54v-23.58c0-3.64-.4-5.82-1.2-6.54-.8-.73-3.02-1.09-6.66-1.09H35.56c-8.01,0-14.88-2.91-20.63-8.73-5.75-5.82-8.62-12.73-8.62-20.74v-32.96c0-8.15,2.87-15.09,8.62-20.84,5.75-5.75,12.62-8.63,20.63-8.63h98.43c8,0,14.92,2.88,20.73,8.63,5.82,5.75,8.73,12.69,8.73,20.84v10.48s-26.41,0-26.41,0v-5.89c0-3.63-.4-5.81-1.2-6.54-.8-.73-3.02-1.09-6.66-1.09H40.14c-3.64,0-5.82.36-6.55,1.09-.73.73-1.09,2.91-1.09,6.54v23.57c0,3.64.36,5.82,1.09,6.55.73.73,2.91,1.09,6.55,1.09h93.85c8,0,14.92,2.91,20.73,8.73,5.82,5.82,8.73,12.73,8.73,20.74v32.95c0,8.15-2.91,15.1-8.73,20.84-5.82,5.75-12.73,8.62-20.73,8.62H35.56Z"/>
      <polygon class="cls-1" points="369.72 326.65 369.72 169.5 395.91 169.5 395.91 234.77 504.17 234.77 504.17 169.5 530.36 169.5 530.36 326.65 504.17 326.65 504.17 261.39 395.91 261.39 395.91 326.65 369.72 326.65"/>
      <polygon class="cls-1" points="737.7 326.65 737.7 169.5 767.61 169.5 826.53 239.78 885.25 169.5 915.37 169.5 915.37 326.65 888.96 326.65 888.96 206.17 826.53 280.6 763.89 206.39 763.89 326.65 737.7 326.65"/>
      <path class="cls-1" d="M1005.95,326.65v-157.15s121.35,0,121.35,0c8,0,14.92,2.88,20.74,8.63,5.81,5.75,8.73,12.7,8.73,20.84v31.21c0,2.04-.19,3.97-.55,5.79-.37,1.82-.91,3.53-1.64,5.12,2.62,3.64,4.69,7.24,6.22,10.81,1.53,3.57,2.29,7.17,2.29,10.81v34.48c0,8.15-2.88,15.1-8.62,20.84-5.75,5.75-12.69,8.62-20.84,8.62h-127.68ZM1040,233.45h82.5c3.64,0,5.82-.4,6.55-1.2.73-.8,1.09-3.02,1.09-6.66v-22.04c0-3.64-.37-5.82-1.09-6.54-.73-.73-2.91-1.09-6.55-1.09h-82.5c-3.64,0-5.86.36-6.66,1.09-.8.73-1.2,2.91-1.2,6.54v22.04c0,3.64.4,5.86,1.2,6.66.8.8,3.02,1.2,6.66,1.2M1040,300.24h88.83c3.63,0,5.86-.36,6.66-1.09.8-.73,1.2-2.91,1.2-6.55v-25.1c0-3.63-.4-5.82-1.2-6.55-.8-.72-3.02-1.09-6.66-1.09h-88.83c-3.64,0-5.86.37-6.66,1.09-.8.73-1.2,2.92-1.2,6.55v25.1c0,3.64.4,5.82,1.2,6.55.8.73,3.02,1.09,6.66,1.09"/>
      <polygon class="cls-1" points="1369.34 326.65 1369.34 169.5 1399.25 169.5 1500.08 289.55 1500.08 169.5 1526.5 169.5 1526.5 326.65 1496.6 326.65 1395.54 206.39 1395.54 326.65 1369.34 326.65"/>
      <polygon class="cls-1" points="1551.16 326.65 1551.16 169.5 1577.58 169.5 1577.58 234.76 1617.74 234.76 1672.52 169.5 1701.98 169.5 1701.98 175.83 1641.31 248.08 1701.98 320.32 1701.98 326.65 1672.52 326.65 1617.74 261.39 1577.58 261.39 1577.58 326.65 1551.16 326.65"/>
      <path class="cls-1" d="M198.33,545.41v25.83s-14.38,0-14.38,0c-10.33,0-19.54-5.16-26.51-12.57-6.51,7.41-16.17,12.57-30.55,12.57H48.52c-27.63,0-48.52-20.88-48.52-48.51v-33.91s25.83,0,25.83,0v33.91c0,13.47,9.2,22.68,22.68,22.68h78.61c13.26,0,17.3-8.31,17.3-18.42v-112.08s25.82,0,25.82,0v112.08c0,10.11,4.05,18.42,17.3,18.42h10.78ZM105.79,488.82h-44.92s0-13.26,0-13.26h7.87c-3.14-3.37-5.39-7.86-5.39-13.7,0-11.68,7.41-19.76,19.99-19.76,12.13,0,20.21,7.64,21.34,22.24h-12.14c-.89-5.84-4.26-8.99-8.97-8.99-4.72,0-7.64,2.47-7.64,7.87,0,3.59,1.8,8.98,7.86,12.35h22.01s0,13.26,0,13.26Z"/>
      <rect class="cls-1" x="194.91" y="545.42" width="47.17" height="25.82"/>
      <rect class="cls-1" x="237.58" y="545.42" width="47.17" height="25.82"/>
      <rect class="cls-1" x="280.24" y="545.42" width="47.17" height="25.82"/>
      <rect class="cls-1" x="322.91" y="545.42" width="47.17" height="25.82"/>
      <rect class="cls-1" x="365.58" y="545.42" width="47.17" height="25.82"/>
      <path class="cls-1" d="M484.62,545.42v25.82s-10.78,0-10.78,0c-10.33,0-19.77-5.16-26.5-12.57-6.52,7.4-16.18,12.57-30.33,12.57h-7.41s-11.23-4.04-11.23-4.04v-17.52s11.23-4.26,11.23-4.26h7.64c13.48,0,17.07-8.31,17.07-18.42v-61.99s25.83,0,25.83,0v61.99c0,10.11,4.04,18.42,17.3,18.42h7.19ZM429.14,432.44c0-8.31,7.19-15.49,15.72-15.49,8.53,0,15.49,7.19,15.49,15.49,0,8.53-6.96,15.72-15.49,15.72-8.53,0-15.72-7.19-15.72-15.72"/>
      <rect class="cls-1" x="480.11" y="545.42" width="47.17" height="25.82"/>
      <rect class="cls-1" x="522.77" y="545.42" width="47.17" height="25.82"/>
      <rect class="cls-1" x="565.44" y="545.42" width="47.17" height="25.82"/>
      <rect class="cls-1" x="608.11" y="545.42" width="47.17" height="25.82"/>
      <rect class="cls-1" x="650.77" y="545.42" width="47.17" height="25.82"/>
      <path class="cls-1" d="M692.09,545.42h21.56c4.49,0,9.44-3.14,9.44-10.11v-70.52s25.82,0,25.82,0v79.51c0,15.26-11.68,26.94-26.73,26.94h-30.1s0-25.82,0-25.82Z"/>
      <path class="cls-1" d="M872.65,561.58c-9.88,1.13-15.5,7.87-15.5,17.3v50.35s-26.5,0-26.5,0v-50.35c0-21.56,13.92-38.41,33.46-42.67l.23-29.65c0-28.75,21.56-50.76,50.99-50.76,28.75,0,50.76,21.79,50.76,50.76v18.2c0,37.06-22.46,52.77-49.64,52.77-15.49,0-33.24-4.93-43.8-15.95M939.58,526.55v-19.99c0-14.14-9.88-24.25-24.25-24.25-14.6,0-24.26,10.11-24.26,24.25v35.72c5.39,6.07,12.13,8.53,24.26,8.53,14.38,0,24.25-9.65,24.25-24.25"/>
      <path class="cls-1" d="M1023.33,414.92v120.39c0,6.97,4.94,10.11,9.44,10.11h12.13s0,25.83,0,25.83h-20.44c-15.05,0-26.95-11.68-26.95-26.95v-129.37s25.83,0,25.83,0Z"/>
      <rect class="cls-1" x="1040.83" y="545.42" width="47.17" height="25.82"/>
      <rect class="cls-1" x="1083.5" y="545.42" width="47.17" height="25.82"/>
      <rect class="cls-1" x="1126.16" y="545.42" width="47.17" height="25.82"/>
      <rect class="cls-1" x="1168.83" y="545.42" width="47.17" height="25.82"/>
      <path class="cls-1" d="M1197.12,549.46l11.23-4.05v25.82s-11.23-4.04-11.23-4.04v-17.74ZM1367.6,545.42v25.82s-28.07,0-28.07,0v6.52c0,30.1-14.83,51.43-49.2,51.43-32.34,0-49.41-24.04-49.41-55.48v-2.47s-32.34,0-32.34,0v-25.82s32.34,0,32.34,0v-34.37c0-31.44,21.56-54.57,51.21-54.57,30.77,0,51.45,23.58,51.45,59.29,0,11.01-2.93,21.11-8.09,29.65h32.11ZM1264.74,545.42h23.36c18.64,0,31.9-11.01,31.9-29.65,0-22.9-11.01-35.26-27.64-35.26-15.95,0-27.62,13.93-27.62,33.03v31.89ZM1315.72,573.71v-9.21c-8.08,4.27-17.29,6.74-27.62,6.74h-23.36s0,2.47,0,2.47c0,18.64,7.85,31.67,25.6,31.67,16.62,0,25.38-13.03,25.38-31.67"/>
      <rect class="cls-1" x="1357.02" y="545.42" width="47.17" height="25.82"/>
      <rect class="cls-1" x="1399.68" y="545.42" width="47.17" height="25.82"/>
      <rect class="cls-1" x="1442.35" y="545.42" width="47.17" height="25.82"/>
      <rect class="cls-1" x="1485.01" y="545.42" width="47.17" height="25.82"/>
      <path class="cls-1" d="M1518.25,567.2v-17.74s11.23-4.05,11.23-4.05v25.83s-11.23-4.05-11.23-4.05ZM1701.98,458.49v70.3c0,23.35-19.09,42.44-42.45,42.44-13.71,0-24.04-4.5-30.99-11.9-8.09,8.31-19.54,12.35-31,12.35-11.67,0-21.56-4.27-29.19-12.14-6.97,7.19-17.08,11.68-28.53,11.68h-10.11s0-25.83,0-25.83h10.78c8.76,0,15.28-6.28,15.28-15.27v-48.74s25.6,0,25.6,0v48.74c0,9.88,5.84,15.73,16.85,15.73,10.33.22,17.52-5.85,17.52-15.73v-48.74s25.83,0,25.83,0v48.74c0,9.44,6.51,15.27,17.97,15.27,9.21,0,16.39-7.42,16.39-16.61v-70.3s26.06,0,26.06,0Z"/>
      <path class="cls-1" d="M710.74,605.45c0-8.31,7.19-15.49,15.72-15.49,8.31,0,15.49,7.19,15.49,15.49,0,8.76-7.18,15.72-15.49,15.72-8.53,0-15.72-6.96-15.72-15.72"/>
      <path class="cls-1" d="M646.93,169.35h-25.56c-6.02,0-11.39,3.79-13.41,9.47l-52.49,147.81h26.22s13.71-38.57,13.71-38.57h77.46s13.65,38.63,13.65,38.63l26.31-.07c-.1-.46-40.44-113.95-52.49-147.84-2.02-5.67-7.38-9.44-13.4-9.44M641.3,198.76l22.12,62.57h-58.51s22.27-62.57,22.27-62.57h14.12Z"/>
      <path class="cls-1" d="M1278.78,169.35h-25.56c-6.02,0-11.39,3.79-13.41,9.47l-52.49,147.81h26.22s13.71-38.57,13.71-38.57h77.46s13.65,38.63,13.65,38.63l26.31-.07c-.1-.46-40.44-113.95-52.49-147.84-2.02-5.67-7.38-9.44-13.4-9.44M1273.15,198.76l22.12,62.57h-58.51s22.27-62.57,22.27-62.57h14.12Z"/>
      <path class="cls-1" d="M278.93,169.35h-25.56c-6.02,0-11.39,3.79-13.41,9.47l-52.49,147.81h26.22s13.71-38.57,13.71-38.57h77.46s13.65,38.63,13.65,38.63l26.31-.07c-.1-.46-40.44-113.95-52.49-147.84-2.02-5.67-7.38-9.44-13.4-9.44M273.29,198.76l22.12,62.57h-58.51s22.27-62.57,22.27-62.57h14.12Z"/>
    </g>
  </g>
</svg>