<?xml version="1.0" encoding="utf-8"?>
<!-- Generator: Adobe Illustrator 24.2.1, SVG Export Plug-In . SVG Version: 6.00 Build 0)  -->
<svg version="1.1" id="Calque_1" xmlns="http://www.w3.org/2000/svg" xmlns:xlink="http://www.w3.org/1999/xlink" x="0px" y="0px"
	 viewBox="0 0 119 20" style="enable-background:new 0 0 119 20;" xml:space="preserve">
<style type="text/css">
	.st0{fill:#FFFFFF;}
</style>
<g>
	<path class="st0" d="M38.1,7.8c0.5-0.2,0.9-0.6,1.2-1.1c0.3-0.5,0.5-1.1,0.5-1.8c0.1-1.1-0.4-2.1-1.3-2.8c-1-0.7-2.2-1-3.3-1H28
		v3.4c0.6-0.3,1.3-0.5,1.9-0.7c0.5-0.2,1.1-0.2,1.6-0.1c0.3,0.1,0.5,0.2,0.7,0.5h2.4c0.4,0,0.8,0.1,1.1,0.3c0.3,0.2,0.4,0.6,0.4,1
		c0,0.4-0.1,0.7-0.4,0.9c-0.3,0.2-0.7,0.4-1.1,0.3h-2.8V6.6c0,0-0.1,0.1-0.1,0.1c0,0,0,0-0.1,0c0,0,0,0,0-0.1c0,0,0,0,0,0
		c0,0,0,0,0,0.1c0,0,0.1,0,0.1,0c0,0,0.1-0.1,0.1-0.1V6.1c0,0,0,0,0,0V4.7V4.3h0.4c-0.2-0.2-0.4-0.4-0.7-0.5
		c-0.5-0.1-1.1-0.1-1.6,0.1c-0.7,0.2-1.3,0.4-1.9,0.7v0c-0.7,0.3-1.5,0.7-2.2,1.1l0,0c-2.2,1.2-0.6,0.7-2.7,2
		c-0.7,0.5-1.4,0.9-2.1,1.4c0.4-1,0.8-1.9,1.2-2.9c0.2-0.5,0.4-0.9,0.5-1.4c0.1-0.3,0-0.6-0.3-0.7c-0.3-0.1-0.6,0-0.7,0.3
		c0,0,0,0,0,0l0,0.1l-0.1,0.1c-0.3,0.6-0.7,1.1-1.1,1.6C19.8,7,19,7.4,18.1,7.5c-0.1,0-0.2,0-0.3-0.1c0,0,0,0,0,0c0,0,0-0.1,0-0.1
		c0.1-0.9,0.5-1.8,1-2.5c0.1-0.3,0-0.6-0.2-0.7c-0.2-0.1-0.5,0-0.6,0.2C17.5,4.9,17.2,5.4,17,6c-0.1,0.3-0.2,0.7-0.3,1
		c-0.1,0.7,0.3,1.4,1,1.5c0.1,0,0.3,0,0.4,0c0.8,0,1.6-0.3,2.2-0.7c-0.3,0.8-0.7,1.7-1.1,2.6c-1.6,1.1-3.1,2.3-4.5,3.6
		c-0.6,0.5-1.1,1.1-1.6,1.7c-0.4,0.6-1,1.5-0.4,2.2c0.5,0.3,1.1,0.5,1.7,0.4c0.2,0,0.3,0,0.5-0.1c2.1-0.6,4.2-4.9,5.3-7.2
		c1.5-1.1,3.1-2.1,4.7-3.1c0.6-0.3,1.8-1.3,3.2-2.1v0c0.6-0.4,1.1-0.7,1.7-0.9C29.2,5,28.6,5.3,28,5.6V16h7.6
		c1.4,0.1,2.7-0.3,3.8-1.2c0.9-0.7,1.5-1.9,1.5-3.1c0-1-0.3-1.9-0.9-2.6C39.6,8.5,38.9,8,38.1,7.8z M14.9,17L14.9,17
		c-0.2,0.1-0.3,0.1-0.5,0.1c-0.3,0-0.5,0-0.8,0c0,0,0,0,0,0c0.1-0.3,0.2-0.5,0.4-0.8c0.4-0.6,0.9-1.1,1.4-1.6
		c0.9-0.8,1.9-1.6,2.8-2.4C17.2,14.4,16,16.3,14.9,17z M36.2,12.4L36.2,12.4c-0.4,0.3-0.9,0.4-1.4,0.4h-3.1V9.7h3.1
		c0.5,0,1,0.1,1.4,0.4c0.3,0.3,0.5,0.7,0.5,1.2C36.8,11.7,36.6,12.1,36.2,12.4z"/>
	<path class="st0" d="M49.8,12c-0.4,0.6-1.1,1-1.8,1c-0.4,0-0.8-0.1-1.1-0.4c-0.3-0.4-0.5-0.9-0.4-1.3V5.3h-3.7v6.6
		c-0.1,1.2,0.3,2.3,1,3.2c0.7,0.8,1.7,1.2,2.8,1.2c1.2,0,2.4-0.5,3.3-1.5V16h3.7V5.3h-3.7L49.8,12z"/>
	<path class="st0" d="M61.9,9.4L61.9,9.4c-0.1,0-0.3-0.1-0.6-0.1l-0.7-0.2L60,8.9c-0.3-0.1-0.5-0.3-0.5-0.5c0-0.4,0.4-0.6,1.2-0.6
		c1.4,0,2.7,0.4,3.9,1.2V6C63.4,5.3,62,5,60.6,5c-1.3-0.1-2.5,0.2-3.6,0.9c-0.8,0.6-1.3,1.5-1.3,2.5c-0.1,0.8,0.2,1.6,0.7,2.1
		c0.8,0.6,1.7,1,2.6,1.2c0.9,0.2,1.4,0.4,1.5,0.4l0.5,0.2c0.3,0.1,0.5,0.3,0.5,0.5c0,0.4-0.4,0.5-1.3,0.5c-0.9,0-1.7-0.1-2.5-0.3
		c-0.7-0.2-1.3-0.4-1.9-0.8v3.1c1.4,0.7,3,1,4.5,1c1.3,0.1,2.5-0.3,3.6-1c0.8-0.6,1.3-1.5,1.3-2.5c0-0.8-0.2-1.6-0.8-2.2
		C63.7,10,62.8,9.6,61.9,9.4z"/>
	<rect x="67.2" y="5.3" class="st0" width="3.7" height="10.7"/>
	<path class="st0" d="M69.1,0c-0.6,0-1.1,0.2-1.5,0.6c-0.4,0.4-0.6,1-0.6,1.5c0,0.6,0.2,1.1,0.6,1.5c0.4,0.4,0.9,0.6,1.5,0.6
		c0.6,0,1.1-0.2,1.5-0.6c0.4-0.4,0.6-1,0.6-1.5c0-0.6-0.2-1.1-0.6-1.5C70.2,0.2,69.6,0,69.1,0z"/>
	<path class="st0" d="M80.6,5L80.6,5c-1.2,0-2.4,0.5-3.3,1.5V5.3h-3.7V16h3.7V9.3c0.4-0.6,1.1-1,1.8-1c0.4,0,0.8,0.1,1.1,0.4
		c0.3,0.4,0.5,0.9,0.4,1.3V16h3.7V9.4c0.1-1.2-0.3-2.3-1-3.2C82.7,5.4,81.7,5,80.6,5z"/>
	<path class="st0" d="M91.9,5L91.9,5c-1.5-0.1-3,0.5-4.1,1.6c-1,1.1-1.6,2.5-1.6,4c-0.1,1.6,0.6,3.1,1.7,4.1c1.2,1,2.7,1.6,4.2,1.5
		c1.5,0.1,3-0.3,4.3-1.1v-2.9c-1,0.6-2.2,0.9-3.4,0.9c-0.7,0-1.4-0.1-2.1-0.4c-0.5-0.2-0.9-0.7-1.1-1.2H97v-0.9
		c0.1-1.5-0.5-2.9-1.5-4C94.6,5.5,93.3,5,91.9,5z M89.8,9.6c0-0.5,0.3-1,0.6-1.3c0.3-0.3,0.8-0.5,1.2-0.5c0.4,0,0.9,0.2,1.2,0.5
		c0.3,0.4,0.5,0.8,0.5,1.3H89.8z"/>
	<path class="st0" d="M104.8,9.4L104.8,9.4c-0.1,0-0.3-0.1-0.6-0.1l-0.7-0.2l-0.5-0.1c-0.3-0.1-0.5-0.3-0.5-0.5
		c0-0.4,0.4-0.6,1.2-0.6c1.4,0,2.7,0.4,3.9,1.2V6c-1.2-0.7-2.6-1.1-4.1-1c-1.3-0.1-2.5,0.2-3.6,0.9c-0.8,0.6-1.3,1.5-1.3,2.5
		c-0.1,0.8,0.2,1.6,0.7,2.1c0.8,0.6,1.7,1,2.6,1.2c0.9,0.2,1.4,0.4,1.5,0.4l0.5,0.2c0.3,0.1,0.5,0.3,0.5,0.5c0,0.4-0.4,0.5-1.3,0.5
		c-0.9,0-1.7-0.1-2.5-0.3c-0.7-0.2-1.3-0.4-1.9-0.8v3.1c1.4,0.7,3,1,4.5,1c1.3,0.1,2.5-0.3,3.6-1c0.8-0.6,1.3-1.5,1.3-2.5
		c0-0.8-0.2-1.6-0.8-2.2C106.6,10,105.7,9.6,104.8,9.4z"/>
	<path class="st0" d="M118.2,10.6L118.2,10.6c-0.7-0.6-1.6-1-2.5-1.2c-0.1,0-0.3-0.1-0.7-0.1l-0.7-0.2l-0.5-0.1
		c-0.3-0.1-0.5-0.3-0.5-0.5c0-0.4,0.4-0.5,1.2-0.5c1.4,0,2.7,0.4,3.9,1.2V6c-1.2-0.7-2.6-1.1-4.1-1c-1.3-0.1-2.5,0.2-3.6,0.9
		c-0.8,0.6-1.3,1.5-1.3,2.5c-0.1,0.8,0.2,1.6,0.7,2.1c0.8,0.6,1.7,1,2.6,1.2c0.9,0.2,1.4,0.4,1.5,0.4l0.5,0.2
		c0.3,0.1,0.5,0.3,0.5,0.5c0,0.4-0.4,0.5-1.3,0.5c-0.9,0-1.7-0.1-2.5-0.3c-0.7-0.2-1.3-0.4-1.9-0.8v3.1c1.4,0.7,3,1,4.5,1
		c1.3,0.1,2.5-0.3,3.6-1c0.8-0.6,1.3-1.5,1.3-2.5C119.1,12,118.8,11.2,118.2,10.6z"/>
	<path class="st0" d="M12.9,10.9L12.9,10.9c1.4-2.7,2.9-5.3,4.2-8c0.2-0.3,0.3-0.7,0.4-1.1c0-0.1,0-0.2,0-0.3c0-0.4-0.2-0.7-0.5-0.8
		c-0.4,0-0.8,0.1-1,0.4c-0.6,0.4-1.1,0.9-1.6,1.4C12.5,4.5,10.7,6.5,9,8.5c0.3-1,0.6-1.9,0.9-2.9C9.9,5.4,10,5.1,10,4.8
		c0.1-0.2,0.1-0.4,0.1-0.7c0-0.5-0.4-0.9-0.8-0.9C8.7,3.4,8.1,3.6,7.7,4C7,4.6,6.4,5.1,5.7,5.7c-2,1.9-3.9,4-5.6,6.1
		C-0.1,12,0,12.4,0.2,12.6c0.2,0.2,0.6,0.1,0.7-0.1c0.7-0.8,1.4-1.7,2.1-2.5c1.4-1.6,3-3.2,4.6-4.6c0.2-0.2,0.4-0.3,0.6-0.5
		C8.5,4.8,8.7,4.6,9,4.5C8.9,4.8,8.8,5.1,8.8,5.4C8.4,6.7,8,8,7.6,9.3C7.5,9.6,7.4,10,7.3,10.4c0,0.2,0,0.4,0.1,0.6
		c0.2,0.3,0.5,0.3,0.8,0.2c0,0,0,0,0.1,0c1.5-1.8,3.1-3.5,4.7-5.3c1-1,2-2.1,3-3.1c-0.7,1.6-1.5,3.2-2.3,4.9c-1,2-1.9,4-2.8,6
		c-0.7,1.5-1.2,3.1-1.6,4.7c-0.2,0.6-0.1,1.1,0.1,1.7c0,0,0.1,0.1,0.1,0c0,0,0.1-0.1,0-0.1c-0.3-0.6,0.1-1.7,0.3-2.3
		C10.7,15.3,11.8,13.1,12.9,10.9z"/>
</g>
</svg>
