<svg width="40" height="40" viewBox="0 0 40 40" fill="none" xmlns="http://www.w3.org/2000/svg">
<path opacity="0.4" d="M20.0002 36.6668C29.2052 36.6668 36.6668 29.2052 36.6668 20.0002C36.6668 10.7952 29.2052 3.3335 20.0002 3.3335C10.7952 3.3335 3.3335 10.7952 3.3335 20.0002C3.3335 29.2052 10.7952 36.6668 20.0002 36.6668Z" fill="#1E65EB"/>
<path d="M20.0002 22.9168C20.6835 22.9168 21.2502 22.3502 21.2502 21.6668V13.3335C21.2502 12.6502 20.6835 12.0835 20.0002 12.0835C19.3168 12.0835 18.7502 12.6502 18.7502 13.3335V21.6668C18.7502 22.3502 19.3168 22.9168 20.0002 22.9168ZM21.5335 26.0318C21.4502 25.8318 21.3335 25.6485 21.1835 25.4818C21.0168 25.3318 20.8335 25.2152 20.6335 25.1318C20.2277 24.9651 19.7726 24.9651 19.3668 25.1318C19.1668 25.2152 18.9835 25.3318 18.8168 25.4818C18.6668 25.6485 18.5502 25.8318 18.4668 26.0318C18.3835 26.2318 18.3335 26.4485 18.3335 26.6652C18.3335 26.8818 18.3835 27.0985 18.4668 27.2985C18.5502 27.5152 18.6668 27.6818 18.8168 27.8485C18.9835 27.9985 19.1668 28.1152 19.3668 28.1985C19.5668 28.2818 19.7835 28.3318 20.0002 28.3318C20.2168 28.3318 20.4335 28.2818 20.6335 28.1985C20.8335 28.1152 21.0168 27.9985 21.1835 27.8485C21.3335 27.6818 21.4502 27.5152 21.5335 27.2985C21.6168 27.0985 21.6668 26.8818 21.6668 26.6652C21.6668 26.4485 21.6168 26.2318 21.5335 26.0318Z" fill="#1E65EB"/>
<path d="M37.1669 38.332C36.8669 38.332 36.5669 38.2153 36.3503 37.9986L33.2503 34.8986C33.0339 34.6786 32.9126 34.3823 32.9126 34.0736C32.9126 33.765 33.0339 33.4687 33.2503 33.2486C33.7003 32.7986 34.4336 32.7986 34.9003 33.2486L38.0003 36.3486C38.4503 36.7986 38.4503 37.532 38.0003 37.9986C37.7669 38.2153 37.4669 38.332 37.1669 38.332Z" fill="#1E65EB"/>
</svg>