<?xml version="1.0" encoding="UTF-8"?>
<svg id="Calque_1" data-name="Calque 1" xmlns="http://www.w3.org/2000/svg" viewBox="0 0 264.96 47.88">
  <defs>
    <style>
      .cls-1, .cls-2, .cls-3, .cls-4 {
        stroke-width: 0px;
      }

      .cls-2 {
        fill: #231f20;
      }

      .cls-3 {
        fill: #fff;
      }

      .cls-4 {
        fill: #ec1c24;
      }
    </style>
  </defs>
  <g id="logo_sgma_noir" data-name="logo sgma noir">
    <g>
      <rect class="cls-3" width="47.88" height="47.88"/>
      <g>
        <path class="cls-1" d="m230,11.14c.1.1.27.1.37,0,0,0,0,0,0,0l.89-.88s.07-.11.07-.17c0-.07-.03-.13-.08-.18l-.89-.87s-.11-.07-.18-.07c-.07,0-.13.03-.18.07l-.88.87c-.05.05-.08.11-.08.18,0,.07.03.13.07.18l.88.87Z"/>
        <path class="cls-1" d="m231.48,13.08s.11.07.18.07c.07,0,.13-.03.18-.07l.89-.88s.07-.11.07-.17c0-.07-.03-.13-.07-.18l-.89-.87s-.11-.08-.18-.07c-.07,0-.13.03-.18.08l-.89.87s-.07.11-.07.18c0,.07.03.13.07.18l.89.87Z"/>
        <path class="cls-1" d="m228.52,13.08s.11.07.18.07c.07,0,.13-.03.18-.07l.89-.88s.07-.11.07-.17c0-.07-.03-.13-.07-.18l-.89-.87s-.11-.08-.18-.07c-.07,0-.14.03-.18.08l-.88.87c-.05.04-.08.11-.08.18,0,.07.03.13.08.18l.88.87Z"/>
        <path class="cls-1" d="m157.74,7.63s.11.07.18.07c.07,0,.13-.03.18-.07l.89-.87s.07-.11.07-.17c0-.07-.03-.13-.07-.18l-.89-.87s-.11-.07-.18-.07c-.07,0-.13.02-.18.07l-.89.85c-.05.04-.08.11-.07.18,0,.07.02.13.07.18l.89.88Z"/>
        <path class="cls-1" d="m157.78,10.21s.11.07.18.07c.07,0,.13-.03.18-.07l.89-.88s.07-.11.07-.17-.03-.13-.07-.18l-.88-.87c-.05-.05-.11-.08-.18-.08-.07,0-.13.03-.18.08l-.9.89s-.08.11-.08.18c0,.07.03.13.07.18l.89.86Z"/>
        <path class="cls-1" d="m224.34,15.88c.3-.03.56-.19.72-.44.32-.52.6-1.07.85-1.63.07-.21.3-.31.5-.24.11.04.2.13.24.24.25.56.53,1.1.85,1.63.2.4.68.56,1.08.36.15-.08.28-.2.36-.36.32-.52.6-1.07.85-1.63.06-.16.2-.28.37-.3.17.02.31.14.37.3.25.56.53,1.1.85,1.63.16.25.42.42.72.44.3-.03.56-.19.72-.44.32-.52.6-1.07.85-1.63.06-.16.2-.28.37-.3.17.02.31.14.37.3.25.56.53,1.1.84,1.63.16.25.42.42.72.44h19.84c2.17,0,2.34-.65,2.23-3.08-.11-2.43-1.05-7.5.22-8.76,1.27-1.26,1.28-1.07,1.28-.78s.28,10.58.23,12.26c-.05,1.68-.78,3.14-3.15,3.14l-49.52-.02c-1.74,0-2.48.68-3.57,2.69-1.09,2.01-5.12,6.85-15.55,5.57,4.32-.23,11.41-2.78,13.49-5.92s.9-3.92-.14-5.25c-.52-.74-.16-1.11,0-1.46s.3-.68.74-.12c.45.56.8,1.03,1.11,1.39s.35.37,1.3.37l19.87-.03Z"/>
        <path class="cls-1" d="m262.21,12.79c-.11-2.43-1.05-7.5.22-8.77,1.27-1.26,1.28-1.06,1.28-.78s.23,10.58.23,12.26c0,2.06-.04,2.85-.74,3.02-.5.12-.63-.18-.67-1.05-.04-.87-.33-4.68-.33-4.68"/>
        <path class="cls-1" d="m159.46,13.78v-.41c0-.25-.06-.45-.41-.45s-.85.27-1.51.9c-.66.63.63.6,1.11.6s.81-.14.81-.63h0Zm-2.46,2.46c-1.33,0-2.04-.08-2.04-.87,0-2.56,3.29-3.8,3.83-4.02.54-.21.68-.34.68-.74s.35-.71.84-1.38.81-.35.81.51v3.86c0,1.94.69,2.28,2.53,2.28h31.25c1.74,0,1.74-1.33-.13-1.33h-3.95c-2.19,0-3.01-.87-3.01-1.72s.56-1.55,2.72-3.2,6.4-4.91,7.94-6.06c1.54-1.15,1.69-.11,1.69.62s.08,2.97-.55,1.82-1.14-.79-2.31.09c-1.18.88-4.83,3.66-5.75,4.36s-1.21,1.11-1.21,1.52.85.83,2.44.83,6.21-.26,6.21,2.5-2.9,3.33-4.46,3.33h-32.36c-2.06,0-2.7-.11-2.7-1.36,0-1.08-1.06-1.04-2.46-1.04"/>
        <path class="cls-1" d="m147.01,12.79c-.12-2.43-1.05-7.5.22-8.77,1.27-1.26,1.28-1.06,1.28-.78s.23,10.58.23,12.26c0,2.06-.04,2.85-.74,3.02-.5.12-.63-.18-.67-1.05-.04-.87-.33-4.68-.33-4.68"/>
        <path class="cls-1" d="m113.69,18.65c1.92,0,2.6.08,3.43-1.08.83-1.16.92-1.28,1.2-1.28s.37.12,1.2,1.28,1.51,1.08,3.43,1.08h18.51c2.37,0,3.11-1.46,3.15-3.14.04-1.67-.23-12-.23-12.26s0-.48-1.28.78c-1.28,1.26-.34,6.33-.23,8.77.11,2.43-.05,3.08-2.23,3.08h-18.71c-.65,0-2.33.07-2.33-.52s1.07-.71,1.74-.8c.67-.1,1.02-.13,1.02-.63s-1.06-2.72-4.06-2.72-4.06,2.2-4.06,2.69.35.53,1.02.63,1.74.21,1.74.8-1.68.52-2.32.52h-16.84c-2.17,0-2.33-.65-2.23-3.08.1-2.43.74-7.5-.52-8.77-1.26-1.26-1.28-1.06-1.28-.78s-.27,10.58-.23,12.26c.04,1.68.78,3.14,3.16,3.14l16.93.02Zm4.64-6.13c.9,0,1.75.64,1.75.8s-.19.23-.37.33c-.18.1-.59.28-.89.47-.15.11-.31.18-.49.23-.18-.05-.34-.12-.49-.23-.3-.19-.69-.37-.89-.47-.19-.1-.37-.17-.37-.33s.85-.8,1.75-.8"/>
        <path class="cls-1" d="m62.16,7.63s.11.07.17.07c.07,0,.13-.03.19-.07l.89-.87s.07-.11.07-.17c0-.07-.03-.13-.07-.18l-.88-.87s-.12-.07-.18-.07c-.07,0-.13.03-.18.07l-.89.85s-.08.11-.07.18c0,.07.03.13.07.18l.89.88Z"/>
        <path class="cls-1" d="m62.19,10.21s.11.07.17.07c.07,0,.14-.03.19-.07l.89-.88s.07-.11.07-.17c0-.07-.03-.13-.07-.18l-.88-.87s-.11-.08-.18-.08c-.07,0-.13.03-.18.08l-.89.89s-.08.11-.07.18c0,.07.03.13.07.18l.88.86Z"/>
        <path class="cls-1" d="m68.08,15.87c-1.86,0-2.53-.33-2.53-2.28v-3.86c0-.85-.32-1.18-.8-.51s-.84.98-.84,1.38-.15.54-.68.74-3.83,1.45-3.83,4.01c0,.8.71.88,2.03.88,1.4,0,2.46-.03,2.46,1.04,0,1.25.65,1.36,2.71,1.36h8.14v-2.77h-6.66Zm-4.19-1.96c0,.48-.45.52-.93.52s-1.61-.13-.99-.72c.62-.59,1.16-.78,1.52-.78s.4.19.4.45v.54Z"/>
        <path class="cls-1" d="m91.85,16.29c-.01,1.45-1.19,2.61-2.64,2.6-.57,0-1.12-.18-1.58-.52-.8-.57-1.29.26-3.04.26h-10.67v-2.76h11.4c.67,0,1.29-.36,1.63-.94v-.02c.78-1.24,2.41-1.61,3.65-.83.75.48,1.22,1.3,1.23,2.19m-2.64,1.2c.66,0,1.19-.55,1.19-1.21s-.55-1.19-1.21-1.19c-.66,0-1.19.54-1.19,1.2,0,.67.55,1.2,1.21,1.2"/>
        <rect class="cls-4" x="1.82" y="1.82" width="44.5" height="22.24"/>
        <rect class="cls-2" x="1.82" y="24.06" width="44.5" height="22.25"/>
        <rect class="cls-3" x="9.59" y="22.71" width="28.95" height="2.71"/>
        <path class="cls-1" d="m70.83,32.29c-1.59-.77-3.32-1.2-5.08-1.26-2.34,0-3.52.53-3.52,1.49,0,2.76,10.46.54,10.46,6.41,0,2.43-2.15,4.31-6.45,4.31-2.41.03-4.78-.62-6.84-1.88l.95-2.18c1.77,1.1,3.82,1.69,5.91,1.69,2.55,0,3.92-.78,3.92-1.94,0-3.01-10.46-.74-10.46-6.24,0-2.38,2.13-4.02,5.98-4.02,2.13-.02,4.23.51,6.09,1.52l-.96,2.1Z"/>
        <path class="cls-1" d="m80.77,30.94c-3.04,0-5.12,2.2-5.12,5s1.99,5,5.12,5,5.09-2.15,5.09-5-1.97-5-5.09-5m0,12.36c-4.17,0-7.63-2.95-7.63-7.36s3.46-7.37,7.63-7.37,7.61,3.01,7.61,7.37-3.41,7.36-7.61,7.36"/>
        <path class="cls-1" d="m96.94,43.28c-4.39,0-7.69-2.95-7.69-7.36s3.34-7.36,7.69-7.36c2.22-.05,4.39.69,6.12,2.1l-1.3,2.03c-1.32-1.12-3-1.72-4.73-1.7-3.2,0-5.2,2.15-5.2,4.93s2.01,4.95,5.22,4.95c1.75.03,3.45-.56,4.8-1.67l1.3,2.05c-1.77,1.37-3.96,2.09-6.2,2.03"/>
        <rect class="cls-1" x="104.35" y="29" width="2.43" height="13.91"/>
        <polygon class="cls-1" points="108.98 42.92 108.98 29 120.93 29 120.93 31.3 111.42 31.3 111.42 34.67 118.81 34.67 118.81 36.97 111.42 36.97 111.42 40.61 121.34 40.61 121.34 42.92 108.98 42.92"/>
        <polygon class="cls-1" points="129.86 31.29 129.86 42.92 127.43 42.92 127.43 31.29 122.08 31.29 122.08 29 135.2 29 135.2 31.29 129.86 31.29"/>
        <polygon class="cls-1" points="136.19 42.92 136.19 29 148.12 29 148.12 31.3 138.62 31.3 138.62 34.67 146.02 34.67 146.02 36.97 138.62 36.97 138.62 40.61 148.53 40.61 148.53 42.92 136.19 42.92"/>
        <path class="cls-1" d="m162.13,40.85c1.29,0,2.56-.29,3.72-.85v-4.03h2.37v5.41c-1.83,1.24-4,1.91-6.22,1.91-4.38,0-7.69-2.95-7.69-7.36s3.34-7.36,7.69-7.36c2.21-.06,4.37.68,6.09,2.07l-1.28,2.05c-1.33-1.11-3.01-1.7-4.74-1.66-3.2-.08-5.2,2.11-5.2,4.9s2,4.93,5.23,4.93"/>
        <polygon class="cls-1" points="169.71 42.91 169.71 29 181.67 29 181.67 31.3 172.14 31.3 172.14 34.67 179.54 34.67 179.54 36.97 172.14 36.97 172.14 40.61 182.09 40.61 182.09 42.91 169.71 42.91"/>
        <path class="cls-1" d="m185.65,42.91h-2.37v-13.91h2.48l8.55,10.48h.07c-.15-2.63-.16-4.77-.16-6.84v-3.63h2.38v13.91h-2.47l-8.51-10.48h-.04c.08,2.06.08,5.67.08,6.84v3.63Z"/>
        <polygon class="cls-1" points="198.19 42.91 198.19 29 210.13 29 210.13 31.3 200.61 31.3 200.61 34.67 208.01 34.67 208.01 36.97 200.61 36.97 200.61 40.61 210.54 40.61 210.54 42.91 198.19 42.91"/>
        <path class="cls-1" d="m219.72,35.47c1.52,0,2.38-.83,2.38-2.04,0-1.32-.77-2.12-2.12-2.12h-5.99v4.16h5.73Zm-1.81,2.32h-3.92v5.12h-2.44v-13.9h8.43c2.8,0,4.53,1.82,4.53,4.42s-1.7,3.98-3.77,4.29l3.9,5.2h-3.03l-3.71-5.13Z"/>
        <path class="cls-1" d="m230.12,37.27h5.05l-2.53-5.64-2.53,5.64Zm-1.03,2.26l-1.49,3.38h-2.63l6.38-13.91h2.55l6.39,13.91h-2.6l-1.51-3.38h-7.09Z"/>
        <polygon class="cls-1" points="240.65 42.91 240.65 29 243.08 29 243.08 40.61 251.84 40.61 251.84 42.91 240.65 42.91"/>
        <polygon class="cls-1" points="252.61 42.91 252.61 29 264.54 29 264.54 31.3 255.04 31.3 255.04 34.67 262.43 34.67 262.43 36.97 255.04 36.97 255.04 40.61 264.96 40.61 264.96 42.91 252.61 42.91"/>
      </g>
    </g>
  </g>
</svg>