<?xml version="1.0" encoding="UTF-8" standalone="no"?>
<!DOCTYPE svg PUBLIC "-//W3C//DTD SVG 1.1//EN"
 "http://www.w3.org/Graphics/SVG/1.1/DTD/svg11.dtd">
<!-- Generated by graphviz version 2.47.0 (20210316.0004)
 -->
<!-- Title: dependencies Pages: 1 -->
<svg width="792pt" height="290pt"
 viewBox="0.00 0.00 792.00 290.00" xmlns="http://www.w3.org/2000/svg" xmlns:xlink="http://www.w3.org/1999/xlink">
<g id="graph0" class="graph" transform="scale(1 1) rotate(0) translate(4 286)">
<title>dependencies</title>
<polygon fill="white" stroke="transparent" points="-4,4 -4,-286 788,-286 788,4 -4,4"/>
<text text-anchor="start" x="371.01" y="-42.4" font-family="Times-12" font-weight="bold" font-size="14.00">Legend</text>
<polygon fill="#ffffb3" stroke="transparent" points="158,-10 158,-30 178,-30 178,-10 158,-10"/>
<text text-anchor="start" x="181.63" y="-15.4" font-family="Times-12" font-size="14.00"> &#160;Declarations</text>
<polygon fill="#8dd3c7" stroke="transparent" points="271,-10 271,-30 291,-30 291,-10 271,-10"/>
<text text-anchor="start" x="294.73" y="-15.4" font-family="Times-12" font-size="14.00"> &#160;Module</text>
<polygon fill="#80b1d3" stroke="transparent" points="357,-10 357,-30 377,-30 377,-10 357,-10"/>
<text text-anchor="start" x="380.78" y="-15.4" font-family="Times-12" font-size="14.00"> &#160;Bootstrap</text>
<polygon fill="#fdb462" stroke="transparent" points="454,-10 454,-30 474,-30 474,-10 454,-10"/>
<text text-anchor="start" x="477.67" y="-15.4" font-family="Times-12" font-size="14.00"> &#160;Providers</text>
<polygon fill="#fb8072" stroke="transparent" points="550,-10 550,-30 570,-30 570,-10 550,-10"/>
<text text-anchor="start" x="573.73" y="-15.4" font-family="Times-12" font-size="14.00"> &#160;Exports</text>
<g id="clust1" class="cluster">
<title>cluster_AppModule</title>
<polygon fill="none" stroke="black" stroke-dasharray="1,5" points="8,-70 8,-274 470,-274 470,-70 8,-70"/>
</g>
<g id="clust2" class="cluster">
<title>cluster_AppModule_declarations</title>
<polygon fill="none" stroke="black" points="16,-78 16,-130 298,-130 298,-78 16,-78"/>
</g>
<g id="clust5" class="cluster">
<title>cluster_AppModule_imports</title>
<polygon fill="none" stroke="black" points="306,-78 306,-130 462,-130 462,-78 306,-78"/>
</g>
<g id="clust7" class="cluster">
<title>cluster_AppModule_bootstrap</title>
<polygon fill="none" stroke="black" points="175,-214 175,-266 299,-266 299,-214 175,-214"/>
</g>
<g id="clust9" class="cluster">
<title>cluster_DesignSystemModule</title>
<polygon fill="none" stroke="black" stroke-dasharray="1,5" points="478,-138 478,-206 776,-206 776,-138 478,-138"/>
</g>
<g id="clust10" class="cluster">
<title>cluster_DesignSystemModule_declarations</title>
<polygon fill="none" stroke="black" points="632,-146 632,-198 768,-198 768,-146 632,-146"/>
</g>
<g id="clust13" class="cluster">
<title>cluster_DesignSystemModule_exports</title>
<polygon fill="none" stroke="black" points="486,-146 486,-198 624,-198 624,-146 486,-146"/>
</g>
<!-- AppComponent -->
<g id="node1" class="node">
<title>AppComponent</title>
<polygon fill="#ffffb3" stroke="black" points="289.94,-122 184.06,-122 184.06,-86 289.94,-86 289.94,-122"/>
<text text-anchor="middle" x="237" y="-99.8" font-family="Times,serif" font-size="14.00">AppComponent</text>
</g>
<!-- AppModule -->
<g id="node3" class="node">
<title>AppModule</title>
<polygon fill="#8dd3c7" stroke="black" points="278.66,-190 275.66,-194 254.66,-194 251.66,-190 195.34,-190 195.34,-154 278.66,-154 278.66,-190"/>
<text text-anchor="middle" x="237" y="-167.8" font-family="Times,serif" font-size="14.00">AppModule</text>
</g>
<!-- AppComponent&#45;&gt;AppModule -->
<g id="edge1" class="edge">
<title>AppComponent&#45;&gt;AppModule</title>
<path fill="none" stroke="black" d="M237,-122.22C237,-122.22 237,-143.73 237,-143.73"/>
<polygon fill="black" stroke="black" points="233.5,-143.73 237,-153.73 240.5,-143.73 233.5,-143.73"/>
</g>
<!-- DemoPageComponent -->
<g id="node2" class="node">
<title>DemoPageComponent</title>
<polygon fill="#ffffb3" stroke="black" points="166.26,-122 23.74,-122 23.74,-86 166.26,-86 166.26,-122"/>
<text text-anchor="middle" x="95" y="-99.8" font-family="Times,serif" font-size="14.00">DemoPageComponent</text>
</g>
<!-- DemoPageComponent&#45;&gt;AppModule -->
<g id="edge2" class="edge">
<title>DemoPageComponent&#45;&gt;AppModule</title>
<path fill="none" stroke="black" d="M95,-122.22C95,-142.37 95,-172 95,-172 95,-172 185.16,-172 185.16,-172"/>
<polygon fill="black" stroke="black" points="185.16,-175.5 195.16,-172 185.16,-168.5 185.16,-175.5"/>
</g>
<!-- AppComponent  -->
<g id="node5" class="node">
<title>AppComponent </title>
<polygon fill="#80b1d3" stroke="black" points="291.44,-258 182.56,-258 182.56,-222 291.44,-222 291.44,-258"/>
<text text-anchor="middle" x="237" y="-235.8" font-family="Times,serif" font-size="14.00">AppComponent </text>
</g>
<!-- AppModule&#45;&gt;AppComponent  -->
<g id="edge4" class="edge">
<title>AppModule&#45;&gt;AppComponent </title>
<path fill="none" stroke="black" stroke-dasharray="1,5" d="M237,-190.22C237,-190.22 237,-211.73 237,-211.73"/>
<polygon fill="black" stroke="black" points="233.5,-211.73 237,-221.73 240.5,-211.73 233.5,-211.73"/>
</g>
<!-- DesignSystemModule -->
<g id="node4" class="node">
<title>DesignSystemModule</title>
<polygon fill="#8dd3c7" stroke="black" points="454.43,-122 451.43,-126 430.43,-126 427.43,-122 313.57,-122 313.57,-86 454.43,-86 454.43,-122"/>
<text text-anchor="middle" x="384" y="-99.8" font-family="Times,serif" font-size="14.00">DesignSystemModule</text>
</g>
<!-- DesignSystemModule&#45;&gt;AppModule -->
<g id="edge3" class="edge">
<title>DesignSystemModule&#45;&gt;AppModule</title>
<path fill="none" stroke="black" d="M384,-122.22C384,-142.37 384,-172 384,-172 384,-172 288.73,-172 288.73,-172"/>
<polygon fill="black" stroke="black" points="288.73,-168.5 278.73,-172 288.73,-175.5 288.73,-168.5"/>
</g>
<!-- ButtonComponent  -->
<g id="node7" class="node">
<title>ButtonComponent </title>
<polygon fill="#fb8072" stroke="black" points="616.45,-190 493.55,-190 493.55,-154 616.45,-154 616.45,-190"/>
<text text-anchor="middle" x="555" y="-167.8" font-family="Times,serif" font-size="14.00">ButtonComponent </text>
</g>
<!-- DesignSystemModule&#45;&gt;ButtonComponent  -->
<g id="edge6" class="edge">
<title>DesignSystemModule&#45;&gt;ButtonComponent </title>
<path fill="none" stroke="black" stroke-dasharray="5,2" d="M454.54,-110C501.64,-110 555,-110 555,-110 555,-110 555,-143.73 555,-143.73"/>
<polygon fill="black" stroke="black" points="551.5,-143.73 555,-153.73 558.5,-143.73 551.5,-143.73"/>
</g>
<!-- ButtonComponent -->
<g id="node6" class="node">
<title>ButtonComponent</title>
<polygon fill="#ffffb3" stroke="black" points="759.95,-190 640.05,-190 640.05,-154 759.95,-154 759.95,-190"/>
<text text-anchor="middle" x="700" y="-167.8" font-family="Times,serif" font-size="14.00">ButtonComponent</text>
</g>
<!-- ButtonComponent&#45;&gt;DesignSystemModule -->
<g id="edge5" class="edge">
<title>ButtonComponent&#45;&gt;DesignSystemModule</title>
<path fill="none" stroke="black" d="M700,-153.71C700,-131.79 700,-98 700,-98 700,-98 464.52,-98 464.52,-98"/>
<polygon fill="black" stroke="black" points="464.52,-94.5 454.52,-98 464.52,-101.5 464.52,-94.5"/>
</g>
</g>
</svg>
